<?xml version="1.0" encoding="utf-8" standalone="no"?>
<!DOCTYPE svg PUBLIC "-//W3C//DTD SVG 1.1//EN"
  "http://www.w3.org/Graphics/SVG/1.1/DTD/svg11.dtd">
<svg xmlns:xlink="http://www.w3.org/1999/xlink" width="459.311312pt" height="298.302pt" viewBox="0 0 459.311312 298.302" xmlns="http://www.w3.org/2000/svg" version="1.1">
 <metadata>
  <rdf:RDF xmlns:dc="http://purl.org/dc/elements/1.1/" xmlns:cc="http://creativecommons.org/ns#" xmlns:rdf="http://www.w3.org/1999/02/22-rdf-syntax-ns#">
   <cc:Work>
    <dc:type rdf:resource="http://purl.org/dc/dcmitype/StillImage"/>
    <dc:date>2025-04-01T13:39:50.981229</dc:date>
    <dc:format>image/svg+xml</dc:format>
    <dc:creator>
     <cc:Agent>
      <dc:title>Matplotlib v3.8.4, https://matplotlib.org/</dc:title>
     </cc:Agent>
    </dc:creator>
   </cc:Work>
  </rdf:RDF>
 </metadata>
 <defs>
  <style type="text/css">*{stroke-linejoin: round; stroke-linecap: butt}</style>
 </defs>
 <g id="figure_1">
  <g id="patch_1">
   <path d="M 0 298.302 
L 459.311312 298.302 
L 459.311312 0 
L 0 0 
z
" style="fill: #ffffff"/>
  </g>
  <g id="axes_1">
   <g id="patch_2">
    <path d="M 259.4798 158.046 
C 259.4798 141.003016 255.386646 124.206685 247.545765 109.074471 
C 239.704885 93.942257 228.343229 80.91216 214.419625 71.083806 
C 200.496021 61.255452 184.413483 54.913321 167.529238 52.592633 
C 150.644994 50.271946 133.447753 52.039875 117.388815 57.747222 
C 101.329877 63.454568 86.874063 72.936135 75.241319 85.391759 
C 63.608576 97.847384 55.135609 112.916541 50.537465 129.327524 
C 45.939321 145.738507 45.349092 163.016305 48.816587 179.70282 
C 52.284082 196.389334 59.708936 212.00158 70.464556 225.222017 
L 95.235689 205.069212 
C 87.706756 195.814906 82.509358 184.886334 80.082111 173.205774 
C 77.654864 161.525214 78.068025 149.430755 81.286726 137.943067 
C 84.505427 126.455379 90.436503 115.906968 98.579424 107.188031 
C 106.722344 98.469094 116.841414 91.831998 128.08267 87.836855 
C 139.323927 83.841713 151.361996 82.604163 163.180967 84.228643 
C 174.999938 85.853124 186.257715 90.292616 196.004238 97.172464 
C 205.750761 104.052312 213.703919 113.17338 219.192536 123.76593 
C 224.681152 134.358479 227.54636 146.115911 227.54636 158.046 
z
" style="fill: #3f007d; stroke: #ffffff; stroke-linejoin: miter"/>
   </g>
   <g id="patch_3">
    <path d="M 70.464556 225.222017 
C 79.672172 236.539701 91.109146 245.844373 104.063453 252.556756 
C 117.01776 259.26914 131.214874 263.246987 145.770932 264.242651 
L 147.950152 232.383656 
C 137.760912 231.686691 127.822932 228.902198 118.754917 224.203529 
C 109.686902 219.504861 101.68102 212.991591 95.235689 205.069212 
z
" style="fill: #5b3596; stroke: #ffffff; stroke-linejoin: miter"/>
   </g>
   <g id="patch_4">
    <path d="M 145.770932 264.242651 
C 155.456279 264.905149 165.186889 264.239559 174.691817 262.264413 
C 184.196745 260.289268 193.386944 257.023073 202.006516 252.556772 
L 187.315061 224.203541 
C 181.281361 227.329951 174.848222 229.616288 168.194772 230.998889 
C 161.541323 232.381491 154.729895 232.847404 147.950152 232.383656 
z
" style="fill: #796eb2; stroke: #ffffff; stroke-linejoin: miter"/>
   </g>
   <g id="patch_5">
    <path d="M 202.006516 252.556772 
C 206.311294 250.326217 210.458652 247.804154 214.419608 245.008207 
C 218.380564 242.212259 222.145872 239.148955 225.689221 235.839699 
L 203.892954 212.50159 
C 201.41261 214.818069 198.776895 216.962382 196.004225 218.919545 
C 193.231556 220.876708 190.328406 222.642152 187.315061 224.203541 
z
" style="fill: #9e9ac8; stroke: #ffffff; stroke-linejoin: miter"/>
   </g>
   <g id="patch_6">
    <path d="M 225.689221 235.839699 
C 236.352171 225.881202 244.854664 213.835917 250.667367 200.45374 
C 256.480069 187.071563 259.479798 172.636088 259.4798 158.046017 
L 227.54636 158.046012 
C 227.546358 168.259062 225.446548 178.363894 221.377657 187.731418 
C 217.308765 197.098942 211.35702 205.530642 203.892954 212.50159 
z
" style="fill: #c6c7e1; stroke: #ffffff; stroke-linejoin: miter"/>
   </g>
   <g id="patch_7">
    <path d="M 227.54636 158.046 
C 227.54636 144.188778 223.680722 130.602471 216.385835 118.820823 
C 209.090947 107.039175 198.652046 97.52286 186.247569 91.346165 
L 172.013611 119.931808 
C 179.101884 123.461349 185.06697 128.899243 189.235477 135.631613 
C 193.403984 142.363983 195.61292 150.127587 195.61292 158.046 
z
" style="fill: #3f007d; stroke: #ffffff; stroke-linejoin: miter"/>
   </g>
   <g id="patch_8">
    <path d="M 186.247569 91.346165 
C 179.661698 88.066791 172.626291 85.780849 165.370642 84.562841 
C 158.114993 83.344832 150.718791 83.208136 143.42309 84.157205 
L 147.54248 115.823832 
C 151.711452 115.281506 155.937853 115.359619 160.083938 116.055623 
C 164.230024 116.751628 168.250256 118.057881 172.013611 119.931808 
z
" style="fill: #5b3596; stroke: #ffffff; stroke-linejoin: miter"/>
   </g>
   <g id="patch_9">
    <path d="M 143.42309 84.157205 
C 136.127389 85.106275 129.012318 87.130688 122.309767 90.164465 
C 115.607216 93.198242 109.390801 97.208063 103.863123 102.063242 
L 124.936784 126.055852 
C 128.095458 123.281464 131.647695 120.990138 135.477724 119.256551 
C 139.307753 117.522965 143.373508 116.366157 147.54248 115.823832 
z
" style="fill: #796eb2; stroke: #ffffff; stroke-linejoin: miter"/>
   </g>
   <g id="patch_10">
    <path d="M 103.863123 102.063242 
C 98.335444 106.918421 93.557215 112.565633 89.684163 118.820827 
C 85.811111 125.076022 82.885775 131.870497 81.003496 138.982811 
L 111.87414 147.152749 
C 112.949728 143.08857 114.621349 139.206012 116.834522 135.631616 
C 119.047694 132.057219 121.778111 128.83024 124.936784 126.055852 
z
" style="fill: #9e9ac8; stroke: #ffffff; stroke-linejoin: miter"/>
   </g>
   <g id="patch_11">
    <path d="M 81.003496 138.982811 
C 78.292505 149.226466 77.79758 159.931555 79.551842 170.381651 
C 81.306104 180.831746 85.269527 190.78841 91.176863 199.585303 
C 97.084199 208.382196 104.80066 215.818599 113.809832 221.39684 
C 122.819003 226.975081 132.915322 230.567881 143.423104 231.934796 
C 153.930886 233.301711 164.610375 232.411553 174.746858 229.323893 
C 184.883342 226.236233 194.245536 221.021523 202.206885 214.028752 
C 210.168235 207.03598 216.547087 198.424702 220.916543 188.771216 
C 225.285999 179.11773 227.546362 168.6423 227.54636 158.045983 
L 195.61292 158.04599 
C 195.612921 164.101028 194.321285 170.086988 191.824453 175.603266 
C 189.327621 181.119544 185.682563 186.040274 181.13322 190.036144 
C 176.583877 194.032013 171.234052 197.011847 165.441776 198.776224 
C 159.6495 200.540601 153.546935 201.049264 147.542488 200.268169 
C 141.538041 199.487075 135.768716 197.434046 130.620618 194.24648 
C 125.47252 191.058914 121.063114 186.80954 117.687493 181.782744 
C 114.311873 176.755949 112.04706 171.066427 111.044624 165.094943 
C 110.042188 159.12346 110.325003 153.006266 111.87414 147.152749 
z
" style="fill: #c6c7e1; stroke: #ffffff; stroke-linejoin: miter"/>
   </g>
   <g id="patch_12">
    <path d="M 195.61292 158.046 
C 195.61292 157.629287 195.606802 157.212596 195.594569 156.796063 
C 195.582336 156.37953 195.563988 155.963198 195.539533 155.547203 
L 163.661133 157.421301 
C 163.667247 157.5253 163.671834 157.629382 163.674892 157.733516 
C 163.677951 157.837649 163.67948 157.941822 163.67948 158.046 
z
" style="fill: #3f007d; stroke: #ffffff; stroke-linejoin: miter"/>
   </g>
   <g id="patch_13">
    <path d="M 195.539533 155.547203 
C 195.530362 155.391208 195.520332 155.235264 195.509444 155.079379 
C 195.498557 154.923493 195.486811 154.767669 195.474207 154.611913 
L 163.644802 157.187478 
C 163.647953 157.226417 163.650889 157.265373 163.653611 157.304345 
C 163.656333 157.343316 163.65884 157.382302 163.661133 157.421301 
z
" style="fill: #5b3596; stroke: #ffffff; stroke-linejoin: miter"/>
   </g>
   <g id="patch_14">
    <path d="M 195.474207 154.611913 
C 195.444799 154.248479 195.410723 153.885437 195.371989 153.522878 
C 195.333255 153.160319 195.289865 152.798272 195.24183 152.436828 
L 163.586707 156.643707 
C 163.598716 156.734068 163.609564 156.82458 163.619247 156.91522 
C 163.628931 157.005859 163.63745 157.09662 163.644802 157.187478 
z
" style="fill: #796eb2; stroke: #ffffff; stroke-linejoin: miter"/>
   </g>
   <g id="patch_15">
    <path d="M 195.24183 152.436828 
C 195.214381 152.23029 195.185417 152.023957 195.15494 151.817844 
C 195.124463 151.611731 195.092473 151.405845 195.058973 151.200202 
L 163.540993 156.334551 
C 163.549368 156.385961 163.557366 156.437433 163.564985 156.488961 
C 163.572604 156.540489 163.579845 156.592073 163.586707 156.643707 
z
" style="fill: #9e9ac8; stroke: #ffffff; stroke-linejoin: miter"/>
   </g>
   <g id="patch_16">
    <path d="M 195.058973 151.200202 
C 194.183237 145.824364 192.28404 140.666165 189.464611 136.005975 
C 186.645182 131.345785 182.957546 127.269596 178.602143 123.998967 
C 174.24674 120.728338 169.303937 118.32362 164.042398 116.915519 
C 158.780858 115.507418 153.297669 115.121918 147.890866 115.779972 
C 142.484063 116.438025 137.253415 118.12749 132.48323 120.756537 
C 127.713046 123.385584 123.491345 126.9057 120.047597 131.125552 
C 116.603849 135.345404 114.001599 140.187125 112.38229 145.387547 
C 110.762981 150.587969 110.156493 156.051131 110.595793 161.480088 
C 111.035092 166.909044 112.512072 172.203617 114.946452 177.076023 
C 117.380832 181.948429 120.727692 186.308762 124.805116 189.920017 
C 128.88254 193.531272 133.61529 196.326813 138.746119 198.154692 
C 143.876949 199.98257 149.311182 200.809057 154.753445 200.589228 
C 160.195708 200.369399 165.545577 199.107311 170.512265 196.871565 
C 175.478953 194.635818 179.970812 191.467668 183.743689 187.539316 
C 187.516566 183.610964 190.500844 178.994899 192.534313 173.942023 
C 194.567782 168.889147 195.61292 163.492699 195.61292 158.045998 
L 163.67948 158.046 
C 163.67948 159.407675 163.418195 160.756787 162.909828 162.020006 
C 162.401461 163.283225 161.655392 164.437241 160.712172 165.419329 
C 159.768953 166.401417 158.645988 167.193455 157.404316 167.752391 
C 156.162644 168.311328 154.825177 168.62685 153.464611 168.681807 
C 152.104045 168.736764 150.745487 168.530143 149.46278 168.073173 
C 148.180072 167.616203 146.996885 166.917318 145.977529 166.014504 
C 144.958173 165.11169 144.121458 164.021607 143.512863 162.803506 
C 142.904268 161.585404 142.535023 160.261761 142.425198 158.904522 
C 142.315373 157.547283 142.466995 156.181492 142.871822 154.881387 
C 143.27665 153.581281 143.927212 152.370851 144.788149 151.315888 
C 145.649086 150.260925 146.704511 149.380896 147.897058 148.723634 
C 149.089604 148.066373 150.397266 147.644006 151.748967 147.479493 
C 153.100667 147.314979 154.471464 147.411355 155.786849 147.76338 
C 157.102234 148.115405 158.337935 148.716585 159.426786 149.534242 
C 160.515637 150.351899 161.437546 151.370946 162.142403 152.535994 
C 162.84726 153.701041 163.322059 154.990591 163.540993 156.334551 
z
" style="fill: #c6c7e1; stroke: #ffffff; stroke-linejoin: miter"/>
   </g>
   <g id="matplotlib.axis_1"/>
   <g id="matplotlib.axis_2"/>
   <g id="text_1">
    <!-- weak -->
    <g transform="translate(173.713047 161.642496) rotate(-300) scale(0.14 -0.14)">
     <defs>
      <path id="Helvetica-77" d="M 672 3347 
L 1316 709 
L 1969 3347 
L 2600 3347 
L 3256 725 
L 3941 3347 
L 4503 3347 
L 3531 0 
L 2947 0 
L 2266 2591 
L 1606 0 
L 1022 0 
L 56 3347 
L 672 3347 
z
" transform="scale(0.015625)"/>
      <path id="Helvetica-65" d="M 1806 3422 
Q 2163 3422 2497 3255 
Q 2831 3088 3006 2822 
Q 3175 2569 3231 2231 
Q 3281 2000 3281 1494 
L 828 1494 
Q 844 984 1069 676 
Q 1294 369 1766 369 
Q 2206 369 2469 659 
Q 2619 828 2681 1050 
L 3234 1050 
Q 3213 866 3089 639 
Q 2966 413 2813 269 
Q 2556 19 2178 -69 
Q 1975 -119 1719 -119 
Q 1094 -119 659 336 
Q 225 791 225 1609 
Q 225 2416 662 2919 
Q 1100 3422 1806 3422 
z
M 2703 1941 
Q 2669 2306 2544 2525 
Q 2313 2931 1772 2931 
Q 1384 2931 1121 2651 
Q 859 2372 844 1941 
L 2703 1941 
z
M 1753 3428 
L 1753 3428 
z
" transform="scale(0.015625)"/>
      <path id="Helvetica-61" d="M 844 891 
Q 844 647 1022 506 
Q 1200 366 1444 366 
Q 1741 366 2019 503 
Q 2488 731 2488 1250 
L 2488 1703 
Q 2384 1638 2221 1594 
Q 2059 1550 1903 1531 
L 1563 1488 
Q 1256 1447 1103 1359 
Q 844 1213 844 891 
z
M 2206 2028 
Q 2400 2053 2466 2191 
Q 2503 2266 2503 2406 
Q 2503 2694 2298 2823 
Q 2094 2953 1713 2953 
Q 1272 2953 1088 2716 
Q 984 2584 953 2325 
L 428 2325 
Q 444 2944 830 3186 
Q 1216 3428 1725 3428 
Q 2316 3428 2684 3203 
Q 3050 2978 3050 2503 
L 3050 575 
Q 3050 488 3086 434 
Q 3122 381 3238 381 
Q 3275 381 3322 386 
Q 3369 391 3422 400 
L 3422 -16 
Q 3291 -53 3222 -62 
Q 3153 -72 3034 -72 
Q 2744 -72 2613 134 
Q 2544 244 2516 444 
Q 2344 219 2022 53 
Q 1700 -113 1313 -113 
Q 847 -113 551 170 
Q 256 453 256 878 
Q 256 1344 547 1600 
Q 838 1856 1309 1916 
L 2206 2028 
z
M 1741 3428 
L 1741 3428 
z
" transform="scale(0.015625)"/>
      <path id="Helvetica-6b" d="M 400 4591 
L 941 4591 
L 941 1925 
L 2384 3347 
L 3103 3347 
L 1822 2094 
L 3175 0 
L 2456 0 
L 1413 1688 
L 941 1256 
L 941 0 
L 400 0 
L 400 4591 
z
" transform="scale(0.015625)"/>
     </defs>
     <use xlink:href="#Helvetica-77"/>
     <use xlink:href="#Helvetica-65" x="72.216797"/>
     <use xlink:href="#Helvetica-61" x="127.832031"/>
     <use xlink:href="#Helvetica-6b" x="183.447266"/>
    </g>
   </g>
   <g id="text_2">
    <!-- medium -->
    <g transform="translate(201.369378 159.556565) rotate(-300) scale(0.14 -0.14)">
     <defs>
      <path id="Helvetica-6d" d="M 413 3347 
L 969 3347 
L 969 2872 
Q 1169 3119 1331 3231 
Q 1609 3422 1963 3422 
Q 2363 3422 2606 3225 
Q 2744 3113 2856 2894 
Q 3044 3163 3297 3292 
Q 3550 3422 3866 3422 
Q 4541 3422 4784 2934 
Q 4916 2672 4916 2228 
L 4916 0 
L 4331 0 
L 4331 2325 
Q 4331 2659 4164 2784 
Q 3997 2909 3756 2909 
Q 3425 2909 3186 2687 
Q 2947 2466 2947 1947 
L 2947 0 
L 2375 0 
L 2375 2184 
Q 2375 2525 2294 2681 
Q 2166 2916 1816 2916 
Q 1497 2916 1236 2669 
Q 975 2422 975 1775 
L 975 0 
L 413 0 
L 413 3347 
z
" transform="scale(0.015625)"/>
      <path id="Helvetica-64" d="M 769 1634 
Q 769 1097 997 734 
Q 1225 372 1728 372 
Q 2119 372 2370 708 
Q 2622 1044 2622 1672 
Q 2622 2306 2362 2611 
Q 2103 2916 1722 2916 
Q 1297 2916 1033 2591 
Q 769 2266 769 1634 
z
M 1616 3406 
Q 2000 3406 2259 3244 
Q 2409 3150 2600 2916 
L 2600 4606 
L 3141 4606 
L 3141 0 
L 2634 0 
L 2634 466 
Q 2438 156 2169 18 
Q 1900 -119 1553 -119 
Q 994 -119 584 351 
Q 175 822 175 1603 
Q 175 2334 548 2870 
Q 922 3406 1616 3406 
z
" transform="scale(0.015625)"/>
      <path id="Helvetica-69" d="M 413 3331 
L 984 3331 
L 984 0 
L 413 0 
L 413 3331 
z
M 413 4591 
L 984 4591 
L 984 3953 
L 413 3953 
L 413 4591 
z
" transform="scale(0.015625)"/>
      <path id="Helvetica-75" d="M 975 3347 
L 975 1125 
Q 975 869 1056 706 
Q 1206 406 1616 406 
Q 2203 406 2416 931 
Q 2531 1213 2531 1703 
L 2531 3347 
L 3094 3347 
L 3094 0 
L 2563 0 
L 2569 494 
Q 2459 303 2297 172 
Q 1975 -91 1516 -91 
Q 800 -91 541 388 
Q 400 644 400 1072 
L 400 3347 
L 975 3347 
z
M 1747 3428 
L 1747 3428 
z
" transform="scale(0.015625)"/>
     </defs>
     <use xlink:href="#Helvetica-6d"/>
     <use xlink:href="#Helvetica-65" x="83.300781"/>
     <use xlink:href="#Helvetica-64" x="138.916016"/>
     <use xlink:href="#Helvetica-69" x="194.53125"/>
     <use xlink:href="#Helvetica-75" x="216.748047"/>
     <use xlink:href="#Helvetica-6d" x="272.363281"/>
    </g>
   </g>
   <g id="text_3">
    <!-- strong -->
    <g transform="translate(236.178864 158.857033) rotate(-300) scale(0.14 -0.14)">
     <defs>
      <path id="Helvetica-73" d="M 747 1050 
Q 772 769 888 619 
Q 1100 347 1625 347 
Q 1938 347 2175 483 
Q 2413 619 2413 903 
Q 2413 1119 2222 1231 
Q 2100 1300 1741 1391 
L 1294 1503 
Q 866 1609 663 1741 
Q 300 1969 300 2372 
Q 300 2847 642 3140 
Q 984 3434 1563 3434 
Q 2319 3434 2653 2991 
Q 2863 2709 2856 2384 
L 2325 2384 
Q 2309 2575 2191 2731 
Q 1997 2953 1519 2953 
Q 1200 2953 1036 2831 
Q 872 2709 872 2509 
Q 872 2291 1088 2159 
Q 1213 2081 1456 2022 
L 1828 1931 
Q 2434 1784 2641 1647 
Q 2969 1431 2969 969 
Q 2969 522 2630 197 
Q 2291 -128 1597 -128 
Q 850 -128 539 211 
Q 228 550 206 1050 
L 747 1050 
z
M 1578 3428 
L 1578 3428 
z
" transform="scale(0.015625)"/>
      <path id="Helvetica-74" d="M 525 4281 
L 1094 4281 
L 1094 3347 
L 1628 3347 
L 1628 2888 
L 1094 2888 
L 1094 703 
Q 1094 528 1213 469 
Q 1278 434 1431 434 
Q 1472 434 1519 436 
Q 1566 438 1628 444 
L 1628 0 
Q 1531 -28 1426 -40 
Q 1322 -53 1200 -53 
Q 806 -53 665 148 
Q 525 350 525 672 
L 525 2888 
L 72 2888 
L 72 3347 
L 525 3347 
L 525 4281 
z
" transform="scale(0.015625)"/>
      <path id="Helvetica-72" d="M 428 3347 
L 963 3347 
L 963 2769 
Q 1028 2938 1284 3180 
Q 1541 3422 1875 3422 
Q 1891 3422 1928 3419 
Q 1966 3416 2056 3406 
L 2056 2813 
Q 2006 2822 1964 2825 
Q 1922 2828 1872 2828 
Q 1447 2828 1219 2554 
Q 991 2281 991 1925 
L 991 0 
L 428 0 
L 428 3347 
z
" transform="scale(0.015625)"/>
      <path id="Helvetica-6f" d="M 1741 363 
Q 2300 363 2508 786 
Q 2716 1209 2716 1728 
Q 2716 2197 2566 2491 
Q 2328 2953 1747 2953 
Q 1231 2953 997 2559 
Q 763 2166 763 1609 
Q 763 1075 997 719 
Q 1231 363 1741 363 
z
M 1763 3444 
Q 2409 3444 2856 3012 
Q 3303 2581 3303 1744 
Q 3303 934 2909 406 
Q 2516 -122 1688 -122 
Q 997 -122 590 345 
Q 184 813 184 1600 
Q 184 2444 612 2944 
Q 1041 3444 1763 3444 
z
M 1744 3428 
L 1744 3428 
z
" transform="scale(0.015625)"/>
      <path id="Helvetica-6e" d="M 413 3347 
L 947 3347 
L 947 2872 
Q 1184 3166 1450 3294 
Q 1716 3422 2041 3422 
Q 2753 3422 3003 2925 
Q 3141 2653 3141 2147 
L 3141 0 
L 2569 0 
L 2569 2109 
Q 2569 2416 2478 2603 
Q 2328 2916 1934 2916 
Q 1734 2916 1606 2875 
Q 1375 2806 1200 2600 
Q 1059 2434 1017 2257 
Q 975 2081 975 1753 
L 975 0 
L 413 0 
L 413 3347 
z
M 1734 3428 
L 1734 3428 
z
" transform="scale(0.015625)"/>
      <path id="Helvetica-67" d="M 1594 3406 
Q 1988 3406 2281 3213 
Q 2441 3103 2606 2894 
L 2606 3316 
L 3125 3316 
L 3125 272 
Q 3125 -366 2938 -734 
Q 2588 -1416 1616 -1416 
Q 1075 -1416 706 -1173 
Q 338 -931 294 -416 
L 866 -416 
Q 906 -641 1028 -763 
Q 1219 -950 1628 -950 
Q 2275 -950 2475 -494 
Q 2594 -225 2584 466 
Q 2416 209 2178 84 
Q 1941 -41 1550 -41 
Q 1006 -41 598 345 
Q 191 731 191 1622 
Q 191 2463 602 2934 
Q 1013 3406 1594 3406 
z
M 2606 1688 
Q 2606 2309 2350 2609 
Q 2094 2909 1697 2909 
Q 1103 2909 884 2353 
Q 769 2056 769 1575 
Q 769 1009 998 714 
Q 1228 419 1616 419 
Q 2222 419 2469 966 
Q 2606 1275 2606 1688 
z
M 1659 3428 
L 1659 3428 
z
" transform="scale(0.015625)"/>
     </defs>
     <use xlink:href="#Helvetica-73"/>
     <use xlink:href="#Helvetica-74" x="50"/>
     <use xlink:href="#Helvetica-72" x="77.783203"/>
     <use xlink:href="#Helvetica-6f" x="111.083984"/>
     <use xlink:href="#Helvetica-6e" x="166.699219"/>
     <use xlink:href="#Helvetica-67" x="222.314453"/>
    </g>
   </g>
   <g id="text_4">
    <!-- Output Primacy to oviIN by input strength -->
    <g transform="translate(7.2 18.99) scale(0.16 -0.16)">
     <defs>
      <path id="Helvetica-4f" d="M 2469 4716 
Q 3684 4716 4269 3934 
Q 4725 3325 4725 2375 
Q 4725 1347 4203 666 
Q 3591 -134 2456 -134 
Q 1397 -134 791 566 
Q 250 1241 250 2272 
Q 250 3203 713 3866 
Q 1306 4716 2469 4716 
z
M 2531 422 
Q 3353 422 3720 1011 
Q 4088 1600 4088 2366 
Q 4088 3175 3664 3669 
Q 3241 4163 2506 4163 
Q 1794 4163 1344 3673 
Q 894 3184 894 2231 
Q 894 1469 1280 945 
Q 1666 422 2531 422 
z
M 2488 4716 
L 2488 4716 
z
" transform="scale(0.015625)"/>
      <path id="Helvetica-70" d="M 1825 378 
Q 2219 378 2480 708 
Q 2741 1038 2741 1694 
Q 2741 2094 2625 2381 
Q 2406 2934 1825 2934 
Q 1241 2934 1025 2350 
Q 909 2038 909 1556 
Q 909 1169 1025 897 
Q 1244 378 1825 378 
z
M 369 3331 
L 916 3331 
L 916 2888 
Q 1084 3116 1284 3241 
Q 1569 3428 1953 3428 
Q 2522 3428 2919 2992 
Q 3316 2556 3316 1747 
Q 3316 653 2744 184 
Q 2381 -113 1900 -113 
Q 1522 -113 1266 53 
Q 1116 147 931 375 
L 931 -1334 
L 369 -1334 
L 369 3331 
z
" transform="scale(0.015625)"/>
      <path id="Helvetica-20" transform="scale(0.015625)"/>
      <path id="Helvetica-50" d="M 547 4591 
L 2613 4591 
Q 3225 4591 3600 4245 
Q 3975 3900 3975 3275 
Q 3975 2738 3640 2339 
Q 3306 1941 2613 1941 
L 1169 1941 
L 1169 0 
L 547 0 
L 547 4591 
z
M 3347 3272 
Q 3347 3778 2972 3959 
Q 2766 4056 2406 4056 
L 1169 4056 
L 1169 2466 
L 2406 2466 
Q 2825 2466 3086 2644 
Q 3347 2822 3347 3272 
z
" transform="scale(0.015625)"/>
      <path id="Helvetica-63" d="M 1703 3444 
Q 2269 3444 2623 3169 
Q 2978 2894 3050 2222 
L 2503 2222 
Q 2453 2531 2275 2736 
Q 2097 2941 1703 2941 
Q 1166 2941 934 2416 
Q 784 2075 784 1575 
Q 784 1072 996 728 
Q 1209 384 1666 384 
Q 2016 384 2220 598 
Q 2425 813 2503 1184 
L 3050 1184 
Q 2956 519 2581 211 
Q 2206 -97 1622 -97 
Q 966 -97 575 383 
Q 184 863 184 1581 
Q 184 2463 612 2953 
Q 1041 3444 1703 3444 
z
M 1616 3428 
L 1616 3428 
z
" transform="scale(0.015625)"/>
      <path id="Helvetica-79" d="M 2503 3347 
L 3125 3347 
Q 3006 3025 2597 1878 
Q 2291 1016 2084 472 
Q 1597 -809 1397 -1090 
Q 1197 -1372 709 -1372 
Q 591 -1372 527 -1362 
Q 463 -1353 369 -1328 
L 369 -816 
Q 516 -856 581 -865 
Q 647 -875 697 -875 
Q 853 -875 926 -823 
Q 1000 -772 1050 -697 
Q 1066 -672 1162 -440 
Q 1259 -209 1303 -97 
L 66 3347 
L 703 3347 
L 1600 622 
L 2503 3347 
z
M 1597 3428 
L 1597 3428 
z
" transform="scale(0.015625)"/>
      <path id="Helvetica-76" d="M 688 3347 
L 1581 622 
L 2516 3347 
L 3131 3347 
L 1869 0 
L 1269 0 
L 34 3347 
L 688 3347 
z
" transform="scale(0.015625)"/>
      <path id="Helvetica-49" d="M 628 4591 
L 1256 4591 
L 1256 0 
L 628 0 
L 628 4591 
z
" transform="scale(0.015625)"/>
      <path id="Helvetica-4e" d="M 488 4591 
L 1222 4591 
L 3541 872 
L 3541 4591 
L 4131 4591 
L 4131 0 
L 3434 0 
L 1081 3716 
L 1081 0 
L 488 0 
L 488 4591 
z
M 2269 4591 
L 2269 4591 
z
" transform="scale(0.015625)"/>
      <path id="Helvetica-62" d="M 369 4606 
L 916 4606 
L 916 2941 
Q 1100 3181 1356 3307 
Q 1613 3434 1913 3434 
Q 2538 3434 2927 3004 
Q 3316 2575 3316 1738 
Q 3316 944 2931 419 
Q 2547 -106 1866 -106 
Q 1484 -106 1222 78 
Q 1066 188 888 428 
L 888 0 
L 369 0 
L 369 4606 
z
M 1831 391 
Q 2288 391 2514 753 
Q 2741 1116 2741 1709 
Q 2741 2238 2514 2584 
Q 2288 2931 1847 2931 
Q 1463 2931 1173 2647 
Q 884 2363 884 1709 
Q 884 1238 1003 944 
Q 1225 391 1831 391 
z
" transform="scale(0.015625)"/>
      <path id="Helvetica-68" d="M 413 4606 
L 975 4606 
L 975 2894 
Q 1175 3147 1334 3250 
Q 1606 3428 2013 3428 
Q 2741 3428 3000 2919 
Q 3141 2641 3141 2147 
L 3141 0 
L 2563 0 
L 2563 2109 
Q 2563 2478 2469 2650 
Q 2316 2925 1894 2925 
Q 1544 2925 1259 2684 
Q 975 2444 975 1775 
L 975 0 
L 413 0 
L 413 4606 
z
" transform="scale(0.015625)"/>
     </defs>
     <use xlink:href="#Helvetica-4f"/>
     <use xlink:href="#Helvetica-75" x="77.783203"/>
     <use xlink:href="#Helvetica-74" x="133.398438"/>
     <use xlink:href="#Helvetica-70" x="161.181641"/>
     <use xlink:href="#Helvetica-75" x="216.796875"/>
     <use xlink:href="#Helvetica-74" x="272.412109"/>
     <use xlink:href="#Helvetica-20" x="300.195312"/>
     <use xlink:href="#Helvetica-50" x="327.978516"/>
     <use xlink:href="#Helvetica-72" x="394.677734"/>
     <use xlink:href="#Helvetica-69" x="427.978516"/>
     <use xlink:href="#Helvetica-6d" x="450.195312"/>
     <use xlink:href="#Helvetica-61" x="533.496094"/>
     <use xlink:href="#Helvetica-63" x="589.111328"/>
     <use xlink:href="#Helvetica-79" x="639.111328"/>
     <use xlink:href="#Helvetica-20" x="689.111328"/>
     <use xlink:href="#Helvetica-74" x="716.894531"/>
     <use xlink:href="#Helvetica-6f" x="744.677734"/>
     <use xlink:href="#Helvetica-20" x="800.292969"/>
     <use xlink:href="#Helvetica-6f" x="828.076172"/>
     <use xlink:href="#Helvetica-76" x="883.691406"/>
     <use xlink:href="#Helvetica-69" x="933.691406"/>
     <use xlink:href="#Helvetica-49" x="955.908203"/>
     <use xlink:href="#Helvetica-4e" x="983.691406"/>
     <use xlink:href="#Helvetica-20" x="1055.908203"/>
     <use xlink:href="#Helvetica-62" x="1083.691406"/>
     <use xlink:href="#Helvetica-79" x="1139.306641"/>
     <use xlink:href="#Helvetica-20" x="1189.306641"/>
     <use xlink:href="#Helvetica-69" x="1217.089844"/>
     <use xlink:href="#Helvetica-6e" x="1239.306641"/>
     <use xlink:href="#Helvetica-70" x="1294.921875"/>
     <use xlink:href="#Helvetica-75" x="1350.537109"/>
     <use xlink:href="#Helvetica-74" x="1406.152344"/>
     <use xlink:href="#Helvetica-20" x="1433.935547"/>
     <use xlink:href="#Helvetica-73" x="1461.71875"/>
     <use xlink:href="#Helvetica-74" x="1511.71875"/>
     <use xlink:href="#Helvetica-72" x="1539.501953"/>
     <use xlink:href="#Helvetica-65" x="1572.802734"/>
     <use xlink:href="#Helvetica-6e" x="1628.417969"/>
     <use xlink:href="#Helvetica-67" x="1684.033203"/>
     <use xlink:href="#Helvetica-74" x="1739.648438"/>
     <use xlink:href="#Helvetica-68" x="1767.431641"/>
    </g>
   </g>
   <g id="legend_1">
    <g id="patch_17">
     <path d="M 295.891 220.431312 
L 449.311313 220.431312 
Q 452.111313 220.431312 452.111313 217.631312 
L 452.111313 98.460687 
Q 452.111313 95.660687 449.311313 95.660687 
L 295.891 95.660687 
Q 293.091 95.660687 293.091 98.460687 
L 293.091 217.631312 
Q 293.091 220.431312 295.891 220.431312 
z
" style="fill: #ffffff; opacity: 0.8; stroke: #cccccc; stroke-linejoin: miter"/>
    </g>
    <g id="text_5">
     <!-- Output Primacy to oviIN -->
     <g transform="translate(298.691 111.576937) scale(0.14 -0.14)">
      <use xlink:href="#Helvetica-4f"/>
      <use xlink:href="#Helvetica-75" x="77.783203"/>
      <use xlink:href="#Helvetica-74" x="133.398438"/>
      <use xlink:href="#Helvetica-70" x="161.181641"/>
      <use xlink:href="#Helvetica-75" x="216.796875"/>
      <use xlink:href="#Helvetica-74" x="272.412109"/>
      <use xlink:href="#Helvetica-20" x="300.195312"/>
      <use xlink:href="#Helvetica-50" x="327.978516"/>
      <use xlink:href="#Helvetica-72" x="394.677734"/>
      <use xlink:href="#Helvetica-69" x="427.978516"/>
      <use xlink:href="#Helvetica-6d" x="450.195312"/>
      <use xlink:href="#Helvetica-61" x="533.496094"/>
      <use xlink:href="#Helvetica-63" x="589.111328"/>
      <use xlink:href="#Helvetica-79" x="639.111328"/>
      <use xlink:href="#Helvetica-20" x="689.111328"/>
      <use xlink:href="#Helvetica-74" x="716.894531"/>
      <use xlink:href="#Helvetica-6f" x="744.677734"/>
      <use xlink:href="#Helvetica-20" x="800.292969"/>
      <use xlink:href="#Helvetica-6f" x="828.076172"/>
      <use xlink:href="#Helvetica-76" x="883.691406"/>
      <use xlink:href="#Helvetica-69" x="933.691406"/>
      <use xlink:href="#Helvetica-49" x="955.908203"/>
      <use xlink:href="#Helvetica-4e" x="983.691406"/>
     </g>
    </g>
    <g id="patch_18">
     <path d="M 319.538969 131.621 
L 347.538969 131.621 
L 347.538969 121.821 
L 319.538969 121.821 
z
" style="fill: #3f007d; stroke: #ffffff; stroke-linejoin: miter"/>
    </g>
    <g id="text_6">
     <!-- primary -->
     <g transform="translate(358.738969 131.621) scale(0.14 -0.14)">
      <use xlink:href="#Helvetica-70"/>
      <use xlink:href="#Helvetica-72" x="55.615234"/>
      <use xlink:href="#Helvetica-69" x="88.916016"/>
      <use xlink:href="#Helvetica-6d" x="111.132812"/>
      <use xlink:href="#Helvetica-61" x="194.433594"/>
      <use xlink:href="#Helvetica-72" x="250.048828"/>
      <use xlink:href="#Helvetica-79" x="283.349609"/>
     </g>
    </g>
    <g id="patch_19">
     <path d="M 319.538969 151.697875 
L 347.538969 151.697875 
L 347.538969 141.897875 
L 319.538969 141.897875 
z
" style="fill: #5b3596; stroke: #ffffff; stroke-linejoin: miter"/>
    </g>
    <g id="text_7">
     <!-- secondary -->
     <g transform="translate(358.738969 151.697875) scale(0.14 -0.14)">
      <use xlink:href="#Helvetica-73"/>
      <use xlink:href="#Helvetica-65" x="50"/>
      <use xlink:href="#Helvetica-63" x="105.615234"/>
      <use xlink:href="#Helvetica-6f" x="155.615234"/>
      <use xlink:href="#Helvetica-6e" x="211.230469"/>
      <use xlink:href="#Helvetica-64" x="266.845703"/>
      <use xlink:href="#Helvetica-61" x="322.460938"/>
      <use xlink:href="#Helvetica-72" x="378.076172"/>
      <use xlink:href="#Helvetica-79" x="411.376953"/>
     </g>
    </g>
    <g id="patch_20">
     <path d="M 319.538969 171.741937 
L 347.538969 171.741937 
L 347.538969 161.941937 
L 319.538969 161.941937 
z
" style="fill: #796eb2; stroke: #ffffff; stroke-linejoin: miter"/>
    </g>
    <g id="text_8">
     <!-- tertiary -->
     <g transform="translate(358.738969 171.741937) scale(0.14 -0.14)">
      <use xlink:href="#Helvetica-74"/>
      <use xlink:href="#Helvetica-65" x="27.783203"/>
      <use xlink:href="#Helvetica-72" x="83.398438"/>
      <use xlink:href="#Helvetica-74" x="116.699219"/>
      <use xlink:href="#Helvetica-69" x="144.482422"/>
      <use xlink:href="#Helvetica-61" x="166.699219"/>
      <use xlink:href="#Helvetica-72" x="222.314453"/>
      <use xlink:href="#Helvetica-79" x="255.615234"/>
     </g>
    </g>
    <g id="patch_21">
     <path d="M 319.538969 191.786 
L 347.538969 191.786 
L 347.538969 181.986 
L 319.538969 181.986 
z
" style="fill: #9e9ac8; stroke: #ffffff; stroke-linejoin: miter"/>
    </g>
    <g id="text_9">
     <!-- quaternary -->
     <g transform="translate(358.738969 191.786) scale(0.14 -0.14)">
      <defs>
       <path id="Helvetica-71" d="M 775 1628 
Q 775 1194 897 900 
Q 1113 378 1669 378 
Q 2256 378 2478 928 
Q 2600 1231 2600 1703 
Q 2600 2138 2466 2428 
Q 2238 2925 1663 2925 
Q 1297 2925 1036 2608 
Q 775 2291 775 1628 
z
M 1606 3422 
Q 2022 3422 2306 3213 
Q 2463 3100 2606 2881 
L 2606 3347 
L 3141 3347 
L 3141 -1334 
L 2575 -1334 
L 2575 384 
Q 2434 159 2186 26 
Q 1938 -106 1566 -106 
Q 1031 -106 609 312 
Q 188 731 188 1588 
Q 188 2391 583 2906 
Q 978 3422 1606 3422 
z
" transform="scale(0.015625)"/>
      </defs>
      <use xlink:href="#Helvetica-71"/>
      <use xlink:href="#Helvetica-75" x="55.615234"/>
      <use xlink:href="#Helvetica-61" x="111.230469"/>
      <use xlink:href="#Helvetica-74" x="166.845703"/>
      <use xlink:href="#Helvetica-65" x="194.628906"/>
      <use xlink:href="#Helvetica-72" x="250.244141"/>
      <use xlink:href="#Helvetica-6e" x="283.544922"/>
      <use xlink:href="#Helvetica-61" x="339.160156"/>
      <use xlink:href="#Helvetica-72" x="394.775391"/>
      <use xlink:href="#Helvetica-79" x="428.076172"/>
     </g>
    </g>
    <g id="patch_22">
     <path d="M 319.538969 211.830062 
L 347.538969 211.830062 
L 347.538969 202.030062 
L 319.538969 202.030062 
z
" style="fill: #c6c7e1; stroke: #ffffff; stroke-linejoin: miter"/>
    </g>
    <g id="text_10">
     <!-- quinary+ -->
     <g transform="translate(358.738969 211.830062) scale(0.14 -0.14)">
      <defs>
       <path id="Helvetica-2b" d="M 288 1369 
L 288 1894 
L 1650 1894 
L 1650 3266 
L 2184 3266 
L 2184 1894 
L 3547 1894 
L 3547 1369 
L 2184 1369 
L 2184 0 
L 1650 0 
L 1650 1369 
L 288 1369 
z
" transform="scale(0.015625)"/>
      </defs>
      <use xlink:href="#Helvetica-71"/>
      <use xlink:href="#Helvetica-75" x="55.615234"/>
      <use xlink:href="#Helvetica-69" x="111.230469"/>
      <use xlink:href="#Helvetica-6e" x="133.447266"/>
      <use xlink:href="#Helvetica-61" x="189.0625"/>
      <use xlink:href="#Helvetica-72" x="244.677734"/>
      <use xlink:href="#Helvetica-79" x="277.978516"/>
      <use xlink:href="#Helvetica-2b" x="327.978516"/>
     </g>
    </g>
   </g>
  </g>
 </g>
</svg>
