<?xml version="1.0" encoding="UTF-8"?>
<svg xmlns="http://www.w3.org/2000/svg" version="1.1" viewBox="0 0 457.9 444">
  <defs>
    <style>
      .cls-1 {
        isolation: isolate;
        opacity: .8;
        stroke: #ccc;
      }

      .cls-1, .cls-2 {
        fill: #fff;
      }

      .cls-3 {
        fill: #00ced1;
      }

      .cls-3, .cls-4, .cls-5 {
        stroke: #fff;
      }

      .cls-4 {
        fill: #ff4500;
      }

      .cls-5 {
        fill: #ff8c00;
      }
    </style>
  </defs>
  <!-- Generator: Adobe Illustrator 28.6.0, SVG Export Plug-In . SVG Version: 1.2.0 Build 709)  -->
  <g>
    <g id="Layer_1">
      <g id="figure_1">
        <g id="patch_1">
          <path class="cls-2" d="M0,444h457.9V0H0v444Z"/>
        </g>
        <g id="axes_1">
          <g id="patch_2">
            <path class="cls-4" d="M276.2,79.5c-7.7-2.1-15.5-3.7-23.4-4.8-7.9-1.1-15.9-1.6-23.8-1.6v71c4.8,0,9.6.3,14.3,1s9.4,1.6,14,2.9l18.9-68.4Z"/>
          </g>
          <g id="patch_3">
            <path class="cls-5" d="M395.6,189.5c-9.7-26.5-25.6-50.3-46.3-69.5s-45.8-33-73-40.6l-18.9,68.4c16.3,4.5,31.3,12.9,43.8,24.3s22,25.8,27.8,41.7l66.6-24.4Z"/>
          </g>
          <g id="patch_4">
            <path class="cls-4" d="M397.8,196.2c-.4-1.1-.7-2.2-1.1-3.3-.4-1.1-.8-2.2-1.2-3.3l-66.6,24.4c.2.7.5,1.3.7,2,.2.7.4,1.3.7,2l67.6-21.7Z"/>
          </g>
          <g id="patch_5">
            <path class="cls-5" d="M403.7,281.1c2.5-14.1,3.2-28.5,2.2-42.8-1-14.3-3.7-28.4-8.1-42.1l-67.6,21.7c2.6,8.2,4.3,16.7,4.9,25.3s.1,17.2-1.3,25.7l69.9,12.2Z"/>
          </g>
          <g id="patch_6">
            <path class="cls-4" d="M321.7,401.7c21.4-13.1,39.8-30.7,53.9-51.5,14.1-20.8,23.7-44.4,28-69.1l-69.9-12.2c-2.6,14.9-8.3,29-16.8,41.5-8.5,12.5-19.5,23-32.4,30.9l37.1,60.5Z"/>
          </g>
          <g id="patch_7">
            <path class="cls-5" d="M166.6,84.4c-23.1,8.7-44.2,22.1-61.9,39.4s-31.5,38.1-40.6,61.1c-9.1,23-13.4,47.6-12.4,72.3.9,24.7,7,48.9,17.9,71.2,10.9,22.2,26.2,41.9,45.2,57.8,18.9,15.9,41,27.7,64.7,34.6s48.7,8.8,73.2,5.5c24.5-3.3,48-11.7,69.1-24.6l-37.1-60.5c-12.6,7.8-26.8,12.8-41.5,14.8-14.7,2-29.7.9-43.9-3.3-14.2-4.1-27.5-11.2-38.8-20.8-11.4-9.6-20.6-21.4-27.1-34.7-6.5-13.3-10.2-27.9-10.7-42.7s2-29.6,7.5-43.4c5.5-13.8,13.8-26.3,24.4-36.7,10.6-10.4,23.2-18.4,37.1-23.7l-24.9-66.4Z"/>
          </g>
          <g id="patch_8">
            <path class="cls-4" d="M170.1,83.1c-.6.2-1.2.4-1.8.6-.6.2-1.2.4-1.8.7l24.9,66.4c.4-.1.7-.3,1.1-.4s.7-.3,1.1-.4l-23.5-66.9Z"/>
          </g>
          <g id="patch_9">
            <path class="cls-5" d="M229,73.1c-10,0-20,.8-29.8,2.5-9.9,1.7-19.6,4.2-29,7.5l23.5,66.9c5.7-2,11.5-3.5,17.4-4.5s11.9-1.5,17.9-1.5v-71Z"/>
          </g>
          <g id="patch_10">
            <path class="cls-3" d="M328.9,213.9c-7.5-20.5-21.1-38.2-39-50.7-17.9-12.5-39.2-19.2-61-19.2v71c7.3,0,14.4,2.2,20.3,6.4s10.5,10.1,13,16.9l66.6-24.4Z"/>
          </g>
          <g id="patch_11">
            <path class="cls-3" d="M333.8,268.8c1.6-9.2,2-18.5,1.2-27.8s-2.9-18.4-6.1-27.1l-66.6,24.4c1.1,2.9,1.7,6,2,9,.3,3.1.1,6.2-.4,9.3l69.9,12.2Z"/>
          </g>
          <g id="patch_12">
            <path class="cls-3" d="M191.5,150.8c-17.5,6.6-32.9,17.6-44.7,32-11.9,14.4-19.7,31.6-22.8,50s-1.3,37.3,5.2,54.7c6.5,17.5,17.5,32.9,31.8,44.8,14.3,11.9,31.6,19.8,50,23,18.4,3.2,37.3,1.4,54.8-5s33-17.4,45-31.7c12-14.3,19.9-31.5,23.2-49.9l-69.9-12.2c-1.1,6.1-3.7,11.9-7.7,16.6-4,4.8-9.2,8.4-15,10.6s-12.1,2.7-18.3,1.7c-6.1-1.1-11.9-3.7-16.7-7.7-4.8-4-8.4-9.1-10.6-14.9-2.2-5.8-2.8-12.1-1.7-18.2,1-6.1,3.7-11.9,7.6-16.7,4-4.8,9.1-8.5,14.9-10.7l-24.9-66.4Z"/>
          </g>
          <g id="patch_13">
            <path class="cls-3" d="M229,144c-6.4,0-12.7.6-19,1.7s-12.4,2.8-18.4,5.1l24.9,66.4c2-.7,4-1.3,6.1-1.7,2.1-.4,4.2-.6,6.3-.6v-71Z"/>
          </g>
          <g id="text_1">
            <g>
              <path id="Helvetica-49" class="cls-2" d="M260.2,198.3l.8-1.1,8.2,5.8-.8,1.1-8.2-5.8Z"/>
              <path id="Helvetica-4e" class="cls-2" d="M262.3,195.4l.9-1.3,9.6.5-6.7-4.7.7-1.1,8.2,5.8-.9,1.2-9.6-.4,6.7,4.7-.7,1.1-8.2-5.8ZM264.5,192.2h0Z"/>
              <path id="Helvetica-50" class="cls-2" d="M268.2,187l2.6-3.7c.5-.7,1.1-1.2,1.9-1.3.7-.2,1.5,0,2.2.5s1.1,1,1.3,1.8c.2.7,0,1.5-.6,2.3l-1.8,2.6,3.5,2.4-.8,1.1-8.2-5.8ZM274,183.6c-.6-.4-1.2-.5-1.7-.2-.3.2-.6.5-.9.9l-1.6,2.2,2.9,2,1.6-2.2c.4-.5.5-1,.5-1.4s-.3-.9-.8-1.3Z"/>
            </g>
          </g>
          <g id="text_2">
            <g>
              <path id="Helvetica-4c" class="cls-2" d="M284.6,240h1.4c0-.1.8,8.7.8,8.7l5.1-.5v1.2c.1,0-6.3.6-6.3.6l-.9-10Z"/>
              <path id="Helvetica-58" class="cls-2" d="M294.1,249.2h-1.6c0,.1,3.1-5.3,3.1-5.3l-3.8-4.6,1.7-.2,2.9,3.6,2.2-4.1h1.6c0-.1-2.9,5-2.9,5l4,4.8h-1.7c0,.1-3.1-3.7-3.1-3.7l-2.4,4.4Z"/>
            </g>
          </g>
          <g id="text_3">
            <g>
              <path id="Helvetica-53" class="cls-2" d="M173.1,316.4c.5.3.9.5,1.3.6.8,0,1.6-.3,2.3-1.2s.6-.8.7-1.2c.3-.8.2-1.4-.4-1.9s-.8-.5-1.2-.4c-.4.1-.9.4-1.5.9l-1.1.9c-.7.6-1.3.9-1.7,1-.7.2-1.4,0-2.1-.5s-1.1-1.3-1.1-2.1c0-.9.3-1.7,1-2.6s1.4-1.3,2.3-1.6c.9-.2,1.7,0,2.6.7l-.8,1c-.5-.3-.9-.4-1.2-.5-.7,0-1.3.4-2,1.1s-.8,1.2-.7,1.7c0,.5.2.9.6,1.2s.8.4,1.2.2c.3-.1.8-.5,1.6-1.1l1.1-.9c.6-.4,1-.7,1.5-.8.8-.2,1.5,0,2.2.6s1.2,1.5,1.1,2.5c-.1.9-.6,1.8-1.2,2.6s-1.7,1.5-2.6,1.6c-.9.1-1.8-.1-2.6-.8l.8-1ZM169.4,309.8h0Z"/>
              <path id="Helvetica-4e-2" data-name="Helvetica-4e" class="cls-2" d="M173.3,305.6l1-1.2,9.5,1.3-6.3-5.2.8-1,7.7,6.4-1,1.2-9.5-1.2,6.3,5.2-.8,1-7.7-6.4ZM175.8,302.6h0Z"/>
              <path id="Helvetica-50-2" data-name="Helvetica-50" class="cls-2" d="M179.8,297.7l2.9-3.5c.6-.7,1.2-1.1,2-1.2.7,0,1.5.1,2.2.7s1,1.1,1.1,1.9c.1.7-.1,1.5-.8,2.3l-2,2.4,3.3,2.7-.9,1-7.7-6.4ZM185.9,294.8c-.6-.5-1.1-.6-1.7-.3-.3.1-.6.4-1,.8l-1.7,2.1,2.7,2.2,1.7-2.1c.4-.5.6-.9.6-1.4s-.2-.9-.7-1.3Z"/>
            </g>
          </g>
          <g id="text_4">
            <g>
              <path id="Helvetica-56" class="cls-2" d="M216.4,159.5l-7.9,4.4,8.9,1.3.3,1.5-10.5-1.8-.3-1.4,9.2-5.4.3,1.5Z"/>
              <path id="Helvetica-4d" class="cls-2" d="M218,167.9l.3,1.9-7.8,4.4,8.9,1.3.3,1.9-9.9,1.8-.2-1.3,5.8-1.1c.2,0,.5,0,1-.2.5,0,1-.2,1.5-.3l-8.8-1.3-.2-1.3,7.8-4.4h-.3c-.2,0-.6.2-1.1.3-.5.1-.9.2-1.1.2l-5.8,1.1-.2-1.3,9.9-1.8Z"/>
              <path id="Helvetica-4e-3" data-name="Helvetica-4e" class="cls-2" d="M220,179.4l.3,1.6-7.1,6.4,8-1.5.2,1.3-9.9,1.8-.3-1.5,7.1-6.5-8,1.5-.2-1.3,9.9-1.8ZM220.7,183.2h0Z"/>
              <path id="Helvetica-50-3" data-name="Helvetica-50" class="cls-2" d="M221.9,189.5l.8,4.4c.2.9,0,1.6-.4,2.3-.4.6-1,1-1.9,1.2s-1.5,0-2.1-.4c-.7-.4-1.1-1.1-1.3-2.1l-.6-3.1-4.2.8-.2-1.3,9.9-1.8ZM220.1,196c.7-.1,1.2-.5,1.3-1.1,0-.3,0-.7,0-1.3l-.5-2.7-3.4.6.5,2.7c.1.6.3,1.1.6,1.4s.8.4,1.5.3Z"/>
            </g>
          </g>
          <g id="legend_1">
            <g id="patch_14">
              <path class="cls-1" d="M326.1,96.3h117.6c1.3,0,2-.7,2-2v-58.6c0-1.3-.7-2-2-2h-117.6c-1.3,0-2,.7-2,2v58.6c0,1.3.7,2,2,2Z"/>
            </g>
            <g id="text_5">
              <g>
                <path id="Helvetica-4c-2" data-name="Helvetica-4c" d="M365.8,37.7h1.2v7.6h4.4v1h-5.5v-8.6Z"/>
                <path id="Helvetica-65" d="M375,39.9c.4,0,.9.1,1.3.3s.7.5,1,.8c.2.3.4.7.4,1.1,0,.3,0,.7,0,1.4h-4.6c0,.6.2,1.1.5,1.5.3.4.7.6,1.3.6s1-.2,1.3-.5c.2-.2.3-.5.4-.7h1c0,.2-.1.5-.3.8-.2.3-.3.5-.5.7-.3.3-.7.5-1.2.6-.3,0-.5,0-.9,0-.8,0-1.4-.3-2-.9-.5-.6-.8-1.4-.8-2.4s.3-1.8.8-2.5c.5-.6,1.3-.9,2.1-.9ZM376.6,42.7c0-.5-.1-.8-.3-1.1-.3-.5-.8-.8-1.4-.8s-.9.2-1.2.5c-.3.3-.5.8-.5,1.3h3.5ZM374.9,39.9h0Z"/>
                <path id="Helvetica-67" d="M381.2,40c.5,0,.9.1,1.3.4.2.1.4.3.6.6v-.8h1v5.7c0,.8-.1,1.4-.4,1.9-.4.9-1.3,1.3-2.5,1.3s-1.2-.2-1.7-.5c-.5-.3-.7-.8-.8-1.4h1.1c0,.3.2.5.3.7.2.2.6.4,1.1.4.8,0,1.3-.3,1.6-.9.1-.3.2-.9.2-1.8-.2.3-.5.6-.8.7-.3.2-.7.2-1.2.2s-1.3-.2-1.8-.7c-.5-.5-.8-1.3-.8-2.4s.3-1.9.8-2.5c.5-.6,1.1-.9,1.9-.9ZM383.1,43.2c0-.8-.2-1.4-.5-1.7s-.7-.6-1.2-.6c-.7,0-1.3.3-1.5,1-.1.4-.2.9-.2,1.5s.1,1.2.4,1.6c.3.4.7.6,1.2.6.8,0,1.3-.3,1.6-1,.2-.4.3-.8.3-1.4ZM381.4,39.9h0Z"/>
                <path id="Helvetica-65-2" data-name="Helvetica-65" d="M388.3,39.9c.4,0,.9.1,1.3.3s.7.5,1,.8c.2.3.4.7.4,1.1,0,.3,0,.7,0,1.4h-4.6c0,.6.2,1.1.5,1.5.3.4.7.6,1.3.6s1-.2,1.3-.5c.2-.2.3-.5.4-.7h1c0,.2-.1.5-.3.8-.2.3-.3.5-.5.7-.3.3-.7.5-1.2.6-.3,0-.5,0-.9,0-.8,0-1.4-.3-2-.9-.5-.6-.8-1.4-.8-2.4s.3-1.8.8-2.5c.5-.6,1.3-.9,2.1-.9ZM390,42.7c0-.5-.1-.8-.3-1.1-.3-.5-.8-.8-1.4-.8s-.9.2-1.2.5c-.3.3-.5.8-.5,1.3h3.5ZM388.2,39.9h0Z"/>
                <path id="Helvetica-6e" d="M392.4,40.1h1v.9c.3-.4.6-.6.9-.8s.7-.2,1.1-.2c.9,0,1.5.3,1.8.9.2.3.3.8.3,1.5v4h-1.1v-4c0-.4,0-.7-.2-.9-.2-.4-.5-.6-1-.6s-.5,0-.6,0c-.3,0-.5.3-.8.5-.2.2-.3.4-.3.6,0,.2,0,.5,0,.9v3.3h-1.1v-6.3ZM394.9,39.9h0Z"/>
                <path id="Helvetica-64" d="M399.7,43.3c0,.7.1,1.2.4,1.7.3.5.7.7,1.4.7s.9-.2,1.2-.6c.3-.4.5-1,.5-1.8s-.2-1.4-.5-1.8c-.3-.4-.7-.6-1.2-.6s-1,.2-1.3.6-.5,1-.5,1.8ZM401.3,40c.5,0,.9.1,1.2.3.2.1.4.3.6.6v-3.2h1v8.6h-1v-.9c-.2.4-.5.7-.9.8-.3.2-.7.3-1.2.3-.7,0-1.3-.3-1.8-.9-.5-.6-.8-1.4-.8-2.3s.2-1.7.7-2.4c.5-.7,1.1-1,2-1Z"/>
              </g>
            </g>
            <g id="patch_15">
              <path class="cls-4" d="M328.1,61.4h20v-7h-20v7Z"/>
            </g>
            <g id="text_6">
              <g>
                <path id="Helvetica-4b" d="M356.9,54.2h.9v3.5l3.5-3.5h1.3l-3,2.9,3.1,4.3h-1.3l-2.5-3.6-1.1,1.1v2.5h-.9v-7.2Z"/>
                <path id="Helvetica-6e-2" data-name="Helvetica-6e" d="M363.4,56.1h.8v.7c.2-.3.5-.5.8-.7s.6-.2.9-.2c.7,0,1.2.3,1.5.8.1.3.2.7.2,1.2v3.4h-.9v-3.3c0-.3,0-.6-.1-.8-.2-.3-.4-.5-.9-.5s-.4,0-.5,0c-.2,0-.5.2-.6.4-.1.2-.2.4-.3.5,0,.2,0,.4,0,.8v2.7h-.9v-5.2ZM365.5,56h0Z"/>
                <path id="Helvetica-6f" d="M371.1,60.8c.6,0,1-.2,1.2-.7s.3-.9.3-1.5,0-.9-.2-1.2c-.2-.5-.7-.7-1.3-.7s-.9.2-1.2.6c-.2.4-.4.9-.4,1.5s.1,1,.4,1.4c.2.4.6.6,1.2.6ZM371.1,56c.7,0,1.2.2,1.7.7.5.4.7,1.1.7,2s-.2,1.5-.6,2.1c-.4.6-1,.8-1.9.8s-1.3-.2-1.7-.7c-.4-.5-.6-1.1-.6-2s.2-1.6.7-2.1c.4-.5,1-.8,1.8-.8ZM371.1,56h0Z"/>
                <path id="Helvetica-77" d="M375,56.1l1,4.1,1-4.1h1l1,4.1,1.1-4.1h.9l-1.5,5.2h-.9l-1.1-4-1,4h-.9l-1.5-5.2h1Z"/>
                <path id="Helvetica-6e-3" data-name="Helvetica-6e" d="M381.8,56.1h.8v.7c.2-.3.5-.5.8-.7s.6-.2.9-.2c.7,0,1.2.3,1.5.8.1.3.2.7.2,1.2v3.4h-.9v-3.3c0-.3,0-.6-.1-.8-.2-.3-.4-.5-.9-.5s-.4,0-.5,0c-.2,0-.5.2-.6.4-.1.2-.2.4-.3.5,0,.2,0,.4,0,.8v2.7h-.9v-5.2ZM383.9,56h0Z"/>
                <path id="Helvetica-20" d="M386.7,61.4"/>
                <path id="Helvetica-43" d="M393.3,54c.9,0,1.6.2,2.1.7.5.5.8,1,.8,1.6h-.9c-.1-.5-.3-.8-.6-1.1-.3-.3-.8-.4-1.4-.4s-1.3.2-1.7.7c-.4.5-.7,1.3-.7,2.3s.2,1.5.6,2c.4.5,1,.8,1.8.8s1.3-.3,1.6-.8c.2-.3.3-.7.4-1.1h.9c0,.8-.4,1.4-.8,1.9-.6.6-1.3.9-2.3.9s-1.5-.3-2.1-.8c-.7-.7-1.1-1.7-1.1-3.1s.3-1.9.8-2.6c.6-.7,1.4-1.1,2.5-1.1ZM393.1,54h0Z"/>
                <path id="Helvetica-65-3" data-name="Helvetica-65" d="M399.5,56c.4,0,.7,0,1.1.3s.6.4.8.7c.2.3.3.6.4.9,0,.2,0,.6,0,1.2h-3.8c0,.5.1,1,.4,1.3.2.3.6.5,1.1.5s.8-.2,1.1-.5c.2-.2.3-.4.3-.6h.9c0,.2,0,.4-.2.6-.1.2-.3.4-.4.6-.3.3-.6.4-1,.5-.2,0-.5,0-.7,0-.7,0-1.2-.2-1.7-.7-.5-.5-.7-1.1-.7-2s.2-1.5.7-2c.5-.5,1.1-.8,1.8-.8ZM400.9,58.3c0-.4-.1-.7-.2-.9-.2-.4-.6-.6-1.2-.6s-.7.1-1,.4c-.3.3-.4.7-.4,1.1h2.9ZM399.4,56h0Z"/>
                <path id="Helvetica-6c" d="M402.9,54.2h.9v7.2h-.9v-7.2Z"/>
                <path id="Helvetica-6c-2" data-name="Helvetica-6c" d="M405.2,54.2h.9v7.2h-.9v-7.2Z"/>
                <path id="Helvetica-74" d="M407.5,54.7h.9v1.5h.8v.7h-.8v3.4c0,.2,0,.3.2.4,0,0,.2,0,.3,0s0,0,.1,0,.1,0,.2,0v.7c-.1,0-.2,0-.3,0-.1,0-.2,0-.4,0-.4,0-.7-.1-.8-.3-.1-.2-.2-.5-.2-.8v-3.5h-.7v-.7h.7v-1.5Z"/>
                <path id="Helvetica-79" d="M413.4,56.1h1c-.1.3-.4,1.1-.8,2.3-.3.9-.6,1.6-.8,2.2-.5,1.3-.9,2.1-1.1,2.4-.2.3-.6.4-1.1.4s-.2,0-.3,0c0,0-.1,0-.2,0v-.8c.2,0,.3,0,.3,0,0,0,.1,0,.2,0,.2,0,.3,0,.4,0,0,0,.1-.1.2-.2,0,0,0-.2.2-.4.1-.2.2-.4.2-.5l-1.9-5.4h1l1.4,4.3,1.4-4.3ZM412,56h0Z"/>
                <path id="Helvetica-70" d="M417.3,60.8c.4,0,.8-.2,1-.5s.4-.9.4-1.5,0-.8-.2-1.1c-.2-.6-.6-.9-1.3-.9s-1,.3-1.3.9c-.1.3-.2.7-.2,1.2s0,.7.2,1c.2.5.6.8,1.3.8ZM415.1,56.2h.9v.7c.2-.2.4-.4.6-.6.3-.2.6-.3,1-.3.6,0,1.1.2,1.5.7s.6,1.1.6,1.9-.3,2-.9,2.4c-.4.3-.8.5-1.3.5s-.7,0-1-.3c-.2,0-.3-.3-.5-.5v2.7h-.9v-7.3Z"/>
                <path id="Helvetica-65-4" data-name="Helvetica-65" d="M422.9,56c.4,0,.7,0,1.1.3s.6.4.8.7c.2.3.3.6.4.9,0,.2,0,.6,0,1.2h-3.8c0,.5.1,1,.4,1.3.2.3.6.5,1.1.5s.8-.2,1.1-.5c.2-.2.3-.4.3-.6h.9c0,.2,0,.4-.2.6-.1.2-.3.4-.4.6-.3.3-.6.4-1,.5-.2,0-.5,0-.7,0-.7,0-1.2-.2-1.7-.7-.5-.5-.7-1.1-.7-2s.2-1.5.7-2c.5-.5,1.1-.8,1.8-.8ZM424.3,58.3c0-.4-.1-.7-.2-.9-.2-.4-.6-.6-1.2-.6s-.7.1-1,.4c-.3.3-.4.7-.4,1.1h2.9ZM422.8,56h0Z"/>
                <path id="Helvetica-73" d="M426.8,59.7c0,.3,0,.5.2.7.2.3.6.4,1.2.4s.6,0,.9-.2c.2-.1.4-.4.4-.7s0-.4-.3-.5c-.1,0-.4-.2-.8-.3l-.7-.2c-.4-.1-.8-.2-1-.4-.4-.2-.6-.6-.6-1s.2-.9.5-1.2c.4-.3.8-.5,1.4-.5s1.4.2,1.7.7c.2.3.3.6.3.9h-.8c0-.2,0-.4-.2-.5-.2-.2-.6-.3-1.1-.3s-.6,0-.8.2c-.2.1-.3.3-.3.5s.1.4.3.5c.1,0,.3.2.6.2h.6c.6.3,1.1.4,1.3.6.3.2.5.6.5,1.1s-.2.9-.5,1.2c-.4.3-.9.5-1.6.5s-1.3-.2-1.7-.5c-.3-.4-.5-.8-.5-1.3h.8ZM428.1,56h0Z"/>
              </g>
            </g>
            <g id="patch_16">
              <path class="cls-5" d="M328.1,75.9h20v-7h-20v7Z"/>
            </g>
            <g id="text_7">
              <g>
                <path id="Helvetica-55" d="M357.9,68.7v4.4c0,.5,0,1,.3,1.3.3.5.8.8,1.5.8s1.4-.3,1.7-.8c.2-.3.2-.7.2-1.2v-4.4h1v4c0,.9-.1,1.6-.4,2-.4.9-1.3,1.3-2.5,1.3s-2-.4-2.5-1.3c-.2-.5-.4-1.2-.4-2v-4h1ZM359.8,68.7h0Z"/>
                <path id="Helvetica-6e-4" data-name="Helvetica-6e" d="M364,70.7h.8v.7c.2-.3.5-.5.8-.7s.6-.2.9-.2c.7,0,1.2.3,1.5.8.1.3.2.7.2,1.2v3.4h-.9v-3.3c0-.3,0-.6-.1-.8-.2-.3-.4-.5-.9-.5s-.4,0-.5,0c-.2,0-.5.2-.6.4-.1.2-.2.4-.3.5,0,.2,0,.4,0,.8v2.7h-.9v-5.2ZM366.1,70.5h0Z"/>
                <path id="Helvetica-6b" d="M369.5,68.7h.8v4.2l2.3-2.2h1.1l-2,2,2.1,3.3h-1.1l-1.6-2.6-.7.7v2h-.8v-7.2Z"/>
                <path id="Helvetica-6e-5" data-name="Helvetica-6e" d="M374.6,70.7h.8v.7c.2-.3.5-.5.8-.7s.6-.2.9-.2c.7,0,1.2.3,1.5.8.1.3.2.7.2,1.2v3.4h-.9v-3.3c0-.3,0-.6-.1-.8-.2-.3-.4-.5-.9-.5s-.4,0-.5,0c-.2,0-.5.2-.6.4-.1.2-.2.4-.3.5,0,.2,0,.4,0,.8v2.7h-.9v-5.2ZM376.6,70.5h0Z"/>
                <path id="Helvetica-6f-2" data-name="Helvetica-6f" d="M382.2,75.3c.6,0,1-.2,1.2-.7s.3-.9.3-1.5,0-.9-.2-1.2c-.2-.5-.7-.7-1.3-.7s-.9.2-1.2.6c-.2.4-.4.9-.4,1.5s.1,1,.4,1.4c.2.4.6.6,1.2.6ZM382.2,70.5c.7,0,1.2.2,1.7.7.5.4.7,1.1.7,2s-.2,1.5-.6,2.1c-.4.6-1,.8-1.9.8s-1.3-.2-1.7-.7c-.4-.5-.6-1.1-.6-2s.2-1.6.7-2.1c.4-.5,1-.8,1.8-.8ZM382.2,70.5h0Z"/>
                <path id="Helvetica-77-2" data-name="Helvetica-77" d="M386.1,70.7l1,4.1,1-4.1h1l1,4.1,1.1-4.1h.9l-1.5,5.2h-.9l-1.1-4-1,4h-.9l-1.5-5.2h1Z"/>
                <path id="Helvetica-6e-6" data-name="Helvetica-6e" d="M392.9,70.7h.8v.7c.2-.3.5-.5.8-.7s.6-.2.9-.2c.7,0,1.2.3,1.5.8.1.3.2.7.2,1.2v3.4h-.9v-3.3c0-.3,0-.6-.1-.8-.2-.3-.4-.5-.9-.5s-.4,0-.5,0c-.2,0-.5.2-.6.4-.1.2-.2.4-.3.5,0,.2,0,.4,0,.8v2.7h-.9v-5.2ZM395,70.5h0Z"/>
                <path id="Helvetica-20-2" data-name="Helvetica-20" d="M397.8,75.9"/>
                <path id="Helvetica-43-2" data-name="Helvetica-43" d="M404.4,68.5c.9,0,1.6.2,2.1.7.5.5.8,1,.8,1.6h-.9c-.1-.5-.3-.8-.6-1.1-.3-.3-.8-.4-1.4-.4s-1.3.2-1.7.7c-.4.5-.7,1.3-.7,2.3s.2,1.5.6,2c.4.5,1,.8,1.8.8s1.3-.3,1.6-.8c.2-.3.3-.7.4-1.1h.9c0,.8-.4,1.4-.8,1.9-.6.6-1.3.9-2.3.9s-1.5-.3-2.1-.8c-.7-.7-1.1-1.7-1.1-3.1s.3-1.9.8-2.6c.6-.7,1.4-1.1,2.5-1.1ZM404.2,68.5h0Z"/>
                <path id="Helvetica-65-5" data-name="Helvetica-65" d="M410.6,70.5c.4,0,.7,0,1.1.3s.6.4.8.7c.2.3.3.6.4.9,0,.2,0,.6,0,1.2h-3.8c0,.5.1,1,.4,1.3.2.3.6.5,1.1.5s.8-.2,1.1-.5c.2-.2.3-.4.3-.6h.9c0,.2,0,.4-.2.6-.1.2-.3.4-.4.6-.3.3-.6.4-1,.5-.2,0-.5,0-.7,0-.7,0-1.2-.2-1.7-.7-.5-.5-.7-1.1-.7-2s.2-1.5.7-2c.5-.5,1.1-.8,1.8-.8ZM412,72.9c0-.4-.1-.7-.2-.9-.2-.4-.6-.6-1.2-.6s-.7.1-1,.4c-.3.3-.4.7-.4,1.1h2.9ZM410.6,70.5h0Z"/>
                <path id="Helvetica-6c-3" data-name="Helvetica-6c" d="M414,68.7h.9v7.2h-.9v-7.2Z"/>
                <path id="Helvetica-6c-4" data-name="Helvetica-6c" d="M416.3,68.7h.9v7.2h-.9v-7.2Z"/>
                <path id="Helvetica-74-2" data-name="Helvetica-74" d="M418.6,69.2h.9v1.5h.8v.7h-.8v3.4c0,.2,0,.3.2.4,0,0,.2,0,.3,0s0,0,.1,0,.1,0,.2,0v.7c-.1,0-.2,0-.3,0-.1,0-.2,0-.4,0-.4,0-.7-.1-.8-.3-.1-.2-.2-.5-.2-.8v-3.5h-.7v-.7h.7v-1.5Z"/>
                <path id="Helvetica-79-2" data-name="Helvetica-79" d="M424.5,70.7h1c-.1.3-.4,1.1-.8,2.3-.3.9-.6,1.6-.8,2.2-.5,1.3-.9,2.1-1.1,2.4-.2.3-.6.4-1.1.4s-.2,0-.3,0c0,0-.1,0-.2,0v-.8c.2,0,.3,0,.3,0,0,0,.1,0,.2,0,.2,0,.3,0,.4,0,0,0,.1-.1.2-.2,0,0,0-.2.2-.4.1-.2.2-.4.2-.5l-1.9-5.4h1l1.4,4.3,1.4-4.3ZM423.1,70.5h0Z"/>
                <path id="Helvetica-70-2" data-name="Helvetica-70" d="M428.5,75.3c.4,0,.8-.2,1-.5s.4-.9.4-1.5,0-.8-.2-1.1c-.2-.6-.6-.9-1.3-.9s-1,.3-1.3.9c-.1.3-.2.7-.2,1.2s0,.7.2,1c.2.5.6.8,1.3.8ZM426.2,70.7h.9v.7c.2-.2.4-.4.6-.6.3-.2.6-.3,1-.3.6,0,1.1.2,1.5.7s.6,1.1.6,1.9-.3,2-.9,2.4c-.4.3-.8.5-1.3.5s-.7,0-1-.3c-.2,0-.3-.3-.5-.5v2.7h-.9v-7.3Z"/>
                <path id="Helvetica-65-6" data-name="Helvetica-65" d="M434,70.5c.4,0,.7,0,1.1.3s.6.4.8.7c.2.3.3.6.4.9,0,.2,0,.6,0,1.2h-3.8c0,.5.1,1,.4,1.3.2.3.6.5,1.1.5s.8-.2,1.1-.5c.2-.2.3-.4.3-.6h.9c0,.2,0,.4-.2.6-.1.2-.3.4-.4.6-.3.3-.6.4-1,.5-.2,0-.5,0-.7,0-.7,0-1.2-.2-1.7-.7-.5-.5-.7-1.1-.7-2s.2-1.5.7-2c.5-.5,1.1-.8,1.8-.8ZM435.4,72.9c0-.4-.1-.7-.2-.9-.2-.4-.6-.6-1.2-.6s-.7.1-1,.4c-.3.3-.4.7-.4,1.1h2.9ZM433.9,70.5h0Z"/>
                <path id="Helvetica-73-2" data-name="Helvetica-73" d="M437.9,74.2c0,.3,0,.5.2.7.2.3.6.4,1.2.4s.6,0,.9-.2c.2-.1.4-.4.4-.7s0-.4-.3-.5c-.1,0-.4-.2-.8-.3l-.7-.2c-.4-.1-.8-.2-1-.4-.4-.2-.6-.6-.6-1s.2-.9.5-1.2c.4-.3.8-.5,1.4-.5s1.4.2,1.7.7c.2.3.3.6.3.9h-.8c0-.2,0-.4-.2-.5-.2-.2-.6-.3-1.1-.3s-.6,0-.8.2c-.2.1-.3.3-.3.5s.1.4.3.5c.1,0,.3.2.6.2h.6c.6.3,1.1.4,1.3.6.3.2.5.6.5,1.1s-.2.9-.5,1.2c-.4.3-.9.5-1.6.5s-1.3-.2-1.7-.5c-.3-.4-.5-.8-.5-1.3h.8ZM439.2,70.5h0Z"/>
              </g>
            </g>
            <g id="patch_17">
              <path class="cls-3" d="M328.1,90.2h20v-7h-20v7Z"/>
            </g>
            <g id="text_8">
              <g>
                <path id="Helvetica-52" d="M360.2,86.3c.5,0,.8,0,1.1-.3s.4-.5.4-1-.2-.9-.6-1c-.2,0-.5-.1-.8-.1h-2.4v2.5h2.2ZM357,83h3.3c.5,0,1,0,1.4.2.7.3,1,.9,1,1.7s0,.8-.3,1.1c-.2.3-.4.5-.7.7.3.1.5.3.6.4.1.2.2.5.2.9v1c0,.3,0,.5.1.6,0,.2.2.4.3.4v.2h-1.2c0,0,0-.1,0-.2,0,0,0-.3,0-.6v-1.2c0-.5-.3-.8-.6-.9-.2,0-.5-.1-.9-.1h-2.2v3.1h-1v-7.2Z"/>
                <path id="Helvetica-4f" d="M367.2,82.8c1.3,0,2.2.4,2.8,1.2.5.6.7,1.4.7,2.4s-.3,2-.8,2.7c-.6.8-1.5,1.3-2.7,1.3s-2-.4-2.6-1.1c-.6-.7-.8-1.6-.8-2.7s.2-1.8.7-2.5c.6-.9,1.5-1.3,2.7-1.3ZM367.3,89.5c.9,0,1.5-.3,1.9-.9.4-.6.6-1.3.6-2.1s-.2-1.5-.7-2c-.4-.5-1-.8-1.8-.8s-1.3.3-1.8.8c-.5.5-.7,1.3-.7,2.3s.2,1.5.6,2c.4.5,1.1.8,2,.8ZM367.2,82.8h0Z"/>
                <path id="Helvetica-49-2" data-name="Helvetica-49" d="M372.1,83h1v7.2h-1v-7.2Z"/>
              </g>
            </g>
          </g>
        </g>
        <g>
          <path id="Helvetica-43-3" data-name="Helvetica-43" d="M136.1,8.6c1.4,0,2.4.4,3.2,1.2.8.8,1.2,1.6,1.3,2.6h-1.4c-.2-.7-.5-1.3-1-1.8-.5-.4-1.2-.7-2-.7s-1.9.4-2.6,1.2c-.7.8-1,2-1,3.7s.3,2.4.9,3.3c.6.8,1.5,1.3,2.7,1.3s1.9-.4,2.5-1.3c.3-.5.5-1.1.7-1.8h1.4c-.1,1.2-.6,2.2-1.3,3-.9,1-2,1.5-3.5,1.5s-2.3-.4-3.2-1.2c-1.1-1.1-1.7-2.7-1.7-4.9s.4-3.1,1.3-4.2c.9-1.2,2.2-1.8,3.8-1.8ZM135.8,8.6h0Z"/>
          <path id="Helvetica-65-7" data-name="Helvetica-65" d="M145.6,11.8c.6,0,1.1.1,1.6.4s.9.6,1.2,1.1c.3.4.4.9.5,1.5,0,.4.1,1,.1,1.8h-5.8c0,.9.2,1.5.6,2,.4.5.9.8,1.7.8s1.2-.2,1.7-.7c.2-.3.4-.6.5-1h1.3c0,.3-.1.6-.3,1-.2.4-.4.7-.7.9-.4.4-.9.7-1.5.8-.3,0-.7.1-1.1.1-1,0-1.8-.4-2.5-1.1-.7-.8-1-1.8-1-3.2s.3-2.4,1-3.3c.7-.8,1.6-1.3,2.7-1.3ZM147.7,15.5c0-.6-.2-1.1-.4-1.5-.4-.7-1-1-1.8-1s-1.1.2-1.5.7c-.4.5-.6,1.1-.7,1.8h4.4ZM145.5,11.8h0Z"/>
          <path id="Helvetica-6c-5" data-name="Helvetica-6c" d="M150.8,8.9h1.3v11.5h-1.3v-11.5Z"/>
          <path id="Helvetica-6c-6" data-name="Helvetica-6c" d="M154.1,8.9h1.3v11.5h-1.3v-11.5Z"/>
          <path id="Helvetica-20-3" data-name="Helvetica-20" d="M156.5,20.4"/>
          <path id="Helvetica-54" d="M169.8,8.9v1.4h-3.7v10.1h-1.5v-10.1h-3.7v-1.4h8.8Z"/>
          <path id="Helvetica-79-3" data-name="Helvetica-79" d="M175.9,12h1.5c-.2.5-.6,1.8-1.3,3.7-.5,1.4-.9,2.6-1.2,3.5-.8,2.1-1.3,3.4-1.6,3.9-.3.5-.9.7-1.6.7s-.3,0-.4,0c-.1,0-.2,0-.4,0v-1.3c.2,0,.4.1.5.1.1,0,.2,0,.3,0,.2,0,.4,0,.5-.1.1,0,.2-.2.3-.3,0,0,.1-.3.3-.6.2-.4.3-.7.3-.9l-2.9-8.6h1.5l2.1,6.8,2.1-6.8ZM173.7,11.8h0Z"/>
          <path id="Helvetica-70-3" data-name="Helvetica-70" d="M181.8,19.4c.6,0,1.1-.3,1.6-.8s.6-1.4.6-2.5,0-1.2-.3-1.7c-.3-.9-1-1.4-1.9-1.4s-1.6.5-1.9,1.5c-.2.5-.3,1.2-.3,2s0,1.2.3,1.6c.3.9,1,1.3,1.9,1.3ZM178.4,12.1h1.3v1.1c.3-.4.6-.7.9-.9.4-.3,1-.5,1.6-.5.9,0,1.7.4,2.3,1.1s.9,1.8.9,3.1-.5,3.1-1.4,3.9c-.6.5-1.2.7-2,.7s-1.1-.1-1.5-.4c-.2-.2-.5-.4-.8-.8v4.3h-1.3v-11.7Z"/>
          <path id="Helvetica-65-8" data-name="Helvetica-65" d="M190.2,11.8c.6,0,1.1.1,1.6.4s.9.6,1.2,1.1c.3.4.4.9.5,1.5,0,.4.1,1,.1,1.8h-5.8c0,.9.2,1.5.6,2,.4.5.9.8,1.7.8s1.2-.2,1.7-.7c.2-.3.4-.6.5-1h1.3c0,.3-.1.6-.3,1-.2.4-.4.7-.7.9-.4.4-.9.7-1.5.8-.3,0-.7.1-1.1.1-1,0-1.8-.4-2.5-1.1-.7-.8-1-1.8-1-3.2s.3-2.4,1-3.3c.7-.8,1.6-1.3,2.7-1.3ZM192.4,15.5c0-.6-.2-1.1-.4-1.5-.4-.7-1-1-1.8-1s-1.1.2-1.5.7c-.4.5-.6,1.1-.7,1.8h4.4ZM190.1,11.8h0Z"/>
          <path id="Helvetica-20-4" data-name="Helvetica-20" d="M194.4,20.4"/>
          <path id="Helvetica-42" d="M203.8,13.8c.6,0,1.1,0,1.4-.3.5-.3.8-.8.8-1.5s-.3-1.3-.9-1.5c-.3-.1-.8-.2-1.4-.2h-2.6v3.6h2.7ZM204.3,19.1c.9,0,1.5-.3,1.9-.8.2-.3.4-.8.4-1.3,0-.8-.4-1.4-1.1-1.7-.4-.2-.9-.2-1.5-.2h-2.9v4h3.2ZM199.7,8.9h4.7c1.3,0,2.2.4,2.7,1.2.3.5.5,1,.5,1.6s-.2,1.3-.6,1.8c-.2.2-.5.5-.9.7.6.2,1,.5,1.3.8.5.5.7,1.2.7,2.1s-.2,1.4-.7,2c-.7.9-1.7,1.3-3.1,1.3h-4.6v-11.5Z"/>
          <path id="Helvetica-72" d="M209.7,12h1.3v1.4c.1-.3.4-.6.8-1,.4-.4.9-.6,1.4-.6s0,0,.1,0c0,0,.2,0,.3,0v1.5c0,0-.2,0-.2,0s-.1,0-.2,0c-.7,0-1.2.2-1.5.7-.4.5-.5,1-.5,1.6v4.8h-1.3v-8.4Z"/>
          <path id="Helvetica-65-9" data-name="Helvetica-65" d="M218,11.8c.6,0,1.1.1,1.6.4s.9.6,1.2,1.1c.3.4.4.9.5,1.5,0,.4.1,1,.1,1.8h-5.8c0,.9.2,1.5.6,2,.4.5.9.8,1.7.8s1.2-.2,1.7-.7c.2-.3.4-.6.5-1h1.3c0,.3-.1.6-.3,1-.2.4-.4.7-.7.9-.4.4-.9.7-1.5.8-.3,0-.7.1-1.1.1-1,0-1.8-.4-2.5-1.1-.7-.8-1-1.8-1-3.2s.3-2.4,1-3.3c.7-.8,1.6-1.3,2.7-1.3ZM220.2,15.5c0-.6-.2-1.1-.4-1.5-.4-.7-1-1-1.8-1s-1.1.2-1.5.7c-.4.5-.6,1.1-.7,1.8h4.4ZM217.9,11.8h0Z"/>
          <path id="Helvetica-61" d="M224.2,18.2c0,.4.1.7.4,1,.3.2.6.4,1,.4s.9-.1,1.4-.3c.7-.4,1.1-1,1.1-1.9v-1.1c-.2.1-.4.2-.6.3-.3,0-.5.1-.8.2h-.8c-.5.2-.8.3-1.1.4-.4.2-.6.6-.6,1.2ZM227.4,15.3c.3,0,.5-.2.6-.4,0-.1,0-.3,0-.5,0-.5-.2-.8-.5-1-.3-.2-.8-.3-1.4-.3s-1.2.2-1.5.6c-.2.2-.3.5-.3,1h-1.2c0-1,.3-1.7,1-2.2.6-.4,1.3-.6,2.1-.6s1.7.2,2.3.6c.6.4.9,1,.9,1.8v4.8c0,.1,0,.3,0,.4,0,0,.2.1.4.1s.1,0,.2,0,.2,0,.2,0v1c-.2,0-.4.1-.5.1-.1,0-.3,0-.4,0-.5,0-.8-.2-1-.5-.1-.2-.2-.4-.2-.8-.3.4-.7.7-1.2,1-.5.3-1.1.4-1.7.4s-1.3-.2-1.8-.7c-.5-.5-.7-1.1-.7-1.8s.2-1.4.7-1.8,1.1-.7,1.8-.8l2.1-.3ZM226.3,11.8h0Z"/>
          <path id="Helvetica-6b-2" data-name="Helvetica-6b" d="M231.6,8.9h1.3v6.7l3.4-3.6h1.7l-3,3.1,3.2,5.2h-1.7l-2.5-4.2-1.1,1.1v3.1h-1.3v-11.5Z"/>
          <path id="Helvetica-64-2" data-name="Helvetica-64" d="M240,16.3c0,.9.2,1.6.5,2.3.4.6.9.9,1.7.9s1.1-.3,1.5-.8c.4-.6.6-1.4.6-2.4s-.2-1.8-.6-2.3c-.4-.5-.9-.8-1.5-.8s-1.2.3-1.6.8-.6,1.3-.6,2.4ZM242,11.9c.6,0,1.1.1,1.5.4.2.2.5.4.8.8v-4.2h1.3v11.5h-1.2v-1.2c-.3.5-.7.9-1.1,1.1-.4.2-.9.3-1.5.3-.9,0-1.6-.4-2.3-1.2-.6-.8-1-1.8-1-3.1s.3-2.3.9-3.2c.6-.9,1.4-1.3,2.5-1.3Z"/>
          <path id="Helvetica-6f-3" data-name="Helvetica-6f" d="M250.7,19.5c.9,0,1.5-.4,1.8-1.1s.5-1.5.5-2.4-.1-1.4-.4-1.9c-.4-.8-1-1.2-1.9-1.2s-1.4.3-1.8,1c-.4.7-.6,1.4-.6,2.4s.2,1.6.6,2.2c.4.6,1,.9,1.8.9ZM250.8,11.8c1,0,1.9.4,2.6,1.1.7.7,1.1,1.8,1.1,3.2s-.3,2.5-.9,3.3c-.6.9-1.6,1.3-2.9,1.3s-2-.4-2.6-1.2c-.6-.8-1-1.8-1-3.1s.3-2.5,1-3.4c.7-.8,1.6-1.3,2.7-1.3ZM250.7,11.8h0Z"/>
          <path id="Helvetica-77-3" data-name="Helvetica-77" d="M256.6,12l1.5,6.6,1.5-6.6h1.5l1.6,6.6,1.6-6.6h1.3l-2.3,8.4h-1.4l-1.6-6.5-1.6,6.5h-1.4l-2.3-8.4h1.5Z"/>
          <path id="Helvetica-6e-7" data-name="Helvetica-6e" d="M267,12h1.3v1.2c.4-.5.8-.8,1.2-1.1s.9-.3,1.4-.3c1.1,0,1.9.4,2.3,1.2.2.5.3,1.1.3,1.9v5.4h-1.4v-5.3c0-.5,0-.9-.2-1.2-.2-.5-.7-.8-1.3-.8s-.6,0-.8.1c-.4.1-.7.3-1,.7-.2.3-.4.6-.4.9,0,.3,0,.7,0,1.3v4.4h-1.3v-8.4ZM270.1,11.8h0Z"/>
          <path id="Helvetica-20-5" data-name="Helvetica-20" d="M274.4,20.4"/>
          <path id="Helvetica-62" d="M279.5,8.9h1.3v4.2c.3-.4.6-.7,1-.9.4-.2.8-.3,1.3-.3,1,0,1.8.4,2.4,1.1.6.7.9,1.8.9,3.2s-.3,2.4-.9,3.3c-.6.9-1.4,1.3-2.5,1.3s-1.1-.2-1.5-.5c-.2-.2-.5-.5-.8-.9v1.1h-1.2v-11.5ZM283,19.4c.7,0,1.3-.3,1.6-.9.4-.6.5-1.4.5-2.4s-.2-1.6-.5-2.2c-.4-.6-.9-.9-1.6-.9s-1.1.2-1.6.7c-.5.5-.7,1.3-.7,2.3s0,1.4.3,1.9c.4.9,1,1.4,2,1.4Z"/>
          <path id="Helvetica-79-4" data-name="Helvetica-79" d="M293,12h1.5c-.2.5-.6,1.8-1.3,3.7-.5,1.4-.9,2.6-1.2,3.5-.8,2.1-1.3,3.4-1.6,3.9-.3.5-.9.7-1.6.7s-.3,0-.4,0c-.1,0-.2,0-.4,0v-1.3c.2,0,.4.1.5.1.1,0,.2,0,.3,0,.2,0,.4,0,.5-.1.1,0,.2-.2.3-.3,0,0,.1-.3.3-.6.2-.4.3-.7.3-.9l-2.9-8.6h1.5l2.1,6.8,2.1-6.8ZM290.8,11.8h0Z"/>
          <path id="Helvetica-20-6" data-name="Helvetica-20" d="M294.6,20.4"/>
          <path id="Helvetica-52-2" data-name="Helvetica-52" d="M305.1,14.2c.7,0,1.2-.1,1.6-.4s.6-.8.6-1.6-.3-1.4-.8-1.7c-.3-.2-.7-.2-1.2-.2h-3.6v3.9h3.4ZM300.2,8.9h5c.8,0,1.5.1,2,.4,1,.5,1.5,1.4,1.5,2.7s-.1,1.2-.4,1.7c-.3.4-.6.8-1.1,1.1.4.2.7.4,1,.7.2.3.3.8.4,1.4v1.5c0,.4.1.8.2,1,0,.4.2.6.5.7v.3h-1.8c0,0,0-.2-.1-.4,0-.2,0-.5,0-.9v-1.9c-.1-.8-.4-1.3-.9-1.5-.3-.1-.7-.2-1.3-.2h-3.4v4.9h-1.5v-11.5Z"/>
          <path id="Helvetica-4f-2" data-name="Helvetica-4f" d="M315.6,8.6c1.9,0,3.3.7,4.3,2,.7,1,1.1,2.3,1.1,3.9s-.4,3.1-1.2,4.3c-1,1.3-2.3,2-4.1,2s-3-.6-3.9-1.8c-.9-1.1-1.3-2.5-1.3-4.3s.4-2.9,1.1-4c.9-1.4,2.3-2.1,4.2-2.1ZM315.8,19.3c1.3,0,2.2-.5,2.8-1.5.6-1,.9-2.1.9-3.4s-.3-2.4-1-3.3c-.7-.8-1.6-1.2-2.7-1.2s-2,.4-2.8,1.2c-.7.8-1.1,2-1.1,3.6s.3,2.3.9,3.2c.6.9,1.6,1.3,3,1.3ZM315.7,8.6h0Z"/>
          <path id="Helvetica-49-3" data-name="Helvetica-49" d="M323.1,8.9h1.5v11.5h-1.5v-11.5Z"/>
        </g>
      </g>
    </g>
  </g>
</svg>