<?xml version="1.0" encoding="utf-8" standalone="no"?>
<!DOCTYPE svg PUBLIC "-//W3C//DTD SVG 1.1//EN"
  "http://www.w3.org/Graphics/SVG/1.1/DTD/svg11.dtd">
<svg xmlns:xlink="http://www.w3.org/1999/xlink" width="457.92pt" height="457.92pt" viewBox="0 0 457.92 457.92" xmlns="http://www.w3.org/2000/svg" version="1.1">
 <metadata>
  <rdf:RDF xmlns:dc="http://purl.org/dc/elements/1.1/" xmlns:cc="http://creativecommons.org/ns#" xmlns:rdf="http://www.w3.org/1999/02/22-rdf-syntax-ns#">
   <cc:Work>
    <dc:type rdf:resource="http://purl.org/dc/dcmitype/StillImage"/>
    <dc:date>2024-09-30T20:40:09.054985</dc:date>
    <dc:format>image/svg+xml</dc:format>
    <dc:creator>
     <cc:Agent>
      <dc:title>Matplotlib v3.7.1, https://matplotlib.org/</dc:title>
     </cc:Agent>
    </dc:creator>
   </cc:Work>
  </rdf:RDF>
 </metadata>
 <defs>
  <style type="text/css">*{stroke-linejoin: round; stroke-linecap: butt}</style>
 </defs>
 <g id="figure_1">
  <g id="patch_1">
   <path d="M 0 457.92 
L 457.92 457.92 
L 457.92 0 
L 0 0 
z
" style="fill: #ffffff"/>
  </g>
  <g id="axes_1">
   <g id="patch_2">
    <path d="M 276.225408 57.964153 
C 268.536832 55.838934 260.713666 54.23469 252.809185 53.162347 
C 244.904703 52.090004 236.936889 51.552 228.96 51.552 
L 228.96 122.5152 
C 233.746133 122.5152 238.526822 122.838002 243.269511 123.481408 
C 248.0122 124.124814 252.706099 125.08736 257.319245 126.362492 
z
" style="fill: #ff4500; stroke: #ffffff; stroke-linejoin: miter"/>
   </g>
   <g id="patch_3">
    <path d="M 395.568805 168.008342 
C 385.868831 141.493868 369.978184 117.673986 349.222112 98.535221 
C 328.46604 79.396457 303.438045 65.486069 276.225408 57.964153 
L 257.319245 126.362492 
C 273.646827 130.875641 288.663624 139.221874 301.117267 150.705133 
C 313.570911 162.188391 323.105298 176.480321 328.925283 192.389005 
z
" style="fill: #ff8c00; stroke: #ffffff; stroke-linejoin: miter"/>
   </g>
   <g id="patch_4">
    <path d="M 397.847875 174.641641 
C 397.489932 173.528717 397.120997 172.419358 396.741124 171.313727 
C 396.361252 170.208097 395.970459 169.106248 395.568805 168.008342 
L 328.925283 192.389005 
C 329.166276 193.047749 329.400751 193.708858 329.628675 194.372236 
C 329.856598 195.035615 330.077959 195.70123 330.292725 196.368984 
z
" style="fill: #ff4500; stroke: #ffffff; stroke-linejoin: miter"/>
   </g>
   <g id="patch_5">
    <path d="M 403.709038 259.560201 
C 406.183159 245.431196 406.934614 231.054133 405.946927 216.744188 
C 404.959241 202.434243 402.239684 188.296752 397.847875 174.641641 
L 330.292725 196.368984 
C 332.92781 204.562051 334.559544 213.044546 335.152156 221.630513 
C 335.744768 230.21648 335.293896 238.842717 333.809423 247.32012 
z
" style="fill: #ff8c00; stroke: #ffffff; stroke-linejoin: miter"/>
   </g>
   <g id="patch_6">
    <path d="M 321.743561 380.171141 
C 343.171089 367.023153 361.561175 349.469483 375.691635 328.676728 
C 389.822095 307.883973 399.372805 284.32319 403.709038 259.560201 
L 333.809423 247.32012 
C 331.207683 262.177914 325.477257 276.314384 316.998981 288.790037 
C 308.520705 301.26569 297.486653 311.797892 284.630137 319.686685 
z
" style="fill: #ff4500; stroke: #ffffff; stroke-linejoin: miter"/>
   </g>
   <g id="patch_7">
    <path d="M 166.596771 62.874401 
C 143.450261 71.565649 122.37421 85.0004 104.724268 102.314505 
C 87.074326 119.628611 73.237212 140.442711 64.102955 163.418003 
C 54.968699 186.393295 50.737436 211.026381 51.681328 235.732813 
C 52.625221 260.439244 58.723588 284.677693 69.584172 306.889096 
C 80.444756 329.100499 95.829596 348.798194 114.74911 364.715188 
C 133.668623 380.632182 155.708276 392.419726 179.450435 399.319624 
C 203.192594 406.219521 228.117058 408.080592 252.620638 404.783129 
C 277.124218 401.485666 300.67003 393.101917 321.743561 380.171141 
L 284.630137 319.686685 
C 271.986018 327.44515 257.858531 332.475399 243.156383 334.453877 
C 228.454235 336.432355 213.499556 335.315713 199.254261 331.175774 
C 185.008966 327.035836 171.785174 319.963309 160.433466 310.413113 
C 149.081758 300.862916 139.850854 289.044299 133.334503 275.717458 
C 126.818153 262.390616 123.159133 247.847546 122.592797 233.023688 
C 122.026461 218.199829 124.565219 203.419977 130.045773 189.634802 
C 135.526327 175.849627 143.828596 163.361166 154.418561 152.972703 
C 165.008526 142.58424 177.654157 134.523389 191.542063 129.308641 
z
" style="fill: #ff8c00; stroke: #ffffff; stroke-linejoin: miter"/>
   </g>
   <g id="patch_8">
    <path d="M 170.141746 61.586133 
C 169.548655 61.794556 168.956676 62.00613 168.365835 62.220846 
C 167.774993 62.435562 167.185297 62.653417 166.596771 62.874401 
L 191.542063 129.308641 
C 191.895178 129.17605 192.248996 129.045337 192.603501 128.916507 
C 192.958006 128.787678 193.313193 128.660733 193.669047 128.53568 
z
" style="fill: #ff4500; stroke: #ffffff; stroke-linejoin: miter"/>
   </g>
   <g id="patch_9">
    <path d="M 228.960027 51.552 
C 218.961936 51.551998 208.981715 52.397183 199.126011 54.078521 
C 189.270306 55.75986 179.574348 58.271343 170.141746 61.586133 
L 193.669047 128.53568 
C 199.328609 126.546806 205.146183 125.039916 211.059606 124.031113 
C 216.973029 123.02231 222.961162 122.515199 228.960016 122.5152 
z
" style="fill: #ff8c00; stroke: #ffffff; stroke-linejoin: miter"/>
   </g>
   <g id="patch_10">
    <path d="M 328.92528 192.388998 
C 321.431505 171.905082 307.81973 154.211182 289.942385 141.715263 
C 272.065039 129.219344 250.771636 122.5152 228.96 122.5152 
L 228.96 193.4784 
C 236.230545 193.4784 243.328346 195.713115 249.287462 199.878421 
C 255.246577 204.043727 259.783835 209.941694 262.28176 216.769666 
z
" style="fill: #00ced1; stroke: #ffffff; stroke-linejoin: miter"/>
   </g>
   <g id="patch_11">
    <path d="M 333.809425 247.32011 
C 335.415363 238.149044 335.811109 228.806784 334.986518 219.53276 
C 334.161928 210.258735 332.124106 201.132853 328.92528 192.388998 
L 262.28176 216.769666 
C 263.348035 219.684284 264.027309 222.726245 264.302173 225.817587 
C 264.577036 228.908928 264.445121 232.023015 263.909808 235.080037 
z
" style="fill: #00ced1; stroke: #ffffff; stroke-linejoin: miter"/>
   </g>
   <g id="patch_12">
    <path d="M 191.542034 129.308652 
C 174.08867 135.862194 158.659498 146.887449 146.805104 161.276409 
C 134.95071 175.665369 127.08197 192.919312 123.989669 211.304265 
C 120.897368 229.689218 122.688685 248.567957 129.1836 266.043223 
C 135.678514 283.518489 146.651911 298.984587 161.000994 310.887218 
C 175.350078 322.789849 192.577508 330.716467 210.951976 333.870469 
C 229.326445 337.024471 248.211091 335.29654 265.708062 328.860327 
C 283.205033 322.424114 298.707881 311.5027 310.658616 297.193655 
C 322.60935 282.884609 330.593756 265.683887 333.809425 247.32011 
L 263.909808 235.080037 
C 262.837919 241.201296 260.17645 246.93487 256.192872 251.704552 
C 252.209294 256.474233 247.041678 260.114705 241.209354 262.260109 
C 235.37703 264.405513 229.082148 264.98149 222.957325 263.930156 
C 216.832503 262.878822 211.090026 260.236616 206.306998 256.269073 
C 201.52397 252.301529 197.866171 247.146163 195.7012 241.321074 
C 193.536228 235.495986 192.939123 229.203073 193.96989 223.074755 
C 195.000657 216.946437 197.62357 211.195123 201.575035 206.398803 
C 205.526499 201.602483 210.669557 197.927398 216.487345 195.742884 
z
" style="fill: #00ced1; stroke: #ffffff; stroke-linejoin: miter"/>
   </g>
   <g id="patch_13">
    <path d="M 228.959985 122.5152 
C 222.583228 122.515201 216.21935 123.088218 209.945162 124.227334 
C 203.670973 125.36645 197.511817 127.067065 191.542034 129.308652 
L 216.487345 195.742884 
C 218.477272 194.995688 220.530324 194.428817 222.621721 194.049111 
C 224.713117 193.669406 226.834409 193.4784 228.959995 193.4784 
z
" style="fill: #00ced1; stroke: #ffffff; stroke-linejoin: miter"/>
   </g>
   <g id="matplotlib.axis_1"/>
   <g id="matplotlib.axis_2"/>
   <g id="text_1">
    <!-- INP -->
    <g style="fill: #ffffff" transform="translate(267.682525 183.665833) rotate(-55.047196) scale(0.14 -0.14)">
     <defs>
      <path id="Helvetica-49" d="M 628 4591 
L 1256 4591 
L 1256 0 
L 628 0 
L 628 4591 
z
" transform="scale(0.015625)"/>
      <path id="Helvetica-4e" d="M 488 4591 
L 1222 4591 
L 3541 872 
L 3541 4591 
L 4131 4591 
L 4131 0 
L 3434 0 
L 1081 3716 
L 1081 0 
L 488 0 
L 488 4591 
z
M 2269 4591 
L 2269 4591 
z
" transform="scale(0.015625)"/>
      <path id="Helvetica-50" d="M 547 4591 
L 2613 4591 
Q 3225 4591 3600 4245 
Q 3975 3900 3975 3275 
Q 3975 2738 3640 2339 
Q 3306 1941 2613 1941 
L 1169 1941 
L 1169 0 
L 547 0 
L 547 4591 
z
M 3347 3272 
Q 3347 3778 2972 3959 
Q 2766 4056 2406 4056 
L 1169 4056 
L 1169 2466 
L 2406 2466 
Q 2825 2466 3086 2644 
Q 3347 2822 3347 3272 
z
" transform="scale(0.015625)"/>
     </defs>
     <use xlink:href="#Helvetica-49"/>
     <use xlink:href="#Helvetica-4e" x="27.783203"/>
     <use xlink:href="#Helvetica-50" x="100"/>
    </g>
   </g>
   <g id="text_2">
    <!-- LX -->
    <g style="fill: #ffffff" transform="translate(282.862697 221.339722) rotate(-5.081035) scale(0.14 -0.14)">
     <defs>
      <path id="Helvetica-4c" d="M 488 4591 
L 1109 4591 
L 1109 547 
L 3434 547 
L 3434 0 
L 488 0 
L 488 4591 
z
" transform="scale(0.015625)"/>
      <path id="Helvetica-58" d="M 881 0 
L 131 0 
L 1775 2353 
L 234 4591 
L 1013 4591 
L 2184 2834 
L 3347 4591 
L 4088 4591 
L 2547 2353 
L 4163 0 
L 3391 0 
L 2153 1888 
L 881 0 
z
" transform="scale(0.015625)"/>
     </defs>
     <use xlink:href="#Helvetica-4c"/>
     <use xlink:href="#Helvetica-58" x="55.615234"/>
    </g>
   </g>
   <g id="text_3">
    <!-- SNP -->
    <g style="fill: #ffffff" transform="translate(174.355312 298.492213) rotate(-50.324137) scale(0.14 -0.14)">
     <defs>
      <path id="Helvetica-53" d="M 894 1481 
Q 916 1091 1078 847 
Q 1388 391 2169 391 
Q 2519 391 2806 491 
Q 3363 684 3363 1184 
Q 3363 1559 3128 1719 
Q 2891 1875 2384 1991 
L 1763 2131 
Q 1153 2269 900 2434 
Q 463 2722 463 3294 
Q 463 3913 891 4309 
Q 1319 4706 2103 4706 
Q 2825 4706 3329 4357 
Q 3834 4009 3834 3244 
L 3250 3244 
Q 3203 3613 3050 3809 
Q 2766 4169 2084 4169 
Q 1534 4169 1293 3937 
Q 1053 3706 1053 3400 
Q 1053 3063 1334 2906 
Q 1519 2806 2169 2656 
L 2813 2509 
Q 3278 2403 3531 2219 
Q 3969 1897 3969 1284 
Q 3969 522 3414 194 
Q 2859 -134 2125 -134 
Q 1269 -134 784 303 
Q 300 738 309 1481 
L 894 1481 
z
M 2150 4716 
L 2150 4716 
z
" transform="scale(0.015625)"/>
     </defs>
     <use xlink:href="#Helvetica-53"/>
     <use xlink:href="#Helvetica-4e" x="66.699219"/>
     <use xlink:href="#Helvetica-50" x="138.916016"/>
    </g>
   </g>
   <g id="text_4">
    <!-- VMNP -->
    <g style="fill: #ffffff" transform="translate(202.345659 136.273935) rotate(-280.290302) scale(0.14 -0.14)">
     <defs>
      <path id="Helvetica-56" d="M 850 4591 
L 2169 681 
L 3472 4591 
L 4169 4591 
L 2494 0 
L 1834 0 
L 163 4591 
L 850 4591 
z
" transform="scale(0.015625)"/>
      <path id="Helvetica-4d" d="M 472 4591 
L 1363 4591 
L 2681 709 
L 3991 4591 
L 4872 4591 
L 4872 0 
L 4281 0 
L 4281 2709 
Q 4281 2850 4287 3175 
Q 4294 3500 4294 3872 
L 2984 0 
L 2369 0 
L 1050 3872 
L 1050 3731 
Q 1050 3563 1058 3217 
Q 1066 2872 1066 2709 
L 1066 0 
L 472 0 
L 472 4591 
z
" transform="scale(0.015625)"/>
     </defs>
     <use xlink:href="#Helvetica-56"/>
     <use xlink:href="#Helvetica-4d" x="66.699219"/>
     <use xlink:href="#Helvetica-4e" x="150"/>
     <use xlink:href="#Helvetica-50" x="222.216797"/>
    </g>
   </g>
   <g id="legend_1">
    <g id="patch_14">
     <path d="M 326.127813 74.774062 
L 443.72 74.774062 
Q 445.72 74.774062 445.72 72.774062 
L 445.72 14.2 
Q 445.72 12.2 443.72 12.2 
L 326.127813 12.2 
Q 324.127813 12.2 324.127813 14.2 
L 324.127813 72.774062 
Q 324.127813 74.774062 326.127813 74.774062 
z
" style="fill: #ffffff; opacity: 0.8; stroke: #cccccc; stroke-linejoin: miter"/>
    </g>
    <g id="text_5">
     <!-- Legend -->
     <g transform="translate(364.904531 24.83625) scale(0.12 -0.12)">
      <defs>
       <path id="Helvetica-65" d="M 1806 3422 
Q 2163 3422 2497 3255 
Q 2831 3088 3006 2822 
Q 3175 2569 3231 2231 
Q 3281 2000 3281 1494 
L 828 1494 
Q 844 984 1069 676 
Q 1294 369 1766 369 
Q 2206 369 2469 659 
Q 2619 828 2681 1050 
L 3234 1050 
Q 3213 866 3089 639 
Q 2966 413 2813 269 
Q 2556 19 2178 -69 
Q 1975 -119 1719 -119 
Q 1094 -119 659 336 
Q 225 791 225 1609 
Q 225 2416 662 2919 
Q 1100 3422 1806 3422 
z
M 2703 1941 
Q 2669 2306 2544 2525 
Q 2313 2931 1772 2931 
Q 1384 2931 1121 2651 
Q 859 2372 844 1941 
L 2703 1941 
z
M 1753 3428 
L 1753 3428 
z
" transform="scale(0.015625)"/>
       <path id="Helvetica-67" d="M 1594 3406 
Q 1988 3406 2281 3213 
Q 2441 3103 2606 2894 
L 2606 3316 
L 3125 3316 
L 3125 272 
Q 3125 -366 2938 -734 
Q 2588 -1416 1616 -1416 
Q 1075 -1416 706 -1173 
Q 338 -931 294 -416 
L 866 -416 
Q 906 -641 1028 -763 
Q 1219 -950 1628 -950 
Q 2275 -950 2475 -494 
Q 2594 -225 2584 466 
Q 2416 209 2178 84 
Q 1941 -41 1550 -41 
Q 1006 -41 598 345 
Q 191 731 191 1622 
Q 191 2463 602 2934 
Q 1013 3406 1594 3406 
z
M 2606 1688 
Q 2606 2309 2350 2609 
Q 2094 2909 1697 2909 
Q 1103 2909 884 2353 
Q 769 2056 769 1575 
Q 769 1009 998 714 
Q 1228 419 1616 419 
Q 2222 419 2469 966 
Q 2606 1275 2606 1688 
z
M 1659 3428 
L 1659 3428 
z
" transform="scale(0.015625)"/>
       <path id="Helvetica-6e" d="M 413 3347 
L 947 3347 
L 947 2872 
Q 1184 3166 1450 3294 
Q 1716 3422 2041 3422 
Q 2753 3422 3003 2925 
Q 3141 2653 3141 2147 
L 3141 0 
L 2569 0 
L 2569 2109 
Q 2569 2416 2478 2603 
Q 2328 2916 1934 2916 
Q 1734 2916 1606 2875 
Q 1375 2806 1200 2600 
Q 1059 2434 1017 2257 
Q 975 2081 975 1753 
L 975 0 
L 413 0 
L 413 3347 
z
M 1734 3428 
L 1734 3428 
z
" transform="scale(0.015625)"/>
       <path id="Helvetica-64" d="M 769 1634 
Q 769 1097 997 734 
Q 1225 372 1728 372 
Q 2119 372 2370 708 
Q 2622 1044 2622 1672 
Q 2622 2306 2362 2611 
Q 2103 2916 1722 2916 
Q 1297 2916 1033 2591 
Q 769 2266 769 1634 
z
M 1616 3406 
Q 2000 3406 2259 3244 
Q 2409 3150 2600 2916 
L 2600 4606 
L 3141 4606 
L 3141 0 
L 2634 0 
L 2634 466 
Q 2438 156 2169 18 
Q 1900 -119 1553 -119 
Q 994 -119 584 351 
Q 175 822 175 1603 
Q 175 2334 548 2870 
Q 922 3406 1616 3406 
z
" transform="scale(0.015625)"/>
      </defs>
      <use xlink:href="#Helvetica-4c"/>
      <use xlink:href="#Helvetica-65" x="55.615234"/>
      <use xlink:href="#Helvetica-67" x="111.230469"/>
      <use xlink:href="#Helvetica-65" x="166.845703"/>
      <use xlink:href="#Helvetica-6e" x="222.460938"/>
      <use xlink:href="#Helvetica-64" x="278.076172"/>
     </g>
    </g>
    <g id="patch_15">
     <path d="M 328.127813 39.86 
L 348.127813 39.86 
L 348.127813 32.86 
L 328.127813 32.86 
z
" style="fill: #ff4500; stroke: #ffffff; stroke-linejoin: miter"/>
    </g>
    <g id="text_6">
     <!-- Known Celltypes -->
     <g transform="translate(356.127813 39.86) scale(0.1 -0.1)">
      <defs>
       <path id="Helvetica-4b" d="M 488 4591 
L 1094 4591 
L 1094 2353 
L 3331 4591 
L 4191 4591 
L 2281 2741 
L 4244 0 
L 3434 0 
L 1828 2303 
L 1094 1600 
L 1094 0 
L 488 0 
L 488 4591 
z
" transform="scale(0.015625)"/>
       <path id="Helvetica-6f" d="M 1741 363 
Q 2300 363 2508 786 
Q 2716 1209 2716 1728 
Q 2716 2197 2566 2491 
Q 2328 2953 1747 2953 
Q 1231 2953 997 2559 
Q 763 2166 763 1609 
Q 763 1075 997 719 
Q 1231 363 1741 363 
z
M 1763 3444 
Q 2409 3444 2856 3012 
Q 3303 2581 3303 1744 
Q 3303 934 2909 406 
Q 2516 -122 1688 -122 
Q 997 -122 590 345 
Q 184 813 184 1600 
Q 184 2444 612 2944 
Q 1041 3444 1763 3444 
z
M 1744 3428 
L 1744 3428 
z
" transform="scale(0.015625)"/>
       <path id="Helvetica-77" d="M 672 3347 
L 1316 709 
L 1969 3347 
L 2600 3347 
L 3256 725 
L 3941 3347 
L 4503 3347 
L 3531 0 
L 2947 0 
L 2266 2591 
L 1606 0 
L 1022 0 
L 56 3347 
L 672 3347 
z
" transform="scale(0.015625)"/>
       <path id="Helvetica-20" transform="scale(0.015625)"/>
       <path id="Helvetica-43" d="M 2422 4716 
Q 3294 4716 3775 4256 
Q 4256 3797 4309 3213 
L 3703 3213 
Q 3600 3656 3292 3915 
Q 2984 4175 2428 4175 
Q 1750 4175 1333 3698 
Q 916 3222 916 2238 
Q 916 1431 1292 929 
Q 1669 428 2416 428 
Q 3103 428 3463 956 
Q 3653 1234 3747 1688 
L 4353 1688 
Q 4272 963 3816 472 
Q 3269 -119 2341 -119 
Q 1541 -119 997 366 
Q 281 1006 281 2344 
Q 281 3359 819 4009 
Q 1400 4716 2422 4716 
z
M 2297 4716 
L 2297 4716 
z
" transform="scale(0.015625)"/>
       <path id="Helvetica-6c" d="M 428 4591 
L 991 4591 
L 991 0 
L 428 0 
L 428 4591 
z
" transform="scale(0.015625)"/>
       <path id="Helvetica-74" d="M 525 4281 
L 1094 4281 
L 1094 3347 
L 1628 3347 
L 1628 2888 
L 1094 2888 
L 1094 703 
Q 1094 528 1213 469 
Q 1278 434 1431 434 
Q 1472 434 1519 436 
Q 1566 438 1628 444 
L 1628 0 
Q 1531 -28 1426 -40 
Q 1322 -53 1200 -53 
Q 806 -53 665 148 
Q 525 350 525 672 
L 525 2888 
L 72 2888 
L 72 3347 
L 525 3347 
L 525 4281 
z
" transform="scale(0.015625)"/>
       <path id="Helvetica-79" d="M 2503 3347 
L 3125 3347 
Q 3006 3025 2597 1878 
Q 2291 1016 2084 472 
Q 1597 -809 1397 -1090 
Q 1197 -1372 709 -1372 
Q 591 -1372 527 -1362 
Q 463 -1353 369 -1328 
L 369 -816 
Q 516 -856 581 -865 
Q 647 -875 697 -875 
Q 853 -875 926 -823 
Q 1000 -772 1050 -697 
Q 1066 -672 1162 -440 
Q 1259 -209 1303 -97 
L 66 3347 
L 703 3347 
L 1600 622 
L 2503 3347 
z
M 1597 3428 
L 1597 3428 
z
" transform="scale(0.015625)"/>
       <path id="Helvetica-70" d="M 1825 378 
Q 2219 378 2480 708 
Q 2741 1038 2741 1694 
Q 2741 2094 2625 2381 
Q 2406 2934 1825 2934 
Q 1241 2934 1025 2350 
Q 909 2038 909 1556 
Q 909 1169 1025 897 
Q 1244 378 1825 378 
z
M 369 3331 
L 916 3331 
L 916 2888 
Q 1084 3116 1284 3241 
Q 1569 3428 1953 3428 
Q 2522 3428 2919 2992 
Q 3316 2556 3316 1747 
Q 3316 653 2744 184 
Q 2381 -113 1900 -113 
Q 1522 -113 1266 53 
Q 1116 147 931 375 
L 931 -1334 
L 369 -1334 
L 369 3331 
z
" transform="scale(0.015625)"/>
       <path id="Helvetica-73" d="M 747 1050 
Q 772 769 888 619 
Q 1100 347 1625 347 
Q 1938 347 2175 483 
Q 2413 619 2413 903 
Q 2413 1119 2222 1231 
Q 2100 1300 1741 1391 
L 1294 1503 
Q 866 1609 663 1741 
Q 300 1969 300 2372 
Q 300 2847 642 3140 
Q 984 3434 1563 3434 
Q 2319 3434 2653 2991 
Q 2863 2709 2856 2384 
L 2325 2384 
Q 2309 2575 2191 2731 
Q 1997 2953 1519 2953 
Q 1200 2953 1036 2831 
Q 872 2709 872 2509 
Q 872 2291 1088 2159 
Q 1213 2081 1456 2022 
L 1828 1931 
Q 2434 1784 2641 1647 
Q 2969 1431 2969 969 
Q 2969 522 2630 197 
Q 2291 -128 1597 -128 
Q 850 -128 539 211 
Q 228 550 206 1050 
L 747 1050 
z
M 1578 3428 
L 1578 3428 
z
" transform="scale(0.015625)"/>
      </defs>
      <use xlink:href="#Helvetica-4b"/>
      <use xlink:href="#Helvetica-6e" x="66.699219"/>
      <use xlink:href="#Helvetica-6f" x="122.314453"/>
      <use xlink:href="#Helvetica-77" x="177.929688"/>
      <use xlink:href="#Helvetica-6e" x="250.146484"/>
      <use xlink:href="#Helvetica-20" x="305.761719"/>
      <use xlink:href="#Helvetica-43" x="333.544922"/>
      <use xlink:href="#Helvetica-65" x="405.761719"/>
      <use xlink:href="#Helvetica-6c" x="461.376953"/>
      <use xlink:href="#Helvetica-6c" x="483.59375"/>
      <use xlink:href="#Helvetica-74" x="505.810547"/>
      <use xlink:href="#Helvetica-79" x="533.59375"/>
      <use xlink:href="#Helvetica-70" x="583.59375"/>
      <use xlink:href="#Helvetica-65" x="639.208984"/>
      <use xlink:href="#Helvetica-73" x="694.824219"/>
     </g>
    </g>
    <g id="patch_16">
     <path d="M 328.127813 54.3725 
L 348.127813 54.3725 
L 348.127813 47.3725 
L 328.127813 47.3725 
z
" style="fill: #ff8c00; stroke: #ffffff; stroke-linejoin: miter"/>
    </g>
    <g id="text_7">
     <!-- Unknown Celltypes -->
     <g transform="translate(356.127813 54.3725) scale(0.1 -0.1)">
      <defs>
       <path id="Helvetica-55" d="M 1163 4591 
L 1163 1753 
Q 1163 1253 1350 922 
Q 1628 422 2288 422 
Q 3078 422 3363 963 
Q 3516 1256 3516 1753 
L 3516 4591 
L 4147 4591 
L 4147 2013 
Q 4147 1166 3919 709 
Q 3500 -122 2338 -122 
Q 1175 -122 759 709 
Q 531 1166 531 2013 
L 531 4591 
L 1163 4591 
z
M 2341 4591 
L 2341 4591 
z
" transform="scale(0.015625)"/>
       <path id="Helvetica-6b" d="M 400 4591 
L 941 4591 
L 941 1925 
L 2384 3347 
L 3103 3347 
L 1822 2094 
L 3175 0 
L 2456 0 
L 1413 1688 
L 941 1256 
L 941 0 
L 400 0 
L 400 4591 
z
" transform="scale(0.015625)"/>
      </defs>
      <use xlink:href="#Helvetica-55"/>
      <use xlink:href="#Helvetica-6e" x="72.216797"/>
      <use xlink:href="#Helvetica-6b" x="127.832031"/>
      <use xlink:href="#Helvetica-6e" x="177.832031"/>
      <use xlink:href="#Helvetica-6f" x="233.447266"/>
      <use xlink:href="#Helvetica-77" x="289.0625"/>
      <use xlink:href="#Helvetica-6e" x="361.279297"/>
      <use xlink:href="#Helvetica-20" x="416.894531"/>
      <use xlink:href="#Helvetica-43" x="444.677734"/>
      <use xlink:href="#Helvetica-65" x="516.894531"/>
      <use xlink:href="#Helvetica-6c" x="572.509766"/>
      <use xlink:href="#Helvetica-6c" x="594.726562"/>
      <use xlink:href="#Helvetica-74" x="616.943359"/>
      <use xlink:href="#Helvetica-79" x="644.726562"/>
      <use xlink:href="#Helvetica-70" x="694.726562"/>
      <use xlink:href="#Helvetica-65" x="750.341797"/>
      <use xlink:href="#Helvetica-73" x="805.957031"/>
     </g>
    </g>
    <g id="patch_17">
     <path d="M 328.127813 68.689687 
L 348.127813 68.689687 
L 348.127813 61.689687 
L 328.127813 61.689687 
z
" style="fill: #00ced1; stroke: #ffffff; stroke-linejoin: miter"/>
    </g>
    <g id="text_8">
     <!-- neuropil -->
     <g transform="translate(356.127813 68.689687) scale(0.1 -0.1)">
      <defs>
       <path id="Helvetica-75" d="M 975 3347 
L 975 1125 
Q 975 869 1056 706 
Q 1206 406 1616 406 
Q 2203 406 2416 931 
Q 2531 1213 2531 1703 
L 2531 3347 
L 3094 3347 
L 3094 0 
L 2563 0 
L 2569 494 
Q 2459 303 2297 172 
Q 1975 -91 1516 -91 
Q 800 -91 541 388 
Q 400 644 400 1072 
L 400 3347 
L 975 3347 
z
M 1747 3428 
L 1747 3428 
z
" transform="scale(0.015625)"/>
       <path id="Helvetica-72" d="M 428 3347 
L 963 3347 
L 963 2769 
Q 1028 2938 1284 3180 
Q 1541 3422 1875 3422 
Q 1891 3422 1928 3419 
Q 1966 3416 2056 3406 
L 2056 2813 
Q 2006 2822 1964 2825 
Q 1922 2828 1872 2828 
Q 1447 2828 1219 2554 
Q 991 2281 991 1925 
L 991 0 
L 428 0 
L 428 3347 
z
" transform="scale(0.015625)"/>
       <path id="Helvetica-69" d="M 413 3331 
L 984 3331 
L 984 0 
L 413 0 
L 413 3331 
z
M 413 4591 
L 984 4591 
L 984 3953 
L 413 3953 
L 413 4591 
z
" transform="scale(0.015625)"/>
      </defs>
      <use xlink:href="#Helvetica-6e"/>
      <use xlink:href="#Helvetica-65" x="55.615234"/>
      <use xlink:href="#Helvetica-75" x="111.230469"/>
      <use xlink:href="#Helvetica-72" x="166.845703"/>
      <use xlink:href="#Helvetica-6f" x="200.146484"/>
      <use xlink:href="#Helvetica-70" x="255.761719"/>
      <use xlink:href="#Helvetica-69" x="311.376953"/>
      <use xlink:href="#Helvetica-6c" x="333.59375"/>
     </g>
    </g>
   </g>
  </g>
 </g>
</svg>
