<svg version="1.1" xmlns="http://www.w3.org/2000/svg" width="600" height="700"><defs><clipPath id="UXKtGIQvCFTp"><path fill="none" stroke="none" d="M 0.5 0.5 L 600.5 0.5 L 600.5 700.5 L 0.5 700.5 L 0.5 0.5 Z M 42.5 26.5 L 570.5 26.5 L 570.5 656.5 L 42.5 656.5 L 42.5 26.5 Z" clip-rule="evenodd"/></clipPath><clipPath id="ohmDcEfXZqwL"><path fill="none" stroke="none" d="M 42.5 26.5 L 570.5 26.5 L 570.5 656.5 L 42.5 656.5 L 42.5 26.5 Z"/></clipPath><clipPath id="wdgIlohlgtOT"><path fill="none" stroke="none" d="M 42.5 26.5 L 570.5 26.5 L 570.5 656.5 L 42.5 656.5 L 42.5 26.5 Z"/></clipPath><clipPath id="qBQczxwDZJDF"><path fill="none" stroke="none" d="M 42.5 26.5 L 570.5 26.5 L 570.5 656.5 L 42.5 656.5 L 42.5 26.5 Z"/></clipPath><clipPath id="bIQaBqDyhkyn"><path fill="none" stroke="none" d="M 42.5 26.5 L 570.5 26.5 L 570.5 656.5 L 42.5 656.5 L 42.5 26.5 Z"/></clipPath></defs><path fill="rgb(255,255,255)" stroke="none" paint-order="stroke" d="M 0.5 0.5 L 600.5 0.5 L 600.5 700.5 L 0.5 700.5 L 0.5 0.5 Z" fill-opacity="1" clip-path="url(#UXKtGIQvCFTp)"/><path fill="rgb(255,255,255)" stroke="none" paint-order="stroke" d="M 42.5 26.5 L 570.5 26.5 L 570.5 656.5 L 42.5 656.5 L 42.5 26.5 Z" fill-opacity="1"/><path fill="none" stroke="rgb(229,229,229)" paint-order="fill" d="M 42.5 26.5 L 570.5 26.5 L 570.5 656.5 L 42.5 656.5 L 42.5 26.5 Z" stroke-opacity="1" stroke-linejoin="bevel" stroke-miterlimit="10"/><path fill="none" stroke="rgb(229,229,229)" paint-order="fill" d="M 80.5 656.5 L 80.5 26.5 M 155.5 656.5 L 155.5 26.5 M 231.5 656.5 L 231.5 26.5 M 306.5 656.5 L 306.5 26.5 M 381.5 656.5 L 381.5 26.5 M 457.5 656.5 L 457.5 26.5" stroke-opacity="1" stroke-linejoin="bevel" stroke-miterlimit="10" clip-path="url(#ohmDcEfXZqwL)"/><path fill="none" stroke="rgb(229,229,229)" paint-order="fill" d="M 42.5 604.5 L 570.5 604.5 M 42.5 499.5 L 570.5 499.5 M 42.5 289.5 L 570.5 289.5 M 42.5 184.5 L 570.5 184.5 M 42.5 79.5 L 570.5 79.5" stroke-opacity="1" stroke-linejoin="bevel" stroke-miterlimit="10" clip-path="url(#wdgIlohlgtOT)"/><path fill="rgb(68,119,170)" stroke="rgb(68,119,170)" paint-order="fill" d="M 47.01594924926758 592.3046875 L 113.41261672973633 592.3046875 L 113.41261672973633 615.6953506469727 L 47.01594924926758 615.6953506469727 L 47.01594924926758 592.3046875 Z" fill-opacity="1" clip-path="url(#qBQczxwDZJDF)" stroke-opacity="1" stroke-linejoin="bevel" stroke-miterlimit="10"/><path fill="rgb(34,136,51)" stroke="rgb(34,136,51)" paint-order="fill" d="M 207.4261016845703 595.4005126953125 L 254.71674346923828 595.4005126953125 L 254.71674346923828 612.5995292663574 L 207.4261016845703 612.5995292663574 L 207.4261016845703 595.4005126953125 Z" fill-opacity="1" clip-path="url(#qBQczxwDZJDF)" stroke-opacity="1" stroke-linejoin="bevel" stroke-miterlimit="10"/><path fill="rgb(187,187,187)" stroke="rgb(187,187,187)" paint-order="fill" d="M 500.6224365234375 595.5294799804688 L 564.9489669799805 595.5294799804688 L 564.9489669799805 612.4705123901367 L 500.6224365234375 612.4705123901367 L 500.6224365234375 595.5294799804688 Z" fill-opacity="1" clip-path="url(#qBQczxwDZJDF)" stroke-opacity="1" stroke-linejoin="bevel" stroke-miterlimit="10"/><path fill="rgb(102,204,238)" stroke="rgb(102,204,238)" paint-order="fill" d="M 348.037841796875 595.615478515625 L 415.81927490234375 595.615478515625 L 415.81927490234375 612.3845195770264 L 348.037841796875 612.3845195770264 L 348.037841796875 595.615478515625 Z" fill-opacity="1" clip-path="url(#qBQczxwDZJDF)" stroke-opacity="1" stroke-linejoin="bevel" stroke-miterlimit="10"/><path fill="rgb(204,187,68)" stroke="rgb(204,187,68)" paint-order="fill" d="M 285.9582214355469 240.83251953125 L 327.0417938232422 240.83251953125 L 327.0417938232422 337.16747283935547 L 285.9582214355469 337.16747283935547 L 285.9582214355469 240.83251953125 Z" fill-opacity="1" clip-path="url(#qBQczxwDZJDF)" stroke-opacity="1" stroke-linejoin="bevel" stroke-miterlimit="10"/><path fill="rgb(170,51,119)" stroke="rgb(170,51,119)" paint-order="fill" d="M 426.6469421386719 596.6473999023438 L 488.0673484802246 596.6473999023438 L 488.0673484802246 611.352560043335 L 426.6469421386719 611.352560043335 L 426.6469421386719 596.6473999023438 Z" fill-opacity="1" clip-path="url(#qBQczxwDZJDF)" stroke-opacity="1" stroke-linejoin="bevel" stroke-miterlimit="10"/><path fill="rgb(238,102,119)" stroke="rgb(238,102,119)" paint-order="fill" d="M 125.88836669921875 469.4570007324219 L 185.3973388671875 469.4570007324219 L 185.3973388671875 528.5430221557617 L 125.88836669921875 528.5430221557617 L 125.88836669921875 469.4570007324219 Z" fill-opacity="1" clip-path="url(#qBQczxwDZJDF)" stroke-opacity="1" stroke-linejoin="bevel" stroke-miterlimit="10"/><path fill="rgb(204,187,68)" stroke="rgb(204,187,68)" paint-order="fill" d="M 289.653564453125 597.3353881835938 L 323.34644317626953 597.3353881835938 L 323.34644317626953 610.664626121521 L 289.653564453125 610.664626121521 L 289.653564453125 597.3353881835938 Z" fill-opacity="1" clip-path="url(#qBQczxwDZJDF)" stroke-opacity="1" stroke-linejoin="bevel" stroke-miterlimit="10"/><path fill="rgb(34,136,51)" stroke="rgb(34,136,51)" paint-order="fill" d="M 220.7857208251953 482.6290283203125 L 241.3571491241455 482.6290283203125 L 241.3571491241455 515.370964050293 L 220.7857208251953 515.370964050293 L 220.7857208251953 482.6290283203125 Z" fill-opacity="1" clip-path="url(#qBQczxwDZJDF)" stroke-opacity="1" stroke-linejoin="bevel" stroke-miterlimit="10"/><path fill="rgb(238,102,119)" stroke="rgb(238,102,119)" paint-order="fill" d="M 149.76776123046875 602.6670532226562 L 161.51794052124023 602.6670532226562 L 161.51794052124023 605.3329010009766 L 149.76776123046875 605.3329010009766 L 149.76776123046875 602.6670532226562 Z" fill-opacity="1" clip-path="url(#qBQczxwDZJDF)" stroke-opacity="1" stroke-linejoin="bevel" stroke-miterlimit="10"/><path fill="rgb(187,187,187)" stroke="rgb(187,187,187)" paint-order="fill" d="M 528.051025390625 51.8125 L 537.5204133987427 51.8125 L 537.5204133987427 106.1875 L 528.051025390625 106.1875 L 528.051025390625 51.8125 Z" fill-opacity="1" clip-path="url(#qBQczxwDZJDF)" stroke-opacity="1" stroke-linejoin="bevel" stroke-miterlimit="10"/><path fill="rgb(34,136,51)" stroke="rgb(34,136,51)" paint-order="fill" d="M 227.64285278320312 363.54998779296875 L 234.49999570846558 363.54998779296875 L 234.49999570846558 424.44998931884766 L 227.64285278320312 424.44998931884766 L 227.64285278320312 363.54998779296875 Z" fill-opacity="1" clip-path="url(#qBQczxwDZJDF)" stroke-opacity="1" stroke-linejoin="bevel" stroke-miterlimit="10"/><path fill="rgb(68,119,170)" stroke="rgb(68,119,170)" paint-order="fill" d="M 77.0409164428711 494.1075134277344 L 83.38765716552734 494.1075134277344 L 83.38765716552734 503.89245986938477 L 77.0409164428711 503.89245986938477 L 77.0409164428711 494.1075134277344 Z" fill-opacity="1" clip-path="url(#qBQczxwDZJDF)" stroke-opacity="1" stroke-linejoin="bevel" stroke-miterlimit="10"/><path fill="rgb(170,51,119)" stroke="rgb(170,51,119)" paint-order="fill" d="M 453.94488525390625 61.1875 L 460.7693748474121 61.1875 L 460.7693748474121 96.8125 L 453.94488525390625 96.8125 L 453.94488525390625 61.1875 Z" fill-opacity="1" clip-path="url(#qBQczxwDZJDF)" stroke-opacity="1" stroke-linejoin="bevel" stroke-miterlimit="10"/><path fill="rgb(170,51,119)" stroke="rgb(170,51,119)" paint-order="fill" d="M 454.4836730957031 142 L 460.23061180114746 142 L 460.23061180114746 226 L 454.4836730957031 226 L 454.4836730957031 142 Z" fill-opacity="1" clip-path="url(#qBQczxwDZJDF)" stroke-opacity="1" stroke-linejoin="bevel" stroke-miterlimit="10"/><path fill="rgb(102,204,238)" stroke="rgb(102,204,238)" paint-order="fill" d="M 379.669189453125 285.6868896484375 L 384.1879515647888 285.6868896484375 L 384.1879515647888 292.3131031990051 L 379.669189453125 292.3131031990051 L 379.669189453125 285.6868896484375 Z" fill-opacity="1" clip-path="url(#qBQczxwDZJDF)" stroke-opacity="1" stroke-linejoin="bevel" stroke-miterlimit="10"/><path fill="rgb(68,119,170)" stroke="rgb(68,119,170)" paint-order="fill" d="M 78.99375915527344 383.5 L 81.4348132610321 383.5 L 81.4348132610321 404.5 L 78.99375915527344 404.5 L 78.99375915527344 383.5 Z" fill-opacity="1" clip-path="url(#qBQczxwDZJDF)" stroke-opacity="1" stroke-linejoin="bevel" stroke-miterlimit="10"/><path fill="rgb(238,102,119)" stroke="rgb(238,102,119)" paint-order="fill" d="M 154.6952667236328 388.75 L 156.59045696258545 388.75 L 156.59045696258545 399.25 L 154.6952667236328 399.25 L 154.6952667236328 388.75 Z" fill-opacity="1" clip-path="url(#qBQczxwDZJDF)" stroke-opacity="1" stroke-linejoin="bevel" stroke-miterlimit="10"/><path fill="rgb(102,204,238)" stroke="rgb(102,204,238)" paint-order="fill" d="M 381.0595703125 388.75 L 382.7975558042526 388.75 L 382.7975558042526 399.25 L 381.0595703125 399.25 L 381.0595703125 388.75 Z" fill-opacity="1" clip-path="url(#qBQczxwDZJDF)" stroke-opacity="1" stroke-linejoin="bevel" stroke-miterlimit="10"/><path fill="rgb(34,136,51)" stroke="rgb(34,136,51)" paint-order="fill" d="M 230.7167510986328 76.1875 L 231.42611068487167 76.1875 L 231.42611068487167 81.8125 L 230.7167510986328 81.8125 L 230.7167510986328 76.1875 Z" fill-opacity="1" clip-path="url(#qBQczxwDZJDF)" stroke-opacity="1" stroke-linejoin="bevel" stroke-miterlimit="10"/><path fill="rgb(102,204,238)" stroke="rgb(102,204,238)" paint-order="fill" d="M 381.40716552734375 498.43548583984375 L 382.4499568939209 498.43548583984375 L 382.4499568939209 499.5645180940628 L 381.40716552734375 499.5645180940628 L 381.40716552734375 498.43548583984375 Z" fill-opacity="1" clip-path="url(#qBQczxwDZJDF)" stroke-opacity="1" stroke-linejoin="bevel" stroke-miterlimit="10"/><path fill="rgb(238,102,119)" stroke="rgb(238,102,119)" paint-order="fill" d="M 155.0742950439453 76.1875 L 156.21140921115875 76.1875 L 156.21140921115875 81.8125 L 155.0742950439453 81.8125 L 155.0742950439453 76.1875 Z" fill-opacity="1" clip-path="url(#qBQczxwDZJDF)" stroke-opacity="1" stroke-linejoin="bevel" stroke-miterlimit="10"/><path fill="rgb(170,51,119)" stroke="rgb(170,51,119)" paint-order="fill" d="M 456.818359375 498.43548583984375 L 457.8959103822708 498.43548583984375 L 457.8959103822708 499.5645180940628 L 456.818359375 499.5645180940628 L 456.818359375 498.43548583984375 Z" fill-opacity="1" clip-path="url(#qBQczxwDZJDF)" stroke-opacity="1" stroke-linejoin="bevel" stroke-miterlimit="10"/><path fill="rgb(238,102,119)" stroke="rgb(238,102,119)" paint-order="fill" d="M 155.0742950439453 288.2354431152344 L 156.21140921115875 288.2354431152344 L 156.21140921115875 289.76456928253174 L 155.0742950439453 289.76456928253174 L 155.0742950439453 288.2354431152344 Z" fill-opacity="1" clip-path="url(#qBQczxwDZJDF)" stroke-opacity="1" stroke-linejoin="bevel" stroke-miterlimit="10"/><path fill="rgb(187,187,187)" stroke="rgb(187,187,187)" paint-order="fill" d="M 532.2958984375 176.125 L 533.2754902839661 176.125 L 533.2754902839661 191.875 L 532.2958984375 191.875 L 532.2958984375 176.125 Z" fill-opacity="1" clip-path="url(#qBQczxwDZJDF)" stroke-opacity="1" stroke-linejoin="bevel" stroke-miterlimit="10"/><path fill="rgb(204,187,68)" stroke="rgb(204,187,68)" paint-order="fill" d="M 306.2826232910156 498.6236572265625 L 306.7173700928688 498.6236572265625 L 306.7173700928688 499.37634539604187 L 306.2826232910156 499.37634539604187 L 306.2826232910156 498.6236572265625 Z" fill-opacity="1" clip-path="url(#qBQczxwDZJDF)" stroke-opacity="1" stroke-linejoin="bevel" stroke-miterlimit="10"/><path fill="rgb(187,187,187)" stroke="rgb(187,187,187)" paint-order="fill" d="M 532.6224365234375 498.81182861328125 L 532.9489671289921 498.81182861328125 L 532.9489671289921 499.18817269802094 L 532.6224365234375 499.18817269802094 L 532.6224365234375 498.81182861328125 Z" fill-opacity="1" clip-path="url(#qBQczxwDZJDF)" stroke-opacity="1" stroke-linejoin="bevel" stroke-miterlimit="10"/><path fill="rgb(204,187,68)" stroke="rgb(204,187,68)" paint-order="fill" d="M 306.3913269042969 78.0625 L 306.60870030522346 78.0625 L 306.60870030522346 79.9375 L 306.3913269042969 79.9375 L 306.3913269042969 78.0625 Z" fill-opacity="1" clip-path="url(#qBQczxwDZJDF)" stroke-opacity="1" stroke-linejoin="bevel" stroke-miterlimit="10"/><path fill="rgb(170,51,119)" stroke="rgb(170,51,119)" paint-order="fill" d="M 457.17755126953125 288.7451477050781 L 457.5367349386215 288.7451477050781 L 457.5367349386215 289.254856467247 L 457.17755126953125 289.254856467247 L 457.17755126953125 288.7451477050781 Z" fill-opacity="1" clip-path="url(#qBQczxwDZJDF)" stroke-opacity="1" stroke-linejoin="bevel" stroke-miterlimit="10"/><path fill="rgb(102,204,238)" stroke="rgb(102,204,238)" paint-order="fill" d="M 381.7547607421875 181.375 L 382.10235783457756 181.375 L 382.10235783457756 186.625 L 381.7547607421875 186.625 L 381.7547607421875 181.375 Z" fill-opacity="1" clip-path="url(#qBQczxwDZJDF)" stroke-opacity="1" stroke-linejoin="bevel" stroke-miterlimit="10"/><path fill="rgb(68,119,170)" stroke="rgb(68,119,170)" paint-order="fill" d="M 80.09223175048828 78.0625 L 80.33633716404438 78.0625 L 80.33633716404438 79.9375 L 80.09223175048828 79.9375 L 80.09223175048828 78.0625 Z" fill-opacity="1" clip-path="url(#qBQczxwDZJDF)" stroke-opacity="1" stroke-linejoin="bevel" stroke-miterlimit="10"/><path fill="rgb(187,187,187)" stroke="rgb(187,187,187)" paint-order="fill" d="M 532.6224365234375 392.95001220703125 L 532.9489671289921 392.95001220703125 L 532.9489671289921 395.0500121116638 L 532.6224365234375 395.0500121116638 L 532.6224365234375 392.95001220703125 Z" fill-opacity="1" clip-path="url(#qBQczxwDZJDF)" stroke-opacity="1" stroke-linejoin="bevel" stroke-miterlimit="10"/><path fill="none" stroke="rgb(0,0,0)" paint-order="fill" d="M 42.5 656.5 L 570.5 656.5" stroke-opacity="1" stroke-linejoin="bevel" stroke-miterlimit="10"/><path fill="none" stroke="rgb(0,0,0)" paint-order="fill" d="M 80.5 662.5 L 80.5 654.5 M 155.5 662.5 L 155.5 654.5 M 231.5 662.5 L 231.5 654.5 M 306.5 662.5 L 306.5 654.5 M 381.5 662.5 L 381.5 654.5 M 457.5 662.5 L 457.5 654.5 M 532.5 662.5 L 532.5 654.5" stroke-opacity="1" stroke-linejoin="bevel" stroke-miterlimit="10"/><path fill="none" stroke="rgb(0,0,0)" paint-order="fill" d="" stroke-opacity="1" stroke-linejoin="bevel" stroke-miterlimit="10"/><text fill="rgb(68,68,68)" stroke="none" font-family="helvetica" font-size="11px" font-style="normal" font-weight="normal" text-decoration="normal" x="76.6559534072876" y="674.89013671875" text-anchor="start" dominant-baseline="alphabetic" transform="matrix(1, 0, 0, 1, 0.5, 0.5)" fill-opacity="1">1</text><text fill="none" stroke="rgb(0,0,0)" font-family="helvetica" font-size="11px" font-style="normal" font-weight="normal" text-decoration="normal" x="76.6559534072876" y="674.89013671875" text-anchor="start" dominant-baseline="alphabetic" transform="matrix(1, 0, 0, 1, 0.5, 0.5)" stroke-opacity="0" stroke-linejoin="bevel" stroke-miterlimit="10">1</text><text fill="rgb(68,68,68)" stroke="none" font-family="helvetica" font-size="11px" font-style="normal" font-weight="normal" text-decoration="normal" x="152.0845193862915" y="674.89013671875" text-anchor="start" dominant-baseline="alphabetic" transform="matrix(1, 0, 0, 1, 0.5, 0.5)" fill-opacity="1">2</text><text fill="none" stroke="rgb(0,0,0)" font-family="helvetica" font-size="11px" font-style="normal" font-weight="normal" text-decoration="normal" x="152.0845193862915" y="674.89013671875" text-anchor="start" dominant-baseline="alphabetic" transform="matrix(1, 0, 0, 1, 0.5, 0.5)" stroke-opacity="0" stroke-linejoin="bevel" stroke-miterlimit="10">2</text><text fill="rgb(68,68,68)" stroke="none" font-family="helvetica" font-size="11px" font-style="normal" font-weight="normal" text-decoration="normal" x="227.51309299468994" y="674.89013671875" text-anchor="start" dominant-baseline="alphabetic" transform="matrix(1, 0, 0, 1, 0.5, 0.5)" fill-opacity="1">3</text><text fill="none" stroke="rgb(0,0,0)" font-family="helvetica" font-size="11px" font-style="normal" font-weight="normal" text-decoration="normal" x="227.51309299468994" y="674.89013671875" text-anchor="start" dominant-baseline="alphabetic" transform="matrix(1, 0, 0, 1, 0.5, 0.5)" stroke-opacity="0" stroke-linejoin="bevel" stroke-miterlimit="10">3</text><text fill="rgb(68,68,68)" stroke="none" font-family="helvetica" font-size="11px" font-style="normal" font-weight="normal" text-decoration="normal" x="302.9416666030884" y="674.89013671875" text-anchor="start" dominant-baseline="alphabetic" transform="matrix(1, 0, 0, 1, 0.5, 0.5)" fill-opacity="1">4</text><text fill="none" stroke="rgb(0,0,0)" font-family="helvetica" font-size="11px" font-style="normal" font-weight="normal" text-decoration="normal" x="302.9416666030884" y="674.89013671875" text-anchor="start" dominant-baseline="alphabetic" transform="matrix(1, 0, 0, 1, 0.5, 0.5)" stroke-opacity="0" stroke-linejoin="bevel" stroke-miterlimit="10">4</text><text fill="rgb(68,68,68)" stroke="none" font-family="helvetica" font-size="11px" font-style="normal" font-weight="normal" text-decoration="normal" x="378.37022495269775" y="674.89013671875" text-anchor="start" dominant-baseline="alphabetic" transform="matrix(1, 0, 0, 1, 0.5, 0.5)" fill-opacity="1">5</text><text fill="none" stroke="rgb(0,0,0)" font-family="helvetica" font-size="11px" font-style="normal" font-weight="normal" text-decoration="normal" x="378.37022495269775" y="674.89013671875" text-anchor="start" dominant-baseline="alphabetic" transform="matrix(1, 0, 0, 1, 0.5, 0.5)" stroke-opacity="0" stroke-linejoin="bevel" stroke-miterlimit="10">5</text><text fill="rgb(68,68,68)" stroke="none" font-family="helvetica" font-size="11px" font-style="normal" font-weight="normal" text-decoration="normal" x="453.79881381988525" y="674.89013671875" text-anchor="start" dominant-baseline="alphabetic" transform="matrix(1, 0, 0, 1, 0.5, 0.5)" fill-opacity="1">6</text><text fill="none" stroke="rgb(0,0,0)" font-family="helvetica" font-size="11px" font-style="normal" font-weight="normal" text-decoration="normal" x="453.79881381988525" y="674.89013671875" text-anchor="start" dominant-baseline="alphabetic" transform="matrix(1, 0, 0, 1, 0.5, 0.5)" stroke-opacity="0" stroke-linejoin="bevel" stroke-miterlimit="10">6</text><text fill="rgb(68,68,68)" stroke="none" font-family="helvetica" font-size="11px" font-style="normal" font-weight="normal" text-decoration="normal" x="529.2273721694946" y="674.89013671875" text-anchor="start" dominant-baseline="alphabetic" transform="matrix(1, 0, 0, 1, 0.5, 0.5)" fill-opacity="1">7</text><text fill="none" stroke="rgb(0,0,0)" font-family="helvetica" font-size="11px" font-style="normal" font-weight="normal" text-decoration="normal" x="529.2273721694946" y="674.89013671875" text-anchor="start" dominant-baseline="alphabetic" transform="matrix(1, 0, 0, 1, 0.5, 0.5)" stroke-opacity="0" stroke-linejoin="bevel" stroke-miterlimit="10">7</text><text fill="rgb(68,68,68)" stroke="none" font-family="helvetica" font-size="13px" font-style="italic" font-weight="normal" text-decoration="normal" x="246.0083351135254" y="693.89013671875" text-anchor="start" dominant-baseline="alphabetic" transform="matrix(1, 0, 0, 1, 0.5, 0.5)" fill-opacity="1">Module in 0.0_oviHB</text><text fill="none" stroke="rgb(0,0,0)" font-family="helvetica" font-size="13px" font-style="italic" font-weight="normal" text-decoration="normal" x="246.0083351135254" y="693.89013671875" text-anchor="start" dominant-baseline="alphabetic" transform="matrix(1, 0, 0, 1, 0.5, 0.5)" stroke-opacity="0" stroke-linejoin="bevel" stroke-miterlimit="10">Module in 0.0_oviHB</text><path fill="none" stroke="rgb(0,0,0)" paint-order="fill" d="M 42.5 656.5 L 42.5 26.5" stroke-opacity="1" stroke-linejoin="bevel" stroke-miterlimit="10"/><path fill="none" stroke="rgb(0,0,0)" paint-order="fill" d="M 36.5 604.5 L 44.5 604.5 M 36.5 499.5 L 44.5 499.5 M 36.5 394.5 L 44.5 394.5 M 36.5 289.5 L 44.5 289.5 M 36.5 184.5 L 44.5 184.5 M 36.5 79.5 L 44.5 79.5" stroke-opacity="1" stroke-linejoin="bevel" stroke-miterlimit="10"/><path fill="none" stroke="rgb(0,0,0)" paint-order="fill" d="" stroke-opacity="1" stroke-linejoin="bevel" stroke-miterlimit="10"/><text fill="rgb(68,68,68)" stroke="none" font-family="helvetica" font-size="11px" font-style="normal" font-weight="normal" text-decoration="normal" x="24.883333206176758" y="607.445068359375" text-anchor="start" dominant-baseline="alphabetic" transform="matrix(1, 0, 0, 1, 0.5, 0.5)" fill-opacity="1">3</text><text fill="none" stroke="rgb(0,0,0)" font-family="helvetica" font-size="11px" font-style="normal" font-weight="normal" text-decoration="normal" x="24.883333206176758" y="607.445068359375" text-anchor="start" dominant-baseline="alphabetic" transform="matrix(1, 0, 0, 1, 0.5, 0.5)" stroke-opacity="0" stroke-linejoin="bevel" stroke-miterlimit="10">3</text><text fill="rgb(68,68,68)" stroke="none" font-family="helvetica" font-size="11px" font-style="normal" font-weight="normal" text-decoration="normal" x="24.883333206176758" y="502.445068359375" text-anchor="start" dominant-baseline="alphabetic" transform="matrix(1, 0, 0, 1, 0.5, 0.5)" fill-opacity="1">1</text><text fill="none" stroke="rgb(0,0,0)" font-family="helvetica" font-size="11px" font-style="normal" font-weight="normal" text-decoration="normal" x="24.883333206176758" y="502.445068359375" text-anchor="start" dominant-baseline="alphabetic" transform="matrix(1, 0, 0, 1, 0.5, 0.5)" stroke-opacity="0" stroke-linejoin="bevel" stroke-miterlimit="10">1</text><text fill="rgb(68,68,68)" stroke="none" font-family="helvetica" font-size="11px" font-style="normal" font-weight="normal" text-decoration="normal" x="24.883333206176758" y="397.445068359375" text-anchor="start" dominant-baseline="alphabetic" transform="matrix(1, 0, 0, 1, 0.5, 0.5)" fill-opacity="1">6</text><text fill="none" stroke="rgb(0,0,0)" font-family="helvetica" font-size="11px" font-style="normal" font-weight="normal" text-decoration="normal" x="24.883333206176758" y="397.445068359375" text-anchor="start" dominant-baseline="alphabetic" transform="matrix(1, 0, 0, 1, 0.5, 0.5)" stroke-opacity="0" stroke-linejoin="bevel" stroke-miterlimit="10">6</text><text fill="rgb(68,68,68)" stroke="none" font-family="helvetica" font-size="11px" font-style="normal" font-weight="normal" text-decoration="normal" x="24.883333206176758" y="292.445068359375" text-anchor="start" dominant-baseline="alphabetic" transform="matrix(1, 0, 0, 1, 0.5, 0.5)" fill-opacity="1">2</text><text fill="none" stroke="rgb(0,0,0)" font-family="helvetica" font-size="11px" font-style="normal" font-weight="normal" text-decoration="normal" x="24.883333206176758" y="292.445068359375" text-anchor="start" dominant-baseline="alphabetic" transform="matrix(1, 0, 0, 1, 0.5, 0.5)" stroke-opacity="0" stroke-linejoin="bevel" stroke-miterlimit="10">2</text><text fill="rgb(68,68,68)" stroke="none" font-family="helvetica" font-size="11px" font-style="normal" font-weight="normal" text-decoration="normal" x="24.883333206176758" y="187.445068359375" text-anchor="start" dominant-baseline="alphabetic" transform="matrix(1, 0, 0, 1, 0.5, 0.5)" fill-opacity="1">5</text><text fill="none" stroke="rgb(0,0,0)" font-family="helvetica" font-size="11px" font-style="normal" font-weight="normal" text-decoration="normal" x="24.883333206176758" y="187.445068359375" text-anchor="start" dominant-baseline="alphabetic" transform="matrix(1, 0, 0, 1, 0.5, 0.5)" stroke-opacity="0" stroke-linejoin="bevel" stroke-miterlimit="10">5</text><text fill="rgb(68,68,68)" stroke="none" font-family="helvetica" font-size="11px" font-style="normal" font-weight="normal" text-decoration="normal" x="24.883333206176758" y="82.445068359375" text-anchor="start" dominant-baseline="alphabetic" transform="matrix(1, 0, 0, 1, 0.5, 0.5)" fill-opacity="1">4</text><text fill="none" stroke="rgb(0,0,0)" font-family="helvetica" font-size="11px" font-style="normal" font-weight="normal" text-decoration="normal" x="24.883333206176758" y="82.445068359375" text-anchor="start" dominant-baseline="alphabetic" transform="matrix(1, 0, 0, 1, 0.5, 0.5)" stroke-opacity="0" stroke-linejoin="bevel" stroke-miterlimit="10">4</text><text fill="rgb(68,68,68)" stroke="none" font-family="helvetica" font-size="13px" font-style="italic" font-weight="normal" text-decoration="normal" x="-51.7833309173584" y="338" text-anchor="start" dominant-baseline="alphabetic" transform="matrix(6.123233995736766e-17, -1, 1, 6.123233995736766e-17, -323.61666679382324, 358.38333320617676)" fill-opacity="1">Module in 0.0_wholeHB</text><text fill="none" stroke="rgb(0,0,0)" font-family="helvetica" font-size="13px" font-style="italic" font-weight="normal" text-decoration="normal" x="-51.7833309173584" y="338" text-anchor="start" dominant-baseline="alphabetic" transform="matrix(6.123233995736766e-17, -1, 1, 6.123233995736766e-17, -323.61666679382324, 358.38333320617676)" stroke-opacity="0" stroke-linejoin="bevel" stroke-miterlimit="10">Module in 0.0_wholeHB</text><text fill="rgb(68,68,68)" stroke="none" font-family="helvetica" font-size="13px" font-style="normal" font-weight="bold" text-decoration="normal" x="0" y="11" text-anchor="start" dominant-baseline="alphabetic" transform="matrix(1, 0, 0, 1, 42.5, 7.5)" fill-opacity="1">Module at chi2 = 0.0_wholeHB vs. module at chi1 = 0.0_oviHB</text><text fill="none" stroke="rgb(0,0,0)" font-family="helvetica" font-size="13px" font-style="normal" font-weight="bold" text-decoration="normal" x="0" y="11" text-anchor="start" dominant-baseline="alphabetic" transform="matrix(1, 0, 0, 1, 42.5, 7.5)" stroke-opacity="0" stroke-miterlimit="10" stroke-dasharray="">Module at chi2 = 0.0_wholeHB vs. module at chi1 = 0.0_oviHB</text></svg>