<svg version="1.1" xmlns="http://www.w3.org/2000/svg" width="600" height="700"><defs><clipPath id="VVUWRHaZGyOV"><path fill="none" stroke="none" d="M 43.5 27.5 L 570.5 27.5 L 570.5 655.5 L 43.5 655.5 L 43.5 27.5 Z"/></clipPath><clipPath id="ibdkGlQFObky"><path fill="none" stroke="none" d="M 43.5 27.5 L 570.5 27.5 L 570.5 655.5 L 43.5 655.5 L 43.5 27.5 Z"/></clipPath><clipPath id="rITTpZveJgXZ"><path fill="none" stroke="none" d="M 43.5 27.5 L 570.5 27.5 L 570.5 655.5 L 43.5 655.5 L 43.5 27.5 Z"/></clipPath><clipPath id="whCTGSLzeVUi"><path fill="none" stroke="none" d="M 43.5 27.5 L 570.5 27.5 L 570.5 655.5 L 43.5 655.5 L 43.5 27.5 Z"/></clipPath></defs><path fill="rgb(255,255,255)" stroke="none" paint-order="stroke" d="M 0.5 0.5 L 600.5 0.5 L 600.5 700.5 L 0.5 700.5 L 0.5 0.5 Z" fill-opacity="1"/><rect fill="#FFFFFF" stroke="none" x="43" y="27" width="527" height="628" transform="matrix(1, 0, 0, 1, 0.5, 0.5)"/><path fill="rgb(255,255,255)" stroke="none" paint-order="stroke" d="M 43.5 27.5 L 570.5 27.5 L 570.5 655.5 L 43.5 655.5 L 43.5 27.5 Z" fill-opacity="1"/><path fill="none" stroke="rgb(229,229,229)" paint-order="fill" d="M 43.5 27.5 L 570.5 27.5 L 570.5 655.5 L 43.5 655.5 L 43.5 27.5 Z" stroke-opacity="1" stroke-linejoin="bevel" stroke-miterlimit="10"/><path fill="none" stroke="rgb(229,229,229)" paint-order="fill" d="M 81.5 655.5 L 81.5 27.5 M 156.5 655.5 L 156.5 27.5 M 231.5 655.5 L 231.5 27.5 M 307.5 655.5 L 307.5 27.5 M 382.5 655.5 L 382.5 27.5 M 457.5 655.5 L 457.5 27.5" stroke-opacity="1" stroke-linejoin="bevel" stroke-miterlimit="10" clip-path="url(#VVUWRHaZGyOV)"/><path fill="none" stroke="rgb(229,229,229)" paint-order="fill" d="M 43.5 603.5 L 570.5 603.5 M 43.5 498.5 L 570.5 498.5 M 43.5 289.5 L 570.5 289.5 M 43.5 184.5 L 570.5 184.5 M 43.5 79.5 L 570.5 79.5" stroke-opacity="1" stroke-linejoin="bevel" stroke-miterlimit="10" clip-path="url(#ibdkGlQFObky)"/><path fill="rgb(78,144,211)" stroke="rgb(78,144,211)" paint-order="fill" d="M 48.00739669799805 591.5084838867188 L 114.27831649780273 591.5084838867188 L 114.27831649780273 614.8248920440674 L 48.00739669799805 614.8248920440674 L 48.00739669799805 591.5084838867188 Z" fill-opacity="1" clip-path="url(#rITTpZveJgXZ)" stroke-opacity="1" stroke-linejoin="bevel" stroke-miterlimit="10"/><path fill="rgb(231,207,87)" stroke="rgb(231,207,87)" paint-order="fill" d="M 208.11375427246094 594.594482421875 L 255.3148307800293 594.594482421875 L 255.3148307800293 611.738899230957 L 208.11375427246094 611.738899230957 L 208.11375427246094 594.594482421875 Z" fill-opacity="1" clip-path="url(#rITTpZveJgXZ)" stroke-opacity="1" stroke-linejoin="bevel" stroke-miterlimit="10"/><path fill="rgb(159,173,43)" stroke="rgb(159,173,43)" paint-order="fill" d="M 500.7547912597656 594.7230224609375 L 564.9594879150391 594.7230224609375 L 564.9594879150391 611.610273361206 L 500.7547912597656 611.610273361206 L 500.7547912597656 594.7230224609375 Z" fill-opacity="1" clip-path="url(#rITTpZveJgXZ)" stroke-opacity="1" stroke-linejoin="bevel" stroke-miterlimit="10"/><path fill="rgb(92,201,255)" stroke="rgb(92,201,255)" paint-order="fill" d="M 348.4591979980469 594.8087768554688 L 416.1122589111328 594.8087768554688 L 416.1122589111328 611.5245838165283 L 348.4591979980469 611.5245838165283 L 348.4591979980469 594.8087768554688 Z" fill-opacity="1" clip-path="url(#rITTpZveJgXZ)" stroke-opacity="1" stroke-linejoin="bevel" stroke-miterlimit="10"/><path fill="rgb(255,106,136)" stroke="rgb(255,106,136)" paint-order="fill" d="M 286.49713134765625 241.152099609375 L 327.5028953552246 241.152099609375 L 327.5028953552246 337.1812286376953 L 286.49713134765625 337.1812286376953 L 286.49713134765625 241.152099609375 Z" fill-opacity="1" clip-path="url(#rITTpZveJgXZ)" stroke-opacity="1" stroke-linejoin="bevel" stroke-miterlimit="10"/><path fill="rgb(58,159,130)" stroke="rgb(58,159,130)" paint-order="fill" d="M 426.91937255859375 595.83740234375 L 488.2234535217285 595.83740234375 L 488.2234535217285 610.4958791732788 L 426.91937255859375 610.4958791732788 L 426.91937255859375 595.83740234375 Z" fill-opacity="1" clip-path="url(#rITTpZveJgXZ)" stroke-opacity="1" stroke-linejoin="bevel" stroke-miterlimit="10"/><path fill="rgb(148,103,189)" stroke="rgb(148,103,189)" paint-order="fill" d="M 126.73043823242188 469.05078125 L 186.12670516967773 469.05078125 L 186.12670516967773 527.9492263793945 L 126.73043823242188 527.9492263793945 L 126.73043823242188 469.05078125 Z" fill-opacity="1" clip-path="url(#rITTpZveJgXZ)" stroke-opacity="1" stroke-linejoin="bevel" stroke-miterlimit="10"/><path fill="rgb(255,106,136)" stroke="rgb(255,106,136)" paint-order="fill" d="M 290.1854553222656 596.523193359375 L 323.8145217895508 596.523193359375 L 323.8145217895508 609.8101167678833 L 290.1854553222656 609.8101167678833 L 290.1854553222656 596.523193359375 Z" fill-opacity="1" clip-path="url(#rITTpZveJgXZ)" stroke-opacity="1" stroke-linejoin="bevel" stroke-miterlimit="10"/><path fill="rgb(231,207,87)" stroke="rgb(231,207,87)" paint-order="fill" d="M 221.44805908203125 482.1809997558594 L 241.98052597045898 482.1809997558594 L 241.98052597045898 514.8189926147461 L 221.44805908203125 514.8189926147461 L 221.44805908203125 482.1809997558594 Z" fill-opacity="1" clip-path="url(#rITTpZveJgXZ)" stroke-opacity="1" stroke-linejoin="bevel" stroke-miterlimit="10"/><path fill="rgb(148,103,189)" stroke="rgb(148,103,189)" paint-order="fill" d="M 150.56460571289062 601.8379516601562 L 162.29253101348877 601.8379516601562 L 162.29253101348877 604.4953362941742 L 150.56460571289062 604.4953362941742 L 150.56460571289062 601.8379516601562 Z" fill-opacity="1" clip-path="url(#rITTpZveJgXZ)" stroke-opacity="1" stroke-linejoin="bevel" stroke-miterlimit="10"/><path fill="rgb(159,173,43)" stroke="rgb(159,173,43)" paint-order="fill" d="M 528.1314086914062 52.73214340209961 L 537.5828619003296 52.73214340209961 L 537.5828619003296 106.93452453613281 L 528.1314086914062 106.93452453613281 L 528.1314086914062 52.73214340209961 Z" fill-opacity="1" clip-path="url(#rITTpZveJgXZ)" stroke-opacity="1" stroke-linejoin="bevel" stroke-miterlimit="10"/><path fill="rgb(231,207,87)" stroke="rgb(231,207,87)" paint-order="fill" d="M 228.29220581054688 363.4800109863281 L 235.1363615989685 363.4800109863281 L 235.1363615989685 424.1866760253906 L 228.29220581054688 424.1866760253906 L 228.29220581054688 363.4800109863281 Z" fill-opacity="1" clip-path="url(#rITTpZveJgXZ)" stroke-opacity="1" stroke-linejoin="bevel" stroke-miterlimit="10"/><path fill="rgb(78,144,211)" stroke="rgb(78,144,211)" paint-order="fill" d="M 77.97549438476562 493.623046875 L 84.31021451950073 493.623046875 L 84.31021451950073 503.3769302368164 L 77.97549438476562 503.3769302368164 L 77.97549438476562 493.623046875 Z" fill-opacity="1" clip-path="url(#rITTpZveJgXZ)" stroke-opacity="1" stroke-linejoin="bevel" stroke-miterlimit="10"/><path fill="rgb(58,159,130)" stroke="rgb(58,159,130)" paint-order="fill" d="M 454.1656494140625 62.0773811340332 L 460.9772138595581 62.0773811340332 L 460.9772138595581 97.58928680419922 L 454.1656494140625 97.58928680419922 L 454.1656494140625 62.0773811340332 Z" fill-opacity="1" clip-path="url(#rITTpZveJgXZ)" stroke-opacity="1" stroke-linejoin="bevel" stroke-miterlimit="10"/><path fill="rgb(58,159,130)" stroke="rgb(58,159,130)" paint-order="fill" d="M 454.7033996582031 142.63333129882812 L 460.4394540786743 142.63333129882812 L 460.4394540786743 226.36666107177734 L 454.7033996582031 226.36666107177734 L 454.7033996582031 142.63333129882812 Z" fill-opacity="1" clip-path="url(#rITTpZveJgXZ)" stroke-opacity="1" stroke-linejoin="bevel" stroke-miterlimit="10"/><path fill="rgb(92,201,255)" stroke="rgb(92,201,255)" paint-order="fill" d="M 380.0306091308594 285.86407470703125 L 384.5408134460449 285.86407470703125 L 384.5408134460449 292.46925258636475 L 380.0306091308594 292.46925258636475 L 380.0306091308594 285.86407470703125 Z" fill-opacity="1" clip-path="url(#rITTpZveJgXZ)" stroke-opacity="1" stroke-linejoin="bevel" stroke-miterlimit="10"/><path fill="rgb(78,144,211)" stroke="rgb(78,144,211)" paint-order="fill" d="M 79.92464447021484 383.3666687011719 L 82.36107540130615 383.3666687011719 L 82.36107540130615 404.3000011444092 L 79.92464447021484 404.3000011444092 L 79.92464447021484 383.3666687011719 Z" fill-opacity="1" clip-path="url(#rITTpZveJgXZ)" stroke-opacity="1" stroke-linejoin="bevel" stroke-miterlimit="10"/><path fill="rgb(148,103,189)" stroke="rgb(148,103,189)" paint-order="fill" d="M 155.48277282714844 388.6000061035156 L 157.3743736743927 388.6000061035156 L 157.3743736743927 399.0666723251343 L 155.48277282714844 399.0666723251343 L 155.48277282714844 388.6000061035156 Z" fill-opacity="1" clip-path="url(#rITTpZveJgXZ)" stroke-opacity="1" stroke-linejoin="bevel" stroke-miterlimit="10"/><path fill="rgb(92,201,255)" stroke="rgb(92,201,255)" paint-order="fill" d="M 381.4183654785156 388.6000061035156 L 383.1530593633652 388.6000061035156 L 383.1530593633652 399.0666723251343 L 381.4183654785156 399.0666723251343 L 381.4183654785156 388.6000061035156 Z" fill-opacity="1" clip-path="url(#rITTpZveJgXZ)" stroke-opacity="1" stroke-linejoin="bevel" stroke-miterlimit="10"/><path fill="rgb(231,207,87)" stroke="rgb(231,207,87)" paint-order="fill" d="M 231.3602752685547 77.0297622680664 L 232.0682913661003 77.0297622680664 L 232.0682913661003 82.63690519332886 L 231.3602752685547 82.63690519332886 L 231.3602752685547 77.0297622680664 Z" fill-opacity="1" clip-path="url(#rITTpZveJgXZ)" stroke-opacity="1" stroke-linejoin="bevel" stroke-miterlimit="10"/><path fill="rgb(92,201,255)" stroke="rgb(92,201,255)" paint-order="fill" d="M 381.76531982421875 497.9372863769531 L 382.8061361312866 497.9372863769531 L 382.8061361312866 499.06273436546326 L 381.76531982421875 499.06273436546326 L 381.76531982421875 497.9372863769531 Z" fill-opacity="1" clip-path="url(#rITTpZveJgXZ)" stroke-opacity="1" stroke-linejoin="bevel" stroke-miterlimit="10"/><path fill="rgb(148,103,189)" stroke="rgb(148,103,189)" paint-order="fill" d="M 155.861083984375 77.0297622680664 L 156.99604451656342 77.0297622680664 L 156.99604451656342 82.63690519332886 L 155.861083984375 82.63690519332886 L 155.861083984375 77.0297622680664 Z" fill-opacity="1" clip-path="url(#rITTpZveJgXZ)" stroke-opacity="1" stroke-linejoin="bevel" stroke-miterlimit="10"/><path fill="rgb(58,159,130)" stroke="rgb(58,159,130)" paint-order="fill" d="M 457.0336608886719 497.9372863769531 L 458.10917115211487 497.9372863769531 L 458.10917115211487 499.06273436546326 L 457.0336608886719 499.06273436546326 L 457.0336608886719 497.9372863769531 Z" fill-opacity="1" clip-path="url(#rITTpZveJgXZ)" stroke-opacity="1" stroke-linejoin="bevel" stroke-miterlimit="10"/><path fill="rgb(148,103,189)" stroke="rgb(148,103,189)" paint-order="fill" d="M 155.861083984375 288.404541015625 L 156.99604451656342 288.404541015625 L 156.99604451656342 289.92881286144257 L 155.861083984375 289.92881286144257 L 155.861083984375 288.404541015625 Z" fill-opacity="1" clip-path="url(#rITTpZveJgXZ)" stroke-opacity="1" stroke-linejoin="bevel" stroke-miterlimit="10"/><path fill="rgb(159,173,43)" stroke="rgb(159,173,43)" paint-order="fill" d="M 532.3682861328125 176.64999389648438 L 533.3460226655006 176.64999389648438 L 533.3460226655006 192.3499937057495 L 532.3682861328125 192.3499937057495 L 532.3682861328125 176.64999389648438 Z" fill-opacity="1" clip-path="url(#rITTpZveJgXZ)" stroke-opacity="1" stroke-linejoin="bevel" stroke-miterlimit="10"/><path fill="rgb(255,106,136)" stroke="rgb(255,106,136)" paint-order="fill" d="M 306.7830505371094 498.1248474121094 L 307.2169739603996 498.1248474121094 L 307.2169739603996 498.87514609098434 L 306.7830505371094 498.87514609098434 L 306.7830505371094 498.1248474121094 Z" fill-opacity="1" clip-path="url(#rITTpZveJgXZ)" stroke-opacity="1" stroke-linejoin="bevel" stroke-miterlimit="10"/><path fill="rgb(159,173,43)" stroke="rgb(159,173,43)" paint-order="fill" d="M 532.6942138671875 498.31243896484375 L 533.0201260447502 498.31243896484375 L 533.0201260447502 498.68758830428123 L 532.6942138671875 498.68758830428123 L 532.6942138671875 498.31243896484375 Z" fill-opacity="1" clip-path="url(#rITTpZveJgXZ)" stroke-opacity="1" stroke-linejoin="bevel" stroke-miterlimit="10"/><path fill="rgb(255,106,136)" stroke="rgb(255,106,136)" paint-order="fill" d="M 306.8915100097656 78.89881134033203 L 307.10847172141075 78.89881134033203 L 307.10847172141075 80.76785898208618 L 306.8915100097656 80.76785898208618 L 306.8915100097656 78.89881134033203 Z" fill-opacity="1" clip-path="url(#rITTpZveJgXZ)" stroke-opacity="1" stroke-linejoin="bevel" stroke-miterlimit="10"/><path fill="rgb(58,159,130)" stroke="rgb(58,159,130)" paint-order="fill" d="M 457.3921813964844 288.9126281738281 L 457.7506847977638 288.9126281738281 L 457.7506847977638 289.42071878910065 L 457.3921813964844 289.42071878910065 L 457.3921813964844 288.9126281738281 Z" fill-opacity="1" clip-path="url(#rITTpZveJgXZ)" stroke-opacity="1" stroke-linejoin="bevel" stroke-miterlimit="10"/><path fill="rgb(92,201,255)" stroke="rgb(92,201,255)" paint-order="fill" d="M 382.11224365234375 181.88333129882812 L 382.4591824412346 181.88333129882812 L 382.4591824412346 187.11666440963745 L 382.11224365234375 187.11666440963745 L 382.11224365234375 181.88333129882812 Z" fill-opacity="1" clip-path="url(#rITTpZveJgXZ)" stroke-opacity="1" stroke-linejoin="bevel" stroke-miterlimit="10"/><path fill="rgb(78,144,211)" stroke="rgb(78,144,211)" paint-order="fill" d="M 81.02103424072266 78.89881134033203 L 81.26467733085155 78.89881134033203 L 81.26467733085155 80.76785898208618 L 81.02103424072266 80.76785898208618 L 81.02103424072266 78.89881134033203 Z" fill-opacity="1" clip-path="url(#rITTpZveJgXZ)" stroke-opacity="1" stroke-linejoin="bevel" stroke-miterlimit="10"/><path fill="rgb(159,173,43)" stroke="rgb(159,173,43)" paint-order="fill" d="M 532.6942138671875 392.7866516113281 L 533.0201260447502 392.7866516113281 L 533.0201260447502 394.87998485565186 L 532.6942138671875 394.87998485565186 L 532.6942138671875 392.7866516113281 Z" fill-opacity="1" clip-path="url(#rITTpZveJgXZ)" stroke-opacity="1" stroke-linejoin="bevel" stroke-miterlimit="10"/><path fill="none" stroke="rgb(0,0,0)" paint-order="fill" d="M 43.5 655.5 L 570.5 655.5" stroke-opacity="1" stroke-linejoin="bevel" stroke-miterlimit="10"/><path fill="none" stroke="rgb(0,0,0)" paint-order="fill" d="M 81.5 661.5 L 81.5 653.5 M 156.5 661.5 L 156.5 653.5 M 231.5 661.5 L 231.5 653.5 M 307.5 661.5 L 307.5 653.5 M 382.5 661.5 L 382.5 653.5 M 457.5 661.5 L 457.5 653.5 M 532.5 661.5 L 532.5 653.5" stroke-opacity="1" stroke-linejoin="bevel" stroke-miterlimit="10"/><path fill="none" stroke="rgb(0,0,0)" paint-order="fill" d="" stroke-opacity="1" stroke-linejoin="bevel" stroke-miterlimit="10"/><text fill="rgb(68,68,68)" stroke="none" font-family="helvetica" font-size="11px" font-style="normal" font-weight="normal" text-decoration="normal" x="77.58402252197266" y="673.89013671875" text-anchor="start" dominant-baseline="alphabetic" transform="matrix(1, 0, 0, 1, 0.5, 0.5)" fill-opacity="1">1</text><text fill="none" stroke="rgb(0,0,0)" font-family="helvetica" font-size="11px" font-style="normal" font-weight="normal" text-decoration="normal" x="77.58402252197266" y="673.89013671875" text-anchor="start" dominant-baseline="alphabetic" transform="matrix(1, 0, 0, 1, 0.5, 0.5)" stroke-opacity="0" stroke-linejoin="bevel" stroke-miterlimit="10">1</text><text fill="rgb(68,68,68)" stroke="none" font-family="helvetica" font-size="11px" font-style="normal" font-weight="normal" text-decoration="normal" x="152.86973571777344" y="673.89013671875" text-anchor="start" dominant-baseline="alphabetic" transform="matrix(1, 0, 0, 1, 0.5, 0.5)" fill-opacity="1">2</text><text fill="none" stroke="rgb(0,0,0)" font-family="helvetica" font-size="11px" font-style="normal" font-weight="normal" text-decoration="normal" x="152.86973571777344" y="673.89013671875" text-anchor="start" dominant-baseline="alphabetic" transform="matrix(1, 0, 0, 1, 0.5, 0.5)" stroke-opacity="0" stroke-linejoin="bevel" stroke-miterlimit="10">2</text><text fill="rgb(68,68,68)" stroke="none" font-family="helvetica" font-size="11px" font-style="normal" font-weight="normal" text-decoration="normal" x="228.1554412841797" y="673.89013671875" text-anchor="start" dominant-baseline="alphabetic" transform="matrix(1, 0, 0, 1, 0.5, 0.5)" fill-opacity="1">3</text><text fill="none" stroke="rgb(0,0,0)" font-family="helvetica" font-size="11px" font-style="normal" font-weight="normal" text-decoration="normal" x="228.1554412841797" y="673.89013671875" text-anchor="start" dominant-baseline="alphabetic" transform="matrix(1, 0, 0, 1, 0.5, 0.5)" stroke-opacity="0" stroke-linejoin="bevel" stroke-miterlimit="10">3</text><text fill="rgb(68,68,68)" stroke="none" font-family="helvetica" font-size="11px" font-style="normal" font-weight="normal" text-decoration="normal" x="303.441162109375" y="673.89013671875" text-anchor="start" dominant-baseline="alphabetic" transform="matrix(1, 0, 0, 1, 0.5, 0.5)" fill-opacity="1">4</text><text fill="none" stroke="rgb(0,0,0)" font-family="helvetica" font-size="11px" font-style="normal" font-weight="normal" text-decoration="normal" x="303.441162109375" y="673.89013671875" text-anchor="start" dominant-baseline="alphabetic" transform="matrix(1, 0, 0, 1, 0.5, 0.5)" stroke-opacity="0" stroke-linejoin="bevel" stroke-miterlimit="10">4</text><text fill="rgb(68,68,68)" stroke="none" font-family="helvetica" font-size="11px" font-style="normal" font-weight="normal" text-decoration="normal" x="378.72686767578125" y="673.89013671875" text-anchor="start" dominant-baseline="alphabetic" transform="matrix(1, 0, 0, 1, 0.5, 0.5)" fill-opacity="1">5</text><text fill="none" stroke="rgb(0,0,0)" font-family="helvetica" font-size="11px" font-style="normal" font-weight="normal" text-decoration="normal" x="378.72686767578125" y="673.89013671875" text-anchor="start" dominant-baseline="alphabetic" transform="matrix(1, 0, 0, 1, 0.5, 0.5)" stroke-opacity="0" stroke-linejoin="bevel" stroke-miterlimit="10">5</text><text fill="rgb(68,68,68)" stroke="none" font-family="helvetica" font-size="11px" font-style="normal" font-weight="normal" text-decoration="normal" x="454.0126037597656" y="673.89013671875" text-anchor="start" dominant-baseline="alphabetic" transform="matrix(1, 0, 0, 1, 0.5, 0.5)" fill-opacity="1">6</text><text fill="none" stroke="rgb(0,0,0)" font-family="helvetica" font-size="11px" font-style="normal" font-weight="normal" text-decoration="normal" x="454.0126037597656" y="673.89013671875" text-anchor="start" dominant-baseline="alphabetic" transform="matrix(1, 0, 0, 1, 0.5, 0.5)" stroke-opacity="0" stroke-linejoin="bevel" stroke-miterlimit="10">6</text><text fill="rgb(68,68,68)" stroke="none" font-family="helvetica" font-size="11px" font-style="normal" font-weight="normal" text-decoration="normal" x="529.2982788085938" y="673.89013671875" text-anchor="start" dominant-baseline="alphabetic" transform="matrix(1, 0, 0, 1, 0.5, 0.5)" fill-opacity="1">7</text><text fill="none" stroke="rgb(0,0,0)" font-family="helvetica" font-size="11px" font-style="normal" font-weight="normal" text-decoration="normal" x="529.2982788085938" y="673.89013671875" text-anchor="start" dominant-baseline="alphabetic" transform="matrix(1, 0, 0, 1, 0.5, 0.5)" stroke-opacity="0" stroke-linejoin="bevel" stroke-miterlimit="10">7</text><text fill="rgb(68,68,68)" stroke="none" font-family="helvetica" font-size="13px" font-style="italic" font-weight="normal" text-decoration="normal" x="172.0947265625" y="693.89013671875" text-anchor="start" dominant-baseline="alphabetic" transform="matrix(1, 0, 0, 1, 0.5, 0.5)" fill-opacity="1">Coarse module in oviIN inputs subconnectome</text><text fill="none" stroke="rgb(0,0,0)" font-family="helvetica" font-size="13px" font-style="italic" font-weight="normal" text-decoration="normal" x="172.0947265625" y="693.89013671875" text-anchor="start" dominant-baseline="alphabetic" transform="matrix(1, 0, 0, 1, 0.5, 0.5)" stroke-opacity="0" stroke-linejoin="bevel" stroke-miterlimit="10">Coarse module in oviIN inputs subconnectome</text><path fill="none" stroke="rgb(0,0,0)" paint-order="fill" d="M 43.5 655.5 L 43.5 27.5" stroke-opacity="1" stroke-linejoin="bevel" stroke-miterlimit="10"/><path fill="none" stroke="rgb(0,0,0)" paint-order="fill" d="M 37.5 603.5 L 45.5 603.5 M 37.5 498.5 L 45.5 498.5 M 37.5 393.5 L 45.5 393.5 M 37.5 289.5 L 45.5 289.5 M 37.5 184.5 L 45.5 184.5 M 37.5 79.5 L 45.5 79.5" stroke-opacity="1" stroke-linejoin="bevel" stroke-miterlimit="10"/><path fill="none" stroke="rgb(0,0,0)" paint-order="fill" d="" stroke-opacity="1" stroke-linejoin="bevel" stroke-miterlimit="10"/><text fill="rgb(68,68,68)" stroke="none" font-family="helvetica" font-size="11px" font-style="normal" font-weight="normal" text-decoration="normal" x="25.88232421875" y="606.6117553710938" text-anchor="start" dominant-baseline="alphabetic" transform="matrix(1, 0, 0, 1, 0.5, 0.5)" fill-opacity="1">3</text><text fill="none" stroke="rgb(0,0,0)" font-family="helvetica" font-size="11px" font-style="normal" font-weight="normal" text-decoration="normal" x="25.88232421875" y="606.6117553710938" text-anchor="start" dominant-baseline="alphabetic" transform="matrix(1, 0, 0, 1, 0.5, 0.5)" stroke-opacity="0" stroke-linejoin="bevel" stroke-miterlimit="10">3</text><text fill="rgb(68,68,68)" stroke="none" font-family="helvetica" font-size="11px" font-style="normal" font-weight="normal" text-decoration="normal" x="25.88232421875" y="501.945068359375" text-anchor="start" dominant-baseline="alphabetic" transform="matrix(1, 0, 0, 1, 0.5, 0.5)" fill-opacity="1">1</text><text fill="none" stroke="rgb(0,0,0)" font-family="helvetica" font-size="11px" font-style="normal" font-weight="normal" text-decoration="normal" x="25.88232421875" y="501.945068359375" text-anchor="start" dominant-baseline="alphabetic" transform="matrix(1, 0, 0, 1, 0.5, 0.5)" stroke-opacity="0" stroke-linejoin="bevel" stroke-miterlimit="10">1</text><text fill="rgb(68,68,68)" stroke="none" font-family="helvetica" font-size="11px" font-style="normal" font-weight="normal" text-decoration="normal" x="25.88232421875" y="397.2784118652344" text-anchor="start" dominant-baseline="alphabetic" transform="matrix(1, 0, 0, 1, 0.5, 0.5)" fill-opacity="1">6</text><text fill="none" stroke="rgb(0,0,0)" font-family="helvetica" font-size="11px" font-style="normal" font-weight="normal" text-decoration="normal" x="25.88232421875" y="397.2784118652344" text-anchor="start" dominant-baseline="alphabetic" transform="matrix(1, 0, 0, 1, 0.5, 0.5)" stroke-opacity="0" stroke-linejoin="bevel" stroke-miterlimit="10">6</text><text fill="rgb(68,68,68)" stroke="none" font-family="helvetica" font-size="11px" font-style="normal" font-weight="normal" text-decoration="normal" x="25.88232421875" y="292.6117248535156" text-anchor="start" dominant-baseline="alphabetic" transform="matrix(1, 0, 0, 1, 0.5, 0.5)" fill-opacity="1">2</text><text fill="none" stroke="rgb(0,0,0)" font-family="helvetica" font-size="11px" font-style="normal" font-weight="normal" text-decoration="normal" x="25.88232421875" y="292.6117248535156" text-anchor="start" dominant-baseline="alphabetic" transform="matrix(1, 0, 0, 1, 0.5, 0.5)" stroke-opacity="0" stroke-linejoin="bevel" stroke-miterlimit="10">2</text><text fill="rgb(68,68,68)" stroke="none" font-family="helvetica" font-size="11px" font-style="normal" font-weight="normal" text-decoration="normal" x="25.88232421875" y="187.945068359375" text-anchor="start" dominant-baseline="alphabetic" transform="matrix(1, 0, 0, 1, 0.5, 0.5)" fill-opacity="1">5</text><text fill="none" stroke="rgb(0,0,0)" font-family="helvetica" font-size="11px" font-style="normal" font-weight="normal" text-decoration="normal" x="25.88232421875" y="187.945068359375" text-anchor="start" dominant-baseline="alphabetic" transform="matrix(1, 0, 0, 1, 0.5, 0.5)" stroke-opacity="0" stroke-linejoin="bevel" stroke-miterlimit="10">5</text><text fill="rgb(68,68,68)" stroke="none" font-family="helvetica" font-size="11px" font-style="normal" font-weight="normal" text-decoration="normal" x="25.88232421875" y="83.27840423583984" text-anchor="start" dominant-baseline="alphabetic" transform="matrix(1, 0, 0, 1, 0.5, 0.5)" fill-opacity="1">4</text><text fill="none" stroke="rgb(0,0,0)" font-family="helvetica" font-size="11px" font-style="normal" font-weight="normal" text-decoration="normal" x="25.88232421875" y="83.27840423583984" text-anchor="start" dominant-baseline="alphabetic" transform="matrix(1, 0, 0, 1, 0.5, 0.5)" stroke-opacity="0" stroke-linejoin="bevel" stroke-miterlimit="10">4</text><text fill="rgb(68,68,68)" stroke="none" font-family="helvetica" font-size="13px" font-style="italic" font-weight="normal" text-decoration="normal" x="-101.704345703125" y="338" text-anchor="start" dominant-baseline="alphabetic" transform="matrix(6.123233995736766e-17, -1, 1, 6.123233995736766e-17, -322.61767578125, 359.38232421875)" fill-opacity="1">Coarse module in Hemibrain connectome</text><text fill="none" stroke="rgb(0,0,0)" font-family="helvetica" font-size="13px" font-style="italic" font-weight="normal" text-decoration="normal" x="-101.704345703125" y="338" text-anchor="start" dominant-baseline="alphabetic" transform="matrix(6.123233995736766e-17, -1, 1, 6.123233995736766e-17, -322.61767578125, 359.38232421875)" stroke-opacity="0" stroke-linejoin="bevel" stroke-miterlimit="10">Coarse module in Hemibrain connectome</text><text fill="rgb(68,68,68)" stroke="none" font-family="helvetica" font-size="13px" font-style="normal" font-weight="bold" text-decoration="normal" x="43" y="19" text-anchor="start" dominant-baseline="alphabetic" transform="matrix(1, 0, 0, 1, 0.5, 0.5)" fill-opacity="1">Joint marginal comparison of coarse modules across clusterings</text><text fill="none" stroke="rgb(0,0,0)" font-family="helvetica" font-size="13px" font-style="normal" font-weight="bold" text-decoration="normal" x="43" y="19" text-anchor="start" dominant-baseline="alphabetic" transform="matrix(1, 0, 0, 1, 0.5, 0.5)" stroke-opacity="0" stroke-miterlimit="10" stroke-dasharray="">Joint marginal comparison of coarse modules across clusterings</text></svg>