<?xml version="1.0" encoding="utf-8" standalone="no"?>
<!DOCTYPE svg PUBLIC "-//W3C//DTD SVG 1.1//EN"
  "http://www.w3.org/Graphics/SVG/1.1/DTD/svg11.dtd">
<svg xmlns:xlink="http://www.w3.org/1999/xlink" width="1080pt" height="720pt" viewBox="0 0 1080 720" xmlns="http://www.w3.org/2000/svg" version="1.1">
 <metadata>
  <rdf:RDF xmlns:dc="http://purl.org/dc/elements/1.1/" xmlns:cc="http://creativecommons.org/ns#" xmlns:rdf="http://www.w3.org/1999/02/22-rdf-syntax-ns#">
   <cc:Work>
    <dc:type rdf:resource="http://purl.org/dc/dcmitype/StillImage"/>
    <dc:date>2025-05-08T16:07:50.366779</dc:date>
    <dc:format>image/svg+xml</dc:format>
    <dc:creator>
     <cc:Agent>
      <dc:title>Matplotlib v3.8.4, https://matplotlib.org/</dc:title>
     </cc:Agent>
    </dc:creator>
   </cc:Work>
  </rdf:RDF>
 </metadata>
 <defs>
  <style type="text/css">*{stroke-linejoin: round; stroke-linecap: butt}</style>
 </defs>
 <g id="figure_1">
  <g id="patch_1">
   <path d="M 0 720 
L 1080 720 
L 1080 0 
L 0 0 
z
" style="fill: #ffffff"/>
  </g>
  <g id="axes_1">
   <g id="patch_2">
    <path d="M 320.050588 167.929412 
C 320.050588 161.671777 319.102642 155.450094 317.239055 149.476398 
C 315.375468 143.502702 312.617655 137.845635 309.059601 132.69799 
C 305.501547 127.550345 301.184137 122.971271 296.254509 119.116824 
C 291.324881 115.262377 285.839679 112.176846 279.985839 109.965387 
C 274.131998 107.753928 267.976784 106.441951 261.729966 106.07417 
C 255.483149 105.706388 249.216507 106.287027 243.143608 107.796299 
C 237.07071 109.30557 231.261336 111.726132 225.913471 114.975491 
C 220.565606 118.22485 215.740699 122.265669 211.603185 126.960238 
C 207.46567 131.654806 204.06309 136.949179 201.511404 142.662925 
C 198.959718 148.376672 197.288247 154.444136 196.553955 160.65854 
C 195.819663 166.872943 196.030988 173.162879 197.180726 179.313984 
C 198.330464 185.46509 200.405406 191.406685 203.334836 196.936282 
C 206.264267 202.465878 210.014525 207.519936 214.457803 211.926213 
C 218.90108 216.332491 223.986321 220.040357 229.540219 222.923447 
C 235.094118 225.806538 241.052856 227.831724 247.21336 228.929988 
C 253.373865 230.028251 259.665347 230.186973 265.873393 229.400742 
L 258.088235 167.929412 
z
" style="fill: #6495ed"/>
   </g>
   <g id="patch_3">
    <path d="M 265.873393 229.400742 
C 275.682005 228.158511 285.052312 224.586483 293.198803 218.9841 
C 301.345294 213.381718 308.033785 205.910029 312.703581 197.195386 
L 258.088235 167.929412 
z
" style="fill: #008000"/>
   </g>
   <g id="patch_4">
    <path d="M 312.703581 197.195386 
C 313.818423 195.114898 314.813475 192.972407 315.683872 190.77839 
C 316.554269 188.584373 317.298588 186.342413 317.91319 184.063474 
L 258.088235 167.929412 
z
" style="fill: #ffa500"/>
   </g>
   <g id="patch_5">
    <path d="M 317.91319 184.063474 
C 318.491239 181.920074 318.95368 179.747157 319.298513 177.554124 
C 319.643346 175.361091 319.870072 173.151109 319.977711 170.933742 
L 258.088235 167.929412 
z
" style="fill: #b22222"/>
   </g>
   <g id="patch_6">
    <path d="M 319.977711 170.933742 
C 319.990474 170.670828 320.001561 170.407835 320.010972 170.144779 
C 320.020383 169.881724 320.028118 169.618611 320.034176 169.355457 
L 258.088235 167.929412 
z
" style="fill: #000080"/>
   </g>
   <g id="patch_7">
    <path d="M 320.034176 169.355457 
C 320.039647 169.117821 320.04375 168.880156 320.046485 168.642473 
C 320.049221 168.40479 320.050588 168.167093 320.050588 167.929394 
L 258.088235 167.929412 
z
" style="fill: #8a2be2"/>
   </g>
   <g id="matplotlib.axis_1"/>
   <g id="matplotlib.axis_2"/>
   <g id="text_1">
    <!-- SNP -->
    <g transform="translate(174.054679 126.93457) scale(0.16 -0.16)">
     <defs>
      <path id="Helvetica-53" d="M 894 1481 
Q 916 1091 1078 847 
Q 1388 391 2169 391 
Q 2519 391 2806 491 
Q 3363 684 3363 1184 
Q 3363 1559 3128 1719 
Q 2891 1875 2384 1991 
L 1763 2131 
Q 1153 2269 900 2434 
Q 463 2722 463 3294 
Q 463 3913 891 4309 
Q 1319 4706 2103 4706 
Q 2825 4706 3329 4357 
Q 3834 4009 3834 3244 
L 3250 3244 
Q 3203 3613 3050 3809 
Q 2766 4169 2084 4169 
Q 1534 4169 1293 3937 
Q 1053 3706 1053 3400 
Q 1053 3063 1334 2906 
Q 1519 2806 2169 2656 
L 2813 2509 
Q 3278 2403 3531 2219 
Q 3969 1897 3969 1284 
Q 3969 522 3414 194 
Q 2859 -134 2125 -134 
Q 1269 -134 784 303 
Q 300 738 309 1481 
L 894 1481 
z
M 2150 4716 
L 2150 4716 
z
" transform="scale(0.015625)"/>
      <path id="Helvetica-4e" d="M 488 4591 
L 1222 4591 
L 3541 872 
L 3541 4591 
L 4131 4591 
L 4131 0 
L 3434 0 
L 1081 3716 
L 1081 0 
L 488 0 
L 488 4591 
z
M 2269 4591 
L 2269 4591 
z
" transform="scale(0.015625)"/>
      <path id="Helvetica-50" d="M 547 4591 
L 2613 4591 
Q 3225 4591 3600 4245 
Q 3975 3900 3975 3275 
Q 3975 2738 3640 2339 
Q 3306 1941 2613 1941 
L 1169 1941 
L 1169 0 
L 547 0 
L 547 4591 
z
M 3347 3272 
Q 3347 3778 2972 3959 
Q 2766 4056 2406 4056 
L 1169 4056 
L 1169 2466 
L 2406 2466 
Q 2825 2466 3086 2644 
Q 3347 2822 3347 3272 
z
" transform="scale(0.015625)"/>
     </defs>
     <use xlink:href="#Helvetica-53"/>
     <use xlink:href="#Helvetica-4e" x="66.699219"/>
     <use xlink:href="#Helvetica-50" x="138.916016"/>
    </g>
   </g>
   <g id="text_2">
    <!-- 77.0% -->
    <g transform="translate(207.514705 147.419157) scale(0.16 -0.16)">
     <defs>
      <path id="Helvetica-37" d="M 3347 4400 
L 3347 3909 
Q 3131 3700 2773 3181 
Q 2416 2663 2141 2063 
Q 1869 1478 1728 997 
Q 1638 688 1494 0 
L 872 0 
Q 1084 1281 1809 2550 
Q 2238 3294 2709 3834 
L 234 3834 
L 234 4400 
L 3347 4400 
z
" transform="scale(0.015625)"/>
      <path id="Helvetica-2e" d="M 547 681 
L 1200 681 
L 1200 0 
L 547 0 
L 547 681 
z
" transform="scale(0.015625)"/>
      <path id="Helvetica-30" d="M 1731 4475 
Q 2600 4475 2988 3759 
Q 3288 3206 3288 2244 
Q 3288 1331 3016 734 
Q 2622 -122 1728 -122 
Q 922 -122 528 578 
Q 200 1163 200 2147 
Q 200 2909 397 3456 
Q 766 4475 1731 4475 
z
M 1725 391 
Q 2163 391 2422 778 
Q 2681 1166 2681 2222 
Q 2681 2984 2493 3476 
Q 2306 3969 1766 3969 
Q 1269 3969 1039 3501 
Q 809 3034 809 2125 
Q 809 1441 956 1025 
Q 1181 391 1725 391 
z
" transform="scale(0.015625)"/>
      <path id="Helvetica-25" d="M 4363 2175 
Q 4813 2175 5131 1856 
Q 5450 1538 5450 1088 
Q 5450 638 5131 319 
Q 4813 0 4363 0 
Q 3909 0 3590 319 
Q 3272 638 3272 1088 
Q 3272 1538 3590 1856 
Q 3909 2175 4363 2175 
z
M 3909 4456 
L 4256 4456 
L 1753 -119 
L 1406 -119 
L 3909 4456 
z
M 1294 2606 
Q 1563 2606 1752 2795 
Q 1941 2984 1941 3250 
Q 1941 3516 1752 3705 
Q 1563 3894 1294 3894 
Q 1028 3894 839 3706 
Q 650 3519 650 3250 
Q 650 2984 839 2795 
Q 1028 2606 1294 2606 
z
M 1294 4341 
Q 1747 4341 2065 4020 
Q 2384 3700 2384 3250 
Q 2384 2800 2065 2481 
Q 1747 2163 1294 2163 
Q 844 2163 525 2481 
Q 206 2800 206 3250 
Q 206 3700 525 4020 
Q 844 4341 1294 4341 
z
M 4363 444 
Q 4628 444 4817 633 
Q 5006 822 5006 1088 
Q 5006 1353 4817 1542 
Q 4628 1731 4363 1731 
Q 4094 1731 3905 1542 
Q 3716 1353 3716 1088 
Q 3716 822 3905 633 
Q 4094 444 4363 444 
z
" transform="scale(0.015625)"/>
     </defs>
     <use xlink:href="#Helvetica-37"/>
     <use xlink:href="#Helvetica-37" x="55.615234"/>
     <use xlink:href="#Helvetica-2e" x="111.230469"/>
     <use xlink:href="#Helvetica-30" x="139.013672"/>
     <use xlink:href="#Helvetica-25" x="194.628906"/>
    </g>
   </g>
   <g id="text_3">
    <!-- INP -->
    <g transform="translate(296.70986 228.160819) scale(0.16 -0.16)">
     <defs>
      <path id="Helvetica-49" d="M 628 4591 
L 1256 4591 
L 1256 0 
L 628 0 
L 628 4591 
z
" transform="scale(0.015625)"/>
     </defs>
     <use xlink:href="#Helvetica-49"/>
     <use xlink:href="#Helvetica-4e" x="27.783203"/>
     <use xlink:href="#Helvetica-50" x="100"/>
    </g>
   </g>
   <g id="text_4">
    <!-- 15.2% -->
    <g transform="translate(256.472076 202.633475) scale(0.16 -0.16)">
     <defs>
      <path id="Helvetica-31" d="M 613 3169 
L 613 3600 
Q 1222 3659 1462 3798 
Q 1703 3938 1822 4456 
L 2266 4456 
L 2266 0 
L 1666 0 
L 1666 3169 
L 613 3169 
z
" transform="scale(0.015625)"/>
      <path id="Helvetica-35" d="M 791 1141 
Q 847 659 1238 475 
Q 1438 381 1700 381 
Q 2200 381 2440 700 
Q 2681 1019 2681 1406 
Q 2681 1875 2395 2131 
Q 2109 2388 1709 2388 
Q 1419 2388 1211 2275 
Q 1003 2163 856 1963 
L 369 1991 
L 709 4400 
L 3034 4400 
L 3034 3856 
L 1131 3856 
L 941 2613 
Q 1097 2731 1238 2791 
Q 1488 2894 1816 2894 
Q 2431 2894 2859 2497 
Q 3288 2100 3288 1491 
Q 3288 856 2895 371 
Q 2503 -113 1644 -113 
Q 1097 -113 676 195 
Q 256 503 206 1141 
L 791 1141 
z
" transform="scale(0.015625)"/>
      <path id="Helvetica-32" d="M 200 0 
Q 231 578 439 1006 
Q 647 1434 1250 1784 
L 1850 2131 
Q 2253 2366 2416 2531 
Q 2672 2791 2672 3125 
Q 2672 3516 2437 3745 
Q 2203 3975 1813 3975 
Q 1234 3975 1013 3538 
Q 894 3303 881 2888 
L 309 2888 
Q 319 3472 525 3841 
Q 891 4491 1816 4491 
Q 2584 4491 2939 4075 
Q 3294 3659 3294 3150 
Q 3294 2613 2916 2231 
Q 2697 2009 2131 1694 
L 1703 1456 
Q 1397 1288 1222 1134 
Q 909 863 828 531 
L 3272 531 
L 3272 0 
L 200 0 
z
" transform="scale(0.015625)"/>
     </defs>
     <use xlink:href="#Helvetica-31"/>
     <use xlink:href="#Helvetica-35" x="55.615234"/>
     <use xlink:href="#Helvetica-2e" x="111.230469"/>
     <use xlink:href="#Helvetica-32" x="139.013672"/>
     <use xlink:href="#Helvetica-25" x="194.628906"/>
    </g>
   </g>
   <g id="text_5">
    <!-- VLNP -->
    <g transform="translate(321.443436 197.134538) scale(0.16 -0.16)">
     <defs>
      <path id="Helvetica-56" d="M 850 4591 
L 2169 681 
L 3472 4591 
L 4169 4591 
L 2494 0 
L 1834 0 
L 163 4591 
L 850 4591 
z
" transform="scale(0.015625)"/>
      <path id="Helvetica-4c" d="M 488 4591 
L 1109 4591 
L 1109 547 
L 3434 547 
L 3434 0 
L 488 0 
L 488 4591 
z
" transform="scale(0.015625)"/>
     </defs>
     <use xlink:href="#Helvetica-56"/>
     <use xlink:href="#Helvetica-4c" x="66.699219"/>
     <use xlink:href="#Helvetica-4e" x="122.314453"/>
     <use xlink:href="#Helvetica-50" x="194.53125"/>
    </g>
   </g>
   <g id="text_6">
    <!-- 3.6% -->
    <g transform="translate(274.411867 185.710049) scale(0.16 -0.16)">
     <defs>
      <path id="Helvetica-33" d="M 1663 -122 
Q 869 -122 511 314 
Q 153 750 153 1375 
L 741 1375 
Q 778 941 903 744 
Q 1122 391 1694 391 
Q 2138 391 2406 628 
Q 2675 866 2675 1241 
Q 2675 1703 2392 1887 
Q 2109 2072 1606 2072 
Q 1550 2072 1492 2070 
Q 1434 2069 1375 2066 
L 1375 2563 
Q 1463 2553 1522 2550 
Q 1581 2547 1650 2547 
Q 1966 2547 2169 2647 
Q 2525 2822 2525 3272 
Q 2525 3606 2287 3787 
Q 2050 3969 1734 3969 
Q 1172 3969 956 3594 
Q 838 3388 822 3006 
L 266 3006 
Q 266 3506 466 3856 
Q 809 4481 1675 4481 
Q 2359 4481 2734 4176 
Q 3109 3872 3109 3294 
Q 3109 2881 2888 2625 
Q 2750 2466 2531 2375 
Q 2884 2278 3082 2001 
Q 3281 1725 3281 1325 
Q 3281 684 2859 281 
Q 2438 -122 1663 -122 
z
" transform="scale(0.015625)"/>
      <path id="Helvetica-36" d="M 1872 4494 
Q 2622 4494 2917 4105 
Q 3213 3716 3213 3303 
L 2656 3303 
Q 2606 3569 2497 3719 
Q 2294 4000 1881 4000 
Q 1409 4000 1131 3564 
Q 853 3128 822 2316 
Q 1016 2600 1309 2741 
Q 1578 2866 1909 2866 
Q 2472 2866 2890 2506 
Q 3309 2147 3309 1434 
Q 3309 825 2912 354 
Q 2516 -116 1781 -116 
Q 1153 -116 697 361 
Q 241 838 241 1966 
Q 241 2800 444 3381 
Q 834 4494 1872 4494 
z
M 1831 384 
Q 2275 384 2495 682 
Q 2716 981 2716 1388 
Q 2716 1731 2519 2042 
Q 2322 2353 1803 2353 
Q 1441 2353 1167 2112 
Q 894 1872 894 1388 
Q 894 963 1142 673 
Q 1391 384 1831 384 
z
" transform="scale(0.015625)"/>
     </defs>
     <use xlink:href="#Helvetica-33"/>
     <use xlink:href="#Helvetica-2e" x="55.615234"/>
     <use xlink:href="#Helvetica-36" x="83.398438"/>
     <use xlink:href="#Helvetica-25" x="139.013672"/>
    </g>
   </g>
   <g id="text_7">
    <!-- VMNP -->
    <g transform="translate(325.419541 182.587845) scale(0.16 -0.16)">
     <defs>
      <path id="Helvetica-4d" d="M 472 4591 
L 1363 4591 
L 2681 709 
L 3991 4591 
L 4872 4591 
L 4872 0 
L 4281 0 
L 4281 2709 
Q 4281 2850 4287 3175 
Q 4294 3500 4294 3872 
L 2984 0 
L 2369 0 
L 1050 3872 
L 1050 3731 
Q 1050 3563 1058 3217 
Q 1066 2872 1066 2709 
L 1066 0 
L 472 0 
L 472 4591 
z
" transform="scale(0.015625)"/>
     </defs>
     <use xlink:href="#Helvetica-56"/>
     <use xlink:href="#Helvetica-4d" x="66.699219"/>
     <use xlink:href="#Helvetica-4e" x="150"/>
     <use xlink:href="#Helvetica-50" x="222.216797"/>
    </g>
   </g>
   <g id="text_8">
    <!-- 3.4% -->
    <g transform="translate(276.580652 177.775489) scale(0.16 -0.16)">
     <defs>
      <path id="Helvetica-34" d="M 2116 1584 
L 2116 3613 
L 681 1584 
L 2116 1584 
z
M 2125 0 
L 2125 1094 
L 163 1094 
L 163 1644 
L 2213 4488 
L 2688 4488 
L 2688 1584 
L 3347 1584 
L 3347 1094 
L 2688 1094 
L 2688 0 
L 2125 0 
z
" transform="scale(0.015625)"/>
     </defs>
     <use xlink:href="#Helvetica-33"/>
     <use xlink:href="#Helvetica-2e" x="55.615234"/>
     <use xlink:href="#Helvetica-34" x="83.398438"/>
     <use xlink:href="#Helvetica-25" x="139.013672"/>
    </g>
   </g>
   <g id="text_9">
    <!-- Module 1 -->
    <g transform="translate(221.067298 80.4) scale(0.18 -0.18)">
     <defs>
      <path id="Helvetica-6f" d="M 1741 363 
Q 2300 363 2508 786 
Q 2716 1209 2716 1728 
Q 2716 2197 2566 2491 
Q 2328 2953 1747 2953 
Q 1231 2953 997 2559 
Q 763 2166 763 1609 
Q 763 1075 997 719 
Q 1231 363 1741 363 
z
M 1763 3444 
Q 2409 3444 2856 3012 
Q 3303 2581 3303 1744 
Q 3303 934 2909 406 
Q 2516 -122 1688 -122 
Q 997 -122 590 345 
Q 184 813 184 1600 
Q 184 2444 612 2944 
Q 1041 3444 1763 3444 
z
M 1744 3428 
L 1744 3428 
z
" transform="scale(0.015625)"/>
      <path id="Helvetica-64" d="M 769 1634 
Q 769 1097 997 734 
Q 1225 372 1728 372 
Q 2119 372 2370 708 
Q 2622 1044 2622 1672 
Q 2622 2306 2362 2611 
Q 2103 2916 1722 2916 
Q 1297 2916 1033 2591 
Q 769 2266 769 1634 
z
M 1616 3406 
Q 2000 3406 2259 3244 
Q 2409 3150 2600 2916 
L 2600 4606 
L 3141 4606 
L 3141 0 
L 2634 0 
L 2634 466 
Q 2438 156 2169 18 
Q 1900 -119 1553 -119 
Q 994 -119 584 351 
Q 175 822 175 1603 
Q 175 2334 548 2870 
Q 922 3406 1616 3406 
z
" transform="scale(0.015625)"/>
      <path id="Helvetica-75" d="M 975 3347 
L 975 1125 
Q 975 869 1056 706 
Q 1206 406 1616 406 
Q 2203 406 2416 931 
Q 2531 1213 2531 1703 
L 2531 3347 
L 3094 3347 
L 3094 0 
L 2563 0 
L 2569 494 
Q 2459 303 2297 172 
Q 1975 -91 1516 -91 
Q 800 -91 541 388 
Q 400 644 400 1072 
L 400 3347 
L 975 3347 
z
M 1747 3428 
L 1747 3428 
z
" transform="scale(0.015625)"/>
      <path id="Helvetica-6c" d="M 428 4591 
L 991 4591 
L 991 0 
L 428 0 
L 428 4591 
z
" transform="scale(0.015625)"/>
      <path id="Helvetica-65" d="M 1806 3422 
Q 2163 3422 2497 3255 
Q 2831 3088 3006 2822 
Q 3175 2569 3231 2231 
Q 3281 2000 3281 1494 
L 828 1494 
Q 844 984 1069 676 
Q 1294 369 1766 369 
Q 2206 369 2469 659 
Q 2619 828 2681 1050 
L 3234 1050 
Q 3213 866 3089 639 
Q 2966 413 2813 269 
Q 2556 19 2178 -69 
Q 1975 -119 1719 -119 
Q 1094 -119 659 336 
Q 225 791 225 1609 
Q 225 2416 662 2919 
Q 1100 3422 1806 3422 
z
M 2703 1941 
Q 2669 2306 2544 2525 
Q 2313 2931 1772 2931 
Q 1384 2931 1121 2651 
Q 859 2372 844 1941 
L 2703 1941 
z
M 1753 3428 
L 1753 3428 
z
" transform="scale(0.015625)"/>
      <path id="Helvetica-20" transform="scale(0.015625)"/>
     </defs>
     <use xlink:href="#Helvetica-4d"/>
     <use xlink:href="#Helvetica-6f" x="83.300781"/>
     <use xlink:href="#Helvetica-64" x="138.916016"/>
     <use xlink:href="#Helvetica-75" x="194.53125"/>
     <use xlink:href="#Helvetica-6c" x="250.146484"/>
     <use xlink:href="#Helvetica-65" x="272.363281"/>
     <use xlink:href="#Helvetica-20" x="327.978516"/>
     <use xlink:href="#Helvetica-31" x="355.761719"/>
    </g>
   </g>
  </g>
  <g id="axes_2">
   <g id="patch_8">
    <path d="M 615.462353 167.929412 
C 615.462353 155.274218 611.585307 142.917731 604.355533 132.530995 
C 597.125759 122.144259 586.884551 114.217599 575.016893 109.822988 
C 563.149235 105.428377 550.215361 104.77327 537.9644 107.946262 
C 525.713439 111.119253 514.72372 117.970556 506.481453 127.573626 
L 553.5 167.929412 
z
" style="fill: #8a2be2"/>
   </g>
   <g id="patch_9">
    <path d="M 506.481453 127.573626 
C 496.185279 139.569704 490.860547 155.062819 491.606703 170.853967 
C 492.35286 186.645115 499.114753 201.567117 510.496195 212.538894 
L 553.5 167.929412 
z
" style="fill: #b22222"/>
   </g>
   <g id="patch_10">
    <path d="M 510.496195 212.538894 
C 519.593846 221.309083 531.160282 227.089818 543.635716 229.101538 
C 556.111149 231.113259 568.908396 229.261279 580.301686 223.795348 
L 553.5 167.929412 
z
" style="fill: #008000"/>
   </g>
   <g id="patch_11">
    <path d="M 580.301686 223.795348 
C 584.667685 221.70076 588.773129 219.101561 592.533897 216.051008 
C 596.294665 213.000456 599.684895 209.51953 602.63512 205.679553 
L 553.5 167.929412 
z
" style="fill: #6495ed"/>
   </g>
   <g id="patch_12">
    <path d="M 602.63512 205.679553 
C 605.569731 201.859899 608.048962 197.711044 610.022545 193.317108 
C 611.996128 188.923172 613.450634 184.314051 614.356573 179.583197 
L 553.5 167.929412 
z
" style="fill: #ffa500"/>
   </g>
   <g id="patch_13">
    <path d="M 614.356573 179.583197 
C 614.484238 178.916524 614.60094 178.247797 614.706631 177.577289 
C 614.812322 176.906781 614.906987 176.234581 614.99059 175.560962 
L 553.5 167.929412 
z
" style="fill: #bc8f8f"/>
   </g>
   <g id="patch_14">
    <path d="M 614.99059 175.560962 
C 615.063756 174.971433 615.12844 174.380883 615.184622 173.789495 
C 615.240804 173.198107 615.288479 172.605941 615.327631 172.013181 
L 553.5 167.929412 
z
" style="fill: #fa8072"/>
   </g>
   <g id="patch_15">
    <path d="M 615.327631 172.013181 
C 615.350601 171.66543 615.370636 171.317492 615.387734 170.969403 
C 615.404833 170.621314 615.418994 170.273087 615.430217 169.924759 
L 553.5 167.929412 
z
" style="fill: #da70d6"/>
   </g>
   <g id="patch_16">
    <path d="M 615.430217 169.924759 
C 615.440928 169.592309 615.448962 169.259779 615.454319 168.9272 
C 615.459675 168.594621 615.462353 168.262004 615.462353 167.929382 
L 553.5 167.929412 
z
" style="fill: #5f9ea0"/>
   </g>
   <g id="matplotlib.axis_3"/>
   <g id="matplotlib.axis_4"/>
   <g id="text_10">
    <!-- LX -->
    <g transform="translate(577.168583 108.083596) scale(0.16 -0.16)">
     <defs>
      <path id="Helvetica-58" d="M 881 0 
L 131 0 
L 1775 2353 
L 234 4591 
L 1013 4591 
L 2184 2834 
L 3347 4591 
L 4088 4591 
L 2547 2353 
L 4163 0 
L 3391 0 
L 2153 1888 
L 881 0 
z
" transform="scale(0.015625)"/>
     </defs>
     <use xlink:href="#Helvetica-4c"/>
     <use xlink:href="#Helvetica-58" x="55.615234"/>
    </g>
   </g>
   <g id="text_11">
    <!-- 38.7% -->
    <g transform="translate(543.727636 137.136807) scale(0.16 -0.16)">
     <defs>
      <path id="Helvetica-38" d="M 1741 2600 
Q 2113 2600 2322 2808 
Q 2531 3016 2531 3303 
Q 2531 3553 2331 3762 
Q 2131 3972 1722 3972 
Q 1316 3972 1134 3762 
Q 953 3553 953 3272 
Q 953 2956 1187 2778 
Q 1422 2600 1741 2600 
z
M 1775 384 
Q 2166 384 2423 595 
Q 2681 806 2681 1225 
Q 2681 1659 2415 1884 
Q 2150 2109 1734 2109 
Q 1331 2109 1076 1879 
Q 822 1650 822 1244 
Q 822 894 1055 639 
Q 1288 384 1775 384 
z
M 975 2384 
Q 741 2484 609 2619 
Q 363 2869 363 3269 
Q 363 3769 725 4128 
Q 1088 4488 1753 4488 
Q 2397 4488 2762 4148 
Q 3128 3809 3128 3356 
Q 3128 2938 2916 2678 
Q 2797 2531 2547 2391 
Q 2825 2263 2984 2097 
Q 3281 1784 3281 1284 
Q 3281 694 2884 283 
Q 2488 -128 1763 -128 
Q 1109 -128 657 226 
Q 206 581 206 1256 
Q 206 1653 400 1942 
Q 594 2231 975 2384 
z
" transform="scale(0.015625)"/>
     </defs>
     <use xlink:href="#Helvetica-33"/>
     <use xlink:href="#Helvetica-38" x="55.615234"/>
     <use xlink:href="#Helvetica-2e" x="111.230469"/>
     <use xlink:href="#Helvetica-37" x="139.013672"/>
     <use xlink:href="#Helvetica-25" x="194.628906"/>
    </g>
   </g>
   <g id="text_12">
    <!-- VMNP -->
    <g transform="translate(439.189874 175.217672) scale(0.16 -0.16)">
     <use xlink:href="#Helvetica-56"/>
     <use xlink:href="#Helvetica-4d" x="66.699219"/>
     <use xlink:href="#Helvetica-4e" x="150"/>
     <use xlink:href="#Helvetica-50" x="222.216797"/>
    </g>
   </g>
   <g id="text_13">
    <!-- 24.1% -->
    <g transform="translate(493.681522 173.755395) scale(0.16 -0.16)">
     <use xlink:href="#Helvetica-32"/>
     <use xlink:href="#Helvetica-34" x="55.615234"/>
     <use xlink:href="#Helvetica-2e" x="111.230469"/>
     <use xlink:href="#Helvetica-31" x="139.013672"/>
     <use xlink:href="#Helvetica-25" x="194.628906"/>
    </g>
   </g>
   <g id="text_14">
    <!-- INP -->
    <g transform="translate(515.976787 239.290001) scale(0.16 -0.16)">
     <use xlink:href="#Helvetica-49"/>
     <use xlink:href="#Helvetica-4e" x="27.783203"/>
     <use xlink:href="#Helvetica-50" x="100"/>
    </g>
   </g>
   <g id="text_15">
    <!-- 19.3% -->
    <g transform="translate(524.898929 208.703938) scale(0.16 -0.16)">
     <defs>
      <path id="Helvetica-39" d="M 850 1081 
Q 875 616 1209 438 
Q 1381 344 1597 344 
Q 2000 344 2284 680 
Q 2569 1016 2688 2044 
Q 2500 1747 2223 1626 
Q 1947 1506 1628 1506 
Q 981 1506 604 1909 
Q 228 2313 228 2947 
Q 228 3556 600 4018 
Q 972 4481 1697 4481 
Q 2675 4481 3047 3600 
Q 3253 3116 3253 2388 
Q 3253 1566 3006 931 
Q 2597 -125 1619 -125 
Q 963 -125 622 219 
Q 281 563 281 1081 
L 850 1081 
z
M 1703 2000 
Q 2038 2000 2314 2220 
Q 2591 2441 2591 2991 
Q 2591 3484 2342 3726 
Q 2094 3969 1709 3969 
Q 1297 3969 1055 3692 
Q 813 3416 813 2953 
Q 813 2516 1025 2258 
Q 1238 2000 1703 2000 
z
" transform="scale(0.015625)"/>
     </defs>
     <use xlink:href="#Helvetica-31"/>
     <use xlink:href="#Helvetica-39" x="55.615234"/>
     <use xlink:href="#Helvetica-2e" x="111.230469"/>
     <use xlink:href="#Helvetica-33" x="139.013672"/>
     <use xlink:href="#Helvetica-25" x="194.628906"/>
    </g>
   </g>
   <g id="text_16">
    <!-- SNP -->
    <g transform="translate(596.437287 224.934418) scale(0.16 -0.16)">
     <use xlink:href="#Helvetica-53"/>
     <use xlink:href="#Helvetica-4e" x="66.699219"/>
     <use xlink:href="#Helvetica-50" x="138.916016"/>
    </g>
   </g>
   <g id="text_17">
    <!-- 7.5% -->
    <g transform="translate(558.686588 200.87362) scale(0.16 -0.16)">
     <use xlink:href="#Helvetica-37"/>
     <use xlink:href="#Helvetica-2e" x="55.615234"/>
     <use xlink:href="#Helvetica-35" x="83.398438"/>
     <use xlink:href="#Helvetica-25" x="139.013672"/>
    </g>
   </g>
   <g id="text_18">
    <!-- VLNP -->
    <g transform="translate(615.674799 199.927128) scale(0.16 -0.16)">
     <use xlink:href="#Helvetica-56"/>
     <use xlink:href="#Helvetica-4c" x="66.699219"/>
     <use xlink:href="#Helvetica-4e" x="122.314453"/>
     <use xlink:href="#Helvetica-50" x="194.53125"/>
    </g>
   </g>
   <g id="text_19">
    <!-- 7.4% -->
    <g transform="translate(569.179777 187.23328) scale(0.16 -0.16)">
     <use xlink:href="#Helvetica-37"/>
     <use xlink:href="#Helvetica-2e" x="55.615234"/>
     <use xlink:href="#Helvetica-34" x="83.398438"/>
     <use xlink:href="#Helvetica-25" x="139.013672"/>
    </g>
   </g>
   <g id="text_20">
    <!-- Module 2 -->
    <g transform="translate(516.479063 80.4) scale(0.18 -0.18)">
     <use xlink:href="#Helvetica-4d"/>
     <use xlink:href="#Helvetica-6f" x="83.300781"/>
     <use xlink:href="#Helvetica-64" x="138.916016"/>
     <use xlink:href="#Helvetica-75" x="194.53125"/>
     <use xlink:href="#Helvetica-6c" x="250.146484"/>
     <use xlink:href="#Helvetica-65" x="272.363281"/>
     <use xlink:href="#Helvetica-20" x="327.978516"/>
     <use xlink:href="#Helvetica-32" x="355.761719"/>
    </g>
   </g>
  </g>
  <g id="axes_3">
   <g id="patch_17">
    <path d="M 910.874118 167.929412 
C 910.874118 158.399002 908.675314 148.99584 904.449273 140.453633 
C 900.223232 131.911427 894.082805 124.458283 886.507115 118.675754 
C 878.931426 112.893225 870.122772 108.935725 860.768472 107.112049 
C 851.414172 105.288372 841.764022 105.647218 832.570997 108.160586 
C 823.377973 110.673955 814.887563 115.274729 807.762254 121.603923 
C 800.636945 127.933116 795.067009 135.821715 791.487055 144.654192 
C 787.9071 153.486669 786.412726 163.027163 787.120534 172.531253 
C 787.828341 182.035343 790.71943 191.249234 795.568216 199.453989 
L 848.911765 167.929412 
z
" style="fill: #6495ed"/>
   </g>
   <g id="patch_18">
    <path d="M 795.568216 199.453989 
C 802.324173 210.885919 812.579378 219.8488 824.812906 225.013369 
C 837.046434 230.177939 850.622058 231.275604 863.526413 228.143573 
L 848.911765 167.929412 
z
" style="fill: #008000"/>
   </g>
   <g id="patch_19">
    <path d="M 863.526413 228.143573 
C 871.556254 226.194641 879.115721 222.659028 885.758902 217.745289 
C 892.402083 212.83155 897.995739 206.638239 902.209917 199.53068 
L 848.911765 167.929412 
z
" style="fill: #ffa500"/>
   </g>
   <g id="patch_20">
    <path d="M 902.209917 199.53068 
C 904.366062 195.894163 906.14438 192.046505 907.517057 188.047883 
C 908.889735 184.049261 909.849578 179.920631 910.381575 175.726564 
L 848.911765 167.929412 
z
" style="fill: #b22222"/>
   </g>
   <g id="patch_21">
    <path d="M 910.381575 175.726564 
C 910.48108 174.942102 910.56556 174.155808 910.634967 173.368113 
C 910.704374 172.580418 910.758697 171.791466 910.797904 171.001692 
L 848.911765 167.929412 
z
" style="fill: #8a2be2"/>
   </g>
   <g id="patch_22">
    <path d="M 910.797904 171.001692 
C 910.823304 170.490065 910.842357 169.978143 910.855061 169.466044 
C 910.867765 168.953945 910.874117 168.441708 910.874118 167.929451 
L 848.911765 167.929412 
z
" style="fill: #bc8f8f"/>
   </g>
   <g id="matplotlib.axis_5"/>
   <g id="matplotlib.axis_6"/>
   <g id="text_21">
    <!-- SNP -->
    <g transform="translate(798.03692 106.254954) scale(0.16 -0.16)">
     <use xlink:href="#Helvetica-53"/>
     <use xlink:href="#Helvetica-4e" x="66.699219"/>
     <use xlink:href="#Helvetica-50" x="138.916016"/>
    </g>
   </g>
   <g id="text_22">
    <!-- 58.5% -->
    <g transform="translate(816.424804 136.139366) scale(0.16 -0.16)">
     <use xlink:href="#Helvetica-35"/>
     <use xlink:href="#Helvetica-38" x="55.615234"/>
     <use xlink:href="#Helvetica-2e" x="111.230469"/>
     <use xlink:href="#Helvetica-35" x="139.013672"/>
     <use xlink:href="#Helvetica-25" x="194.628906"/>
    </g>
   </g>
   <g id="text_23">
    <!-- INP -->
    <g transform="translate(795.73052 234.793015) scale(0.16 -0.16)">
     <use xlink:href="#Helvetica-49"/>
     <use xlink:href="#Helvetica-4e" x="27.783203"/>
     <use xlink:href="#Helvetica-50" x="100"/>
    </g>
   </g>
   <g id="text_24">
    <!-- 20.3% -->
    <g transform="translate(811.769949 206.251036) scale(0.16 -0.16)">
     <use xlink:href="#Helvetica-32"/>
     <use xlink:href="#Helvetica-30" x="55.615234"/>
     <use xlink:href="#Helvetica-2e" x="111.230469"/>
     <use xlink:href="#Helvetica-33" x="139.013672"/>
     <use xlink:href="#Helvetica-25" x="194.628906"/>
    </g>
   </g>
   <g id="text_25">
    <!-- VLNP -->
    <g transform="translate(889.443616 226.798127) scale(0.16 -0.16)">
     <use xlink:href="#Helvetica-56"/>
     <use xlink:href="#Helvetica-4c" x="66.699219"/>
     <use xlink:href="#Helvetica-4e" x="122.314453"/>
     <use xlink:href="#Helvetica-50" x="194.53125"/>
    </g>
   </g>
   <g id="text_26">
    <!-- 12.7% -->
    <g transform="translate(848.337547 201.890188) scale(0.16 -0.16)">
     <use xlink:href="#Helvetica-31"/>
     <use xlink:href="#Helvetica-32" x="55.615234"/>
     <use xlink:href="#Helvetica-2e" x="111.230469"/>
     <use xlink:href="#Helvetica-37" x="139.013672"/>
     <use xlink:href="#Helvetica-25" x="194.628906"/>
    </g>
   </g>
   <g id="text_27">
    <!-- VMNP -->
    <g transform="translate(913.377586 194.13098) scale(0.16 -0.16)">
     <use xlink:href="#Helvetica-56"/>
     <use xlink:href="#Helvetica-4d" x="66.699219"/>
     <use xlink:href="#Helvetica-4e" x="150"/>
     <use xlink:href="#Helvetica-50" x="222.216797"/>
    </g>
   </g>
   <g id="text_28">
    <!-- 6.5% -->
    <g transform="translate(865.84119 184.071744) scale(0.16 -0.16)">
     <use xlink:href="#Helvetica-36"/>
     <use xlink:href="#Helvetica-2e" x="55.615234"/>
     <use xlink:href="#Helvetica-35" x="83.398438"/>
     <use xlink:href="#Helvetica-25" x="139.013672"/>
    </g>
   </g>
   <g id="text_29">
    <!-- Module 3 -->
    <g transform="translate(811.890827 80.4) scale(0.18 -0.18)">
     <use xlink:href="#Helvetica-4d"/>
     <use xlink:href="#Helvetica-6f" x="83.300781"/>
     <use xlink:href="#Helvetica-64" x="138.916016"/>
     <use xlink:href="#Helvetica-75" x="194.53125"/>
     <use xlink:href="#Helvetica-6c" x="250.146484"/>
     <use xlink:href="#Helvetica-65" x="272.363281"/>
     <use xlink:href="#Helvetica-20" x="327.978516"/>
     <use xlink:href="#Helvetica-33" x="355.761719"/>
    </g>
   </g>
  </g>
  <g id="axes_4">
   <g id="patch_23">
    <path d="M 320.050588 363.6 
C 320.050588 347.313484 313.629336 331.666163 302.188865 320.074518 
C 290.748395 308.482872 275.186712 301.856775 258.9016 301.642986 
C 242.616487 301.429197 226.886224 307.644497 215.145401 318.931821 
C 203.404578 330.219146 196.574777 345.692508 196.147236 361.973412 
L 258.088235 363.6 
z
" style="fill: #6495ed"/>
   </g>
   <g id="patch_24">
    <path d="M 196.147236 361.973412 
C 195.810617 374.791963 199.461313 387.404322 206.592972 398.061152 
C 213.724631 408.717982 223.991548 416.902699 235.969702 421.48008 
C 247.947856 426.057461 261.05661 426.805621 273.477778 423.620789 
C 285.898947 420.435958 297.03042 413.472518 305.32826 403.6963 
L 258.088235 363.6 
z
" style="fill: #fa8072"/>
   </g>
   <g id="patch_25">
    <path d="M 305.32826 403.6963 
C 309.154958 399.187821 312.316606 394.154655 314.716878 388.750148 
C 317.11715 383.345642 318.731418 377.625246 319.5105 371.763248 
L 258.088235 363.6 
z
" style="fill: #008000"/>
   </g>
   <g id="patch_26">
    <path d="M 319.5105 371.763248 
C 319.601316 371.079924 319.680723 370.395133 319.748687 369.709159 
C 319.816652 369.023186 319.873164 368.336126 319.918201 367.648267 
L 258.088235 363.6 
z
" style="fill: #8a2be2"/>
   </g>
   <g id="patch_27">
    <path d="M 319.918201 367.648267 
C 319.962315 366.974505 319.995413 366.300068 320.017482 365.625225 
C 320.039551 364.950383 320.050588 364.275224 320.050588 363.60002 
L 258.088235 363.6 
z
" style="fill: #ffa500"/>
   </g>
   <g id="matplotlib.axis_7"/>
   <g id="matplotlib.axis_8"/>
   <g id="text_30">
    <!-- SNP -->
    <g transform="translate(258.982936 299.518534) scale(0.16 -0.16)">
     <use xlink:href="#Helvetica-53"/>
     <use xlink:href="#Helvetica-4e" x="66.699219"/>
     <use xlink:href="#Helvetica-50" x="138.916016"/>
    </g>
   </g>
   <g id="text_31">
    <!-- 49.6% -->
    <g transform="translate(235.893754 330.497041) scale(0.16 -0.16)">
     <use xlink:href="#Helvetica-34"/>
     <use xlink:href="#Helvetica-39" x="55.615234"/>
     <use xlink:href="#Helvetica-2e" x="111.230469"/>
     <use xlink:href="#Helvetica-36" x="139.013672"/>
     <use xlink:href="#Helvetica-25" x="194.628906"/>
    </g>
   </g>
   <g id="text_32">
    <!-- CX -->
    <g transform="translate(211.530349 431.339338) scale(0.16 -0.16)">
     <defs>
      <path id="Helvetica-43" d="M 2422 4716 
Q 3294 4716 3775 4256 
Q 4256 3797 4309 3213 
L 3703 3213 
Q 3600 3656 3292 3915 
Q 2984 4175 2428 4175 
Q 1750 4175 1333 3698 
Q 916 3222 916 2238 
Q 916 1431 1292 929 
Q 1669 428 2416 428 
Q 3103 428 3463 956 
Q 3653 1234 3747 1688 
L 4353 1688 
Q 4272 963 3816 472 
Q 3269 -119 2341 -119 
Q 1541 -119 997 366 
Q 281 1006 281 2344 
Q 281 3359 819 4009 
Q 1400 4716 2422 4716 
z
M 2297 4716 
L 2297 4716 
z
" transform="scale(0.015625)"/>
     </defs>
     <use xlink:href="#Helvetica-43"/>
     <use xlink:href="#Helvetica-58" x="72.216797"/>
    </g>
   </g>
   <g id="text_33">
    <!-- 39.2% -->
    <g transform="translate(222.134615 402.399298) scale(0.16 -0.16)">
     <use xlink:href="#Helvetica-33"/>
     <use xlink:href="#Helvetica-39" x="55.615234"/>
     <use xlink:href="#Helvetica-2e" x="111.230469"/>
     <use xlink:href="#Helvetica-32" x="139.013672"/>
     <use xlink:href="#Helvetica-25" x="194.628906"/>
    </g>
   </g>
   <g id="text_34">
    <!-- INP -->
    <g transform="translate(320.379743 395.336413) scale(0.16 -0.16)">
     <use xlink:href="#Helvetica-49"/>
     <use xlink:href="#Helvetica-4e" x="27.783203"/>
     <use xlink:href="#Helvetica-50" x="100"/>
    </g>
   </g>
   <g id="text_35">
    <!-- 9.1% -->
    <g transform="translate(273.831671 382.761339) scale(0.16 -0.16)">
     <use xlink:href="#Helvetica-39"/>
     <use xlink:href="#Helvetica-2e" x="55.615234"/>
     <use xlink:href="#Helvetica-31" x="83.398438"/>
     <use xlink:href="#Helvetica-25" x="139.013672"/>
    </g>
   </g>
   <g id="text_36">
    <!-- Module 4 -->
    <g transform="translate(221.067298 276.070588) scale(0.18 -0.18)">
     <use xlink:href="#Helvetica-4d"/>
     <use xlink:href="#Helvetica-6f" x="83.300781"/>
     <use xlink:href="#Helvetica-64" x="138.916016"/>
     <use xlink:href="#Helvetica-75" x="194.53125"/>
     <use xlink:href="#Helvetica-6c" x="250.146484"/>
     <use xlink:href="#Helvetica-65" x="272.363281"/>
     <use xlink:href="#Helvetica-20" x="327.978516"/>
     <use xlink:href="#Helvetica-34" x="355.761719"/>
    </g>
   </g>
  </g>
  <g id="axes_5">
   <g id="patch_28">
    <path d="M 615.462353 363.6 
C 615.462353 350.113008 611.058898 336.987872 602.924755 326.229867 
C 594.790611 315.471863 583.362256 307.658264 570.38573 303.982844 
C 557.409204 300.307423 543.580826 300.967404 531.013314 305.861952 
C 518.445803 310.756501 507.81353 319.622977 500.740909 331.106747 
L 553.5 363.6 
z
" style="fill: #008000"/>
   </g>
   <g id="patch_29">
    <path d="M 500.740909 331.106747 
C 494.910906 340.572887 491.734605 351.435875 491.546516 362.551691 
C 491.358426 373.667507 494.16539 384.631737 499.671796 394.289699 
C 505.178202 403.947661 513.183718 411.947982 522.845253 417.448117 
C 532.506788 422.948251 543.472838 425.748097 554.58853 425.552791 
L 553.5 363.6 
z
" style="fill: #6495ed"/>
   </g>
   <g id="patch_30">
    <path d="M 554.58853 425.552791 
C 563.487583 425.396432 572.249361 423.324469 580.275862 419.478318 
C 588.302363 415.632166 595.406729 410.101364 601.104078 403.263395 
L 553.5 363.6 
z
" style="fill: #8a2be2"/>
   </g>
   <g id="patch_31">
    <path d="M 601.104078 403.263395 
C 602.727333 401.315161 604.229459 399.269114 605.601979 397.1368 
C 606.974499 395.004486 608.214825 392.789925 609.315958 390.505613 
L 553.5 363.6 
z
" style="fill: #fa8072"/>
   </g>
   <g id="patch_32">
    <path d="M 609.315958 390.505613 
C 610.222103 388.625806 611.032706 386.701422 611.744667 384.73982 
C 612.456628 382.778217 613.069038 380.781899 613.579556 378.7585 
L 553.5 363.6 
z
" style="fill: #ffa500"/>
   </g>
   <g id="patch_33">
    <path d="M 613.579556 378.7585 
C 614.017371 377.023254 614.379803 375.269854 614.665833 373.503234 
C 614.951863 371.736614 615.161222 369.95843 615.293321 368.173687 
L 553.5 363.6 
z
" style="fill: #b22222"/>
   </g>
   <g id="patch_34">
    <path d="M 615.293321 368.173687 
C 615.349641 367.412771 615.391902 366.65088 615.420081 365.888403 
C 615.44826 365.125926 615.462353 364.362994 615.462353 363.599997 
L 553.5 363.6 
z
" style="fill: #d2b48c"/>
   </g>
   <g id="matplotlib.axis_9"/>
   <g id="matplotlib.axis_10"/>
   <g id="text_37">
    <!-- INP -->
    <g transform="translate(572.074303 302.092378) scale(0.16 -0.16)">
     <use xlink:href="#Helvetica-49"/>
     <use xlink:href="#Helvetica-4e" x="27.783203"/>
     <use xlink:href="#Helvetica-50" x="100"/>
    </g>
   </g>
   <g id="text_38">
    <!-- 41.2% -->
    <g transform="translate(540.948938 331.900956) scale(0.16 -0.16)">
     <use xlink:href="#Helvetica-34"/>
     <use xlink:href="#Helvetica-31" x="55.615234"/>
     <use xlink:href="#Helvetica-2e" x="111.230469"/>
     <use xlink:href="#Helvetica-32" x="139.013672"/>
     <use xlink:href="#Helvetica-25" x="194.628906"/>
    </g>
   </g>
   <g id="text_39">
    <!-- SNP -->
    <g transform="translate(461.388976 401.429919) scale(0.16 -0.16)">
     <use xlink:href="#Helvetica-53"/>
     <use xlink:href="#Helvetica-4e" x="66.699219"/>
     <use xlink:href="#Helvetica-50" x="138.916016"/>
    </g>
   </g>
   <g id="text_40">
    <!-- 34.1% -->
    <g transform="translate(498.520578 386.08507) scale(0.16 -0.16)">
     <use xlink:href="#Helvetica-33"/>
     <use xlink:href="#Helvetica-34" x="55.615234"/>
     <use xlink:href="#Helvetica-2e" x="111.230469"/>
     <use xlink:href="#Helvetica-31" x="139.013672"/>
     <use xlink:href="#Helvetica-25" x="194.628906"/>
    </g>
   </g>
   <g id="text_41">
    <!-- LX -->
    <g transform="translate(582.953449 429.137399) scale(0.16 -0.16)">
     <use xlink:href="#Helvetica-4c"/>
     <use xlink:href="#Helvetica-58" x="55.615234"/>
    </g>
   </g>
   <g id="text_42">
    <!-- 13.7% -->
    <g transform="translate(546.883017 401.198241) scale(0.16 -0.16)">
     <use xlink:href="#Helvetica-31"/>
     <use xlink:href="#Helvetica-33" x="55.615234"/>
     <use xlink:href="#Helvetica-2e" x="111.230469"/>
     <use xlink:href="#Helvetica-37" x="139.013672"/>
     <use xlink:href="#Helvetica-25" x="194.628906"/>
    </g>
   </g>
   <g id="text_43">
    <!-- CX -->
    <g transform="translate(610.812177 404.56173) scale(0.16 -0.16)">
     <use xlink:href="#Helvetica-43"/>
     <use xlink:href="#Helvetica-58" x="72.216797"/>
    </g>
   </g>
   <g id="text_44">
    <!-- 3.9% -->
    <g transform="translate(566.527437 387.79333) scale(0.16 -0.16)">
     <use xlink:href="#Helvetica-33"/>
     <use xlink:href="#Helvetica-2e" x="55.615234"/>
     <use xlink:href="#Helvetica-39" x="83.398438"/>
     <use xlink:href="#Helvetica-25" x="139.013672"/>
    </g>
   </g>
   <g id="text_45">
    <!-- Module 5 -->
    <g transform="translate(516.479063 276.070588) scale(0.18 -0.18)">
     <use xlink:href="#Helvetica-4d"/>
     <use xlink:href="#Helvetica-6f" x="83.300781"/>
     <use xlink:href="#Helvetica-64" x="138.916016"/>
     <use xlink:href="#Helvetica-75" x="194.53125"/>
     <use xlink:href="#Helvetica-6c" x="250.146484"/>
     <use xlink:href="#Helvetica-65" x="272.363281"/>
     <use xlink:href="#Helvetica-20" x="327.978516"/>
     <use xlink:href="#Helvetica-35" x="355.761719"/>
    </g>
   </g>
  </g>
  <g id="axes_6">
   <g id="patch_35">
    <path d="M 910.874118 363.6 
C 910.874118 354.50544 908.871829 345.521424 905.009811 337.287601 
C 901.147794 329.053777 895.519932 321.770311 888.526923 315.955773 
C 881.533915 310.141235 873.345757 305.936977 864.545436 303.642336 
C 855.745116 301.347695 846.546566 301.018453 837.604712 302.678052 
C 828.662858 304.337651 820.195075 307.945747 812.804256 313.245447 
C 805.413438 318.545147 799.279254 325.407618 794.83845 333.34426 
C 790.397646 341.280901 787.758178 350.098776 787.107972 359.170064 
C 786.457765 368.241351 787.812627 377.345529 791.076093 385.834393 
L 848.911765 363.6 
z
" style="fill: #6495ed"/>
   </g>
   <g id="patch_36">
    <path d="M 791.076093 385.834393 
C 796.838999 400.824752 808.210038 413.002678 822.77078 419.778128 
C 837.331522 426.553579 853.970925 427.409561 869.150063 422.16402 
L 848.911765 363.6 
z
" style="fill: #008000"/>
   </g>
   <g id="patch_37">
    <path d="M 869.150063 422.16402 
C 872.680273 420.944066 876.092956 419.407407 879.346411 417.572822 
C 882.599865 415.738237 885.680785 413.613228 888.551522 411.223764 
L 848.911765 363.6 
z
" style="fill: #d2b48c"/>
   </g>
   <g id="patch_38">
    <path d="M 888.551522 411.223764 
C 891.066367 409.130526 893.411461 406.841373 895.564794 404.377789 
C 897.718127 401.914205 899.672941 399.283921 901.41089 396.511625 
L 848.911765 363.6 
z
" style="fill: #8a2be2"/>
   </g>
   <g id="patch_39">
    <path d="M 901.41089 396.511625 
C 902.925167 394.096119 904.270933 391.578982 905.438592 388.97816 
C 906.606251 386.377337 907.593023 383.699027 908.39187 380.962323 
L 848.911765 363.6 
z
" style="fill: #008080"/>
   </g>
   <g id="patch_40">
    <path d="M 908.39187 380.962323 
C 908.806112 379.543206 909.169434 378.109719 909.481138 376.664614 
C 909.792843 375.219509 910.05273 373.763712 910.260301 372.300017 
L 848.911765 363.6 
z
" style="fill: #ffa500"/>
   </g>
   <g id="patch_41">
    <path d="M 910.260301 372.300017 
C 910.389133 371.391554 910.49777 370.480341 910.586131 369.567053 
C 910.674492 368.653766 910.742557 367.738628 910.790274 366.822317 
L 848.911765 363.6 
z
" style="fill: #b22222"/>
   </g>
   <g id="patch_42">
    <path d="M 910.790274 366.822317 
C 910.818216 366.285738 910.839178 365.748819 910.853153 365.211695 
C 910.867129 364.674572 910.874118 364.137289 910.874118 363.599983 
L 848.911765 363.6 
z
" style="fill: #5f9ea0"/>
   </g>
   <g id="matplotlib.axis_11"/>
   <g id="matplotlib.axis_12"/>
   <g id="text_46">
    <!-- SNP -->
    <g transform="translate(803.574007 300.657107) scale(0.16 -0.16)">
     <use xlink:href="#Helvetica-53"/>
     <use xlink:href="#Helvetica-4e" x="66.699219"/>
     <use xlink:href="#Helvetica-50" x="138.916016"/>
    </g>
   </g>
   <g id="text_47">
    <!-- 55.8% -->
    <g transform="translate(819.445033 331.118081) scale(0.16 -0.16)">
     <use xlink:href="#Helvetica-35"/>
     <use xlink:href="#Helvetica-35" x="55.615234"/>
     <use xlink:href="#Helvetica-2e" x="111.230469"/>
     <use xlink:href="#Helvetica-38" x="139.013672"/>
     <use xlink:href="#Helvetica-25" x="194.628906"/>
    </g>
   </g>
   <g id="text_48">
    <!-- INP -->
    <g transform="translate(793.484182 429.467191) scale(0.16 -0.16)">
     <use xlink:href="#Helvetica-49"/>
     <use xlink:href="#Helvetica-4e" x="27.783203"/>
     <use xlink:href="#Helvetica-50" x="100"/>
    </g>
   </g>
   <g id="text_49">
    <!-- 24.5% -->
    <g transform="translate(810.544674 401.378127) scale(0.16 -0.16)">
     <use xlink:href="#Helvetica-32"/>
     <use xlink:href="#Helvetica-34" x="55.615234"/>
     <use xlink:href="#Helvetica-2e" x="111.230469"/>
     <use xlink:href="#Helvetica-35" x="139.013672"/>
     <use xlink:href="#Helvetica-25" x="194.628906"/>
    </g>
   </g>
   <g id="text_50">
    <!-- MB -->
    <g transform="translate(882.389875 427.041354) scale(0.16 -0.16)">
     <defs>
      <path id="Helvetica-42" d="M 2213 2650 
Q 2606 2650 2825 2759 
Q 3169 2931 3169 3378 
Q 3169 3828 2803 3984 
Q 2597 4072 2191 4072 
L 1081 4072 
L 1081 2650 
L 2213 2650 
z
M 2422 531 
Q 2994 531 3238 863 
Q 3391 1072 3391 1369 
Q 3391 1869 2944 2050 
Q 2706 2147 2316 2147 
L 1081 2147 
L 1081 531 
L 2422 531 
z
M 472 4591 
L 2444 4591 
Q 3250 4591 3591 4109 
Q 3791 3825 3791 3453 
Q 3791 3019 3544 2741 
Q 3416 2594 3175 2472 
Q 3528 2338 3703 2169 
Q 4013 1869 4013 1341 
Q 4013 897 3734 538 
Q 3319 0 2413 0 
L 472 0 
L 472 4591 
z
" transform="scale(0.015625)"/>
     </defs>
     <use xlink:href="#Helvetica-4d"/>
     <use xlink:href="#Helvetica-42" x="83.300781"/>
    </g>
   </g>
   <g id="text_51">
    <!-- 5.8% -->
    <g transform="translate(848.938802 400.054943) scale(0.16 -0.16)">
     <use xlink:href="#Helvetica-35"/>
     <use xlink:href="#Helvetica-2e" x="55.615234"/>
     <use xlink:href="#Helvetica-38" x="83.398438"/>
     <use xlink:href="#Helvetica-25" x="139.013672"/>
    </g>
   </g>
   <g id="text_52">
    <!-- LX -->
    <g transform="translate(900.230097 412.526818) scale(0.16 -0.16)">
     <use xlink:href="#Helvetica-4c"/>
     <use xlink:href="#Helvetica-58" x="55.615234"/>
    </g>
   </g>
   <g id="text_53">
    <!-- 5.0% -->
    <g transform="translate(858.669832 392.137923) scale(0.16 -0.16)">
     <use xlink:href="#Helvetica-35"/>
     <use xlink:href="#Helvetica-2e" x="55.615234"/>
     <use xlink:href="#Helvetica-30" x="83.398438"/>
     <use xlink:href="#Helvetica-25" x="139.013672"/>
    </g>
   </g>
   <g id="text_54">
    <!-- LH -->
    <g transform="translate(911.091275 395.587226) scale(0.16 -0.16)">
     <defs>
      <path id="Helvetica-48" d="M 503 4591 
L 1131 4591 
L 1131 2694 
L 3519 2694 
L 3519 4591 
L 4147 4591 
L 4147 0 
L 3519 0 
L 3519 2147 
L 1131 2147 
L 1131 0 
L 503 0 
L 503 4591 
z
" transform="scale(0.015625)"/>
     </defs>
     <use xlink:href="#Helvetica-4c"/>
     <use xlink:href="#Helvetica-48" x="55.615234"/>
    </g>
   </g>
   <g id="text_55">
    <!-- 4.4% -->
    <g transform="translate(864.594111 382.898146) scale(0.16 -0.16)">
     <use xlink:href="#Helvetica-34"/>
     <use xlink:href="#Helvetica-2e" x="55.615234"/>
     <use xlink:href="#Helvetica-34" x="83.398438"/>
     <use xlink:href="#Helvetica-25" x="139.013672"/>
    </g>
   </g>
   <g id="text_56">
    <!-- Module 6 -->
    <g transform="translate(811.890827 276.070588) scale(0.18 -0.18)">
     <use xlink:href="#Helvetica-4d"/>
     <use xlink:href="#Helvetica-6f" x="83.300781"/>
     <use xlink:href="#Helvetica-64" x="138.916016"/>
     <use xlink:href="#Helvetica-75" x="194.53125"/>
     <use xlink:href="#Helvetica-6c" x="250.146484"/>
     <use xlink:href="#Helvetica-65" x="272.363281"/>
     <use xlink:href="#Helvetica-20" x="327.978516"/>
     <use xlink:href="#Helvetica-36" x="355.761719"/>
    </g>
   </g>
  </g>
  <g id="axes_7">
   <g id="patch_43">
    <path d="M 320.050588 559.270588 
C 320.050588 551.735492 318.6761 544.263208 315.994742 537.221334 
C 313.313384 530.17946 309.369859 523.685396 304.358169 518.058619 
C 299.346478 512.431841 293.350175 507.766157 286.664249 504.291095 
C 279.978322 500.816034 272.714237 498.589529 265.22935 497.721115 
C 257.744464 496.852701 250.163562 497.356855 242.859586 499.208775 
C 235.55561 501.060695 228.650331 504.229507 222.483453 508.559321 
C 216.316575 512.889135 210.990911 518.307765 206.768457 524.548642 
C 202.546003 530.78952 199.497154 537.748598 197.771899 545.083526 
C 196.046644 552.418454 195.673745 560.006945 196.671547 567.475684 
C 197.669349 574.944423 200.021218 582.168893 203.611452 588.793686 
C 207.201687 595.418479 211.970432 601.333149 217.683089 606.246724 
C 223.395746 611.160299 229.957076 614.990861 237.044294 617.549965 
C 244.131512 620.109069 251.626462 621.354051 259.160429 621.223664 
C 266.694397 621.093277 274.141779 619.589695 281.1362 616.786886 
C 288.130622 613.984077 294.555474 609.928769 300.094688 604.820464 
C 305.633901 599.712158 310.195126 593.636018 313.553975 586.89096 
L 258.088235 559.270588 
z
" style="fill: #6495ed"/>
   </g>
   <g id="patch_44">
    <path d="M 313.553975 586.89096 
C 314.780169 584.428583 315.841029 581.887283 316.729512 579.283929 
C 317.617996 576.680576 318.332132 574.020944 318.867179 571.32269 
L 258.088235 559.270588 
z
" style="fill: #008000"/>
   </g>
   <g id="patch_45">
    <path d="M 318.867179 571.32269 
C 319.04202 570.440967 319.197652 569.555545 319.333967 568.667051 
C 319.470282 567.778557 319.587246 566.887202 319.684778 565.993619 
L 258.088235 559.270588 
z
" style="fill: #ffa500"/>
   </g>
   <g id="patch_46">
    <path d="M 319.684778 565.993619 
C 319.763928 565.268446 319.830265 564.541932 319.883759 563.814417 
C 319.937254 563.086902 319.977896 562.358498 320.005668 561.629548 
L 258.088235 559.270588 
z
" style="fill: #d2b48c"/>
   </g>
   <g id="patch_47">
    <path d="M 320.005668 561.629548 
C 320.02064 561.236578 320.03187 560.843476 320.039357 560.450293 
C 320.046844 560.05711 320.050588 559.663865 320.050588 559.270611 
L 258.088235 559.270588 
z
" style="fill: #008080"/>
   </g>
   <g id="matplotlib.axis_13"/>
   <g id="matplotlib.axis_14"/>
   <g id="text_57">
    <!-- SNP -->
    <g transform="translate(158.840265 547.73607) scale(0.16 -0.16)">
     <use xlink:href="#Helvetica-53"/>
     <use xlink:href="#Helvetica-4e" x="66.699219"/>
     <use xlink:href="#Helvetica-50" x="138.916016"/>
    </g>
   </g>
   <g id="text_58">
    <!-- 92.6% -->
    <g transform="translate(199.215933 554.829601) scale(0.16 -0.16)">
     <use xlink:href="#Helvetica-39"/>
     <use xlink:href="#Helvetica-32" x="55.615234"/>
     <use xlink:href="#Helvetica-2e" x="111.230469"/>
     <use xlink:href="#Helvetica-36" x="139.013672"/>
     <use xlink:href="#Helvetica-25" x="194.628906"/>
    </g>
   </g>
   <g id="text_59">
    <!-- INP -->
    <g transform="translate(322.59364 585.356513) scale(0.16 -0.16)">
     <use xlink:href="#Helvetica-49"/>
     <use xlink:href="#Helvetica-4e" x="27.783203"/>
     <use xlink:href="#Helvetica-50" x="100"/>
    </g>
   </g>
   <g id="text_60">
    <!-- 4.2% -->
    <g transform="translate(275.039251 575.349843) scale(0.16 -0.16)">
     <use xlink:href="#Helvetica-34"/>
     <use xlink:href="#Helvetica-2e" x="55.615234"/>
     <use xlink:href="#Helvetica-32" x="83.398438"/>
     <use xlink:href="#Helvetica-25" x="139.013672"/>
    </g>
   </g>
   <g id="text_61">
    <!-- Module 7 -->
    <g transform="translate(221.067298 471.741176) scale(0.18 -0.18)">
     <use xlink:href="#Helvetica-4d"/>
     <use xlink:href="#Helvetica-6f" x="83.300781"/>
     <use xlink:href="#Helvetica-64" x="138.916016"/>
     <use xlink:href="#Helvetica-75" x="194.53125"/>
     <use xlink:href="#Helvetica-6c" x="250.146484"/>
     <use xlink:href="#Helvetica-65" x="272.363281"/>
     <use xlink:href="#Helvetica-20" x="327.978516"/>
     <use xlink:href="#Helvetica-37" x="355.761719"/>
    </g>
   </g>
  </g>
  <g id="text_62">
   <!-- OviINr Inputs Subconnectome Modules  -->
   <g transform="translate(363.257812 29.1375) scale(0.2 -0.2)">
    <defs>
     <path id="Helvetica-4f" d="M 2469 4716 
Q 3684 4716 4269 3934 
Q 4725 3325 4725 2375 
Q 4725 1347 4203 666 
Q 3591 -134 2456 -134 
Q 1397 -134 791 566 
Q 250 1241 250 2272 
Q 250 3203 713 3866 
Q 1306 4716 2469 4716 
z
M 2531 422 
Q 3353 422 3720 1011 
Q 4088 1600 4088 2366 
Q 4088 3175 3664 3669 
Q 3241 4163 2506 4163 
Q 1794 4163 1344 3673 
Q 894 3184 894 2231 
Q 894 1469 1280 945 
Q 1666 422 2531 422 
z
M 2488 4716 
L 2488 4716 
z
" transform="scale(0.015625)"/>
     <path id="Helvetica-76" d="M 688 3347 
L 1581 622 
L 2516 3347 
L 3131 3347 
L 1869 0 
L 1269 0 
L 34 3347 
L 688 3347 
z
" transform="scale(0.015625)"/>
     <path id="Helvetica-69" d="M 413 3331 
L 984 3331 
L 984 0 
L 413 0 
L 413 3331 
z
M 413 4591 
L 984 4591 
L 984 3953 
L 413 3953 
L 413 4591 
z
" transform="scale(0.015625)"/>
     <path id="Helvetica-72" d="M 428 3347 
L 963 3347 
L 963 2769 
Q 1028 2938 1284 3180 
Q 1541 3422 1875 3422 
Q 1891 3422 1928 3419 
Q 1966 3416 2056 3406 
L 2056 2813 
Q 2006 2822 1964 2825 
Q 1922 2828 1872 2828 
Q 1447 2828 1219 2554 
Q 991 2281 991 1925 
L 991 0 
L 428 0 
L 428 3347 
z
" transform="scale(0.015625)"/>
     <path id="Helvetica-6e" d="M 413 3347 
L 947 3347 
L 947 2872 
Q 1184 3166 1450 3294 
Q 1716 3422 2041 3422 
Q 2753 3422 3003 2925 
Q 3141 2653 3141 2147 
L 3141 0 
L 2569 0 
L 2569 2109 
Q 2569 2416 2478 2603 
Q 2328 2916 1934 2916 
Q 1734 2916 1606 2875 
Q 1375 2806 1200 2600 
Q 1059 2434 1017 2257 
Q 975 2081 975 1753 
L 975 0 
L 413 0 
L 413 3347 
z
M 1734 3428 
L 1734 3428 
z
" transform="scale(0.015625)"/>
     <path id="Helvetica-70" d="M 1825 378 
Q 2219 378 2480 708 
Q 2741 1038 2741 1694 
Q 2741 2094 2625 2381 
Q 2406 2934 1825 2934 
Q 1241 2934 1025 2350 
Q 909 2038 909 1556 
Q 909 1169 1025 897 
Q 1244 378 1825 378 
z
M 369 3331 
L 916 3331 
L 916 2888 
Q 1084 3116 1284 3241 
Q 1569 3428 1953 3428 
Q 2522 3428 2919 2992 
Q 3316 2556 3316 1747 
Q 3316 653 2744 184 
Q 2381 -113 1900 -113 
Q 1522 -113 1266 53 
Q 1116 147 931 375 
L 931 -1334 
L 369 -1334 
L 369 3331 
z
" transform="scale(0.015625)"/>
     <path id="Helvetica-74" d="M 525 4281 
L 1094 4281 
L 1094 3347 
L 1628 3347 
L 1628 2888 
L 1094 2888 
L 1094 703 
Q 1094 528 1213 469 
Q 1278 434 1431 434 
Q 1472 434 1519 436 
Q 1566 438 1628 444 
L 1628 0 
Q 1531 -28 1426 -40 
Q 1322 -53 1200 -53 
Q 806 -53 665 148 
Q 525 350 525 672 
L 525 2888 
L 72 2888 
L 72 3347 
L 525 3347 
L 525 4281 
z
" transform="scale(0.015625)"/>
     <path id="Helvetica-73" d="M 747 1050 
Q 772 769 888 619 
Q 1100 347 1625 347 
Q 1938 347 2175 483 
Q 2413 619 2413 903 
Q 2413 1119 2222 1231 
Q 2100 1300 1741 1391 
L 1294 1503 
Q 866 1609 663 1741 
Q 300 1969 300 2372 
Q 300 2847 642 3140 
Q 984 3434 1563 3434 
Q 2319 3434 2653 2991 
Q 2863 2709 2856 2384 
L 2325 2384 
Q 2309 2575 2191 2731 
Q 1997 2953 1519 2953 
Q 1200 2953 1036 2831 
Q 872 2709 872 2509 
Q 872 2291 1088 2159 
Q 1213 2081 1456 2022 
L 1828 1931 
Q 2434 1784 2641 1647 
Q 2969 1431 2969 969 
Q 2969 522 2630 197 
Q 2291 -128 1597 -128 
Q 850 -128 539 211 
Q 228 550 206 1050 
L 747 1050 
z
M 1578 3428 
L 1578 3428 
z
" transform="scale(0.015625)"/>
     <path id="Helvetica-62" d="M 369 4606 
L 916 4606 
L 916 2941 
Q 1100 3181 1356 3307 
Q 1613 3434 1913 3434 
Q 2538 3434 2927 3004 
Q 3316 2575 3316 1738 
Q 3316 944 2931 419 
Q 2547 -106 1866 -106 
Q 1484 -106 1222 78 
Q 1066 188 888 428 
L 888 0 
L 369 0 
L 369 4606 
z
M 1831 391 
Q 2288 391 2514 753 
Q 2741 1116 2741 1709 
Q 2741 2238 2514 2584 
Q 2288 2931 1847 2931 
Q 1463 2931 1173 2647 
Q 884 2363 884 1709 
Q 884 1238 1003 944 
Q 1225 391 1831 391 
z
" transform="scale(0.015625)"/>
     <path id="Helvetica-63" d="M 1703 3444 
Q 2269 3444 2623 3169 
Q 2978 2894 3050 2222 
L 2503 2222 
Q 2453 2531 2275 2736 
Q 2097 2941 1703 2941 
Q 1166 2941 934 2416 
Q 784 2075 784 1575 
Q 784 1072 996 728 
Q 1209 384 1666 384 
Q 2016 384 2220 598 
Q 2425 813 2503 1184 
L 3050 1184 
Q 2956 519 2581 211 
Q 2206 -97 1622 -97 
Q 966 -97 575 383 
Q 184 863 184 1581 
Q 184 2463 612 2953 
Q 1041 3444 1703 3444 
z
M 1616 3428 
L 1616 3428 
z
" transform="scale(0.015625)"/>
     <path id="Helvetica-6d" d="M 413 3347 
L 969 3347 
L 969 2872 
Q 1169 3119 1331 3231 
Q 1609 3422 1963 3422 
Q 2363 3422 2606 3225 
Q 2744 3113 2856 2894 
Q 3044 3163 3297 3292 
Q 3550 3422 3866 3422 
Q 4541 3422 4784 2934 
Q 4916 2672 4916 2228 
L 4916 0 
L 4331 0 
L 4331 2325 
Q 4331 2659 4164 2784 
Q 3997 2909 3756 2909 
Q 3425 2909 3186 2687 
Q 2947 2466 2947 1947 
L 2947 0 
L 2375 0 
L 2375 2184 
Q 2375 2525 2294 2681 
Q 2166 2916 1816 2916 
Q 1497 2916 1236 2669 
Q 975 2422 975 1775 
L 975 0 
L 413 0 
L 413 3347 
z
" transform="scale(0.015625)"/>
    </defs>
    <use xlink:href="#Helvetica-4f"/>
    <use xlink:href="#Helvetica-76" x="77.783203"/>
    <use xlink:href="#Helvetica-69" x="127.783203"/>
    <use xlink:href="#Helvetica-49" x="150"/>
    <use xlink:href="#Helvetica-4e" x="177.783203"/>
    <use xlink:href="#Helvetica-72" x="250"/>
    <use xlink:href="#Helvetica-20" x="283.300781"/>
    <use xlink:href="#Helvetica-49" x="311.083984"/>
    <use xlink:href="#Helvetica-6e" x="338.867188"/>
    <use xlink:href="#Helvetica-70" x="394.482422"/>
    <use xlink:href="#Helvetica-75" x="450.097656"/>
    <use xlink:href="#Helvetica-74" x="505.712891"/>
    <use xlink:href="#Helvetica-73" x="533.496094"/>
    <use xlink:href="#Helvetica-20" x="583.496094"/>
    <use xlink:href="#Helvetica-53" x="611.279297"/>
    <use xlink:href="#Helvetica-75" x="677.978516"/>
    <use xlink:href="#Helvetica-62" x="733.59375"/>
    <use xlink:href="#Helvetica-63" x="789.208984"/>
    <use xlink:href="#Helvetica-6f" x="839.208984"/>
    <use xlink:href="#Helvetica-6e" x="894.824219"/>
    <use xlink:href="#Helvetica-6e" x="950.439453"/>
    <use xlink:href="#Helvetica-65" x="1006.054688"/>
    <use xlink:href="#Helvetica-63" x="1061.669922"/>
    <use xlink:href="#Helvetica-74" x="1111.669922"/>
    <use xlink:href="#Helvetica-6f" x="1139.453125"/>
    <use xlink:href="#Helvetica-6d" x="1195.068359"/>
    <use xlink:href="#Helvetica-65" x="1278.369141"/>
    <use xlink:href="#Helvetica-20" x="1333.984375"/>
    <use xlink:href="#Helvetica-4d" x="1361.767578"/>
    <use xlink:href="#Helvetica-6f" x="1445.068359"/>
    <use xlink:href="#Helvetica-64" x="1500.683594"/>
    <use xlink:href="#Helvetica-75" x="1556.298828"/>
    <use xlink:href="#Helvetica-6c" x="1611.914062"/>
    <use xlink:href="#Helvetica-65" x="1634.130859"/>
    <use xlink:href="#Helvetica-73" x="1689.746094"/>
    <use xlink:href="#Helvetica-20" x="1739.746094"/>
   </g>
   <!-- Neuropils of synaptic connections in Hemibrain -->
   <g transform="translate(332.13125 50.76625) scale(0.2 -0.2)">
    <defs>
     <path id="Helvetica-66" d="M 553 3856 
Q 566 4206 675 4369 
Q 872 4656 1434 4656 
Q 1488 4656 1544 4653 
Q 1600 4650 1672 4644 
L 1672 4131 
Q 1584 4138 1545 4139 
Q 1506 4141 1472 4141 
Q 1216 4141 1166 4008 
Q 1116 3875 1116 3331 
L 1672 3331 
L 1672 2888 
L 1109 2888 
L 1109 0 
L 553 0 
L 553 2888 
L 88 2888 
L 88 3331 
L 553 3331 
L 553 3856 
z
" transform="scale(0.015625)"/>
     <path id="Helvetica-79" d="M 2503 3347 
L 3125 3347 
Q 3006 3025 2597 1878 
Q 2291 1016 2084 472 
Q 1597 -809 1397 -1090 
Q 1197 -1372 709 -1372 
Q 591 -1372 527 -1362 
Q 463 -1353 369 -1328 
L 369 -816 
Q 516 -856 581 -865 
Q 647 -875 697 -875 
Q 853 -875 926 -823 
Q 1000 -772 1050 -697 
Q 1066 -672 1162 -440 
Q 1259 -209 1303 -97 
L 66 3347 
L 703 3347 
L 1600 622 
L 2503 3347 
z
M 1597 3428 
L 1597 3428 
z
" transform="scale(0.015625)"/>
     <path id="Helvetica-61" d="M 844 891 
Q 844 647 1022 506 
Q 1200 366 1444 366 
Q 1741 366 2019 503 
Q 2488 731 2488 1250 
L 2488 1703 
Q 2384 1638 2221 1594 
Q 2059 1550 1903 1531 
L 1563 1488 
Q 1256 1447 1103 1359 
Q 844 1213 844 891 
z
M 2206 2028 
Q 2400 2053 2466 2191 
Q 2503 2266 2503 2406 
Q 2503 2694 2298 2823 
Q 2094 2953 1713 2953 
Q 1272 2953 1088 2716 
Q 984 2584 953 2325 
L 428 2325 
Q 444 2944 830 3186 
Q 1216 3428 1725 3428 
Q 2316 3428 2684 3203 
Q 3050 2978 3050 2503 
L 3050 575 
Q 3050 488 3086 434 
Q 3122 381 3238 381 
Q 3275 381 3322 386 
Q 3369 391 3422 400 
L 3422 -16 
Q 3291 -53 3222 -62 
Q 3153 -72 3034 -72 
Q 2744 -72 2613 134 
Q 2544 244 2516 444 
Q 2344 219 2022 53 
Q 1700 -113 1313 -113 
Q 847 -113 551 170 
Q 256 453 256 878 
Q 256 1344 547 1600 
Q 838 1856 1309 1916 
L 2206 2028 
z
M 1741 3428 
L 1741 3428 
z
" transform="scale(0.015625)"/>
    </defs>
    <use xlink:href="#Helvetica-4e"/>
    <use xlink:href="#Helvetica-65" x="72.216797"/>
    <use xlink:href="#Helvetica-75" x="127.832031"/>
    <use xlink:href="#Helvetica-72" x="183.447266"/>
    <use xlink:href="#Helvetica-6f" x="216.748047"/>
    <use xlink:href="#Helvetica-70" x="272.363281"/>
    <use xlink:href="#Helvetica-69" x="327.978516"/>
    <use xlink:href="#Helvetica-6c" x="350.195312"/>
    <use xlink:href="#Helvetica-73" x="372.412109"/>
    <use xlink:href="#Helvetica-20" x="422.412109"/>
    <use xlink:href="#Helvetica-6f" x="450.195312"/>
    <use xlink:href="#Helvetica-66" x="505.810547"/>
    <use xlink:href="#Helvetica-20" x="533.59375"/>
    <use xlink:href="#Helvetica-73" x="561.376953"/>
    <use xlink:href="#Helvetica-79" x="611.376953"/>
    <use xlink:href="#Helvetica-6e" x="661.376953"/>
    <use xlink:href="#Helvetica-61" x="716.992188"/>
    <use xlink:href="#Helvetica-70" x="772.607422"/>
    <use xlink:href="#Helvetica-74" x="828.222656"/>
    <use xlink:href="#Helvetica-69" x="856.005859"/>
    <use xlink:href="#Helvetica-63" x="878.222656"/>
    <use xlink:href="#Helvetica-20" x="928.222656"/>
    <use xlink:href="#Helvetica-63" x="956.005859"/>
    <use xlink:href="#Helvetica-6f" x="1006.005859"/>
    <use xlink:href="#Helvetica-6e" x="1061.621094"/>
    <use xlink:href="#Helvetica-6e" x="1117.236328"/>
    <use xlink:href="#Helvetica-65" x="1172.851562"/>
    <use xlink:href="#Helvetica-63" x="1228.466797"/>
    <use xlink:href="#Helvetica-74" x="1278.466797"/>
    <use xlink:href="#Helvetica-69" x="1306.25"/>
    <use xlink:href="#Helvetica-6f" x="1328.466797"/>
    <use xlink:href="#Helvetica-6e" x="1384.082031"/>
    <use xlink:href="#Helvetica-73" x="1439.697266"/>
    <use xlink:href="#Helvetica-20" x="1489.697266"/>
    <use xlink:href="#Helvetica-69" x="1517.480469"/>
    <use xlink:href="#Helvetica-6e" x="1539.697266"/>
    <use xlink:href="#Helvetica-20" x="1595.3125"/>
    <use xlink:href="#Helvetica-48" x="1623.095703"/>
    <use xlink:href="#Helvetica-65" x="1695.3125"/>
    <use xlink:href="#Helvetica-6d" x="1750.927734"/>
    <use xlink:href="#Helvetica-69" x="1834.228516"/>
    <use xlink:href="#Helvetica-62" x="1856.445312"/>
    <use xlink:href="#Helvetica-72" x="1912.060547"/>
    <use xlink:href="#Helvetica-61" x="1945.361328"/>
    <use xlink:href="#Helvetica-69" x="2000.976562"/>
    <use xlink:href="#Helvetica-6e" x="2023.193359"/>
   </g>
  </g>
 </g>
</svg>
