<?xml version="1.0" encoding="utf-8" standalone="no"?>
<!DOCTYPE svg PUBLIC "-//W3C//DTD SVG 1.1//EN"
  "http://www.w3.org/Graphics/SVG/1.1/DTD/svg11.dtd">
<svg xmlns:xlink="http://www.w3.org/1999/xlink" width="1080pt" height="720pt" viewBox="0 0 1080 720" xmlns="http://www.w3.org/2000/svg" version="1.1">
 <metadata>
  <rdf:RDF xmlns:dc="http://purl.org/dc/elements/1.1/" xmlns:cc="http://creativecommons.org/ns#" xmlns:rdf="http://www.w3.org/1999/02/22-rdf-syntax-ns#">
   <cc:Work>
    <dc:type rdf:resource="http://purl.org/dc/dcmitype/StillImage"/>
    <dc:date>2024-10-07T17:12:03.063483</dc:date>
    <dc:format>image/svg+xml</dc:format>
    <dc:creator>
     <cc:Agent>
      <dc:title>Matplotlib v3.7.1, https://matplotlib.org/</dc:title>
     </cc:Agent>
    </dc:creator>
   </cc:Work>
  </rdf:RDF>
 </metadata>
 <defs>
  <style type="text/css">*{stroke-linejoin: round; stroke-linecap: butt}</style>
 </defs>
 <g id="figure_1">
  <g id="patch_1">
   <path d="M 0 720 
L 1080 720 
L 1080 0 
L 0 0 
z
" style="fill: #ffffff"/>
  </g>
  <g id="axes_1">
   <g id="patch_2">
    <path d="M 295.121739 212.4 
C 295.121739 205.399106 294.058461 198.438643 291.968326 191.757038 
C 289.878191 185.075433 286.785342 178.749858 282.795721 172.996995 
C 278.8061 167.244131 273.965789 162.130424 268.44059 157.831042 
C 262.915391 153.53166 256.769121 150.09626 250.212317 147.642521 
C 243.655513 145.188782 236.763908 143.745044 229.773569 143.360763 
C 222.78323 142.976482 215.774896 143.656095 208.988636 145.376323 
C 202.202376 147.096551 195.716571 149.837526 189.753389 153.505355 
C 183.790207 157.173184 178.418523 161.725505 173.822343 167.00638 
C 169.226162 172.287254 165.458571 178.235688 162.648626 184.64792 
C 159.838681 191.060153 158.018838 197.862121 157.251434 204.820828 
C 156.48403 211.779535 156.777929 218.814607 158.123064 225.68506 
C 159.468199 232.555513 161.849032 239.181993 165.184011 245.337513 
C 168.51899 251.493034 172.769594 257.106497 177.790221 261.985617 
C 182.810849 266.864737 188.54351 270.95316 194.791837 274.110838 
C 201.040163 277.268516 207.731985 279.458978 214.638078 280.607191 
C 221.544171 281.755403 228.584769 281.848104 235.518699 280.882119 
L 225.978261 212.4 
z
" style="fill: #6495ed"/>
   </g>
   <g id="patch_3">
    <path d="M 235.518699 280.882119 
C 246.339614 279.374627 256.65072 275.323649 265.603985 269.062356 
C 274.55725 262.801063 281.900301 254.505947 287.029211 244.859237 
L 225.978261 212.4 
z
" style="fill: #008000"/>
   </g>
   <g id="patch_4">
    <path d="M 287.029211 244.859237 
C 288.254492 242.554668 289.348301 240.182567 290.305383 237.754327 
C 291.262466 235.326087 292.081289 232.845601 292.757919 230.324783 
L 225.978261 212.4 
z
" style="fill: #ffa500"/>
   </g>
   <g id="patch_5">
    <path d="M 292.757919 230.324783 
C 293.399716 227.933738 293.912632 225.509949 294.294453 223.06389 
C 294.676273 220.61783 294.926446 218.153028 295.043891 215.680134 
L 225.978261 212.4 
z
" style="fill: #b22222"/>
   </g>
   <g id="patch_6">
    <path d="M 295.043891 215.680134 
C 295.057308 215.397631 295.068992 215.115048 295.078941 214.832401 
C 295.088891 214.549755 295.097106 214.26705 295.103586 213.984302 
L 225.978261 212.4 
z
" style="fill: #000080"/>
   </g>
   <g id="patch_7">
    <path d="M 295.103586 213.984302 
C 295.109637 213.720291 295.114175 213.456248 295.117201 213.192185 
C 295.120227 212.928122 295.121739 212.664044 295.121739 212.399964 
L 225.978261 212.4 
z
" style="fill: #8a2be2"/>
   </g>
   <g id="matplotlib.axis_1"/>
   <g id="matplotlib.axis_2"/>
   <g id="text_1">
    <!-- SNP -->
    <g transform="translate(135.706751 166.538268) scale(0.16 -0.16)">
     <defs>
      <path id="Helvetica-53" d="M 894 1481 
Q 916 1091 1078 847 
Q 1388 391 2169 391 
Q 2519 391 2806 491 
Q 3363 684 3363 1184 
Q 3363 1559 3128 1719 
Q 2891 1875 2384 1991 
L 1763 2131 
Q 1153 2269 900 2434 
Q 463 2722 463 3294 
Q 463 3913 891 4309 
Q 1319 4706 2103 4706 
Q 2825 4706 3329 4357 
Q 3834 4009 3834 3244 
L 3250 3244 
Q 3203 3613 3050 3809 
Q 2766 4169 2084 4169 
Q 1534 4169 1293 3937 
Q 1053 3706 1053 3400 
Q 1053 3063 1334 2906 
Q 1519 2806 2169 2656 
L 2813 2509 
Q 3278 2403 3531 2219 
Q 3969 1897 3969 1284 
Q 3969 522 3414 194 
Q 2859 -134 2125 -134 
Q 1269 -134 784 303 
Q 300 738 309 1481 
L 894 1481 
z
M 2150 4716 
L 2150 4716 
z
" transform="scale(0.015625)"/>
      <path id="Helvetica-4e" d="M 488 4591 
L 1222 4591 
L 3541 872 
L 3541 4591 
L 4131 4591 
L 4131 0 
L 3434 0 
L 1081 3716 
L 1081 0 
L 488 0 
L 488 4591 
z
M 2269 4591 
L 2269 4591 
z
" transform="scale(0.015625)"/>
      <path id="Helvetica-50" d="M 547 4591 
L 2613 4591 
Q 3225 4591 3600 4245 
Q 3975 3900 3975 3275 
Q 3975 2738 3640 2339 
Q 3306 1941 2613 1941 
L 1169 1941 
L 1169 0 
L 547 0 
L 547 4591 
z
M 3347 3272 
Q 3347 3778 2972 3959 
Q 2766 4056 2406 4056 
L 1169 4056 
L 1169 2466 
L 2406 2466 
Q 2825 2466 3086 2644 
Q 3347 2822 3347 3272 
z
" transform="scale(0.015625)"/>
     </defs>
     <use xlink:href="#Helvetica-53"/>
     <use xlink:href="#Helvetica-4e" x="66.699219"/>
     <use xlink:href="#Helvetica-50" x="138.916016"/>
    </g>
   </g>
   <g id="text_2">
    <!-- 77.2% -->
    <g transform="translate(172.00221 189.235078) scale(0.16 -0.16)">
     <defs>
      <path id="Helvetica-37" d="M 3347 4400 
L 3347 3909 
Q 3131 3700 2773 3181 
Q 2416 2663 2141 2063 
Q 1869 1478 1728 997 
Q 1638 688 1494 0 
L 872 0 
Q 1084 1281 1809 2550 
Q 2238 3294 2709 3834 
L 234 3834 
L 234 4400 
L 3347 4400 
z
" transform="scale(0.015625)"/>
      <path id="Helvetica-2e" d="M 547 681 
L 1200 681 
L 1200 0 
L 547 0 
L 547 681 
z
" transform="scale(0.015625)"/>
      <path id="Helvetica-32" d="M 200 0 
Q 231 578 439 1006 
Q 647 1434 1250 1784 
L 1850 2131 
Q 2253 2366 2416 2531 
Q 2672 2791 2672 3125 
Q 2672 3516 2437 3745 
Q 2203 3975 1813 3975 
Q 1234 3975 1013 3538 
Q 894 3303 881 2888 
L 309 2888 
Q 319 3472 525 3841 
Q 891 4491 1816 4491 
Q 2584 4491 2939 4075 
Q 3294 3659 3294 3150 
Q 3294 2613 2916 2231 
Q 2697 2009 2131 1694 
L 1703 1456 
Q 1397 1288 1222 1134 
Q 909 863 828 531 
L 3272 531 
L 3272 0 
L 200 0 
z
" transform="scale(0.015625)"/>
      <path id="Helvetica-25" d="M 4363 2175 
Q 4813 2175 5131 1856 
Q 5450 1538 5450 1088 
Q 5450 638 5131 319 
Q 4813 0 4363 0 
Q 3909 0 3590 319 
Q 3272 638 3272 1088 
Q 3272 1538 3590 1856 
Q 3909 2175 4363 2175 
z
M 3909 4456 
L 4256 4456 
L 1753 -119 
L 1406 -119 
L 3909 4456 
z
M 1294 2606 
Q 1563 2606 1752 2795 
Q 1941 2984 1941 3250 
Q 1941 3516 1752 3705 
Q 1563 3894 1294 3894 
Q 1028 3894 839 3706 
Q 650 3519 650 3250 
Q 650 2984 839 2795 
Q 1028 2606 1294 2606 
z
M 1294 4341 
Q 1747 4341 2065 4020 
Q 2384 3700 2384 3250 
Q 2384 2800 2065 2481 
Q 1747 2163 1294 2163 
Q 844 2163 525 2481 
Q 206 2800 206 3250 
Q 206 3700 525 4020 
Q 844 4341 1294 4341 
z
M 4363 444 
Q 4628 444 4817 633 
Q 5006 822 5006 1088 
Q 5006 1353 4817 1542 
Q 4628 1731 4363 1731 
Q 4094 1731 3905 1542 
Q 3716 1353 3716 1088 
Q 3716 822 3905 633 
Q 4094 444 4363 444 
z
" transform="scale(0.015625)"/>
     </defs>
     <use xlink:href="#Helvetica-37"/>
     <use xlink:href="#Helvetica-37" x="55.615234"/>
     <use xlink:href="#Helvetica-2e" x="111.230469"/>
     <use xlink:href="#Helvetica-32" x="139.013672"/>
     <use xlink:href="#Helvetica-25" x="194.628906"/>
    </g>
   </g>
   <g id="text_3">
    <!-- INP -->
    <g transform="translate(269.566557 278.799842) scale(0.16 -0.16)">
     <defs>
      <path id="Helvetica-49" d="M 628 4591 
L 1256 4591 
L 1256 0 
L 628 0 
L 628 4591 
z
" transform="scale(0.015625)"/>
     </defs>
     <use xlink:href="#Helvetica-49"/>
     <use xlink:href="#Helvetica-4e" x="27.783203"/>
     <use xlink:href="#Helvetica-50" x="100"/>
    </g>
   </g>
   <g id="text_4">
    <!-- 15.0% -->
    <g transform="translate(227.071195 250.468664) scale(0.16 -0.16)">
     <defs>
      <path id="Helvetica-31" d="M 613 3169 
L 613 3600 
Q 1222 3659 1462 3798 
Q 1703 3938 1822 4456 
L 2266 4456 
L 2266 0 
L 1666 0 
L 1666 3169 
L 613 3169 
z
" transform="scale(0.015625)"/>
      <path id="Helvetica-35" d="M 791 1141 
Q 847 659 1238 475 
Q 1438 381 1700 381 
Q 2200 381 2440 700 
Q 2681 1019 2681 1406 
Q 2681 1875 2395 2131 
Q 2109 2388 1709 2388 
Q 1419 2388 1211 2275 
Q 1003 2163 856 1963 
L 369 1991 
L 709 4400 
L 3034 4400 
L 3034 3856 
L 1131 3856 
L 941 2613 
Q 1097 2731 1238 2791 
Q 1488 2894 1816 2894 
Q 2431 2894 2859 2497 
Q 3288 2100 3288 1491 
Q 3288 856 2895 371 
Q 2503 -113 1644 -113 
Q 1097 -113 676 195 
Q 256 503 206 1141 
L 791 1141 
z
" transform="scale(0.015625)"/>
      <path id="Helvetica-30" d="M 1731 4475 
Q 2600 4475 2988 3759 
Q 3288 3206 3288 2244 
Q 3288 1331 3016 734 
Q 2622 -122 1728 -122 
Q 922 -122 528 578 
Q 200 1163 200 2147 
Q 200 2909 397 3456 
Q 766 4475 1731 4475 
z
M 1725 391 
Q 2163 391 2422 778 
Q 2681 1166 2681 2222 
Q 2681 2984 2493 3476 
Q 2306 3969 1766 3969 
Q 1269 3969 1039 3501 
Q 809 3034 809 2125 
Q 809 1441 956 1025 
Q 1181 391 1725 391 
z
" transform="scale(0.015625)"/>
     </defs>
     <use xlink:href="#Helvetica-31"/>
     <use xlink:href="#Helvetica-35" x="55.615234"/>
     <use xlink:href="#Helvetica-2e" x="111.230469"/>
     <use xlink:href="#Helvetica-30" x="139.013672"/>
     <use xlink:href="#Helvetica-25" x="194.628906"/>
    </g>
   </g>
   <g id="text_5">
    <!-- VLNP -->
    <g transform="translate(296.738096 244.36101) scale(0.16 -0.16)">
     <defs>
      <path id="Helvetica-56" d="M 850 4591 
L 2169 681 
L 3472 4591 
L 4169 4591 
L 2494 0 
L 1834 0 
L 163 4591 
L 850 4591 
z
" transform="scale(0.015625)"/>
      <path id="Helvetica-4c" d="M 488 4591 
L 1109 4591 
L 1109 547 
L 3434 547 
L 3434 0 
L 488 0 
L 488 4591 
z
" transform="scale(0.015625)"/>
     </defs>
     <use xlink:href="#Helvetica-56"/>
     <use xlink:href="#Helvetica-4c" x="66.699219"/>
     <use xlink:href="#Helvetica-4e" x="122.314453"/>
     <use xlink:href="#Helvetica-50" x="194.53125"/>
    </g>
   </g>
   <g id="text_6">
    <!-- 3.6% -->
    <g transform="translate(246.340784 231.683846) scale(0.16 -0.16)">
     <defs>
      <path id="Helvetica-33" d="M 1663 -122 
Q 869 -122 511 314 
Q 153 750 153 1375 
L 741 1375 
Q 778 941 903 744 
Q 1122 391 1694 391 
Q 2138 391 2406 628 
Q 2675 866 2675 1241 
Q 2675 1703 2392 1887 
Q 2109 2072 1606 2072 
Q 1550 2072 1492 2070 
Q 1434 2069 1375 2066 
L 1375 2563 
Q 1463 2553 1522 2550 
Q 1581 2547 1650 2547 
Q 1966 2547 2169 2647 
Q 2525 2822 2525 3272 
Q 2525 3606 2287 3787 
Q 2050 3969 1734 3969 
Q 1172 3969 956 3594 
Q 838 3388 822 3006 
L 266 3006 
Q 266 3506 466 3856 
Q 809 4481 1675 4481 
Q 2359 4481 2734 4176 
Q 3109 3872 3109 3294 
Q 3109 2881 2888 2625 
Q 2750 2466 2531 2375 
Q 2884 2278 3082 2001 
Q 3281 1725 3281 1325 
Q 3281 684 2859 281 
Q 2438 -122 1663 -122 
z
" transform="scale(0.015625)"/>
      <path id="Helvetica-36" d="M 1872 4494 
Q 2622 4494 2917 4105 
Q 3213 3716 3213 3303 
L 2656 3303 
Q 2606 3569 2497 3719 
Q 2294 4000 1881 4000 
Q 1409 4000 1131 3564 
Q 853 3128 822 2316 
Q 1016 2600 1309 2741 
Q 1578 2866 1909 2866 
Q 2472 2866 2890 2506 
Q 3309 2147 3309 1434 
Q 3309 825 2912 354 
Q 2516 -116 1781 -116 
Q 1153 -116 697 361 
Q 241 838 241 1966 
Q 241 2800 444 3381 
Q 834 4494 1872 4494 
z
M 1831 384 
Q 2275 384 2495 682 
Q 2716 981 2716 1388 
Q 2716 1731 2519 2042 
Q 2322 2353 1803 2353 
Q 1441 2353 1167 2112 
Q 894 1872 894 1388 
Q 894 963 1142 673 
Q 1391 384 1831 384 
z
" transform="scale(0.015625)"/>
     </defs>
     <use xlink:href="#Helvetica-33"/>
     <use xlink:href="#Helvetica-2e" x="55.615234"/>
     <use xlink:href="#Helvetica-36" x="83.398438"/>
     <use xlink:href="#Helvetica-25" x="139.013672"/>
    </g>
   </g>
   <g id="text_7">
    <!-- VMNP -->
    <g transform="translate(301.126072 228.201529) scale(0.16 -0.16)">
     <defs>
      <path id="Helvetica-4d" d="M 472 4591 
L 1363 4591 
L 2681 709 
L 3991 4591 
L 4872 4591 
L 4872 0 
L 4281 0 
L 4281 2709 
Q 4281 2850 4287 3175 
Q 4294 3500 4294 3872 
L 2984 0 
L 2369 0 
L 1050 3872 
L 1050 3731 
Q 1050 3563 1058 3217 
Q 1066 2872 1066 2709 
L 1066 0 
L 472 0 
L 472 4591 
z
" transform="scale(0.015625)"/>
     </defs>
     <use xlink:href="#Helvetica-56"/>
     <use xlink:href="#Helvetica-4d" x="66.699219"/>
     <use xlink:href="#Helvetica-4e" x="150"/>
     <use xlink:href="#Helvetica-50" x="222.216797"/>
    </g>
   </g>
   <g id="text_8">
    <!-- 3.4% -->
    <g transform="translate(248.734226 222.869584) scale(0.16 -0.16)">
     <defs>
      <path id="Helvetica-34" d="M 2116 1584 
L 2116 3613 
L 681 1584 
L 2116 1584 
z
M 2125 0 
L 2125 1094 
L 163 1094 
L 163 1644 
L 2213 4488 
L 2688 4488 
L 2688 1584 
L 3347 1584 
L 3347 1094 
L 2688 1094 
L 2688 0 
L 2125 0 
z
" transform="scale(0.015625)"/>
     </defs>
     <use xlink:href="#Helvetica-33"/>
     <use xlink:href="#Helvetica-2e" x="55.615234"/>
     <use xlink:href="#Helvetica-34" x="83.398438"/>
     <use xlink:href="#Helvetica-25" x="139.013672"/>
    </g>
   </g>
   <g id="text_9">
    <!-- Module 1 -->
    <g transform="translate(188.957323 115.421739) scale(0.18 -0.18)">
     <defs>
      <path id="Helvetica-6f" d="M 1741 363 
Q 2300 363 2508 786 
Q 2716 1209 2716 1728 
Q 2716 2197 2566 2491 
Q 2328 2953 1747 2953 
Q 1231 2953 997 2559 
Q 763 2166 763 1609 
Q 763 1075 997 719 
Q 1231 363 1741 363 
z
M 1763 3444 
Q 2409 3444 2856 3012 
Q 3303 2581 3303 1744 
Q 3303 934 2909 406 
Q 2516 -122 1688 -122 
Q 997 -122 590 345 
Q 184 813 184 1600 
Q 184 2444 612 2944 
Q 1041 3444 1763 3444 
z
M 1744 3428 
L 1744 3428 
z
" transform="scale(0.015625)"/>
      <path id="Helvetica-64" d="M 769 1634 
Q 769 1097 997 734 
Q 1225 372 1728 372 
Q 2119 372 2370 708 
Q 2622 1044 2622 1672 
Q 2622 2306 2362 2611 
Q 2103 2916 1722 2916 
Q 1297 2916 1033 2591 
Q 769 2266 769 1634 
z
M 1616 3406 
Q 2000 3406 2259 3244 
Q 2409 3150 2600 2916 
L 2600 4606 
L 3141 4606 
L 3141 0 
L 2634 0 
L 2634 466 
Q 2438 156 2169 18 
Q 1900 -119 1553 -119 
Q 994 -119 584 351 
Q 175 822 175 1603 
Q 175 2334 548 2870 
Q 922 3406 1616 3406 
z
" transform="scale(0.015625)"/>
      <path id="Helvetica-75" d="M 975 3347 
L 975 1125 
Q 975 869 1056 706 
Q 1206 406 1616 406 
Q 2203 406 2416 931 
Q 2531 1213 2531 1703 
L 2531 3347 
L 3094 3347 
L 3094 0 
L 2563 0 
L 2569 494 
Q 2459 303 2297 172 
Q 1975 -91 1516 -91 
Q 800 -91 541 388 
Q 400 644 400 1072 
L 400 3347 
L 975 3347 
z
M 1747 3428 
L 1747 3428 
z
" transform="scale(0.015625)"/>
      <path id="Helvetica-6c" d="M 428 4591 
L 991 4591 
L 991 0 
L 428 0 
L 428 4591 
z
" transform="scale(0.015625)"/>
      <path id="Helvetica-65" d="M 1806 3422 
Q 2163 3422 2497 3255 
Q 2831 3088 3006 2822 
Q 3175 2569 3231 2231 
Q 3281 2000 3281 1494 
L 828 1494 
Q 844 984 1069 676 
Q 1294 369 1766 369 
Q 2206 369 2469 659 
Q 2619 828 2681 1050 
L 3234 1050 
Q 3213 866 3089 639 
Q 2966 413 2813 269 
Q 2556 19 2178 -69 
Q 1975 -119 1719 -119 
Q 1094 -119 659 336 
Q 225 791 225 1609 
Q 225 2416 662 2919 
Q 1100 3422 1806 3422 
z
M 2703 1941 
Q 2669 2306 2544 2525 
Q 2313 2931 1772 2931 
Q 1384 2931 1121 2651 
Q 859 2372 844 1941 
L 2703 1941 
z
M 1753 3428 
L 1753 3428 
z
" transform="scale(0.015625)"/>
      <path id="Helvetica-20" transform="scale(0.015625)"/>
     </defs>
     <use xlink:href="#Helvetica-4d"/>
     <use xlink:href="#Helvetica-6f" x="83.300781"/>
     <use xlink:href="#Helvetica-64" x="138.916016"/>
     <use xlink:href="#Helvetica-75" x="194.53125"/>
     <use xlink:href="#Helvetica-6c" x="250.146484"/>
     <use xlink:href="#Helvetica-65" x="272.363281"/>
     <use xlink:href="#Helvetica-20" x="327.978516"/>
     <use xlink:href="#Helvetica-31" x="355.761719"/>
    </g>
   </g>
  </g>
  <g id="axes_2">
   <g id="patch_8">
    <path d="M 513.469565 212.4 
C 513.469565 198.296667 509.154538 184.525341 501.10656 172.943715 
C 493.058583 161.362088 481.656573 152.515449 468.43861 147.59717 
C 455.220647 142.67889 440.809063 141.920534 427.147916 145.4244 
C 413.486769 148.928266 401.219256 156.529384 392.000211 167.202397 
L 444.326087 212.4 
z
" style="fill: #8a2be2"/>
   </g>
   <g id="patch_9">
    <path d="M 392.000211 167.202397 
C 380.452583 180.571243 374.456374 197.870113 375.252936 215.517754 
C 376.049497 233.165395 383.579785 249.85372 396.284861 262.127872 
L 444.326087 212.4 
z
" style="fill: #b22222"/>
   </g>
   <g id="patch_10">
    <path d="M 396.284861 262.127872 
C 406.398003 271.898 419.254903 278.354434 433.131054 280.631165 
C 447.007204 282.907895 461.253159 280.898364 473.958092 274.872113 
L 444.326087 212.4 
z
" style="fill: #008000"/>
   </g>
   <g id="patch_11">
    <path d="M 473.958092 274.872113 
C 478.900321 272.527896 483.546957 269.605463 487.80045 266.166164 
C 492.053943 262.726865 495.88432 258.794937 499.211167 254.452926 
L 444.326087 212.4 
z
" style="fill: #6495ed"/>
   </g>
   <g id="patch_12">
    <path d="M 499.211167 254.452926 
C 502.471385 250.197876 505.225751 245.578094 507.418724 240.686741 
C 509.611697 235.795388 511.228435 230.665565 512.236336 225.400719 
L 444.326087 212.4 
z
" style="fill: #ffa500"/>
   </g>
   <g id="patch_13">
    <path d="M 512.236336 225.400719 
C 512.378616 224.657506 512.508687 223.912006 512.626494 223.164523 
C 512.744302 222.417039 512.849831 221.667672 512.943038 220.916724 
L 444.326087 212.4 
z
" style="fill: #bc8f8f"/>
   </g>
   <g id="patch_14">
    <path d="M 512.943038 220.916724 
C 513.024655 220.259157 513.096816 219.600451 513.159497 218.94081 
C 513.222179 218.281169 513.275375 217.620661 513.319069 216.95949 
L 444.326087 212.4 
z
" style="fill: #fa8072"/>
   </g>
   <g id="patch_15">
    <path d="M 513.319069 216.95949 
C 513.344806 216.570055 513.367244 216.180408 513.386383 215.790593 
C 513.405521 215.400778 513.421359 215.010807 513.433894 214.620724 
L 444.326087 212.4 
z
" style="fill: #da70d6"/>
   </g>
   <g id="patch_16">
    <path d="M 513.433894 214.620724 
C 513.445783 214.250733 513.454701 213.880652 513.460647 213.510518 
C 513.466592 213.140384 513.469565 212.770208 513.469565 212.400026 
L 444.326087 212.4 
z
" style="fill: #5f9ea0"/>
   </g>
   <g id="matplotlib.axis_3"/>
   <g id="matplotlib.axis_4"/>
   <g id="text_10">
    <!-- LX -->
    <g transform="translate(470.849862 145.188137) scale(0.16 -0.16)">
     <defs>
      <path id="Helvetica-58" d="M 881 0 
L 131 0 
L 1775 2353 
L 234 4591 
L 1013 4591 
L 2184 2834 
L 3347 4591 
L 4088 4591 
L 2547 2353 
L 4163 0 
L 3391 0 
L 2153 1888 
L 881 0 
z
" transform="scale(0.015625)"/>
     </defs>
     <use xlink:href="#Helvetica-4c"/>
     <use xlink:href="#Helvetica-58" x="55.615234"/>
    </g>
   </g>
   <g id="text_11">
    <!-- 38.7% -->
    <g transform="translate(436.111101 177.589552) scale(0.16 -0.16)">
     <defs>
      <path id="Helvetica-38" d="M 1741 2600 
Q 2113 2600 2322 2808 
Q 2531 3016 2531 3303 
Q 2531 3553 2331 3762 
Q 2131 3972 1722 3972 
Q 1316 3972 1134 3762 
Q 953 3553 953 3272 
Q 953 2956 1187 2778 
Q 1422 2600 1741 2600 
z
M 1775 384 
Q 2166 384 2423 595 
Q 2681 806 2681 1225 
Q 2681 1659 2415 1884 
Q 2150 2109 1734 2109 
Q 1331 2109 1076 1879 
Q 822 1650 822 1244 
Q 822 894 1055 639 
Q 1288 384 1775 384 
z
M 975 2384 
Q 741 2484 609 2619 
Q 363 2869 363 3269 
Q 363 3769 725 4128 
Q 1088 4488 1753 4488 
Q 2397 4488 2762 4148 
Q 3128 3809 3128 3356 
Q 3128 2938 2916 2678 
Q 2797 2531 2547 2391 
Q 2825 2263 2984 2097 
Q 3281 1784 3281 1284 
Q 3281 694 2884 283 
Q 2488 -128 1763 -128 
Q 1109 -128 657 226 
Q 206 581 206 1256 
Q 206 1653 400 1942 
Q 594 2231 975 2384 
z
" transform="scale(0.015625)"/>
     </defs>
     <use xlink:href="#Helvetica-33"/>
     <use xlink:href="#Helvetica-38" x="55.615234"/>
     <use xlink:href="#Helvetica-2e" x="111.230469"/>
     <use xlink:href="#Helvetica-37" x="139.013672"/>
     <use xlink:href="#Helvetica-25" x="194.628906"/>
    </g>
   </g>
   <g id="text_12">
    <!-- VMNP -->
    <g transform="translate(322.118121 219.90078) scale(0.16 -0.16)">
     <use xlink:href="#Helvetica-56"/>
     <use xlink:href="#Helvetica-4d" x="66.699219"/>
     <use xlink:href="#Helvetica-4e" x="150"/>
     <use xlink:href="#Helvetica-50" x="222.216797"/>
    </g>
   </g>
   <g id="text_13">
    <!-- 24.1% -->
    <g transform="translate(380.199696 218.341903) scale(0.16 -0.16)">
     <use xlink:href="#Helvetica-32"/>
     <use xlink:href="#Helvetica-34" x="55.615234"/>
     <use xlink:href="#Helvetica-2e" x="111.230469"/>
     <use xlink:href="#Helvetica-31" x="139.013672"/>
     <use xlink:href="#Helvetica-25" x="194.628906"/>
    </g>
   </g>
   <g id="text_14">
    <!-- INP -->
    <g transform="translate(405.33905 291.525531) scale(0.16 -0.16)">
     <use xlink:href="#Helvetica-49"/>
     <use xlink:href="#Helvetica-4e" x="27.783203"/>
     <use xlink:href="#Helvetica-50" x="100"/>
    </g>
   </g>
   <g id="text_15">
    <!-- 19.3% -->
    <g transform="translate(414.926567 257.409949) scale(0.16 -0.16)">
     <defs>
      <path id="Helvetica-39" d="M 850 1081 
Q 875 616 1209 438 
Q 1381 344 1597 344 
Q 2000 344 2284 680 
Q 2569 1016 2688 2044 
Q 2500 1747 2223 1626 
Q 1947 1506 1628 1506 
Q 981 1506 604 1909 
Q 228 2313 228 2947 
Q 228 3556 600 4018 
Q 972 4481 1697 4481 
Q 2675 4481 3047 3600 
Q 3253 3116 3253 2388 
Q 3253 1566 3006 931 
Q 2597 -125 1619 -125 
Q 963 -125 622 219 
Q 281 563 281 1081 
L 850 1081 
z
M 1703 2000 
Q 2038 2000 2314 2220 
Q 2591 2441 2591 2991 
Q 2591 3484 2342 3726 
Q 2094 3969 1709 3969 
Q 1297 3969 1055 3692 
Q 813 3416 813 2953 
Q 813 2516 1025 2258 
Q 1238 2000 1703 2000 
z
" transform="scale(0.015625)"/>
     </defs>
     <use xlink:href="#Helvetica-31"/>
     <use xlink:href="#Helvetica-39" x="55.615234"/>
     <use xlink:href="#Helvetica-2e" x="111.230469"/>
     <use xlink:href="#Helvetica-33" x="139.013672"/>
     <use xlink:href="#Helvetica-25" x="194.628906"/>
    </g>
   </g>
   <g id="text_16">
    <!-- SNP -->
    <g transform="translate(492.147886 275.61403) scale(0.16 -0.16)">
     <use xlink:href="#Helvetica-53"/>
     <use xlink:href="#Helvetica-4e" x="66.699219"/>
     <use xlink:href="#Helvetica-50" x="138.916016"/>
    </g>
   </g>
   <g id="text_17">
    <!-- 7.5% -->
    <g transform="translate(452.176955 248.730948) scale(0.16 -0.16)">
     <use xlink:href="#Helvetica-37"/>
     <use xlink:href="#Helvetica-2e" x="55.615234"/>
     <use xlink:href="#Helvetica-35" x="83.398438"/>
     <use xlink:href="#Helvetica-25" x="139.013672"/>
    </g>
   </g>
   <g id="text_18">
    <!-- VLNP -->
    <g transform="translate(513.727988 247.586665) scale(0.16 -0.16)">
     <use xlink:href="#Helvetica-56"/>
     <use xlink:href="#Helvetica-4c" x="66.699219"/>
     <use xlink:href="#Helvetica-4e" x="122.314453"/>
     <use xlink:href="#Helvetica-50" x="194.53125"/>
    </g>
   </g>
   <g id="text_19">
    <!-- 7.4% -->
    <g transform="translate(463.947919 233.443295) scale(0.16 -0.16)">
     <use xlink:href="#Helvetica-37"/>
     <use xlink:href="#Helvetica-2e" x="55.615234"/>
     <use xlink:href="#Helvetica-34" x="83.398438"/>
     <use xlink:href="#Helvetica-25" x="139.013672"/>
    </g>
   </g>
   <g id="text_20">
    <!-- Module 2 -->
    <g transform="translate(407.305149 115.421739) scale(0.18 -0.18)">
     <use xlink:href="#Helvetica-4d"/>
     <use xlink:href="#Helvetica-6f" x="83.300781"/>
     <use xlink:href="#Helvetica-64" x="138.916016"/>
     <use xlink:href="#Helvetica-75" x="194.53125"/>
     <use xlink:href="#Helvetica-6c" x="250.146484"/>
     <use xlink:href="#Helvetica-65" x="272.363281"/>
     <use xlink:href="#Helvetica-20" x="327.978516"/>
     <use xlink:href="#Helvetica-32" x="355.761719"/>
    </g>
   </g>
  </g>
  <g id="axes_3">
   <g id="patch_17">
    <path d="M 731.817391 212.4 
C 731.817391 201.702545 729.334824 191.149611 724.565631 181.574104 
C 719.796437 171.998597 712.869479 163.659244 704.331476 157.214241 
C 695.793474 150.769238 685.875122 146.392727 675.35924 144.430131 
C 664.843359 142.467535 654.014084 142.971883 643.726133 145.903367 
C 633.438181 148.834851 623.969531 154.114265 616.067508 161.324922 
C 608.165485 168.53558 602.0436 177.482651 598.185032 187.459975 
C 594.326465 197.437299 592.835471 208.175292 593.829731 218.826442 
C 594.823991 229.477592 598.276639 239.754108 603.91517 248.8449 
L 662.673913 212.4 
z
" style="fill: #6495ed"/>
   </g>
   <g id="patch_18">
    <path d="M 603.91517 248.8449 
C 611.642253 261.302985 623.13476 270.986582 636.722914 276.488737 
C 650.311069 281.990893 665.303293 283.03157 679.521325 279.459565 
L 662.673913 212.4 
z
" style="fill: #008000"/>
   </g>
   <g id="patch_19">
    <path d="M 679.521325 279.459565 
C 688.370693 277.236334 696.693087 273.283253 704.007618 267.828742 
C 711.322149 262.374231 717.485166 255.525412 722.140553 247.678029 
L 662.673913 212.4 
z
" style="fill: #ffa500"/>
   </g>
   <g id="patch_20">
    <path d="M 722.140553 247.678029 
C 724.551753 243.613574 726.539914 239.312604 728.073832 234.842618 
C 729.607751 230.372633 730.679362 225.75714 731.271846 221.068575 
L 662.673913 212.4 
z
" style="fill: #b22222"/>
   </g>
   <g id="patch_21">
    <path d="M 731.271846 221.068575 
C 731.381888 220.197769 731.475338 219.324946 731.552147 218.450581 
C 731.628955 217.576217 731.689107 216.700469 731.73257 215.823814 
L 662.673913 212.4 
z
" style="fill: #8a2be2"/>
   </g>
   <g id="patch_22">
    <path d="M 731.73257 215.823814 
C 731.760838 215.253642 731.782044 214.683141 731.796182 214.112444 
C 731.810321 213.541746 731.817391 212.970895 731.817391 212.400023 
L 662.673913 212.4 
z
" style="fill: #bc8f8f"/>
   </g>
   <g id="matplotlib.axis_5"/>
   <g id="matplotlib.axis_6"/>
   <g id="text_21">
    <!-- SNP -->
    <g transform="translate(608.931355 143.324954) scale(0.16 -0.16)">
     <use xlink:href="#Helvetica-53"/>
     <use xlink:href="#Helvetica-4e" x="66.699219"/>
     <use xlink:href="#Helvetica-50" x="138.916016"/>
    </g>
   </g>
   <g id="text_22">
    <!-- 58.8% -->
    <g transform="translate(628.622745 176.57327) scale(0.16 -0.16)">
     <use xlink:href="#Helvetica-35"/>
     <use xlink:href="#Helvetica-38" x="55.615234"/>
     <use xlink:href="#Helvetica-2e" x="111.230469"/>
     <use xlink:href="#Helvetica-38" x="139.013672"/>
     <use xlink:href="#Helvetica-25" x="194.628906"/>
    </g>
   </g>
   <g id="text_23">
    <!-- INP -->
    <g transform="translate(607.455315 286.968861) scale(0.16 -0.16)">
     <use xlink:href="#Helvetica-49"/>
     <use xlink:href="#Helvetica-4e" x="27.783203"/>
     <use xlink:href="#Helvetica-50" x="100"/>
    </g>
   </g>
   <g id="text_24">
    <!-- 20.1% -->
    <g transform="translate(624.420814 254.924492) scale(0.16 -0.16)">
     <use xlink:href="#Helvetica-32"/>
     <use xlink:href="#Helvetica-30" x="55.615234"/>
     <use xlink:href="#Helvetica-2e" x="111.230469"/>
     <use xlink:href="#Helvetica-31" x="139.013672"/>
     <use xlink:href="#Helvetica-25" x="194.628906"/>
    </g>
   </g>
   <g id="text_25">
    <!-- VLNP -->
    <g transform="translate(708.140989 277.442866) scale(0.16 -0.16)">
     <use xlink:href="#Helvetica-56"/>
     <use xlink:href="#Helvetica-4c" x="66.699219"/>
     <use xlink:href="#Helvetica-4e" x="122.314453"/>
     <use xlink:href="#Helvetica-50" x="194.53125"/>
    </g>
   </g>
   <g id="text_26">
    <!-- 12.6% -->
    <g transform="translate(664.791636 249.728495) scale(0.16 -0.16)">
     <use xlink:href="#Helvetica-31"/>
     <use xlink:href="#Helvetica-32" x="55.615234"/>
     <use xlink:href="#Helvetica-2e" x="111.230469"/>
     <use xlink:href="#Helvetica-36" x="139.013672"/>
     <use xlink:href="#Helvetica-25" x="194.628906"/>
    </g>
   </g>
   <g id="text_27">
    <!-- VMNP -->
    <g transform="translate(734.613824 241.15813) scale(0.16 -0.16)">
     <use xlink:href="#Helvetica-56"/>
     <use xlink:href="#Helvetica-4d" x="66.699219"/>
     <use xlink:href="#Helvetica-4e" x="150"/>
     <use xlink:href="#Helvetica-50" x="222.216797"/>
    </g>
   </g>
   <g id="text_28">
    <!-- 6.5% -->
    <g transform="translate(683.680115 229.936821) scale(0.16 -0.16)">
     <use xlink:href="#Helvetica-36"/>
     <use xlink:href="#Helvetica-2e" x="55.615234"/>
     <use xlink:href="#Helvetica-35" x="83.398438"/>
     <use xlink:href="#Helvetica-25" x="139.013672"/>
    </g>
   </g>
   <g id="text_29">
    <!-- Module 3 -->
    <g transform="translate(625.652976 115.421739) scale(0.18 -0.18)">
     <use xlink:href="#Helvetica-4d"/>
     <use xlink:href="#Helvetica-6f" x="83.300781"/>
     <use xlink:href="#Helvetica-64" x="138.916016"/>
     <use xlink:href="#Helvetica-75" x="194.53125"/>
     <use xlink:href="#Helvetica-6c" x="250.146484"/>
     <use xlink:href="#Helvetica-65" x="272.363281"/>
     <use xlink:href="#Helvetica-20" x="327.978516"/>
     <use xlink:href="#Helvetica-33" x="355.761719"/>
    </g>
   </g>
  </g>
  <g id="axes_4">
   <g id="patch_23">
    <path d="M 950.165217 212.4 
C 950.165217 203.312039 948.373486 194.312605 944.892743 185.917638 
C 941.412 177.522671 936.310059 169.895725 929.879415 163.474055 
C 923.44877 157.052384 915.814708 151.961097 907.414889 148.49208 
C 899.01507 145.023063 890.013143 143.243899 880.925191 143.256589 
C 871.837238 143.269279 862.840315 145.073575 854.450217 148.566037 
C 846.060119 152.058499 838.440304 157.171085 832.027619 163.61069 
C 825.614934 170.050295 820.534312 177.691459 817.077027 186.096114 
C 813.619743 194.500768 811.853151 203.505171 811.878531 212.593097 
L 881.021739 212.4 
z
" style="fill: #6495ed"/>
   </g>
   <g id="patch_24">
    <path d="M 811.878531 212.593097 
C 811.91798 226.718947 816.285332 240.499098 824.389636 252.068949 
C 832.493941 263.6388 843.952401 272.451861 857.214563 277.31563 
C 870.476726 282.179399 884.916167 282.864141 898.579076 279.277205 
C 912.241986 275.690268 924.48301 268.001077 933.645808 257.250061 
L 881.021739 212.4 
z
" style="fill: #fa8072"/>
   </g>
   <g id="patch_25">
    <path d="M 933.645808 257.250061 
C 937.952195 252.197234 941.508482 246.550411 944.205008 240.483717 
C 946.901534 234.417022 948.710295 227.993459 949.575518 221.411102 
L 881.021739 212.4 
z
" style="fill: #008000"/>
   </g>
   <g id="patch_26">
    <path d="M 949.575518 221.411102 
C 949.674948 220.654671 949.761851 219.896647 949.836191 219.13734 
C 949.910532 218.378033 949.9723 217.617548 950.02147 216.856197 
L 881.021739 212.4 
z
" style="fill: #8a2be2"/>
   </g>
   <g id="patch_27">
    <path d="M 950.02147 216.856197 
C 950.06937 216.114516 950.105308 215.372111 950.129271 214.629271 
C 950.153233 213.886431 950.165217 213.143254 950.165217 212.400028 
L 881.021739 212.4 
z
" style="fill: #ffa500"/>
   </g>
   <g id="matplotlib.axis_7"/>
   <g id="matplotlib.axis_8"/>
   <g id="text_30">
    <!-- SNP -->
    <g transform="translate(848.015536 140.413498) scale(0.16 -0.16)">
     <use xlink:href="#Helvetica-53"/>
     <use xlink:href="#Helvetica-4e" x="66.699219"/>
     <use xlink:href="#Helvetica-50" x="138.916016"/>
    </g>
   </g>
   <g id="text_31">
    <!-- 50.0% -->
    <g transform="translate(858.28131 174.985203) scale(0.16 -0.16)">
     <use xlink:href="#Helvetica-35"/>
     <use xlink:href="#Helvetica-30" x="55.615234"/>
     <use xlink:href="#Helvetica-2e" x="111.230469"/>
     <use xlink:href="#Helvetica-30" x="139.013672"/>
     <use xlink:href="#Helvetica-25" x="194.628906"/>
    </g>
   </g>
   <g id="text_32">
    <!-- CX -->
    <g transform="translate(832.606346 287.878443) scale(0.16 -0.16)">
     <defs>
      <path id="Helvetica-43" d="M 2422 4716 
Q 3294 4716 3775 4256 
Q 4256 3797 4309 3213 
L 3703 3213 
Q 3600 3656 3292 3915 
Q 2984 4175 2428 4175 
Q 1750 4175 1333 3698 
Q 916 3222 916 2238 
Q 916 1431 1292 929 
Q 1669 428 2416 428 
Q 3103 428 3463 956 
Q 3653 1234 3747 1688 
L 4353 1688 
Q 4272 963 3816 472 
Q 3269 -119 2341 -119 
Q 1541 -119 997 366 
Q 281 1006 281 2344 
Q 281 3359 819 4009 
Q 1400 4716 2422 4716 
z
M 2297 4716 
L 2297 4716 
z
" transform="scale(0.015625)"/>
     </defs>
     <use xlink:href="#Helvetica-43"/>
     <use xlink:href="#Helvetica-58" x="72.216797"/>
    </g>
   </g>
   <g id="text_33">
    <!-- 38.7% -->
    <g transform="translate(844.054934 255.420628) scale(0.16 -0.16)">
     <use xlink:href="#Helvetica-33"/>
     <use xlink:href="#Helvetica-38" x="55.615234"/>
     <use xlink:href="#Helvetica-2e" x="111.230469"/>
     <use xlink:href="#Helvetica-37" x="139.013672"/>
     <use xlink:href="#Helvetica-25" x="194.628906"/>
    </g>
   </g>
   <g id="text_34">
    <!-- INP -->
    <g transform="translate(950.523335 247.363338) scale(0.16 -0.16)">
     <use xlink:href="#Helvetica-49"/>
     <use xlink:href="#Helvetica-4e" x="27.783203"/>
     <use xlink:href="#Helvetica-50" x="100"/>
    </g>
   </g>
   <g id="text_35">
    <!-- 9.2% -->
    <g transform="translate(900.69795 233.32148) scale(0.16 -0.16)">
     <use xlink:href="#Helvetica-39"/>
     <use xlink:href="#Helvetica-2e" x="55.615234"/>
     <use xlink:href="#Helvetica-32" x="83.398438"/>
     <use xlink:href="#Helvetica-25" x="139.013672"/>
    </g>
   </g>
   <g id="text_36">
    <!-- Module 4 -->
    <g transform="translate(844.000802 115.421739) scale(0.18 -0.18)">
     <use xlink:href="#Helvetica-4d"/>
     <use xlink:href="#Helvetica-6f" x="83.300781"/>
     <use xlink:href="#Helvetica-64" x="138.916016"/>
     <use xlink:href="#Helvetica-75" x="194.53125"/>
     <use xlink:href="#Helvetica-6c" x="250.146484"/>
     <use xlink:href="#Helvetica-65" x="272.363281"/>
     <use xlink:href="#Helvetica-20" x="327.978516"/>
     <use xlink:href="#Helvetica-34" x="355.761719"/>
    </g>
   </g>
  </g>
  <g id="axes_5">
   <g id="patch_28">
    <path d="M 392.4 450 
C 392.4 435.139789 387.557327 420.676767 378.609193 408.812672 
C 369.661059 396.948576 357.0858 388.317623 342.797777 384.23372 
C 328.509754 380.149818 313.272756 380.831278 299.406346 386.174361 
C 285.539936 391.517444 273.785365 401.236527 265.932059 413.852051 
L 324 450 
z
" style="fill: #008000"/>
   </g>
   <g id="patch_29">
    <path d="M 265.932059 413.852051 
C 259.41722 424.317466 255.851189 436.352012 255.612791 448.677239 
C 255.374394 461.002465 258.472382 473.165908 264.577651 483.875425 
C 270.682919 494.584941 279.571342 503.44738 290.298686 509.521269 
C 301.026031 515.595158 313.198491 518.657523 325.522967 518.383043 
L 324 450 
z
" style="fill: #6495ed"/>
   </g>
   <g id="patch_30">
    <path d="M 325.522967 518.383043 
C 335.323921 518.164765 344.964371 515.841943 353.789198 511.572426 
C 362.614025 507.302909 370.418698 501.18565 376.672849 493.636349 
L 324 450 
z
" style="fill: #8a2be2"/>
   </g>
   <g id="patch_31">
    <path d="M 376.672849 493.636349 
C 378.453859 491.486517 380.101581 489.229662 381.606769 486.878452 
C 383.111956 484.527242 384.471786 482.086085 385.678626 479.568683 
L 324 450 
z
" style="fill: #fa8072"/>
   </g>
   <g id="patch_32">
    <path d="M 385.678626 479.568683 
C 386.670213 477.500289 387.557127 475.383324 388.336005 473.225814 
C 389.114884 471.068304 389.784741 468.87298 390.343038 466.648164 
L 324 450 
z
" style="fill: #ffa500"/>
   </g>
   <g id="patch_33">
    <path d="M 390.343038 466.648164 
C 390.822069 464.739222 391.218485 462.810494 391.531181 460.867365 
C 391.843876 458.924235 392.072559 456.968515 392.216591 455.005664 
L 324 450 
z
" style="fill: #b22222"/>
   </g>
   <g id="patch_34">
    <path d="M 392.216591 455.005664 
C 392.277702 454.172855 392.323557 453.338997 392.354133 452.504509 
C 392.384708 451.67002 392.4 450.835042 392.4 449.999994 
L 324 450 
z
" style="fill: #d2b48c"/>
   </g>
   <g id="matplotlib.axis_9"/>
   <g id="matplotlib.axis_10"/>
   <g id="text_37">
    <!-- INP -->
    <g transform="translate(344.677555 381.728342) scale(0.16 -0.16)">
     <use xlink:href="#Helvetica-49"/>
     <use xlink:href="#Helvetica-4e" x="27.783203"/>
     <use xlink:href="#Helvetica-50" x="100"/>
    </g>
   </g>
   <g id="text_38">
    <!-- 41.1% -->
    <g transform="translate(312.596166 414.611482) scale(0.16 -0.16)">
     <use xlink:href="#Helvetica-34"/>
     <use xlink:href="#Helvetica-31" x="55.615234"/>
     <use xlink:href="#Helvetica-2e" x="111.230469"/>
     <use xlink:href="#Helvetica-31" x="139.013672"/>
     <use xlink:href="#Helvetica-25" x="194.628906"/>
    </g>
   </g>
   <g id="text_39">
    <!-- SNP -->
    <g transform="translate(225.735416 491.334217) scale(0.16 -0.16)">
     <use xlink:href="#Helvetica-53"/>
     <use xlink:href="#Helvetica-4e" x="66.699219"/>
     <use xlink:href="#Helvetica-50" x="138.916016"/>
    </g>
   </g>
   <g id="text_40">
    <!-- 34.2% -->
    <g transform="translate(265.66409 474.396505) scale(0.16 -0.16)">
     <use xlink:href="#Helvetica-33"/>
     <use xlink:href="#Helvetica-34" x="55.615234"/>
     <use xlink:href="#Helvetica-2e" x="111.230469"/>
     <use xlink:href="#Helvetica-32" x="139.013672"/>
     <use xlink:href="#Helvetica-25" x="194.628906"/>
    </g>
   </g>
   <g id="text_41">
    <!-- LX -->
    <g transform="translate(356.768118 521.800919) scale(0.16 -0.16)">
     <use xlink:href="#Helvetica-4c"/>
     <use xlink:href="#Helvetica-58" x="55.615234"/>
    </g>
   </g>
   <g id="text_42">
    <!-- 13.6% -->
    <g transform="translate(319.191019 491.014706) scale(0.16 -0.16)">
     <use xlink:href="#Helvetica-31"/>
     <use xlink:href="#Helvetica-33" x="55.615234"/>
     <use xlink:href="#Helvetica-2e" x="111.230469"/>
     <use xlink:href="#Helvetica-36" x="139.013672"/>
     <use xlink:href="#Helvetica-25" x="194.628906"/>
    </g>
   </g>
   <g id="text_43">
    <!-- CX -->
    <g transform="translate(387.367445 494.637547) scale(0.16 -0.16)">
     <use xlink:href="#Helvetica-43"/>
     <use xlink:href="#Helvetica-58" x="72.216797"/>
    </g>
   </g>
   <g id="text_44">
    <!-- 3.9% -->
    <g transform="translate(340.330311 476.198321) scale(0.16 -0.16)">
     <use xlink:href="#Helvetica-33"/>
     <use xlink:href="#Helvetica-2e" x="55.615234"/>
     <use xlink:href="#Helvetica-39" x="83.398438"/>
     <use xlink:href="#Helvetica-25" x="139.013672"/>
    </g>
   </g>
   <g id="text_45">
    <!-- Module 5 -->
    <g transform="translate(286.979062 354) scale(0.18 -0.18)">
     <use xlink:href="#Helvetica-4d"/>
     <use xlink:href="#Helvetica-6f" x="83.300781"/>
     <use xlink:href="#Helvetica-64" x="138.916016"/>
     <use xlink:href="#Helvetica-75" x="194.53125"/>
     <use xlink:href="#Helvetica-6c" x="250.146484"/>
     <use xlink:href="#Helvetica-65" x="272.363281"/>
     <use xlink:href="#Helvetica-20" x="327.978516"/>
     <use xlink:href="#Helvetica-35" x="355.761719"/>
    </g>
   </g>
  </g>
  <g id="axes_6">
   <g id="patch_35">
    <path d="M 635.4 450 
C 635.4 439.915044 633.169598 429.953788 628.869008 420.831767 
C 624.568419 411.709747 618.303141 403.650738 610.523222 397.233636 
C 602.743303 390.816534 593.639596 386.19876 583.866038 383.712016 
C 574.09248 381.225273 563.88883 380.930564 553.988036 382.84906 
C 544.087243 384.767555 534.732187 388.852191 526.59486 394.80956 
C 518.457534 400.766929 511.737556 408.450888 506.917638 417.309484 
C 502.09772 426.16808 499.2961 435.983999 498.714025 446.052142 
C 498.131949 456.120286 499.783697 466.19367 503.55062 475.548702 
L 567 450 
z
" style="fill: #6495ed"/>
   </g>
   <g id="patch_36">
    <path d="M 503.55062 475.548702 
C 510.138147 491.908613 522.804384 505.103083 538.881647 512.353173 
C 554.958911 519.603264 573.23328 520.361555 589.855922 514.46834 
L 567 450 
z
" style="fill: #008000"/>
   </g>
   <g id="patch_37">
    <path d="M 589.855922 514.46834 
C 593.724792 513.096712 597.462349 511.379596 601.023324 509.337791 
C 604.5843 507.295985 607.954259 504.937767 611.092385 502.291697 
L 567 450 
z
" style="fill: #d2b48c"/>
   </g>
   <g id="patch_38">
    <path d="M 611.092385 502.291697 
C 613.826818 499.986022 616.376191 497.469411 618.717041 494.765028 
C 621.05789 492.060644 623.183011 489.176811 625.072845 486.14007 
L 567 450 
z
" style="fill: #8a2be2"/>
   </g>
   <g id="patch_39">
    <path d="M 625.072845 486.14007 
C 626.721654 483.490627 628.18722 480.731453 629.459269 477.881889 
C 630.731317 475.032326 631.806868 472.099048 632.678382 469.10262 
L 567 450 
z
" style="fill: #008080"/>
   </g>
   <g id="patch_40">
    <path d="M 632.678382 469.10262 
C 633.130638 467.54768 633.527531 465.977169 633.868312 464.394057 
C 634.209092 462.810945 634.493545 461.21623 634.721131 459.612928 
L 567 450 
z
" style="fill: #ffa500"/>
   </g>
   <g id="patch_41">
    <path d="M 634.721131 459.612928 
C 634.863808 458.607797 634.98409 457.599614 635.081887 456.589129 
C 635.179685 455.578643 635.254973 454.566106 635.307696 453.552269 
L 567 450 
z
" style="fill: #b22222"/>
   </g>
   <g id="patch_42">
    <path d="M 635.307696 453.552269 
C 635.338458 452.96075 635.361534 452.368856 635.37692 451.776738 
C 635.392306 451.184619 635.4 450.592326 635.4 450.000008 
L 567 450 
z
" style="fill: #5f9ea0"/>
   </g>
   <g id="matplotlib.axis_11"/>
   <g id="matplotlib.axis_12"/>
   <g id="text_46">
    <!-- SNP -->
    <g transform="translate(519.78684 380.205216) scale(0.16 -0.16)">
     <use xlink:href="#Helvetica-53"/>
     <use xlink:href="#Helvetica-4e" x="66.699219"/>
     <use xlink:href="#Helvetica-50" x="138.916016"/>
    </g>
   </g>
   <g id="text_47">
    <!-- 56.1% -->
    <g transform="translate(536.510322 413.780686) scale(0.16 -0.16)">
     <use xlink:href="#Helvetica-35"/>
     <use xlink:href="#Helvetica-36" x="55.615234"/>
     <use xlink:href="#Helvetica-2e" x="111.230469"/>
     <use xlink:href="#Helvetica-31" x="139.013672"/>
     <use xlink:href="#Helvetica-25" x="194.628906"/>
    </g>
   </g>
   <g id="text_48">
    <!-- INP -->
    <g transform="translate(509.397312 522.659741) scale(0.16 -0.16)">
     <use xlink:href="#Helvetica-49"/>
     <use xlink:href="#Helvetica-4e" x="27.783203"/>
     <use xlink:href="#Helvetica-50" x="100"/>
    </g>
   </g>
   <g id="text_49">
    <!-- 24.3% -->
    <g transform="translate(527.446488 491.483154) scale(0.16 -0.16)">
     <use xlink:href="#Helvetica-32"/>
     <use xlink:href="#Helvetica-34" x="55.615234"/>
     <use xlink:href="#Helvetica-2e" x="111.230469"/>
     <use xlink:href="#Helvetica-33" x="139.013672"/>
     <use xlink:href="#Helvetica-25" x="194.628906"/>
    </g>
   </g>
   <g id="text_50">
    <!-- MB -->
    <g transform="translate(604.425657 519.34282) scale(0.16 -0.16)">
     <defs>
      <path id="Helvetica-42" d="M 2213 2650 
Q 2606 2650 2825 2759 
Q 3169 2931 3169 3378 
Q 3169 3828 2803 3984 
Q 2597 4072 2191 4072 
L 1081 4072 
L 1081 2650 
L 2213 2650 
z
M 2422 531 
Q 2994 531 3238 863 
Q 3391 1072 3391 1369 
Q 3391 1869 2944 2050 
Q 2706 2147 2316 2147 
L 1081 2147 
L 1081 531 
L 2422 531 
z
M 472 4591 
L 2444 4591 
Q 3250 4591 3591 4109 
Q 3791 3825 3791 3453 
Q 3791 3019 3544 2741 
Q 3416 2594 3175 2472 
Q 3528 2338 3703 2169 
Q 4013 1869 4013 1341 
Q 4013 897 3734 538 
Q 3319 0 2413 0 
L 472 0 
L 472 4591 
z
" transform="scale(0.015625)"/>
     </defs>
     <use xlink:href="#Helvetica-4d"/>
     <use xlink:href="#Helvetica-42" x="83.300781"/>
    </g>
   </g>
   <g id="text_51">
    <!-- 5.7% -->
    <g transform="translate(569.180245 489.673924) scale(0.16 -0.16)">
     <use xlink:href="#Helvetica-35"/>
     <use xlink:href="#Helvetica-2e" x="55.615234"/>
     <use xlink:href="#Helvetica-37" x="83.398438"/>
     <use xlink:href="#Helvetica-25" x="139.013672"/>
    </g>
   </g>
   <g id="text_52">
    <!-- LX -->
    <g transform="translate(623.888745 503.31278) scale(0.16 -0.16)">
     <use xlink:href="#Helvetica-4c"/>
     <use xlink:href="#Helvetica-58" x="55.615234"/>
    </g>
   </g>
   <g id="text_53">
    <!-- 5.0% -->
    <g transform="translate(579.796474 480.930267) scale(0.16 -0.16)">
     <use xlink:href="#Helvetica-35"/>
     <use xlink:href="#Helvetica-2e" x="55.615234"/>
     <use xlink:href="#Helvetica-30" x="83.398438"/>
     <use xlink:href="#Helvetica-25" x="139.013672"/>
    </g>
   </g>
   <g id="text_54">
    <!-- LH -->
    <g transform="translate(635.705196 484.741328) scale(0.16 -0.16)">
     <defs>
      <path id="Helvetica-48" d="M 503 4591 
L 1131 4591 
L 1131 2694 
L 3519 2694 
L 3519 4591 
L 4147 4591 
L 4147 0 
L 3519 0 
L 3519 2147 
L 1131 2147 
L 1131 0 
L 503 0 
L 503 4591 
z
" transform="scale(0.015625)"/>
     </defs>
     <use xlink:href="#Helvetica-4c"/>
     <use xlink:href="#Helvetica-48" x="55.615234"/>
    </g>
   </g>
   <g id="text_55">
    <!-- 4.4% -->
    <g transform="translate(586.241811 470.800384) scale(0.16 -0.16)">
     <use xlink:href="#Helvetica-34"/>
     <use xlink:href="#Helvetica-2e" x="55.615234"/>
     <use xlink:href="#Helvetica-34" x="83.398438"/>
     <use xlink:href="#Helvetica-25" x="139.013672"/>
    </g>
   </g>
   <g id="text_56">
    <!-- Module 6 -->
    <g transform="translate(529.979063 354) scale(0.18 -0.18)">
     <use xlink:href="#Helvetica-4d"/>
     <use xlink:href="#Helvetica-6f" x="83.300781"/>
     <use xlink:href="#Helvetica-64" x="138.916016"/>
     <use xlink:href="#Helvetica-75" x="194.53125"/>
     <use xlink:href="#Helvetica-6c" x="250.146484"/>
     <use xlink:href="#Helvetica-65" x="272.363281"/>
     <use xlink:href="#Helvetica-20" x="327.978516"/>
     <use xlink:href="#Helvetica-36" x="355.761719"/>
    </g>
   </g>
  </g>
  <g id="axes_7">
   <g id="patch_43">
    <path d="M 878.4 450 
C 878.4 441.675862 876.880454 433.421215 873.916227 425.642743 
C 870.951999 417.86427 866.592581 410.691845 861.052749 404.478831 
C 855.512917 398.265817 848.885167 393.11595 841.496027 389.282949 
C 834.106888 385.449948 826.079732 382.99781 817.810035 382.047345 
C 809.540337 381.09688 801.166173 381.663957 793.100112 383.720638 
C 785.034051 385.77732 777.410768 389.289266 770.60584 394.083454 
C 763.800912 398.877641 757.927958 404.874024 753.276319 411.777179 
C 748.624681 418.680333 745.272025 426.375001 743.383528 434.482087 
C 741.49503 442.589174 741.102221 450.97332 742.224454 459.221464 
C 743.346687 467.469608 745.965225 475.444033 749.951059 482.751865 
C 753.936893 490.059697 759.223475 496.57892 765.550349 501.98835 
C 771.877224 507.397781 779.138755 511.6071 786.977188 514.408929 
C 794.815621 517.210758 803.100082 518.558314 811.422421 518.385208 
C 819.744759 518.212103 827.96602 516.521225 835.681168 513.39588 
C 843.396315 510.270535 850.476532 505.762905 856.572999 500.095068 
C 862.669465 494.42723 867.68039 487.693818 871.3589 480.226567 
L 810 450 
z
" style="fill: #6495ed"/>
   </g>
   <g id="patch_44">
    <path d="M 871.3589 480.226567 
C 872.687171 477.530223 873.836267 474.749254 874.798714 471.901751 
C 875.76116 469.054248 876.534866 466.146399 877.114798 463.197118 
L 810 450 
z
" style="fill: #008000"/>
   </g>
   <g id="patch_45">
    <path d="M 877.114798 463.197118 
C 877.304046 462.234685 877.47257 461.268292 877.620253 460.29861 
C 877.767936 459.328928 877.894745 458.356181 878.00059 457.381045 
L 810 450 
z
" style="fill: #ffa500"/>
   </g>
   <g id="patch_46">
    <path d="M 878.00059 457.381045 
C 878.087312 456.582078 878.159948 455.781645 878.218461 454.980118 
C 878.276974 454.178591 878.321357 453.376095 878.351588 452.573004 
L 810 450 
z
" style="fill: #d2b48c"/>
   </g>
   <g id="patch_47">
    <path d="M 878.351588 452.573004 
C 878.367724 452.144366 878.379827 451.715585 878.387896 451.286718 
C 878.395965 450.857852 878.4 450.42892 878.4 449.999977 
L 810 450 
z
" style="fill: #008080"/>
   </g>
   <g id="matplotlib.axis_13"/>
   <g id="matplotlib.axis_14"/>
   <g id="text_57">
    <!-- SNP -->
    <g transform="translate(703.82188 437.001546) scale(0.16 -0.16)">
     <use xlink:href="#Helvetica-53"/>
     <use xlink:href="#Helvetica-4e" x="66.699219"/>
     <use xlink:href="#Helvetica-50" x="138.916016"/>
    </g>
   </g>
   <g id="text_58">
    <!-- 92.7% -->
    <g transform="translate(747.347617 444.760502) scale(0.16 -0.16)">
     <use xlink:href="#Helvetica-39"/>
     <use xlink:href="#Helvetica-32" x="55.615234"/>
     <use xlink:href="#Helvetica-2e" x="111.230469"/>
     <use xlink:href="#Helvetica-37" x="139.013672"/>
     <use xlink:href="#Helvetica-25" x="194.628906"/>
    </g>
   </g>
   <g id="text_59">
    <!-- INP -->
    <g transform="translate(881.278585 478.163176) scale(0.16 -0.16)">
     <use xlink:href="#Helvetica-49"/>
     <use xlink:href="#Helvetica-4e" x="27.783203"/>
     <use xlink:href="#Helvetica-50" x="100"/>
    </g>
   </g>
   <g id="text_60">
    <!-- 4.2% -->
    <g transform="translate(830.645478 467.212301) scale(0.16 -0.16)">
     <use xlink:href="#Helvetica-34"/>
     <use xlink:href="#Helvetica-2e" x="55.615234"/>
     <use xlink:href="#Helvetica-32" x="83.398438"/>
     <use xlink:href="#Helvetica-25" x="139.013672"/>
    </g>
   </g>
   <g id="text_61">
    <!-- Module 7 -->
    <g transform="translate(772.979063 354) scale(0.18 -0.18)">
     <use xlink:href="#Helvetica-4d"/>
     <use xlink:href="#Helvetica-6f" x="83.300781"/>
     <use xlink:href="#Helvetica-64" x="138.916016"/>
     <use xlink:href="#Helvetica-75" x="194.53125"/>
     <use xlink:href="#Helvetica-6c" x="250.146484"/>
     <use xlink:href="#Helvetica-65" x="272.363281"/>
     <use xlink:href="#Helvetica-20" x="327.978516"/>
     <use xlink:href="#Helvetica-37" x="355.761719"/>
    </g>
   </g>
  </g>
  <g id="text_62">
   <!-- OviINr Inputs Subconnectome Modules  -->
   <g transform="translate(363.257812 29.1375) scale(0.2 -0.2)">
    <defs>
     <path id="Helvetica-4f" d="M 2469 4716 
Q 3684 4716 4269 3934 
Q 4725 3325 4725 2375 
Q 4725 1347 4203 666 
Q 3591 -134 2456 -134 
Q 1397 -134 791 566 
Q 250 1241 250 2272 
Q 250 3203 713 3866 
Q 1306 4716 2469 4716 
z
M 2531 422 
Q 3353 422 3720 1011 
Q 4088 1600 4088 2366 
Q 4088 3175 3664 3669 
Q 3241 4163 2506 4163 
Q 1794 4163 1344 3673 
Q 894 3184 894 2231 
Q 894 1469 1280 945 
Q 1666 422 2531 422 
z
M 2488 4716 
L 2488 4716 
z
" transform="scale(0.015625)"/>
     <path id="Helvetica-76" d="M 688 3347 
L 1581 622 
L 2516 3347 
L 3131 3347 
L 1869 0 
L 1269 0 
L 34 3347 
L 688 3347 
z
" transform="scale(0.015625)"/>
     <path id="Helvetica-69" d="M 413 3331 
L 984 3331 
L 984 0 
L 413 0 
L 413 3331 
z
M 413 4591 
L 984 4591 
L 984 3953 
L 413 3953 
L 413 4591 
z
" transform="scale(0.015625)"/>
     <path id="Helvetica-72" d="M 428 3347 
L 963 3347 
L 963 2769 
Q 1028 2938 1284 3180 
Q 1541 3422 1875 3422 
Q 1891 3422 1928 3419 
Q 1966 3416 2056 3406 
L 2056 2813 
Q 2006 2822 1964 2825 
Q 1922 2828 1872 2828 
Q 1447 2828 1219 2554 
Q 991 2281 991 1925 
L 991 0 
L 428 0 
L 428 3347 
z
" transform="scale(0.015625)"/>
     <path id="Helvetica-6e" d="M 413 3347 
L 947 3347 
L 947 2872 
Q 1184 3166 1450 3294 
Q 1716 3422 2041 3422 
Q 2753 3422 3003 2925 
Q 3141 2653 3141 2147 
L 3141 0 
L 2569 0 
L 2569 2109 
Q 2569 2416 2478 2603 
Q 2328 2916 1934 2916 
Q 1734 2916 1606 2875 
Q 1375 2806 1200 2600 
Q 1059 2434 1017 2257 
Q 975 2081 975 1753 
L 975 0 
L 413 0 
L 413 3347 
z
M 1734 3428 
L 1734 3428 
z
" transform="scale(0.015625)"/>
     <path id="Helvetica-70" d="M 1825 378 
Q 2219 378 2480 708 
Q 2741 1038 2741 1694 
Q 2741 2094 2625 2381 
Q 2406 2934 1825 2934 
Q 1241 2934 1025 2350 
Q 909 2038 909 1556 
Q 909 1169 1025 897 
Q 1244 378 1825 378 
z
M 369 3331 
L 916 3331 
L 916 2888 
Q 1084 3116 1284 3241 
Q 1569 3428 1953 3428 
Q 2522 3428 2919 2992 
Q 3316 2556 3316 1747 
Q 3316 653 2744 184 
Q 2381 -113 1900 -113 
Q 1522 -113 1266 53 
Q 1116 147 931 375 
L 931 -1334 
L 369 -1334 
L 369 3331 
z
" transform="scale(0.015625)"/>
     <path id="Helvetica-74" d="M 525 4281 
L 1094 4281 
L 1094 3347 
L 1628 3347 
L 1628 2888 
L 1094 2888 
L 1094 703 
Q 1094 528 1213 469 
Q 1278 434 1431 434 
Q 1472 434 1519 436 
Q 1566 438 1628 444 
L 1628 0 
Q 1531 -28 1426 -40 
Q 1322 -53 1200 -53 
Q 806 -53 665 148 
Q 525 350 525 672 
L 525 2888 
L 72 2888 
L 72 3347 
L 525 3347 
L 525 4281 
z
" transform="scale(0.015625)"/>
     <path id="Helvetica-73" d="M 747 1050 
Q 772 769 888 619 
Q 1100 347 1625 347 
Q 1938 347 2175 483 
Q 2413 619 2413 903 
Q 2413 1119 2222 1231 
Q 2100 1300 1741 1391 
L 1294 1503 
Q 866 1609 663 1741 
Q 300 1969 300 2372 
Q 300 2847 642 3140 
Q 984 3434 1563 3434 
Q 2319 3434 2653 2991 
Q 2863 2709 2856 2384 
L 2325 2384 
Q 2309 2575 2191 2731 
Q 1997 2953 1519 2953 
Q 1200 2953 1036 2831 
Q 872 2709 872 2509 
Q 872 2291 1088 2159 
Q 1213 2081 1456 2022 
L 1828 1931 
Q 2434 1784 2641 1647 
Q 2969 1431 2969 969 
Q 2969 522 2630 197 
Q 2291 -128 1597 -128 
Q 850 -128 539 211 
Q 228 550 206 1050 
L 747 1050 
z
M 1578 3428 
L 1578 3428 
z
" transform="scale(0.015625)"/>
     <path id="Helvetica-62" d="M 369 4606 
L 916 4606 
L 916 2941 
Q 1100 3181 1356 3307 
Q 1613 3434 1913 3434 
Q 2538 3434 2927 3004 
Q 3316 2575 3316 1738 
Q 3316 944 2931 419 
Q 2547 -106 1866 -106 
Q 1484 -106 1222 78 
Q 1066 188 888 428 
L 888 0 
L 369 0 
L 369 4606 
z
M 1831 391 
Q 2288 391 2514 753 
Q 2741 1116 2741 1709 
Q 2741 2238 2514 2584 
Q 2288 2931 1847 2931 
Q 1463 2931 1173 2647 
Q 884 2363 884 1709 
Q 884 1238 1003 944 
Q 1225 391 1831 391 
z
" transform="scale(0.015625)"/>
     <path id="Helvetica-63" d="M 1703 3444 
Q 2269 3444 2623 3169 
Q 2978 2894 3050 2222 
L 2503 2222 
Q 2453 2531 2275 2736 
Q 2097 2941 1703 2941 
Q 1166 2941 934 2416 
Q 784 2075 784 1575 
Q 784 1072 996 728 
Q 1209 384 1666 384 
Q 2016 384 2220 598 
Q 2425 813 2503 1184 
L 3050 1184 
Q 2956 519 2581 211 
Q 2206 -97 1622 -97 
Q 966 -97 575 383 
Q 184 863 184 1581 
Q 184 2463 612 2953 
Q 1041 3444 1703 3444 
z
M 1616 3428 
L 1616 3428 
z
" transform="scale(0.015625)"/>
     <path id="Helvetica-6d" d="M 413 3347 
L 969 3347 
L 969 2872 
Q 1169 3119 1331 3231 
Q 1609 3422 1963 3422 
Q 2363 3422 2606 3225 
Q 2744 3113 2856 2894 
Q 3044 3163 3297 3292 
Q 3550 3422 3866 3422 
Q 4541 3422 4784 2934 
Q 4916 2672 4916 2228 
L 4916 0 
L 4331 0 
L 4331 2325 
Q 4331 2659 4164 2784 
Q 3997 2909 3756 2909 
Q 3425 2909 3186 2687 
Q 2947 2466 2947 1947 
L 2947 0 
L 2375 0 
L 2375 2184 
Q 2375 2525 2294 2681 
Q 2166 2916 1816 2916 
Q 1497 2916 1236 2669 
Q 975 2422 975 1775 
L 975 0 
L 413 0 
L 413 3347 
z
" transform="scale(0.015625)"/>
    </defs>
    <use xlink:href="#Helvetica-4f"/>
    <use xlink:href="#Helvetica-76" x="77.783203"/>
    <use xlink:href="#Helvetica-69" x="127.783203"/>
    <use xlink:href="#Helvetica-49" x="150"/>
    <use xlink:href="#Helvetica-4e" x="177.783203"/>
    <use xlink:href="#Helvetica-72" x="250"/>
    <use xlink:href="#Helvetica-20" x="283.300781"/>
    <use xlink:href="#Helvetica-49" x="311.083984"/>
    <use xlink:href="#Helvetica-6e" x="338.867188"/>
    <use xlink:href="#Helvetica-70" x="394.482422"/>
    <use xlink:href="#Helvetica-75" x="450.097656"/>
    <use xlink:href="#Helvetica-74" x="505.712891"/>
    <use xlink:href="#Helvetica-73" x="533.496094"/>
    <use xlink:href="#Helvetica-20" x="583.496094"/>
    <use xlink:href="#Helvetica-53" x="611.279297"/>
    <use xlink:href="#Helvetica-75" x="677.978516"/>
    <use xlink:href="#Helvetica-62" x="733.59375"/>
    <use xlink:href="#Helvetica-63" x="789.208984"/>
    <use xlink:href="#Helvetica-6f" x="839.208984"/>
    <use xlink:href="#Helvetica-6e" x="894.824219"/>
    <use xlink:href="#Helvetica-6e" x="950.439453"/>
    <use xlink:href="#Helvetica-65" x="1006.054688"/>
    <use xlink:href="#Helvetica-63" x="1061.669922"/>
    <use xlink:href="#Helvetica-74" x="1111.669922"/>
    <use xlink:href="#Helvetica-6f" x="1139.453125"/>
    <use xlink:href="#Helvetica-6d" x="1195.068359"/>
    <use xlink:href="#Helvetica-65" x="1278.369141"/>
    <use xlink:href="#Helvetica-20" x="1333.984375"/>
    <use xlink:href="#Helvetica-4d" x="1361.767578"/>
    <use xlink:href="#Helvetica-6f" x="1445.068359"/>
    <use xlink:href="#Helvetica-64" x="1500.683594"/>
    <use xlink:href="#Helvetica-75" x="1556.298828"/>
    <use xlink:href="#Helvetica-6c" x="1611.914062"/>
    <use xlink:href="#Helvetica-65" x="1634.130859"/>
    <use xlink:href="#Helvetica-73" x="1689.746094"/>
    <use xlink:href="#Helvetica-20" x="1739.746094"/>
   </g>
   <!-- Neuropils of synaptic connections in Hemibrain -->
   <g transform="translate(332.13125 50.76625) scale(0.2 -0.2)">
    <defs>
     <path id="Helvetica-66" d="M 553 3856 
Q 566 4206 675 4369 
Q 872 4656 1434 4656 
Q 1488 4656 1544 4653 
Q 1600 4650 1672 4644 
L 1672 4131 
Q 1584 4138 1545 4139 
Q 1506 4141 1472 4141 
Q 1216 4141 1166 4008 
Q 1116 3875 1116 3331 
L 1672 3331 
L 1672 2888 
L 1109 2888 
L 1109 0 
L 553 0 
L 553 2888 
L 88 2888 
L 88 3331 
L 553 3331 
L 553 3856 
z
" transform="scale(0.015625)"/>
     <path id="Helvetica-79" d="M 2503 3347 
L 3125 3347 
Q 3006 3025 2597 1878 
Q 2291 1016 2084 472 
Q 1597 -809 1397 -1090 
Q 1197 -1372 709 -1372 
Q 591 -1372 527 -1362 
Q 463 -1353 369 -1328 
L 369 -816 
Q 516 -856 581 -865 
Q 647 -875 697 -875 
Q 853 -875 926 -823 
Q 1000 -772 1050 -697 
Q 1066 -672 1162 -440 
Q 1259 -209 1303 -97 
L 66 3347 
L 703 3347 
L 1600 622 
L 2503 3347 
z
M 1597 3428 
L 1597 3428 
z
" transform="scale(0.015625)"/>
     <path id="Helvetica-61" d="M 844 891 
Q 844 647 1022 506 
Q 1200 366 1444 366 
Q 1741 366 2019 503 
Q 2488 731 2488 1250 
L 2488 1703 
Q 2384 1638 2221 1594 
Q 2059 1550 1903 1531 
L 1563 1488 
Q 1256 1447 1103 1359 
Q 844 1213 844 891 
z
M 2206 2028 
Q 2400 2053 2466 2191 
Q 2503 2266 2503 2406 
Q 2503 2694 2298 2823 
Q 2094 2953 1713 2953 
Q 1272 2953 1088 2716 
Q 984 2584 953 2325 
L 428 2325 
Q 444 2944 830 3186 
Q 1216 3428 1725 3428 
Q 2316 3428 2684 3203 
Q 3050 2978 3050 2503 
L 3050 575 
Q 3050 488 3086 434 
Q 3122 381 3238 381 
Q 3275 381 3322 386 
Q 3369 391 3422 400 
L 3422 -16 
Q 3291 -53 3222 -62 
Q 3153 -72 3034 -72 
Q 2744 -72 2613 134 
Q 2544 244 2516 444 
Q 2344 219 2022 53 
Q 1700 -113 1313 -113 
Q 847 -113 551 170 
Q 256 453 256 878 
Q 256 1344 547 1600 
Q 838 1856 1309 1916 
L 2206 2028 
z
M 1741 3428 
L 1741 3428 
z
" transform="scale(0.015625)"/>
    </defs>
    <use xlink:href="#Helvetica-4e"/>
    <use xlink:href="#Helvetica-65" x="72.216797"/>
    <use xlink:href="#Helvetica-75" x="127.832031"/>
    <use xlink:href="#Helvetica-72" x="183.447266"/>
    <use xlink:href="#Helvetica-6f" x="216.748047"/>
    <use xlink:href="#Helvetica-70" x="272.363281"/>
    <use xlink:href="#Helvetica-69" x="327.978516"/>
    <use xlink:href="#Helvetica-6c" x="350.195312"/>
    <use xlink:href="#Helvetica-73" x="372.412109"/>
    <use xlink:href="#Helvetica-20" x="422.412109"/>
    <use xlink:href="#Helvetica-6f" x="450.195312"/>
    <use xlink:href="#Helvetica-66" x="505.810547"/>
    <use xlink:href="#Helvetica-20" x="533.59375"/>
    <use xlink:href="#Helvetica-73" x="561.376953"/>
    <use xlink:href="#Helvetica-79" x="611.376953"/>
    <use xlink:href="#Helvetica-6e" x="661.376953"/>
    <use xlink:href="#Helvetica-61" x="716.992188"/>
    <use xlink:href="#Helvetica-70" x="772.607422"/>
    <use xlink:href="#Helvetica-74" x="828.222656"/>
    <use xlink:href="#Helvetica-69" x="856.005859"/>
    <use xlink:href="#Helvetica-63" x="878.222656"/>
    <use xlink:href="#Helvetica-20" x="928.222656"/>
    <use xlink:href="#Helvetica-63" x="956.005859"/>
    <use xlink:href="#Helvetica-6f" x="1006.005859"/>
    <use xlink:href="#Helvetica-6e" x="1061.621094"/>
    <use xlink:href="#Helvetica-6e" x="1117.236328"/>
    <use xlink:href="#Helvetica-65" x="1172.851562"/>
    <use xlink:href="#Helvetica-63" x="1228.466797"/>
    <use xlink:href="#Helvetica-74" x="1278.466797"/>
    <use xlink:href="#Helvetica-69" x="1306.25"/>
    <use xlink:href="#Helvetica-6f" x="1328.466797"/>
    <use xlink:href="#Helvetica-6e" x="1384.082031"/>
    <use xlink:href="#Helvetica-73" x="1439.697266"/>
    <use xlink:href="#Helvetica-20" x="1489.697266"/>
    <use xlink:href="#Helvetica-69" x="1517.480469"/>
    <use xlink:href="#Helvetica-6e" x="1539.697266"/>
    <use xlink:href="#Helvetica-20" x="1595.3125"/>
    <use xlink:href="#Helvetica-48" x="1623.095703"/>
    <use xlink:href="#Helvetica-65" x="1695.3125"/>
    <use xlink:href="#Helvetica-6d" x="1750.927734"/>
    <use xlink:href="#Helvetica-69" x="1834.228516"/>
    <use xlink:href="#Helvetica-62" x="1856.445312"/>
    <use xlink:href="#Helvetica-72" x="1912.060547"/>
    <use xlink:href="#Helvetica-61" x="1945.361328"/>
    <use xlink:href="#Helvetica-69" x="2000.976562"/>
    <use xlink:href="#Helvetica-6e" x="2023.193359"/>
   </g>
  </g>
 </g>
</svg>
