<?xml version="1.0" encoding="utf-8" standalone="no"?>
<!DOCTYPE svg PUBLIC "-//W3C//DTD SVG 1.1//EN"
  "http://www.w3.org/Graphics/SVG/1.1/DTD/svg11.dtd">
<svg xmlns:xlink="http://www.w3.org/1999/xlink" width="489.891312pt" height="298.152pt" viewBox="0 0 489.891312 298.152" xmlns="http://www.w3.org/2000/svg" version="1.1">
 <metadata>
  <rdf:RDF xmlns:dc="http://purl.org/dc/elements/1.1/" xmlns:cc="http://creativecommons.org/ns#" xmlns:rdf="http://www.w3.org/1999/02/22-rdf-syntax-ns#">
   <cc:Work>
    <dc:type rdf:resource="http://purl.org/dc/dcmitype/StillImage"/>
    <dc:date>2024-10-03T18:30:32.264424</dc:date>
    <dc:format>image/svg+xml</dc:format>
    <dc:creator>
     <cc:Agent>
      <dc:title>Matplotlib v3.8.4, https://matplotlib.org/</dc:title>
     </cc:Agent>
    </dc:creator>
   </cc:Work>
  </rdf:RDF>
 </metadata>
 <defs>
  <style type="text/css">*{stroke-linejoin: round; stroke-linecap: butt}</style>
 </defs>
 <g id="figure_1">
  <g id="patch_1">
   <path d="M 0 298.152 
L 489.891312 298.152 
L 489.891312 0 
L 0 0 
z
" style="fill: #ffffff"/>
  </g>
  <g id="axes_1">
   <g id="patch_2">
    <path d="M 270.5998 157.896 
C 270.5998 141.098721 266.623816 124.537555 258.99801 109.57107 
C 251.372205 94.604585 240.310965 81.653538 226.72168 71.780345 
C 213.132396 61.907153 197.397106 55.389384 180.806629 52.761711 
C 164.216153 50.134039 147.236901 51.470336 131.26174 56.660982 
C 115.286579 61.851628 100.764622 70.750696 88.887153 82.628167 
C 77.009684 94.505638 68.110618 109.027597 62.919976 125.002759 
C 57.729333 140.977921 56.393039 157.957173 59.020714 174.547649 
C 61.64839 191.138125 68.166162 206.873414 78.039357 220.462697 
L 103.87405 201.692688 
C 96.962814 192.18019 92.400373 181.165488 90.561 169.552154 
C 88.721627 157.938821 89.657033 146.053345 93.290483 134.870731 
C 96.923933 123.688118 103.153279 113.522747 111.467507 105.208517 
C 119.781735 96.894287 129.947105 90.664939 141.129718 87.031487 
C 152.312331 83.398035 164.197807 82.462627 175.811141 84.301998 
C 187.424474 86.141369 198.439177 90.703807 207.951676 97.615042 
C 217.464175 104.526276 225.207044 113.59201 230.545107 124.068549 
C 235.883171 134.545089 238.66636 146.137905 238.66636 157.896 
z
" style="fill: #3f007d; stroke: #ffffff; stroke-linejoin: miter"/>
   </g>
   <g id="patch_3">
    <path d="M 78.039357 220.462697 
C 85.924926 231.316247 95.791762 240.58182 107.119037 247.770325 
C 118.446311 254.95883 131.031149 259.941518 144.209247 262.455373 
L 150.192973 231.087561 
C 140.968304 229.327862 132.158918 225.839981 124.229826 220.808028 
C 116.300733 215.776074 109.393948 209.290173 103.87405 201.692688 
z
" style="fill: #5b3596; stroke: #ffffff; stroke-linejoin: miter"/>
   </g>
   <g id="patch_4">
    <path d="M 144.209247 262.455373 
C 152.980304 264.12854 161.927141 264.691426 170.838738 264.130755 
C 179.750335 263.570083 188.556075 261.890298 197.048264 259.131017 
L 187.180285 228.760512 
C 181.235752 230.692008 175.071735 231.867858 168.833616 232.260328 
C 162.595498 232.652798 156.332713 232.258778 150.192973 231.087561 
z
" style="fill: #796eb2; stroke: #ffffff; stroke-linejoin: miter"/>
   </g>
   <g id="patch_5">
    <path d="M 197.048264 259.131017 
C 205.540454 256.371736 213.6518 252.554825 221.190986 247.770311 
C 228.730173 242.985796 235.637459 237.271591 241.749928 230.762471 
L 218.471449 208.90253 
C 214.192721 213.458914 209.357621 217.458857 204.080191 220.808017 
C 198.80276 224.157178 193.124818 226.829015 187.180285 228.760512 
z
" style="fill: #9e9ac8; stroke: #ffffff; stroke-linejoin: miter"/>
   </g>
   <g id="patch_6">
    <path d="M 241.749928 230.762471 
C 250.933624 220.982825 258.186219 209.554563 263.124876 197.080934 
C 268.063534 184.607305 270.599801 171.311718 270.5998 157.89599 
L 238.66636 157.895993 
C 238.666361 167.287003 236.890974 176.593914 233.433913 185.325454 
C 229.976853 194.056994 224.900037 202.056778 218.471449 208.90253 
z
" style="fill: #c6c7e1; stroke: #ffffff; stroke-linejoin: miter"/>
   </g>
   <g id="patch_7">
    <path d="M 238.66636 157.896 
C 238.66636 144.668873 235.144275 131.677257 228.463435 120.261335 
C 221.782594 108.845413 212.180905 99.411711 200.648855 92.933385 
L 185.008631 120.774506 
C 191.598374 124.476406 197.085054 129.867093 200.902677 136.390477 
C 204.7203 142.913861 206.73292 150.337642 206.73292 157.896 
z
" style="fill: #3f007d; stroke: #ffffff; stroke-linejoin: miter"/>
   </g>
   <g id="patch_8">
    <path d="M 200.648855 92.933385 
C 194.523775 89.492517 187.942723 86.935143 181.10144 85.337328 
C 174.260156 83.739512 167.227148 83.117254 160.211599 83.489062 
L 161.901628 115.37775 
C 165.910513 115.165288 169.929375 115.520864 173.83868 116.433901 
C 177.747984 117.346939 181.508586 118.808296 185.008631 120.774506 
z
" style="fill: #5b3596; stroke: #ffffff; stroke-linejoin: miter"/>
   </g>
   <g id="patch_9">
    <path d="M 160.211599 83.489062 
C 153.19605 83.860871 146.268211 85.223022 139.634138 87.535002 
C 133.000065 89.846981 126.72619 93.085637 120.999116 97.154643 
L 139.494495 123.186653 
C 142.767108 120.861507 146.35218 119.010846 150.143079 117.689715 
C 153.933978 116.368584 157.892743 115.590212 161.901628 115.37775 
z
" style="fill: #796eb2; stroke: #ffffff; stroke-linejoin: miter"/>
   </g>
   <g id="patch_10">
    <path d="M 120.999116 97.154643 
C 115.989869 100.713643 111.440061 104.878672 107.453433 109.554764 
C 103.466805 114.230856 100.073888 119.382199 97.352044 124.891337 
L 125.981882 139.036193 
C 127.537222 135.888114 129.476031 132.944489 131.754105 130.272437 
C 134.032178 127.600384 136.632068 125.220367 139.494495 123.186653 
z
" style="fill: #9e9ac8; stroke: #ffffff; stroke-linejoin: miter"/>
   </g>
   <g id="patch_11">
    <path d="M 97.352044 124.891337 
C 92.379889 134.955206 89.745598 146.013768 89.646541 157.238472 
C 89.547485 168.463175 91.9862 179.566506 96.779969 189.716558 
C 101.573738 199.866611 108.599771 208.803397 117.331649 215.857337 
C 126.063528 222.911278 136.277591 227.90169 147.208559 230.454672 
C 158.139527 233.007654 169.50741 233.057814 180.460481 230.601392 
C 191.413553 228.14497 201.671256 223.244887 210.465043 216.268277 
C 219.25883 209.291666 226.363452 200.41723 231.246605 190.309876 
C 236.129757 180.202522 238.666359 169.121144 238.66636 157.896003 
L 206.73292 157.896002 
C 206.73292 164.310368 205.283433 170.642584 202.49306 176.418215 
C 199.702687 182.193846 195.642903 187.264952 190.617882 191.251587 
C 185.592861 195.238221 179.731316 198.038269 173.472418 199.441938 
C 167.21352 200.845608 160.717587 200.816945 154.471319 199.358098 
C 148.225052 197.899251 142.388445 195.047587 137.3988 191.016764 
C 132.409155 186.985941 128.394279 181.879206 125.654982 176.079176 
C 122.915686 170.279146 121.522134 163.934386 121.578738 157.52027 
C 121.635342 151.106153 123.140651 144.786975 125.981882 139.036193 
z
" style="fill: #c6c7e1; stroke: #ffffff; stroke-linejoin: miter"/>
   </g>
   <g id="patch_12">
    <path d="M 206.73292 157.896 
C 206.73292 157.530524 206.728214 157.165063 206.718804 156.799707 
C 206.709394 156.434352 206.69528 156.069134 206.676466 155.704142 
L 174.785366 157.348035 
C 174.79007 157.439283 174.793598 157.530588 174.795951 157.621927 
C 174.798304 157.713266 174.79948 157.804631 174.79948 157.896 
z
" style="fill: #3f007d; stroke: #ffffff; stroke-linejoin: miter"/>
   </g>
   <g id="patch_13">
    <path d="M 206.676466 155.704142 
C 206.668402 155.547719 206.659476 155.391341 206.649687 155.235016 
C 206.639898 155.078691 206.629247 154.922422 206.617733 154.766215 
L 174.770683 157.113554 
C 174.773562 157.152605 174.776225 157.191673 174.778672 157.230754 
C 174.781119 157.269835 174.783351 157.30893 174.785366 157.348035 
z
" style="fill: #5b3596; stroke: #ffffff; stroke-linejoin: miter"/>
   </g>
   <g id="patch_14">
    <path d="M 206.617733 154.766215 
C 206.58703 154.349656 206.550199 153.933571 206.507252 153.518096 
C 206.464305 153.102621 206.415246 152.6878 206.360092 152.273769 
L 174.706273 156.490442 
C 174.720061 156.59395 174.732326 156.697655 174.743063 156.801524 
C 174.7538 156.905393 174.763008 157.009414 174.770683 157.113554 
z
" style="fill: #796eb2; stroke: #ffffff; stroke-linejoin: miter"/>
   </g>
   <g id="patch_15">
    <path d="M 206.360092 152.273769 
C 206.332515 152.066756 206.303416 151.859948 206.272796 151.653364 
C 206.242177 151.446779 206.210037 151.240422 206.176381 151.03431 
L 174.660345 156.180578 
C 174.668759 156.232106 174.676794 156.283695 174.684449 156.335341 
C 174.692104 156.386987 174.699379 156.438689 174.706273 156.490442 
z
" style="fill: #9e9ac8; stroke: #ffffff; stroke-linejoin: miter"/>
   </g>
   <g id="patch_16">
    <path d="M 206.176381 151.03431 
C 205.298667 145.659138 203.3977 140.501961 200.576795 135.843061 
C 197.755889 131.18416 194.06709 127.109493 189.710876 123.840509 
C 185.354662 120.571524 180.411405 118.168535 175.149759 116.762139 
C 169.888114 115.355742 164.405159 114.971886 158.998879 115.631432 
C 153.592599 116.290978 148.362742 117.981758 143.593537 120.611881 
C 138.824332 123.242005 134.603773 126.762945 131.161236 130.983349 
C 127.718699 135.203752 125.117701 140.045751 123.499598 145.246194 
C 121.881496 150.446637 121.276144 155.909575 121.716443 161.338111 
C 122.156741 166.766646 123.634566 172.060622 126.0696 176.932323 
C 128.504635 181.804024 131.851953 186.163566 135.929635 189.774019 
C 140.007318 193.384471 144.740131 196.179221 149.870857 198.006379 
C 155.001584 199.833538 160.435561 200.659394 165.877465 200.439065 
C 171.319369 200.218736 176.668795 198.956286 181.635016 196.720326 
C 186.601237 194.484367 191.092624 191.316152 194.865081 187.387866 
C 198.637539 183.459581 201.621464 178.843702 203.654687 173.791092 
C 205.687911 168.738483 206.73292 163.342363 206.73292 157.896001 
L 174.79948 157.896 
C 174.79948 159.257591 174.538228 160.606621 174.029922 161.869773 
C 173.521616 163.132925 172.775635 164.286895 171.83252 165.268967 
C 170.889406 166.251038 169.766559 167.043092 168.525004 167.602082 
C 167.283449 168.161071 165.946092 168.476684 164.585616 168.531766 
C 163.22514 168.586849 161.866646 168.380385 160.583964 167.923595 
C 159.301283 167.466805 158.118079 166.768118 157.098659 165.865505 
C 156.079238 164.962891 155.242409 163.873006 154.63365 162.655081 
C 154.024891 161.437156 153.655435 160.113662 153.545361 158.756528 
C 153.435286 157.399394 153.586624 156.033659 153.99115 154.733548 
C 154.395675 153.433438 155.045925 152.222938 155.906559 151.167837 
C 156.767193 150.112736 157.822333 149.232501 159.014634 148.57497 
C 160.206935 147.91744 161.5144 147.494745 162.86597 147.329858 
C 164.21754 147.164972 165.588279 147.260936 166.90369 147.612535 
C 168.219101 147.964134 169.454915 148.564881 170.543969 149.382127 
C 171.633023 150.199373 172.555222 151.21804 173.260449 152.382765 
C 173.965675 153.54749 174.440917 154.836784 174.660345 156.180578 
z
" style="fill: #c6c7e1; stroke: #ffffff; stroke-linejoin: miter"/>
   </g>
   <g id="matplotlib.axis_1"/>
   <g id="matplotlib.axis_2"/>
   <g id="text_1">
    <!-- weak -->
    <g transform="translate(184.833047 161.492496) rotate(-300) scale(0.14 -0.14)">
     <defs>
      <path id="Helvetica-77" d="M 672 3347 
L 1316 709 
L 1969 3347 
L 2600 3347 
L 3256 725 
L 3941 3347 
L 4503 3347 
L 3531 0 
L 2947 0 
L 2266 2591 
L 1606 0 
L 1022 0 
L 56 3347 
L 672 3347 
z
" transform="scale(0.015625)"/>
      <path id="Helvetica-65" d="M 1806 3422 
Q 2163 3422 2497 3255 
Q 2831 3088 3006 2822 
Q 3175 2569 3231 2231 
Q 3281 2000 3281 1494 
L 828 1494 
Q 844 984 1069 676 
Q 1294 369 1766 369 
Q 2206 369 2469 659 
Q 2619 828 2681 1050 
L 3234 1050 
Q 3213 866 3089 639 
Q 2966 413 2813 269 
Q 2556 19 2178 -69 
Q 1975 -119 1719 -119 
Q 1094 -119 659 336 
Q 225 791 225 1609 
Q 225 2416 662 2919 
Q 1100 3422 1806 3422 
z
M 2703 1941 
Q 2669 2306 2544 2525 
Q 2313 2931 1772 2931 
Q 1384 2931 1121 2651 
Q 859 2372 844 1941 
L 2703 1941 
z
M 1753 3428 
L 1753 3428 
z
" transform="scale(0.015625)"/>
      <path id="Helvetica-61" d="M 844 891 
Q 844 647 1022 506 
Q 1200 366 1444 366 
Q 1741 366 2019 503 
Q 2488 731 2488 1250 
L 2488 1703 
Q 2384 1638 2221 1594 
Q 2059 1550 1903 1531 
L 1563 1488 
Q 1256 1447 1103 1359 
Q 844 1213 844 891 
z
M 2206 2028 
Q 2400 2053 2466 2191 
Q 2503 2266 2503 2406 
Q 2503 2694 2298 2823 
Q 2094 2953 1713 2953 
Q 1272 2953 1088 2716 
Q 984 2584 953 2325 
L 428 2325 
Q 444 2944 830 3186 
Q 1216 3428 1725 3428 
Q 2316 3428 2684 3203 
Q 3050 2978 3050 2503 
L 3050 575 
Q 3050 488 3086 434 
Q 3122 381 3238 381 
Q 3275 381 3322 386 
Q 3369 391 3422 400 
L 3422 -16 
Q 3291 -53 3222 -62 
Q 3153 -72 3034 -72 
Q 2744 -72 2613 134 
Q 2544 244 2516 444 
Q 2344 219 2022 53 
Q 1700 -113 1313 -113 
Q 847 -113 551 170 
Q 256 453 256 878 
Q 256 1344 547 1600 
Q 838 1856 1309 1916 
L 2206 2028 
z
M 1741 3428 
L 1741 3428 
z
" transform="scale(0.015625)"/>
      <path id="Helvetica-6b" d="M 400 4591 
L 941 4591 
L 941 1925 
L 2384 3347 
L 3103 3347 
L 1822 2094 
L 3175 0 
L 2456 0 
L 1413 1688 
L 941 1256 
L 941 0 
L 400 0 
L 400 4591 
z
" transform="scale(0.015625)"/>
     </defs>
     <use xlink:href="#Helvetica-77"/>
     <use xlink:href="#Helvetica-65" x="72.216797"/>
     <use xlink:href="#Helvetica-61" x="127.832031"/>
     <use xlink:href="#Helvetica-6b" x="183.447266"/>
    </g>
   </g>
   <g id="text_2">
    <!-- medium -->
    <g transform="translate(212.489378 159.406565) rotate(-300) scale(0.14 -0.14)">
     <defs>
      <path id="Helvetica-6d" d="M 413 3347 
L 969 3347 
L 969 2872 
Q 1169 3119 1331 3231 
Q 1609 3422 1963 3422 
Q 2363 3422 2606 3225 
Q 2744 3113 2856 2894 
Q 3044 3163 3297 3292 
Q 3550 3422 3866 3422 
Q 4541 3422 4784 2934 
Q 4916 2672 4916 2228 
L 4916 0 
L 4331 0 
L 4331 2325 
Q 4331 2659 4164 2784 
Q 3997 2909 3756 2909 
Q 3425 2909 3186 2687 
Q 2947 2466 2947 1947 
L 2947 0 
L 2375 0 
L 2375 2184 
Q 2375 2525 2294 2681 
Q 2166 2916 1816 2916 
Q 1497 2916 1236 2669 
Q 975 2422 975 1775 
L 975 0 
L 413 0 
L 413 3347 
z
" transform="scale(0.015625)"/>
      <path id="Helvetica-64" d="M 769 1634 
Q 769 1097 997 734 
Q 1225 372 1728 372 
Q 2119 372 2370 708 
Q 2622 1044 2622 1672 
Q 2622 2306 2362 2611 
Q 2103 2916 1722 2916 
Q 1297 2916 1033 2591 
Q 769 2266 769 1634 
z
M 1616 3406 
Q 2000 3406 2259 3244 
Q 2409 3150 2600 2916 
L 2600 4606 
L 3141 4606 
L 3141 0 
L 2634 0 
L 2634 466 
Q 2438 156 2169 18 
Q 1900 -119 1553 -119 
Q 994 -119 584 351 
Q 175 822 175 1603 
Q 175 2334 548 2870 
Q 922 3406 1616 3406 
z
" transform="scale(0.015625)"/>
      <path id="Helvetica-69" d="M 413 3331 
L 984 3331 
L 984 0 
L 413 0 
L 413 3331 
z
M 413 4591 
L 984 4591 
L 984 3953 
L 413 3953 
L 413 4591 
z
" transform="scale(0.015625)"/>
      <path id="Helvetica-75" d="M 975 3347 
L 975 1125 
Q 975 869 1056 706 
Q 1206 406 1616 406 
Q 2203 406 2416 931 
Q 2531 1213 2531 1703 
L 2531 3347 
L 3094 3347 
L 3094 0 
L 2563 0 
L 2569 494 
Q 2459 303 2297 172 
Q 1975 -91 1516 -91 
Q 800 -91 541 388 
Q 400 644 400 1072 
L 400 3347 
L 975 3347 
z
M 1747 3428 
L 1747 3428 
z
" transform="scale(0.015625)"/>
     </defs>
     <use xlink:href="#Helvetica-6d"/>
     <use xlink:href="#Helvetica-65" x="83.300781"/>
     <use xlink:href="#Helvetica-64" x="138.916016"/>
     <use xlink:href="#Helvetica-69" x="194.53125"/>
     <use xlink:href="#Helvetica-75" x="216.748047"/>
     <use xlink:href="#Helvetica-6d" x="272.363281"/>
    </g>
   </g>
   <g id="text_3">
    <!-- strong -->
    <g transform="translate(247.298864 158.707033) rotate(-300) scale(0.14 -0.14)">
     <defs>
      <path id="Helvetica-73" d="M 747 1050 
Q 772 769 888 619 
Q 1100 347 1625 347 
Q 1938 347 2175 483 
Q 2413 619 2413 903 
Q 2413 1119 2222 1231 
Q 2100 1300 1741 1391 
L 1294 1503 
Q 866 1609 663 1741 
Q 300 1969 300 2372 
Q 300 2847 642 3140 
Q 984 3434 1563 3434 
Q 2319 3434 2653 2991 
Q 2863 2709 2856 2384 
L 2325 2384 
Q 2309 2575 2191 2731 
Q 1997 2953 1519 2953 
Q 1200 2953 1036 2831 
Q 872 2709 872 2509 
Q 872 2291 1088 2159 
Q 1213 2081 1456 2022 
L 1828 1931 
Q 2434 1784 2641 1647 
Q 2969 1431 2969 969 
Q 2969 522 2630 197 
Q 2291 -128 1597 -128 
Q 850 -128 539 211 
Q 228 550 206 1050 
L 747 1050 
z
M 1578 3428 
L 1578 3428 
z
" transform="scale(0.015625)"/>
      <path id="Helvetica-74" d="M 525 4281 
L 1094 4281 
L 1094 3347 
L 1628 3347 
L 1628 2888 
L 1094 2888 
L 1094 703 
Q 1094 528 1213 469 
Q 1278 434 1431 434 
Q 1472 434 1519 436 
Q 1566 438 1628 444 
L 1628 0 
Q 1531 -28 1426 -40 
Q 1322 -53 1200 -53 
Q 806 -53 665 148 
Q 525 350 525 672 
L 525 2888 
L 72 2888 
L 72 3347 
L 525 3347 
L 525 4281 
z
" transform="scale(0.015625)"/>
      <path id="Helvetica-72" d="M 428 3347 
L 963 3347 
L 963 2769 
Q 1028 2938 1284 3180 
Q 1541 3422 1875 3422 
Q 1891 3422 1928 3419 
Q 1966 3416 2056 3406 
L 2056 2813 
Q 2006 2822 1964 2825 
Q 1922 2828 1872 2828 
Q 1447 2828 1219 2554 
Q 991 2281 991 1925 
L 991 0 
L 428 0 
L 428 3347 
z
" transform="scale(0.015625)"/>
      <path id="Helvetica-6f" d="M 1741 363 
Q 2300 363 2508 786 
Q 2716 1209 2716 1728 
Q 2716 2197 2566 2491 
Q 2328 2953 1747 2953 
Q 1231 2953 997 2559 
Q 763 2166 763 1609 
Q 763 1075 997 719 
Q 1231 363 1741 363 
z
M 1763 3444 
Q 2409 3444 2856 3012 
Q 3303 2581 3303 1744 
Q 3303 934 2909 406 
Q 2516 -122 1688 -122 
Q 997 -122 590 345 
Q 184 813 184 1600 
Q 184 2444 612 2944 
Q 1041 3444 1763 3444 
z
M 1744 3428 
L 1744 3428 
z
" transform="scale(0.015625)"/>
      <path id="Helvetica-6e" d="M 413 3347 
L 947 3347 
L 947 2872 
Q 1184 3166 1450 3294 
Q 1716 3422 2041 3422 
Q 2753 3422 3003 2925 
Q 3141 2653 3141 2147 
L 3141 0 
L 2569 0 
L 2569 2109 
Q 2569 2416 2478 2603 
Q 2328 2916 1934 2916 
Q 1734 2916 1606 2875 
Q 1375 2806 1200 2600 
Q 1059 2434 1017 2257 
Q 975 2081 975 1753 
L 975 0 
L 413 0 
L 413 3347 
z
M 1734 3428 
L 1734 3428 
z
" transform="scale(0.015625)"/>
      <path id="Helvetica-67" d="M 1594 3406 
Q 1988 3406 2281 3213 
Q 2441 3103 2606 2894 
L 2606 3316 
L 3125 3316 
L 3125 272 
Q 3125 -366 2938 -734 
Q 2588 -1416 1616 -1416 
Q 1075 -1416 706 -1173 
Q 338 -931 294 -416 
L 866 -416 
Q 906 -641 1028 -763 
Q 1219 -950 1628 -950 
Q 2275 -950 2475 -494 
Q 2594 -225 2584 466 
Q 2416 209 2178 84 
Q 1941 -41 1550 -41 
Q 1006 -41 598 345 
Q 191 731 191 1622 
Q 191 2463 602 2934 
Q 1013 3406 1594 3406 
z
M 2606 1688 
Q 2606 2309 2350 2609 
Q 2094 2909 1697 2909 
Q 1103 2909 884 2353 
Q 769 2056 769 1575 
Q 769 1009 998 714 
Q 1228 419 1616 419 
Q 2222 419 2469 966 
Q 2606 1275 2606 1688 
z
M 1659 3428 
L 1659 3428 
z
" transform="scale(0.015625)"/>
     </defs>
     <use xlink:href="#Helvetica-73"/>
     <use xlink:href="#Helvetica-74" x="50"/>
     <use xlink:href="#Helvetica-72" x="77.783203"/>
     <use xlink:href="#Helvetica-6f" x="111.083984"/>
     <use xlink:href="#Helvetica-6e" x="166.699219"/>
     <use xlink:href="#Helvetica-67" x="222.314453"/>
    </g>
   </g>
   <g id="text_4">
    <!-- Primacy of outputs to oviIN by input strength -->
    <g transform="translate(7.2 18.84) scale(0.16 -0.16)">
     <defs>
      <path id="Helvetica-50" d="M 547 4591 
L 2613 4591 
Q 3225 4591 3600 4245 
Q 3975 3900 3975 3275 
Q 3975 2738 3640 2339 
Q 3306 1941 2613 1941 
L 1169 1941 
L 1169 0 
L 547 0 
L 547 4591 
z
M 3347 3272 
Q 3347 3778 2972 3959 
Q 2766 4056 2406 4056 
L 1169 4056 
L 1169 2466 
L 2406 2466 
Q 2825 2466 3086 2644 
Q 3347 2822 3347 3272 
z
" transform="scale(0.015625)"/>
      <path id="Helvetica-63" d="M 1703 3444 
Q 2269 3444 2623 3169 
Q 2978 2894 3050 2222 
L 2503 2222 
Q 2453 2531 2275 2736 
Q 2097 2941 1703 2941 
Q 1166 2941 934 2416 
Q 784 2075 784 1575 
Q 784 1072 996 728 
Q 1209 384 1666 384 
Q 2016 384 2220 598 
Q 2425 813 2503 1184 
L 3050 1184 
Q 2956 519 2581 211 
Q 2206 -97 1622 -97 
Q 966 -97 575 383 
Q 184 863 184 1581 
Q 184 2463 612 2953 
Q 1041 3444 1703 3444 
z
M 1616 3428 
L 1616 3428 
z
" transform="scale(0.015625)"/>
      <path id="Helvetica-79" d="M 2503 3347 
L 3125 3347 
Q 3006 3025 2597 1878 
Q 2291 1016 2084 472 
Q 1597 -809 1397 -1090 
Q 1197 -1372 709 -1372 
Q 591 -1372 527 -1362 
Q 463 -1353 369 -1328 
L 369 -816 
Q 516 -856 581 -865 
Q 647 -875 697 -875 
Q 853 -875 926 -823 
Q 1000 -772 1050 -697 
Q 1066 -672 1162 -440 
Q 1259 -209 1303 -97 
L 66 3347 
L 703 3347 
L 1600 622 
L 2503 3347 
z
M 1597 3428 
L 1597 3428 
z
" transform="scale(0.015625)"/>
      <path id="Helvetica-20" transform="scale(0.015625)"/>
      <path id="Helvetica-66" d="M 553 3856 
Q 566 4206 675 4369 
Q 872 4656 1434 4656 
Q 1488 4656 1544 4653 
Q 1600 4650 1672 4644 
L 1672 4131 
Q 1584 4138 1545 4139 
Q 1506 4141 1472 4141 
Q 1216 4141 1166 4008 
Q 1116 3875 1116 3331 
L 1672 3331 
L 1672 2888 
L 1109 2888 
L 1109 0 
L 553 0 
L 553 2888 
L 88 2888 
L 88 3331 
L 553 3331 
L 553 3856 
z
" transform="scale(0.015625)"/>
      <path id="Helvetica-70" d="M 1825 378 
Q 2219 378 2480 708 
Q 2741 1038 2741 1694 
Q 2741 2094 2625 2381 
Q 2406 2934 1825 2934 
Q 1241 2934 1025 2350 
Q 909 2038 909 1556 
Q 909 1169 1025 897 
Q 1244 378 1825 378 
z
M 369 3331 
L 916 3331 
L 916 2888 
Q 1084 3116 1284 3241 
Q 1569 3428 1953 3428 
Q 2522 3428 2919 2992 
Q 3316 2556 3316 1747 
Q 3316 653 2744 184 
Q 2381 -113 1900 -113 
Q 1522 -113 1266 53 
Q 1116 147 931 375 
L 931 -1334 
L 369 -1334 
L 369 3331 
z
" transform="scale(0.015625)"/>
      <path id="Helvetica-76" d="M 688 3347 
L 1581 622 
L 2516 3347 
L 3131 3347 
L 1869 0 
L 1269 0 
L 34 3347 
L 688 3347 
z
" transform="scale(0.015625)"/>
      <path id="Helvetica-49" d="M 628 4591 
L 1256 4591 
L 1256 0 
L 628 0 
L 628 4591 
z
" transform="scale(0.015625)"/>
      <path id="Helvetica-4e" d="M 488 4591 
L 1222 4591 
L 3541 872 
L 3541 4591 
L 4131 4591 
L 4131 0 
L 3434 0 
L 1081 3716 
L 1081 0 
L 488 0 
L 488 4591 
z
M 2269 4591 
L 2269 4591 
z
" transform="scale(0.015625)"/>
      <path id="Helvetica-62" d="M 369 4606 
L 916 4606 
L 916 2941 
Q 1100 3181 1356 3307 
Q 1613 3434 1913 3434 
Q 2538 3434 2927 3004 
Q 3316 2575 3316 1738 
Q 3316 944 2931 419 
Q 2547 -106 1866 -106 
Q 1484 -106 1222 78 
Q 1066 188 888 428 
L 888 0 
L 369 0 
L 369 4606 
z
M 1831 391 
Q 2288 391 2514 753 
Q 2741 1116 2741 1709 
Q 2741 2238 2514 2584 
Q 2288 2931 1847 2931 
Q 1463 2931 1173 2647 
Q 884 2363 884 1709 
Q 884 1238 1003 944 
Q 1225 391 1831 391 
z
" transform="scale(0.015625)"/>
      <path id="Helvetica-68" d="M 413 4606 
L 975 4606 
L 975 2894 
Q 1175 3147 1334 3250 
Q 1606 3428 2013 3428 
Q 2741 3428 3000 2919 
Q 3141 2641 3141 2147 
L 3141 0 
L 2563 0 
L 2563 2109 
Q 2563 2478 2469 2650 
Q 2316 2925 1894 2925 
Q 1544 2925 1259 2684 
Q 975 2444 975 1775 
L 975 0 
L 413 0 
L 413 4606 
z
" transform="scale(0.015625)"/>
     </defs>
     <use xlink:href="#Helvetica-50"/>
     <use xlink:href="#Helvetica-72" x="66.699219"/>
     <use xlink:href="#Helvetica-69" x="100"/>
     <use xlink:href="#Helvetica-6d" x="122.216797"/>
     <use xlink:href="#Helvetica-61" x="205.517578"/>
     <use xlink:href="#Helvetica-63" x="261.132812"/>
     <use xlink:href="#Helvetica-79" x="311.132812"/>
     <use xlink:href="#Helvetica-20" x="361.132812"/>
     <use xlink:href="#Helvetica-6f" x="388.916016"/>
     <use xlink:href="#Helvetica-66" x="444.53125"/>
     <use xlink:href="#Helvetica-20" x="472.314453"/>
     <use xlink:href="#Helvetica-6f" x="500.097656"/>
     <use xlink:href="#Helvetica-75" x="555.712891"/>
     <use xlink:href="#Helvetica-74" x="611.328125"/>
     <use xlink:href="#Helvetica-70" x="639.111328"/>
     <use xlink:href="#Helvetica-75" x="694.726562"/>
     <use xlink:href="#Helvetica-74" x="750.341797"/>
     <use xlink:href="#Helvetica-73" x="778.125"/>
     <use xlink:href="#Helvetica-20" x="828.125"/>
     <use xlink:href="#Helvetica-74" x="855.908203"/>
     <use xlink:href="#Helvetica-6f" x="883.691406"/>
     <use xlink:href="#Helvetica-20" x="939.306641"/>
     <use xlink:href="#Helvetica-6f" x="967.089844"/>
     <use xlink:href="#Helvetica-76" x="1022.705078"/>
     <use xlink:href="#Helvetica-69" x="1072.705078"/>
     <use xlink:href="#Helvetica-49" x="1094.921875"/>
     <use xlink:href="#Helvetica-4e" x="1122.705078"/>
     <use xlink:href="#Helvetica-20" x="1194.921875"/>
     <use xlink:href="#Helvetica-62" x="1222.705078"/>
     <use xlink:href="#Helvetica-79" x="1278.320312"/>
     <use xlink:href="#Helvetica-20" x="1328.320312"/>
     <use xlink:href="#Helvetica-69" x="1356.103516"/>
     <use xlink:href="#Helvetica-6e" x="1378.320312"/>
     <use xlink:href="#Helvetica-70" x="1433.935547"/>
     <use xlink:href="#Helvetica-75" x="1489.550781"/>
     <use xlink:href="#Helvetica-74" x="1545.166016"/>
     <use xlink:href="#Helvetica-20" x="1572.949219"/>
     <use xlink:href="#Helvetica-73" x="1600.732422"/>
     <use xlink:href="#Helvetica-74" x="1650.732422"/>
     <use xlink:href="#Helvetica-72" x="1678.515625"/>
     <use xlink:href="#Helvetica-65" x="1711.816406"/>
     <use xlink:href="#Helvetica-6e" x="1767.431641"/>
     <use xlink:href="#Helvetica-67" x="1823.046875"/>
     <use xlink:href="#Helvetica-74" x="1878.662109"/>
     <use xlink:href="#Helvetica-68" x="1906.445312"/>
    </g>
   </g>
   <g id="legend_1">
    <g id="patch_17">
     <path d="M 307.011 220.215687 
L 479.891313 220.215687 
Q 482.691313 220.215687 482.691313 217.415687 
L 482.691313 98.376312 
Q 482.691313 95.576312 479.891313 95.576312 
L 307.011 95.576312 
Q 304.211 95.576312 304.211 98.376312 
L 304.211 217.415687 
Q 304.211 220.215687 307.011 220.215687 
z
" style="fill: #ffffff; opacity: 0.8; stroke: #cccccc; stroke-linejoin: miter"/>
    </g>
    <g id="text_5">
     <!-- Primacy of outputs to oviIN -->
     <g transform="translate(309.811 111.361312) scale(0.14 -0.14)">
      <use xlink:href="#Helvetica-50"/>
      <use xlink:href="#Helvetica-72" x="66.699219"/>
      <use xlink:href="#Helvetica-69" x="100"/>
      <use xlink:href="#Helvetica-6d" x="122.216797"/>
      <use xlink:href="#Helvetica-61" x="205.517578"/>
      <use xlink:href="#Helvetica-63" x="261.132812"/>
      <use xlink:href="#Helvetica-79" x="311.132812"/>
      <use xlink:href="#Helvetica-20" x="361.132812"/>
      <use xlink:href="#Helvetica-6f" x="388.916016"/>
      <use xlink:href="#Helvetica-66" x="444.53125"/>
      <use xlink:href="#Helvetica-20" x="472.314453"/>
      <use xlink:href="#Helvetica-6f" x="500.097656"/>
      <use xlink:href="#Helvetica-75" x="555.712891"/>
      <use xlink:href="#Helvetica-74" x="611.328125"/>
      <use xlink:href="#Helvetica-70" x="639.111328"/>
      <use xlink:href="#Helvetica-75" x="694.726562"/>
      <use xlink:href="#Helvetica-74" x="750.341797"/>
      <use xlink:href="#Helvetica-73" x="778.125"/>
      <use xlink:href="#Helvetica-20" x="828.125"/>
      <use xlink:href="#Helvetica-74" x="855.908203"/>
      <use xlink:href="#Helvetica-6f" x="883.691406"/>
      <use xlink:href="#Helvetica-20" x="939.306641"/>
      <use xlink:href="#Helvetica-6f" x="967.089844"/>
      <use xlink:href="#Helvetica-76" x="1022.705078"/>
      <use xlink:href="#Helvetica-69" x="1072.705078"/>
      <use xlink:href="#Helvetica-49" x="1094.921875"/>
      <use xlink:href="#Helvetica-4e" x="1122.705078"/>
     </g>
    </g>
    <g id="patch_18">
     <path d="M 340.388969 131.405375 
L 368.388969 131.405375 
L 368.388969 121.605375 
L 340.388969 121.605375 
z
" style="fill: #3f007d; stroke: #ffffff; stroke-linejoin: miter"/>
    </g>
    <g id="text_6">
     <!-- primary -->
     <g transform="translate(379.588969 131.405375) scale(0.14 -0.14)">
      <use xlink:href="#Helvetica-70"/>
      <use xlink:href="#Helvetica-72" x="55.615234"/>
      <use xlink:href="#Helvetica-69" x="88.916016"/>
      <use xlink:href="#Helvetica-6d" x="111.132812"/>
      <use xlink:href="#Helvetica-61" x="194.433594"/>
      <use xlink:href="#Helvetica-72" x="250.048828"/>
      <use xlink:href="#Helvetica-79" x="283.349609"/>
     </g>
    </g>
    <g id="patch_19">
     <path d="M 340.388969 151.48225 
L 368.388969 151.48225 
L 368.388969 141.68225 
L 340.388969 141.68225 
z
" style="fill: #5b3596; stroke: #ffffff; stroke-linejoin: miter"/>
    </g>
    <g id="text_7">
     <!-- secondary -->
     <g transform="translate(379.588969 151.48225) scale(0.14 -0.14)">
      <use xlink:href="#Helvetica-73"/>
      <use xlink:href="#Helvetica-65" x="50"/>
      <use xlink:href="#Helvetica-63" x="105.615234"/>
      <use xlink:href="#Helvetica-6f" x="155.615234"/>
      <use xlink:href="#Helvetica-6e" x="211.230469"/>
      <use xlink:href="#Helvetica-64" x="266.845703"/>
      <use xlink:href="#Helvetica-61" x="322.460938"/>
      <use xlink:href="#Helvetica-72" x="378.076172"/>
      <use xlink:href="#Helvetica-79" x="411.376953"/>
     </g>
    </g>
    <g id="patch_20">
     <path d="M 340.388969 171.526312 
L 368.388969 171.526312 
L 368.388969 161.726312 
L 340.388969 161.726312 
z
" style="fill: #796eb2; stroke: #ffffff; stroke-linejoin: miter"/>
    </g>
    <g id="text_8">
     <!-- tertiary -->
     <g transform="translate(379.588969 171.526312) scale(0.14 -0.14)">
      <use xlink:href="#Helvetica-74"/>
      <use xlink:href="#Helvetica-65" x="27.783203"/>
      <use xlink:href="#Helvetica-72" x="83.398438"/>
      <use xlink:href="#Helvetica-74" x="116.699219"/>
      <use xlink:href="#Helvetica-69" x="144.482422"/>
      <use xlink:href="#Helvetica-61" x="166.699219"/>
      <use xlink:href="#Helvetica-72" x="222.314453"/>
      <use xlink:href="#Helvetica-79" x="255.615234"/>
     </g>
    </g>
    <g id="patch_21">
     <path d="M 340.388969 191.570375 
L 368.388969 191.570375 
L 368.388969 181.770375 
L 340.388969 181.770375 
z
" style="fill: #9e9ac8; stroke: #ffffff; stroke-linejoin: miter"/>
    </g>
    <g id="text_9">
     <!-- quaternary -->
     <g transform="translate(379.588969 191.570375) scale(0.14 -0.14)">
      <defs>
       <path id="Helvetica-71" d="M 775 1628 
Q 775 1194 897 900 
Q 1113 378 1669 378 
Q 2256 378 2478 928 
Q 2600 1231 2600 1703 
Q 2600 2138 2466 2428 
Q 2238 2925 1663 2925 
Q 1297 2925 1036 2608 
Q 775 2291 775 1628 
z
M 1606 3422 
Q 2022 3422 2306 3213 
Q 2463 3100 2606 2881 
L 2606 3347 
L 3141 3347 
L 3141 -1334 
L 2575 -1334 
L 2575 384 
Q 2434 159 2186 26 
Q 1938 -106 1566 -106 
Q 1031 -106 609 312 
Q 188 731 188 1588 
Q 188 2391 583 2906 
Q 978 3422 1606 3422 
z
" transform="scale(0.015625)"/>
      </defs>
      <use xlink:href="#Helvetica-71"/>
      <use xlink:href="#Helvetica-75" x="55.615234"/>
      <use xlink:href="#Helvetica-61" x="111.230469"/>
      <use xlink:href="#Helvetica-74" x="166.845703"/>
      <use xlink:href="#Helvetica-65" x="194.628906"/>
      <use xlink:href="#Helvetica-72" x="250.244141"/>
      <use xlink:href="#Helvetica-6e" x="283.544922"/>
      <use xlink:href="#Helvetica-61" x="339.160156"/>
      <use xlink:href="#Helvetica-72" x="394.775391"/>
      <use xlink:href="#Helvetica-79" x="428.076172"/>
     </g>
    </g>
    <g id="patch_22">
     <path d="M 340.388969 211.614437 
L 368.388969 211.614437 
L 368.388969 201.814437 
L 340.388969 201.814437 
z
" style="fill: #c6c7e1; stroke: #ffffff; stroke-linejoin: miter"/>
    </g>
    <g id="text_10">
     <!-- quinary+ -->
     <g transform="translate(379.588969 211.614437) scale(0.14 -0.14)">
      <defs>
       <path id="Helvetica-2b" d="M 288 1369 
L 288 1894 
L 1650 1894 
L 1650 3266 
L 2184 3266 
L 2184 1894 
L 3547 1894 
L 3547 1369 
L 2184 1369 
L 2184 0 
L 1650 0 
L 1650 1369 
L 288 1369 
z
" transform="scale(0.015625)"/>
      </defs>
      <use xlink:href="#Helvetica-71"/>
      <use xlink:href="#Helvetica-75" x="55.615234"/>
      <use xlink:href="#Helvetica-69" x="111.230469"/>
      <use xlink:href="#Helvetica-6e" x="133.447266"/>
      <use xlink:href="#Helvetica-61" x="189.0625"/>
      <use xlink:href="#Helvetica-72" x="244.677734"/>
      <use xlink:href="#Helvetica-79" x="277.978516"/>
      <use xlink:href="#Helvetica-2b" x="327.978516"/>
     </g>
    </g>
   </g>
  </g>
 </g>
</svg>
