<?xml version="1.0" encoding="utf-8" standalone="no"?>
<!DOCTYPE svg PUBLIC "-//W3C//DTD SVG 1.1//EN"
  "http://www.w3.org/Graphics/SVG/1.1/DTD/svg11.dtd">
<svg xmlns:xlink="http://www.w3.org/1999/xlink" width="1080pt" height="720pt" viewBox="0 0 1080 720" xmlns="http://www.w3.org/2000/svg" version="1.1">
 <metadata>
  <rdf:RDF xmlns:dc="http://purl.org/dc/elements/1.1/" xmlns:cc="http://creativecommons.org/ns#" xmlns:rdf="http://www.w3.org/1999/02/22-rdf-syntax-ns#">
   <cc:Work>
    <dc:type rdf:resource="http://purl.org/dc/dcmitype/StillImage"/>
    <dc:date>2024-09-25T16:15:05.225196</dc:date>
    <dc:format>image/svg+xml</dc:format>
    <dc:creator>
     <cc:Agent>
      <dc:title>Matplotlib v3.8.4, https://matplotlib.org/</dc:title>
     </cc:Agent>
    </dc:creator>
   </cc:Work>
  </rdf:RDF>
 </metadata>
 <defs>
  <style type="text/css">*{stroke-linejoin: round; stroke-linecap: butt}</style>
 </defs>
 <g id="figure_1">
  <g id="patch_1">
   <path d="M 0 720 
L 1080 720 
L 1080 0 
L 0 0 
z
" style="fill: #ffffff"/>
  </g>
  <g id="axes_1">
   <g id="patch_2">
    <path d="M 295.121739 212.4 
C 295.121739 204.379371 293.726152 196.419566 290.997529 188.877344 
C 288.268906 181.335123 284.248631 174.324876 279.116894 168.160806 
C 273.985157 161.996736 267.819789 156.772331 260.897125 152.72175 
C 253.97446 148.671169 246.399493 145.855847 238.511736 144.401966 
C 230.623978 142.948086 222.543061 142.877698 214.631175 144.193958 
C 206.719288 145.510217 199.096429 148.193161 192.104256 152.122538 
C 185.112084 156.051915 178.856645 161.168131 173.618312 167.241874 
C 168.379979 173.315617 164.238199 180.254769 161.378609 187.748315 
C 158.519019 195.241861 156.984989 203.176148 156.845274 211.19556 
C 156.705559 219.214972 157.962279 227.19788 160.559107 234.786488 
C 163.155935 242.375096 167.053485 249.45431 172.077069 255.706837 
C 177.100653 261.959364 183.174079 267.290373 190.025134 271.460928 
C 196.876189 275.631484 204.400966 278.57833 212.262201 280.16939 
C 220.123436 281.760451 228.2019 281.971593 236.135515 280.793353 
C 244.069129 279.615114 251.737567 277.065363 258.797127 273.258382 
C 265.856686 269.4514 272.200297 264.444927 277.543636 258.463355 
L 225.978261 212.4 
z
" style="fill: #6495ed"/>
   </g>
   <g id="patch_3">
    <path d="M 277.543636 258.463355 
C 280.664719 254.969475 283.422639 251.167414 285.774855 247.115817 
C 288.12707 243.064221 290.061426 238.784027 291.548085 234.341258 
L 225.978261 212.4 
z
" style="fill: #008000"/>
   </g>
   <g id="patch_4">
    <path d="M 291.548085 234.341258 
C 292.686001 230.940678 293.557654 227.456724 294.155153 223.920937 
C 294.752651 220.38515 295.074186 216.808234 295.116846 213.222572 
L 225.978261 212.4 
z
" style="fill: #b22222"/>
   </g>
   <g id="patch_5">
    <path d="M 295.116846 213.222572 
C 295.118011 213.124652 295.118968 213.02673 295.119717 212.928806 
C 295.120466 212.830883 295.121007 212.732957 295.12134 212.635031 
L 225.978261 212.4 
z
"/>
   </g>
   <g id="patch_6">
    <path d="M 295.12134 212.635031 
C 295.121473 212.595861 295.121573 212.556691 295.121639 212.51752 
C 295.121706 212.478349 295.121739 212.439179 295.121739 212.400008 
L 225.978261 212.4 
z
" style="fill: #8a2be2"/>
   </g>
   <g id="matplotlib.axis_1"/>
   <g id="matplotlib.axis_2"/>
   <g id="text_1">
    <!-- SNP -->
    <g transform="translate(122.018644 189.354396) scale(0.16 -0.16)">
     <defs>
      <path id="Helvetica-53" d="M 894 1481 
Q 916 1091 1078 847 
Q 1388 391 2169 391 
Q 2519 391 2806 491 
Q 3363 684 3363 1184 
Q 3363 1559 3128 1719 
Q 2891 1875 2384 1991 
L 1763 2131 
Q 1153 2269 900 2434 
Q 463 2722 463 3294 
Q 463 3913 891 4309 
Q 1319 4706 2103 4706 
Q 2825 4706 3329 4357 
Q 3834 4009 3834 3244 
L 3250 3244 
Q 3203 3613 3050 3809 
Q 2766 4169 2084 4169 
Q 1534 4169 1293 3937 
Q 1053 3706 1053 3400 
Q 1053 3063 1334 2906 
Q 1519 2806 2169 2656 
L 2813 2509 
Q 3278 2403 3531 2219 
Q 3969 1897 3969 1284 
Q 3969 522 3414 194 
Q 2859 -134 2125 -134 
Q 1269 -134 784 303 
Q 300 738 309 1481 
L 894 1481 
z
M 2150 4716 
L 2150 4716 
z
" transform="scale(0.015625)"/>
      <path id="Helvetica-4e" d="M 488 4591 
L 1222 4591 
L 3541 872 
L 3541 4591 
L 4131 4591 
L 4131 0 
L 3434 0 
L 1081 3716 
L 1081 0 
L 488 0 
L 488 4591 
z
M 2269 4591 
L 2269 4591 
z
" transform="scale(0.015625)"/>
      <path id="Helvetica-50" d="M 547 4591 
L 2613 4591 
Q 3225 4591 3600 4245 
Q 3975 3900 3975 3275 
Q 3975 2738 3640 2339 
Q 3306 1941 2613 1941 
L 1169 1941 
L 1169 0 
L 547 0 
L 547 4591 
z
M 3347 3272 
Q 3347 3778 2972 3959 
Q 2766 4056 2406 4056 
L 1169 4056 
L 1169 2466 
L 2406 2466 
Q 2825 2466 3086 2644 
Q 3347 2822 3347 3272 
z
" transform="scale(0.015625)"/>
     </defs>
     <use xlink:href="#Helvetica-53"/>
     <use xlink:href="#Helvetica-4e" x="66.699219"/>
     <use xlink:href="#Helvetica-50" x="138.916016"/>
    </g>
   </g>
   <g id="text_2">
    <!-- 88.4% -->
    <g transform="translate(164.53597 201.680239) scale(0.16 -0.16)">
     <defs>
      <path id="Helvetica-38" d="M 1741 2600 
Q 2113 2600 2322 2808 
Q 2531 3016 2531 3303 
Q 2531 3553 2331 3762 
Q 2131 3972 1722 3972 
Q 1316 3972 1134 3762 
Q 953 3553 953 3272 
Q 953 2956 1187 2778 
Q 1422 2600 1741 2600 
z
M 1775 384 
Q 2166 384 2423 595 
Q 2681 806 2681 1225 
Q 2681 1659 2415 1884 
Q 2150 2109 1734 2109 
Q 1331 2109 1076 1879 
Q 822 1650 822 1244 
Q 822 894 1055 639 
Q 1288 384 1775 384 
z
M 975 2384 
Q 741 2484 609 2619 
Q 363 2869 363 3269 
Q 363 3769 725 4128 
Q 1088 4488 1753 4488 
Q 2397 4488 2762 4148 
Q 3128 3809 3128 3356 
Q 3128 2938 2916 2678 
Q 2797 2531 2547 2391 
Q 2825 2263 2984 2097 
Q 3281 1784 3281 1284 
Q 3281 694 2884 283 
Q 2488 -128 1763 -128 
Q 1109 -128 657 226 
Q 206 581 206 1256 
Q 206 1653 400 1942 
Q 594 2231 975 2384 
z
" transform="scale(0.015625)"/>
      <path id="Helvetica-2e" d="M 547 681 
L 1200 681 
L 1200 0 
L 547 0 
L 547 681 
z
" transform="scale(0.015625)"/>
      <path id="Helvetica-34" d="M 2116 1584 
L 2116 3613 
L 681 1584 
L 2116 1584 
z
M 2125 0 
L 2125 1094 
L 163 1094 
L 163 1644 
L 2213 4488 
L 2688 4488 
L 2688 1584 
L 3347 1584 
L 3347 1094 
L 2688 1094 
L 2688 0 
L 2125 0 
z
" transform="scale(0.015625)"/>
      <path id="Helvetica-25" d="M 4363 2175 
Q 4813 2175 5131 1856 
Q 5450 1538 5450 1088 
Q 5450 638 5131 319 
Q 4813 0 4363 0 
Q 3909 0 3590 319 
Q 3272 638 3272 1088 
Q 3272 1538 3590 1856 
Q 3909 2175 4363 2175 
z
M 3909 4456 
L 4256 4456 
L 1753 -119 
L 1406 -119 
L 3909 4456 
z
M 1294 2606 
Q 1563 2606 1752 2795 
Q 1941 2984 1941 3250 
Q 1941 3516 1752 3705 
Q 1563 3894 1294 3894 
Q 1028 3894 839 3706 
Q 650 3519 650 3250 
Q 650 2984 839 2795 
Q 1028 2606 1294 2606 
z
M 1294 4341 
Q 1747 4341 2065 4020 
Q 2384 3700 2384 3250 
Q 2384 2800 2065 2481 
Q 1747 2163 1294 2163 
Q 844 2163 525 2481 
Q 206 2800 206 3250 
Q 206 3700 525 4020 
Q 844 4341 1294 4341 
z
M 4363 444 
Q 4628 444 4817 633 
Q 5006 822 5006 1088 
Q 5006 1353 4817 1542 
Q 4628 1731 4363 1731 
Q 4094 1731 3905 1542 
Q 3716 1353 3716 1088 
Q 3716 822 3905 633 
Q 4094 444 4363 444 
z
" transform="scale(0.015625)"/>
     </defs>
     <use xlink:href="#Helvetica-38"/>
     <use xlink:href="#Helvetica-38" x="55.615234"/>
     <use xlink:href="#Helvetica-2e" x="111.230469"/>
     <use xlink:href="#Helvetica-34" x="139.013672"/>
     <use xlink:href="#Helvetica-25" x="194.628906"/>
    </g>
   </g>
   <g id="text_3">
    <!-- INP -->
    <g transform="translate(291.754514 254.658649) scale(0.16 -0.16)">
     <defs>
      <path id="Helvetica-49" d="M 628 4591 
L 1256 4591 
L 1256 0 
L 628 0 
L 628 4591 
z
" transform="scale(0.015625)"/>
     </defs>
     <use xlink:href="#Helvetica-49"/>
     <use xlink:href="#Helvetica-4e" x="27.783203"/>
     <use xlink:href="#Helvetica-50" x="100"/>
    </g>
   </g>
   <g id="text_4">
    <!-- 6.5% -->
    <g transform="translate(243.622467 237.30074) scale(0.16 -0.16)">
     <defs>
      <path id="Helvetica-36" d="M 1872 4494 
Q 2622 4494 2917 4105 
Q 3213 3716 3213 3303 
L 2656 3303 
Q 2606 3569 2497 3719 
Q 2294 4000 1881 4000 
Q 1409 4000 1131 3564 
Q 853 3128 822 2316 
Q 1016 2600 1309 2741 
Q 1578 2866 1909 2866 
Q 2472 2866 2890 2506 
Q 3309 2147 3309 1434 
Q 3309 825 2912 354 
Q 2516 -116 1781 -116 
Q 1153 -116 697 361 
Q 241 838 241 1966 
Q 241 2800 444 3381 
Q 834 4494 1872 4494 
z
M 1831 384 
Q 2275 384 2495 682 
Q 2716 981 2716 1388 
Q 2716 1731 2519 2042 
Q 2322 2353 1803 2353 
Q 1441 2353 1167 2112 
Q 894 1872 894 1388 
Q 894 963 1142 673 
Q 1391 384 1831 384 
z
" transform="scale(0.015625)"/>
      <path id="Helvetica-35" d="M 791 1141 
Q 847 659 1238 475 
Q 1438 381 1700 381 
Q 2200 381 2440 700 
Q 2681 1019 2681 1406 
Q 2681 1875 2395 2131 
Q 2109 2388 1709 2388 
Q 1419 2388 1211 2275 
Q 1003 2163 856 1963 
L 369 1991 
L 709 4400 
L 3034 4400 
L 3034 3856 
L 1131 3856 
L 941 2613 
Q 1097 2731 1238 2791 
Q 1488 2894 1816 2894 
Q 2431 2894 2859 2497 
Q 3288 2100 3288 1491 
Q 3288 856 2895 371 
Q 2503 -113 1644 -113 
Q 1097 -113 676 195 
Q 256 503 206 1141 
L 791 1141 
z
" transform="scale(0.015625)"/>
     </defs>
     <use xlink:href="#Helvetica-36"/>
     <use xlink:href="#Helvetica-2e" x="55.615234"/>
     <use xlink:href="#Helvetica-35" x="83.398438"/>
     <use xlink:href="#Helvetica-25" x="139.013672"/>
    </g>
   </g>
   <g id="text_5">
    <!-- VMNP -->
    <g transform="translate(300.972842 229.144281) scale(0.16 -0.16)">
     <defs>
      <path id="Helvetica-56" d="M 850 4591 
L 2169 681 
L 3472 4591 
L 4169 4591 
L 2494 0 
L 1834 0 
L 163 4591 
L 850 4591 
z
" transform="scale(0.015625)"/>
      <path id="Helvetica-4d" d="M 472 4591 
L 1363 4591 
L 2681 709 
L 3991 4591 
L 4872 4591 
L 4872 0 
L 4281 0 
L 4281 2709 
Q 4281 2850 4287 3175 
Q 4294 3500 4294 3872 
L 2984 0 
L 2369 0 
L 1050 3872 
L 1050 3731 
Q 1050 3563 1058 3217 
Q 1066 2872 1066 2709 
L 1066 0 
L 472 0 
L 472 4591 
z
" transform="scale(0.015625)"/>
     </defs>
     <use xlink:href="#Helvetica-56"/>
     <use xlink:href="#Helvetica-4d" x="66.699219"/>
     <use xlink:href="#Helvetica-4e" x="150"/>
     <use xlink:href="#Helvetica-50" x="222.216797"/>
    </g>
   </g>
   <g id="text_6">
    <!-- 4.9% -->
    <g transform="translate(248.650646 223.383812) scale(0.16 -0.16)">
     <defs>
      <path id="Helvetica-39" d="M 850 1081 
Q 875 616 1209 438 
Q 1381 344 1597 344 
Q 2000 344 2284 680 
Q 2569 1016 2688 2044 
Q 2500 1747 2223 1626 
Q 1947 1506 1628 1506 
Q 981 1506 604 1909 
Q 228 2313 228 2947 
Q 228 3556 600 4018 
Q 972 4481 1697 4481 
Q 2675 4481 3047 3600 
Q 3253 3116 3253 2388 
Q 3253 1566 3006 931 
Q 2597 -125 1619 -125 
Q 963 -125 622 219 
Q 281 563 281 1081 
L 850 1081 
z
M 1703 2000 
Q 2038 2000 2314 2220 
Q 2591 2441 2591 2991 
Q 2591 3484 2342 3726 
Q 2094 3969 1709 3969 
Q 1297 3969 1055 3692 
Q 813 3416 813 2953 
Q 813 2516 1025 2258 
Q 1238 2000 1703 2000 
z
" transform="scale(0.015625)"/>
     </defs>
     <use xlink:href="#Helvetica-34"/>
     <use xlink:href="#Helvetica-2e" x="55.615234"/>
     <use xlink:href="#Helvetica-39" x="83.398438"/>
     <use xlink:href="#Helvetica-25" x="139.013672"/>
    </g>
   </g>
   <g id="text_7">
    <!-- Module 1 -->
    <g transform="translate(188.957323 115.421739) scale(0.18 -0.18)">
     <defs>
      <path id="Helvetica-6f" d="M 1741 363 
Q 2300 363 2508 786 
Q 2716 1209 2716 1728 
Q 2716 2197 2566 2491 
Q 2328 2953 1747 2953 
Q 1231 2953 997 2559 
Q 763 2166 763 1609 
Q 763 1075 997 719 
Q 1231 363 1741 363 
z
M 1763 3444 
Q 2409 3444 2856 3012 
Q 3303 2581 3303 1744 
Q 3303 934 2909 406 
Q 2516 -122 1688 -122 
Q 997 -122 590 345 
Q 184 813 184 1600 
Q 184 2444 612 2944 
Q 1041 3444 1763 3444 
z
M 1744 3428 
L 1744 3428 
z
" transform="scale(0.015625)"/>
      <path id="Helvetica-64" d="M 769 1634 
Q 769 1097 997 734 
Q 1225 372 1728 372 
Q 2119 372 2370 708 
Q 2622 1044 2622 1672 
Q 2622 2306 2362 2611 
Q 2103 2916 1722 2916 
Q 1297 2916 1033 2591 
Q 769 2266 769 1634 
z
M 1616 3406 
Q 2000 3406 2259 3244 
Q 2409 3150 2600 2916 
L 2600 4606 
L 3141 4606 
L 3141 0 
L 2634 0 
L 2634 466 
Q 2438 156 2169 18 
Q 1900 -119 1553 -119 
Q 994 -119 584 351 
Q 175 822 175 1603 
Q 175 2334 548 2870 
Q 922 3406 1616 3406 
z
" transform="scale(0.015625)"/>
      <path id="Helvetica-75" d="M 975 3347 
L 975 1125 
Q 975 869 1056 706 
Q 1206 406 1616 406 
Q 2203 406 2416 931 
Q 2531 1213 2531 1703 
L 2531 3347 
L 3094 3347 
L 3094 0 
L 2563 0 
L 2569 494 
Q 2459 303 2297 172 
Q 1975 -91 1516 -91 
Q 800 -91 541 388 
Q 400 644 400 1072 
L 400 3347 
L 975 3347 
z
M 1747 3428 
L 1747 3428 
z
" transform="scale(0.015625)"/>
      <path id="Helvetica-6c" d="M 428 4591 
L 991 4591 
L 991 0 
L 428 0 
L 428 4591 
z
" transform="scale(0.015625)"/>
      <path id="Helvetica-65" d="M 1806 3422 
Q 2163 3422 2497 3255 
Q 2831 3088 3006 2822 
Q 3175 2569 3231 2231 
Q 3281 2000 3281 1494 
L 828 1494 
Q 844 984 1069 676 
Q 1294 369 1766 369 
Q 2206 369 2469 659 
Q 2619 828 2681 1050 
L 3234 1050 
Q 3213 866 3089 639 
Q 2966 413 2813 269 
Q 2556 19 2178 -69 
Q 1975 -119 1719 -119 
Q 1094 -119 659 336 
Q 225 791 225 1609 
Q 225 2416 662 2919 
Q 1100 3422 1806 3422 
z
M 2703 1941 
Q 2669 2306 2544 2525 
Q 2313 2931 1772 2931 
Q 1384 2931 1121 2651 
Q 859 2372 844 1941 
L 2703 1941 
z
M 1753 3428 
L 1753 3428 
z
" transform="scale(0.015625)"/>
      <path id="Helvetica-20" transform="scale(0.015625)"/>
      <path id="Helvetica-31" d="M 613 3169 
L 613 3600 
Q 1222 3659 1462 3798 
Q 1703 3938 1822 4456 
L 2266 4456 
L 2266 0 
L 1666 0 
L 1666 3169 
L 613 3169 
z
" transform="scale(0.015625)"/>
     </defs>
     <use xlink:href="#Helvetica-4d"/>
     <use xlink:href="#Helvetica-6f" x="83.300781"/>
     <use xlink:href="#Helvetica-64" x="138.916016"/>
     <use xlink:href="#Helvetica-75" x="194.53125"/>
     <use xlink:href="#Helvetica-6c" x="250.146484"/>
     <use xlink:href="#Helvetica-65" x="272.363281"/>
     <use xlink:href="#Helvetica-20" x="327.978516"/>
     <use xlink:href="#Helvetica-31" x="355.761719"/>
    </g>
   </g>
   <g id="text_8">
    <!-- a. -->
    <g transform="translate(135 115.421739) scale(0.16 -0.16)">
     <defs>
      <path id="Helvetica-61" d="M 844 891 
Q 844 647 1022 506 
Q 1200 366 1444 366 
Q 1741 366 2019 503 
Q 2488 731 2488 1250 
L 2488 1703 
Q 2384 1638 2221 1594 
Q 2059 1550 1903 1531 
L 1563 1488 
Q 1256 1447 1103 1359 
Q 844 1213 844 891 
z
M 2206 2028 
Q 2400 2053 2466 2191 
Q 2503 2266 2503 2406 
Q 2503 2694 2298 2823 
Q 2094 2953 1713 2953 
Q 1272 2953 1088 2716 
Q 984 2584 953 2325 
L 428 2325 
Q 444 2944 830 3186 
Q 1216 3428 1725 3428 
Q 2316 3428 2684 3203 
Q 3050 2978 3050 2503 
L 3050 575 
Q 3050 488 3086 434 
Q 3122 381 3238 381 
Q 3275 381 3322 386 
Q 3369 391 3422 400 
L 3422 -16 
Q 3291 -53 3222 -62 
Q 3153 -72 3034 -72 
Q 2744 -72 2613 134 
Q 2544 244 2516 444 
Q 2344 219 2022 53 
Q 1700 -113 1313 -113 
Q 847 -113 551 170 
Q 256 453 256 878 
Q 256 1344 547 1600 
Q 838 1856 1309 1916 
L 2206 2028 
z
M 1741 3428 
L 1741 3428 
z
" transform="scale(0.015625)"/>
     </defs>
     <use xlink:href="#Helvetica-61"/>
     <use xlink:href="#Helvetica-2e" x="55.615234"/>
    </g>
   </g>
  </g>
  <g id="axes_2">
   <g id="patch_7">
    <path d="M 513.469565 212.4 
C 513.469565 198.097374 509.031725 184.141089 500.771042 172.465207 
C 492.510358 160.789325 480.826899 151.959315 467.339757 147.198838 
C 453.852616 142.438361 439.214982 141.97797 425.455337 145.881466 
C 411.695691 149.784962 399.480422 157.863297 390.502319 168.996975 
L 444.326087 212.4 
z
" style="fill: #8a2be2"/>
   </g>
   <g id="patch_8">
    <path d="M 390.502319 168.996975 
C 379.633494 182.475324 374.214288 199.556575 375.325027 216.835566 
C 376.435765 234.114557 383.997383 250.361367 396.502468 262.337181 
L 444.326087 212.4 
z
" style="fill: #008000"/>
   </g>
   <g id="patch_9">
    <path d="M 396.502468 262.337181 
C 408.962472 274.269823 425.448279 281.117455 442.695719 281.524254 
C 459.943159 281.931053 476.733471 275.868273 489.742195 264.536338 
L 444.326087 212.4 
z
" style="fill: #b22222"/>
   </g>
   <g id="patch_10">
    <path d="M 489.742195 264.536338 
C 497.077461 258.146567 502.982321 250.280101 507.069823 241.452438 
C 511.157325 232.624775 513.336189 223.03305 513.463632 213.305817 
L 444.326087 212.4 
z
" style="fill: #6495ed"/>
   </g>
   <g id="patch_11">
    <path d="M 513.463632 213.305817 
C 513.465609 213.154856 513.467093 213.003889 513.468082 212.852919 
C 513.469071 212.701949 513.469565 212.550975 513.469565 212.400002 
L 444.326087 212.4 
z
"/>
   </g>
   <g id="matplotlib.axis_3"/>
   <g id="matplotlib.axis_4"/>
   <g id="text_9">
    <!-- LX -->
    <g transform="translate(469.641124 144.749972) scale(0.16 -0.16)">
     <defs>
      <path id="Helvetica-4c" d="M 488 4591 
L 1109 4591 
L 1109 547 
L 3434 547 
L 3434 0 
L 488 0 
L 488 4591 
z
" transform="scale(0.015625)"/>
      <path id="Helvetica-58" d="M 881 0 
L 131 0 
L 1775 2353 
L 234 4591 
L 1013 4591 
L 2184 2834 
L 3347 4591 
L 4088 4591 
L 2547 2353 
L 4163 0 
L 3391 0 
L 2153 1888 
L 881 0 
z
" transform="scale(0.015625)"/>
     </defs>
     <use xlink:href="#Helvetica-4c"/>
     <use xlink:href="#Helvetica-58" x="55.615234"/>
    </g>
   </g>
   <g id="text_10">
    <!-- 39.2% -->
    <g transform="translate(435.451789 177.350553) scale(0.16 -0.16)">
     <defs>
      <path id="Helvetica-33" d="M 1663 -122 
Q 869 -122 511 314 
Q 153 750 153 1375 
L 741 1375 
Q 778 941 903 744 
Q 1122 391 1694 391 
Q 2138 391 2406 628 
Q 2675 866 2675 1241 
Q 2675 1703 2392 1887 
Q 2109 2072 1606 2072 
Q 1550 2072 1492 2070 
Q 1434 2069 1375 2066 
L 1375 2563 
Q 1463 2553 1522 2550 
Q 1581 2547 1650 2547 
Q 1966 2547 2169 2647 
Q 2525 2822 2525 3272 
Q 2525 3606 2287 3787 
Q 2050 3969 1734 3969 
Q 1172 3969 956 3594 
Q 838 3388 822 3006 
L 266 3006 
Q 266 3506 466 3856 
Q 809 4481 1675 4481 
Q 2359 4481 2734 4176 
Q 3109 3872 3109 3294 
Q 3109 2881 2888 2625 
Q 2750 2466 2531 2375 
Q 2884 2278 3082 2001 
Q 3281 1725 3281 1325 
Q 3281 684 2859 281 
Q 2438 -122 1663 -122 
z
" transform="scale(0.015625)"/>
      <path id="Helvetica-32" d="M 200 0 
Q 231 578 439 1006 
Q 647 1434 1250 1784 
L 1850 2131 
Q 2253 2366 2416 2531 
Q 2672 2791 2672 3125 
Q 2672 3516 2437 3745 
Q 2203 3975 1813 3975 
Q 1234 3975 1013 3538 
Q 894 3303 881 2888 
L 309 2888 
Q 319 3472 525 3841 
Q 891 4491 1816 4491 
Q 2584 4491 2939 4075 
Q 3294 3659 3294 3150 
Q 3294 2613 2916 2231 
Q 2697 2009 2131 1694 
L 1703 1456 
Q 1397 1288 1222 1134 
Q 909 863 828 531 
L 3272 531 
L 3272 0 
L 200 0 
z
" transform="scale(0.015625)"/>
     </defs>
     <use xlink:href="#Helvetica-33"/>
     <use xlink:href="#Helvetica-39" x="55.615234"/>
     <use xlink:href="#Helvetica-2e" x="111.230469"/>
     <use xlink:href="#Helvetica-32" x="139.013672"/>
     <use xlink:href="#Helvetica-25" x="194.628906"/>
    </g>
   </g>
   <g id="text_11">
    <!-- INP -->
    <g transform="translate(341.75242 221.350372) scale(0.16 -0.16)">
     <use xlink:href="#Helvetica-49"/>
     <use xlink:href="#Helvetica-4e" x="27.783203"/>
     <use xlink:href="#Helvetica-50" x="100"/>
    </g>
   </g>
   <g id="text_12">
    <!-- 23.6% -->
    <g transform="translate(380.242951 219.132589) scale(0.16 -0.16)">
     <use xlink:href="#Helvetica-32"/>
     <use xlink:href="#Helvetica-33" x="55.615234"/>
     <use xlink:href="#Helvetica-2e" x="111.230469"/>
     <use xlink:href="#Helvetica-36" x="139.013672"/>
     <use xlink:href="#Helvetica-25" x="194.628906"/>
    </g>
   </g>
   <g id="text_13">
    <!-- VMNP -->
    <g transform="translate(396.305182 292.507929) scale(0.16 -0.16)">
     <use xlink:href="#Helvetica-56"/>
     <use xlink:href="#Helvetica-4d" x="66.699219"/>
     <use xlink:href="#Helvetica-4e" x="150"/>
     <use xlink:href="#Helvetica-50" x="222.216797"/>
    </g>
   </g>
   <g id="text_14">
    <!-- 23.6% -->
    <g transform="translate(420.665366 257.945802) scale(0.16 -0.16)">
     <use xlink:href="#Helvetica-32"/>
     <use xlink:href="#Helvetica-33" x="55.615234"/>
     <use xlink:href="#Helvetica-2e" x="111.230469"/>
     <use xlink:href="#Helvetica-36" x="139.013672"/>
     <use xlink:href="#Helvetica-25" x="194.628906"/>
    </g>
   </g>
   <g id="text_15">
    <!-- SNP -->
    <g transform="translate(513.344197 248.428932) scale(0.16 -0.16)">
     <use xlink:href="#Helvetica-53"/>
     <use xlink:href="#Helvetica-4e" x="66.699219"/>
     <use xlink:href="#Helvetica-50" x="138.916016"/>
    </g>
   </g>
   <g id="text_16">
    <!-- 13.4% -->
    <g transform="translate(459.289829 233.902713) scale(0.16 -0.16)">
     <use xlink:href="#Helvetica-31"/>
     <use xlink:href="#Helvetica-33" x="55.615234"/>
     <use xlink:href="#Helvetica-2e" x="111.230469"/>
     <use xlink:href="#Helvetica-34" x="139.013672"/>
     <use xlink:href="#Helvetica-25" x="194.628906"/>
    </g>
   </g>
   <g id="text_17">
    <!-- Module 2 -->
    <g transform="translate(407.305149 115.421739) scale(0.18 -0.18)">
     <use xlink:href="#Helvetica-4d"/>
     <use xlink:href="#Helvetica-6f" x="83.300781"/>
     <use xlink:href="#Helvetica-64" x="138.916016"/>
     <use xlink:href="#Helvetica-75" x="194.53125"/>
     <use xlink:href="#Helvetica-6c" x="250.146484"/>
     <use xlink:href="#Helvetica-65" x="272.363281"/>
     <use xlink:href="#Helvetica-20" x="327.978516"/>
     <use xlink:href="#Helvetica-32" x="355.761719"/>
    </g>
   </g>
   <g id="text_18">
    <!-- b. -->
    <g transform="translate(353.347826 115.421739) scale(0.16 -0.16)">
     <defs>
      <path id="Helvetica-62" d="M 369 4606 
L 916 4606 
L 916 2941 
Q 1100 3181 1356 3307 
Q 1613 3434 1913 3434 
Q 2538 3434 2927 3004 
Q 3316 2575 3316 1738 
Q 3316 944 2931 419 
Q 2547 -106 1866 -106 
Q 1484 -106 1222 78 
Q 1066 188 888 428 
L 888 0 
L 369 0 
L 369 4606 
z
M 1831 391 
Q 2288 391 2514 753 
Q 2741 1116 2741 1709 
Q 2741 2238 2514 2584 
Q 2288 2931 1847 2931 
Q 1463 2931 1173 2647 
Q 884 2363 884 1709 
Q 884 1238 1003 944 
Q 1225 391 1831 391 
z
" transform="scale(0.015625)"/>
     </defs>
     <use xlink:href="#Helvetica-62"/>
     <use xlink:href="#Helvetica-2e" x="55.615234"/>
    </g>
   </g>
  </g>
  <g id="axes_3">
   <g id="patch_12">
    <path d="M 731.817391 212.4 
C 731.817391 204.453639 730.44753 196.566425 727.768087 189.085433 
C 725.088645 181.604441 721.139509 174.641037 716.094461 168.501644 
C 711.049413 162.362252 704.983556 157.138265 698.163816 153.059564 
C 691.344076 148.980863 683.871976 146.108165 676.076324 144.567884 
C 668.280672 143.027603 660.277519 142.842667 652.419041 144.021215 
C 644.560563 145.199764 636.963746 147.724251 629.962886 151.483588 
C 622.962026 155.242925 616.661342 160.181148 611.338094 166.080951 
C 606.014846 171.980755 601.748279 178.754312 598.726142 186.103553 
C 595.704005 193.452794 593.971287 201.268314 593.604237 209.206193 
C 593.237186 217.144072 594.241267 225.086143 596.572295 232.682916 
C 598.903323 240.279689 602.526597 247.418075 607.282675 253.783951 
C 612.038754 260.149826 617.856835 265.648425 624.480897 270.037784 
C 631.104958 274.427142 638.436389 277.641917 646.152573 279.540643 
C 653.868757 281.439369 661.854826 281.993781 669.759354 281.179482 
C 677.663883 280.365183 685.3692 278.194295 692.536235 274.762347 
C 699.70327 271.330399 706.22533 266.688482 711.815414 261.040862 
L 662.673913 212.4 
z
" style="fill: #6495ed"/>
   </g>
   <g id="patch_13">
    <path d="M 711.815414 261.040862 
C 715.605087 257.212184 718.934363 252.953703 721.735441 248.352142 
C 724.536519 243.750582 726.790254 238.837394 728.450749 233.712635 
L 662.673913 212.4 
z
" style="fill: #b22222"/>
   </g>
   <g id="patch_14">
    <path d="M 728.450749 233.712635 
C 729.222048 231.332187 729.863557 228.911624 730.372444 226.46163 
C 730.881331 224.011636 731.256846 221.535823 731.497332 219.04512 
L 662.673913 212.4 
z
" style="fill: #008000"/>
   </g>
   <g id="patch_15">
    <path d="M 731.497332 219.04512 
C 731.603941 217.94097 731.683964 216.834413 731.73733 215.726412 
C 731.790696 214.618411 731.817391 213.509287 731.817391 212.400001 
L 662.673913 212.4 
z
" style="fill: #8a2be2"/>
   </g>
   <g id="matplotlib.axis_5"/>
   <g id="matplotlib.axis_6"/>
   <g id="text_19">
    <!-- SNP -->
    <g transform="translate(559.431365 187.545158) scale(0.16 -0.16)">
     <use xlink:href="#Helvetica-53"/>
     <use xlink:href="#Helvetica-4e" x="66.699219"/>
     <use xlink:href="#Helvetica-50" x="138.916016"/>
    </g>
   </g>
   <g id="text_20">
    <!-- 87.6% -->
    <g transform="translate(601.62275 200.693382) scale(0.16 -0.16)">
     <defs>
      <path id="Helvetica-37" d="M 3347 4400 
L 3347 3909 
Q 3131 3700 2773 3181 
Q 2416 2663 2141 2063 
Q 1869 1478 1728 997 
Q 1638 688 1494 0 
L 872 0 
Q 1084 1281 1809 2550 
Q 2238 3294 2709 3834 
L 234 3834 
L 234 4400 
L 3347 4400 
z
" transform="scale(0.015625)"/>
     </defs>
     <use xlink:href="#Helvetica-38"/>
     <use xlink:href="#Helvetica-37" x="55.615234"/>
     <use xlink:href="#Helvetica-2e" x="111.230469"/>
     <use xlink:href="#Helvetica-36" x="139.013672"/>
     <use xlink:href="#Helvetica-25" x="194.628906"/>
    </g>
   </g>
   <g id="text_21">
    <!-- VMNP -->
    <g transform="translate(727.641593 256.018607) scale(0.16 -0.16)">
     <use xlink:href="#Helvetica-56"/>
     <use xlink:href="#Helvetica-4d" x="66.699219"/>
     <use xlink:href="#Helvetica-4e" x="150"/>
     <use xlink:href="#Helvetica-50" x="222.216797"/>
    </g>
   </g>
   <g id="text_22">
    <!-- 7.4% -->
    <g transform="translate(679.87708 238.042535) scale(0.16 -0.16)">
     <use xlink:href="#Helvetica-37"/>
     <use xlink:href="#Helvetica-2e" x="55.615234"/>
     <use xlink:href="#Helvetica-34" x="83.398438"/>
     <use xlink:href="#Helvetica-25" x="139.013672"/>
    </g>
   </g>
   <g id="text_23">
    <!-- INP -->
    <g transform="translate(737.142298 231.939043) scale(0.16 -0.16)">
     <use xlink:href="#Helvetica-49"/>
     <use xlink:href="#Helvetica-4e" x="27.783203"/>
     <use xlink:href="#Helvetica-50" x="100"/>
    </g>
   </g>
   <g id="text_24">
    <!-- 3.5% -->
    <g transform="translate(685.059282 224.908228) scale(0.16 -0.16)">
     <use xlink:href="#Helvetica-33"/>
     <use xlink:href="#Helvetica-2e" x="55.615234"/>
     <use xlink:href="#Helvetica-35" x="83.398438"/>
     <use xlink:href="#Helvetica-25" x="139.013672"/>
    </g>
   </g>
   <g id="text_25">
    <!-- LX -->
    <g transform="translate(738.643672 220.130304) scale(0.16 -0.16)">
     <use xlink:href="#Helvetica-4c"/>
     <use xlink:href="#Helvetica-58" x="55.615234"/>
    </g>
   </g>
   <g id="text_26">
    <!-- 1.5% -->
    <g transform="translate(685.878213 218.467097) scale(0.16 -0.16)">
     <use xlink:href="#Helvetica-31"/>
     <use xlink:href="#Helvetica-2e" x="55.615234"/>
     <use xlink:href="#Helvetica-35" x="83.398438"/>
     <use xlink:href="#Helvetica-25" x="139.013672"/>
    </g>
   </g>
   <g id="text_27">
    <!-- Module 3 -->
    <g transform="translate(625.652976 115.421739) scale(0.18 -0.18)">
     <use xlink:href="#Helvetica-4d"/>
     <use xlink:href="#Helvetica-6f" x="83.300781"/>
     <use xlink:href="#Helvetica-64" x="138.916016"/>
     <use xlink:href="#Helvetica-75" x="194.53125"/>
     <use xlink:href="#Helvetica-6c" x="250.146484"/>
     <use xlink:href="#Helvetica-65" x="272.363281"/>
     <use xlink:href="#Helvetica-20" x="327.978516"/>
     <use xlink:href="#Helvetica-33" x="355.761719"/>
    </g>
   </g>
   <g id="text_28">
    <!-- c. -->
    <g transform="translate(571.695652 115.421739) scale(0.16 -0.16)">
     <defs>
      <path id="Helvetica-63" d="M 1703 3444 
Q 2269 3444 2623 3169 
Q 2978 2894 3050 2222 
L 2503 2222 
Q 2453 2531 2275 2736 
Q 2097 2941 1703 2941 
Q 1166 2941 934 2416 
Q 784 2075 784 1575 
Q 784 1072 996 728 
Q 1209 384 1666 384 
Q 2016 384 2220 598 
Q 2425 813 2503 1184 
L 3050 1184 
Q 2956 519 2581 211 
Q 2206 -97 1622 -97 
Q 966 -97 575 383 
Q 184 863 184 1581 
Q 184 2463 612 2953 
Q 1041 3444 1703 3444 
z
M 1616 3428 
L 1616 3428 
z
" transform="scale(0.015625)"/>
     </defs>
     <use xlink:href="#Helvetica-63"/>
     <use xlink:href="#Helvetica-2e" x="50"/>
    </g>
   </g>
  </g>
  <g id="axes_4">
   <g id="patch_16">
    <path d="M 950.165217 212.4 
C 950.165217 199.046603 946.296887 185.974845 939.029938 174.771959 
C 931.762989 163.569074 921.403957 154.707624 909.210684 149.263608 
C 897.017412 143.819593 883.504238 142.022653 870.311997 144.090981 
C 857.119757 146.15931 844.804927 152.00566 834.862833 160.920141 
C 824.920738 169.834621 817.77076 181.441199 814.28108 194.330549 
C 810.791401 207.219899 811.109225 220.848319 815.195958 233.560982 
C 819.282692 246.273645 826.965949 257.534303 837.312791 265.975633 
C 847.659633 274.416963 860.233608 279.682891 873.507925 281.134003 
L 881.021739 212.4 
z
" style="fill: #6495ed"/>
   </g>
   <g id="patch_17">
    <path d="M 873.507925 281.134003 
C 890.946444 283.040335 908.473221 278.24051 922.507256 267.71521 
C 936.541291 257.18991 946.056939 241.708351 949.110002 224.433662 
L 881.021739 212.4 
z
" style="fill: #008000"/>
   </g>
   <g id="patch_18">
    <path d="M 949.110002 224.433662 
C 949.460899 222.448237 949.724786 220.448414 949.900908 218.439927 
C 950.077029 216.431439 950.165217 214.416209 950.165217 212.400015 
L 881.021739 212.4 
z
" style="fill: #8a2be2"/>
   </g>
   <g id="matplotlib.axis_7"/>
   <g id="matplotlib.axis_8"/>
   <g id="text_29">
    <!-- SNP -->
    <g transform="translate(797.346942 159.843405) scale(0.16 -0.16)">
     <use xlink:href="#Helvetica-53"/>
     <use xlink:href="#Helvetica-4e" x="66.699219"/>
     <use xlink:href="#Helvetica-50" x="138.916016"/>
    </g>
   </g>
   <g id="text_30">
    <!-- 73.3% -->
    <g transform="translate(830.643895 185.583334) scale(0.16 -0.16)">
     <use xlink:href="#Helvetica-37"/>
     <use xlink:href="#Helvetica-33" x="55.615234"/>
     <use xlink:href="#Helvetica-2e" x="111.230469"/>
     <use xlink:href="#Helvetica-33" x="139.013672"/>
     <use xlink:href="#Helvetica-25" x="194.628906"/>
    </g>
   </g>
   <g id="text_31">
    <!-- INP -->
    <g transform="translate(926.655808 277.317981) scale(0.16 -0.16)">
     <use xlink:href="#Helvetica-49"/>
     <use xlink:href="#Helvetica-4e" x="27.783203"/>
     <use xlink:href="#Helvetica-50" x="100"/>
    </g>
   </g>
   <g id="text_32">
    <!-- 23.9% -->
    <g transform="translate(883.230549 249.660376) scale(0.16 -0.16)">
     <use xlink:href="#Helvetica-32"/>
     <use xlink:href="#Helvetica-33" x="55.615234"/>
     <use xlink:href="#Helvetica-2e" x="111.230469"/>
     <use xlink:href="#Helvetica-39" x="139.013672"/>
     <use xlink:href="#Helvetica-25" x="194.628906"/>
    </g>
   </g>
   <g id="text_33">
    <!-- LX -->
    <g transform="translate(956.788825 223.115169) scale(0.16 -0.16)">
     <use xlink:href="#Helvetica-4c"/>
     <use xlink:href="#Helvetica-58" x="55.615234"/>
    </g>
   </g>
   <g id="text_34">
    <!-- 2.8% -->
    <g transform="translate(904.11549 220.095206) scale(0.16 -0.16)">
     <use xlink:href="#Helvetica-32"/>
     <use xlink:href="#Helvetica-2e" x="55.615234"/>
     <use xlink:href="#Helvetica-38" x="83.398438"/>
     <use xlink:href="#Helvetica-25" x="139.013672"/>
    </g>
   </g>
   <g id="text_35">
    <!-- Module 4 -->
    <g transform="translate(844.000802 115.421739) scale(0.18 -0.18)">
     <use xlink:href="#Helvetica-4d"/>
     <use xlink:href="#Helvetica-6f" x="83.300781"/>
     <use xlink:href="#Helvetica-64" x="138.916016"/>
     <use xlink:href="#Helvetica-75" x="194.53125"/>
     <use xlink:href="#Helvetica-6c" x="250.146484"/>
     <use xlink:href="#Helvetica-65" x="272.363281"/>
     <use xlink:href="#Helvetica-20" x="327.978516"/>
     <use xlink:href="#Helvetica-34" x="355.761719"/>
    </g>
   </g>
   <g id="text_36">
    <!-- d. -->
    <g transform="translate(790.043478 115.421739) scale(0.16 -0.16)">
     <use xlink:href="#Helvetica-64"/>
     <use xlink:href="#Helvetica-2e" x="55.615234"/>
    </g>
   </g>
  </g>
  <g id="axes_5">
   <g id="patch_19">
    <path d="M 392.4 450 
C 392.4 431.977479 385.276946 414.66578 372.593226 401.86209 
C 359.909506 389.0584 342.665629 381.772692 324.643907 381.603031 
C 306.622185 381.43337 289.244198 388.393138 276.321672 400.955764 
C 263.399147 413.518391 255.951431 430.692917 255.612123 448.712243 
L 324 450 
z
" style="fill: #008000"/>
   </g>
   <g id="patch_20">
    <path d="M 255.612123 448.712243 
C 255.360407 462.079938 259.033581 475.232578 266.175137 486.535534 
C 273.316694 497.83849 283.617992 506.803275 295.798773 512.315735 
C 307.979554 517.828194 321.513395 519.650093 334.718289 517.555002 
C 347.923183 515.459911 360.228448 509.538376 370.104769 500.526332 
L 324 450 
z
" style="fill: #6495ed"/>
   </g>
   <g id="patch_21">
    <path d="M 370.104769 500.526332 
C 376.054449 495.097309 380.998699 488.659815 384.709253 481.511055 
C 388.419807 474.362295 390.838671 466.614003 391.85417 458.6239 
L 324 450 
z
" style="fill: #8a2be2"/>
   </g>
   <g id="patch_22">
    <path d="M 391.85417 458.6239 
C 392.035886 457.19413 392.172366 455.758973 392.263406 454.320579 
C 392.354446 452.882186 392.4 451.441274 392.4 450.000002 
L 324 450 
z
" style="fill: #b22222"/>
   </g>
   <g id="matplotlib.axis_9"/>
   <g id="matplotlib.axis_10"/>
   <g id="text_37">
    <!-- INP -->
    <g transform="translate(324.708298 378.834584) scale(0.16 -0.16)">
     <use xlink:href="#Helvetica-49"/>
     <use xlink:href="#Helvetica-4e" x="27.783203"/>
     <use xlink:href="#Helvetica-50" x="100"/>
    </g>
   </g>
   <g id="text_38">
    <!-- 49.7% -->
    <g transform="translate(301.703844 413.033069) scale(0.16 -0.16)">
     <use xlink:href="#Helvetica-34"/>
     <use xlink:href="#Helvetica-39" x="55.615234"/>
     <use xlink:href="#Helvetica-2e" x="111.230469"/>
     <use xlink:href="#Helvetica-37" x="139.013672"/>
     <use xlink:href="#Helvetica-25" x="194.628906"/>
    </g>
   </g>
   <g id="text_39">
    <!-- SNP -->
    <g transform="translate(260.078651 522.618558) scale(0.16 -0.16)">
     <use xlink:href="#Helvetica-53"/>
     <use xlink:href="#Helvetica-4e" x="66.699219"/>
     <use xlink:href="#Helvetica-50" x="138.916016"/>
    </g>
   </g>
   <g id="text_40">
    <!-- 37.1% -->
    <g transform="translate(284.396764 491.460691) scale(0.16 -0.16)">
     <use xlink:href="#Helvetica-33"/>
     <use xlink:href="#Helvetica-37" x="55.615234"/>
     <use xlink:href="#Helvetica-2e" x="111.230469"/>
     <use xlink:href="#Helvetica-31" x="139.013672"/>
     <use xlink:href="#Helvetica-25" x="194.628906"/>
    </g>
   </g>
   <g id="text_41">
    <!-- LX -->
    <g transform="translate(390.780178 488.733411) scale(0.16 -0.16)">
     <use xlink:href="#Helvetica-4c"/>
     <use xlink:href="#Helvetica-58" x="55.615234"/>
    </g>
   </g>
   <g id="text_42">
    <!-- 11.2% -->
    <g transform="translate(337.743052 472.977883) scale(0.16 -0.16)">
     <use xlink:href="#Helvetica-31"/>
     <use xlink:href="#Helvetica-31" x="55.615234"/>
     <use xlink:href="#Helvetica-2e" x="111.230469"/>
     <use xlink:href="#Helvetica-32" x="139.013672"/>
     <use xlink:href="#Helvetica-25" x="194.628906"/>
    </g>
   </g>
   <g id="text_43">
    <!-- VMNP -->
    <g transform="translate(399.089747 458.823887) scale(0.16 -0.16)">
     <use xlink:href="#Helvetica-56"/>
     <use xlink:href="#Helvetica-4d" x="66.699219"/>
     <use xlink:href="#Helvetica-4e" x="150"/>
     <use xlink:href="#Helvetica-50" x="222.216797"/>
    </g>
   </g>
   <g id="text_44">
    <!-- 2.0% -->
    <g transform="translate(346.724294 456.663598) scale(0.16 -0.16)">
     <defs>
      <path id="Helvetica-30" d="M 1731 4475 
Q 2600 4475 2988 3759 
Q 3288 3206 3288 2244 
Q 3288 1331 3016 734 
Q 2622 -122 1728 -122 
Q 922 -122 528 578 
Q 200 1163 200 2147 
Q 200 2909 397 3456 
Q 766 4475 1731 4475 
z
M 1725 391 
Q 2163 391 2422 778 
Q 2681 1166 2681 2222 
Q 2681 2984 2493 3476 
Q 2306 3969 1766 3969 
Q 1269 3969 1039 3501 
Q 809 3034 809 2125 
Q 809 1441 956 1025 
Q 1181 391 1725 391 
z
" transform="scale(0.015625)"/>
     </defs>
     <use xlink:href="#Helvetica-32"/>
     <use xlink:href="#Helvetica-2e" x="55.615234"/>
     <use xlink:href="#Helvetica-30" x="83.398438"/>
     <use xlink:href="#Helvetica-25" x="139.013672"/>
    </g>
   </g>
   <g id="text_45">
    <!-- Module 5 -->
    <g transform="translate(286.979062 354) scale(0.18 -0.18)">
     <use xlink:href="#Helvetica-4d"/>
     <use xlink:href="#Helvetica-6f" x="83.300781"/>
     <use xlink:href="#Helvetica-64" x="138.916016"/>
     <use xlink:href="#Helvetica-75" x="194.53125"/>
     <use xlink:href="#Helvetica-6c" x="250.146484"/>
     <use xlink:href="#Helvetica-65" x="272.363281"/>
     <use xlink:href="#Helvetica-20" x="327.978516"/>
     <use xlink:href="#Helvetica-35" x="355.761719"/>
    </g>
   </g>
   <g id="text_46">
    <!-- e. -->
    <g transform="translate(234 354) scale(0.16 -0.16)">
     <use xlink:href="#Helvetica-65"/>
     <use xlink:href="#Helvetica-2e" x="55.615234"/>
    </g>
   </g>
  </g>
  <g id="axes_6">
   <g id="patch_23">
    <path d="M 635.4 450 
C 635.4 439.114649 632.801516 428.384929 627.821258 418.705678 
C 622.841 409.026428 615.621374 400.67442 606.764486 394.346199 
C 597.907599 388.017977 587.666705 383.894492 576.895879 382.319637 
C 566.125053 380.744781 555.13228 381.763587 544.834339 385.291087 
C 534.536397 388.818587 525.22775 394.753914 517.684723 402.602073 
C 510.141696 410.450232 504.579977 419.98681 501.463404 430.416471 
C 498.346831 440.846132 497.764521 451.870647 499.765037 462.570591 
C 501.765553 473.270534 506.291692 483.339948 512.965981 491.93906 
L 567 450 
z
" style="fill: #6495ed"/>
   </g>
   <g id="patch_24">
    <path d="M 512.965981 491.93906 
C 519.556746 500.43056 528.057306 507.250068 537.775941 511.842658 
C 547.494577 516.435248 558.160327 518.672876 568.905285 518.373459 
C 579.650242 518.074042 590.174831 515.245927 599.622631 510.119248 
C 609.070431 504.992569 617.178032 497.71026 623.285691 488.864907 
L 567 450 
z
" style="fill: #008000"/>
   </g>
   <g id="patch_25">
    <path d="M 623.285691 488.864907 
C 625.396775 485.807551 627.255248 482.583265 628.842657 479.224062 
C 630.430065 475.86486 631.741137 472.381896 632.762855 468.809755 
L 567 450 
z
" style="fill: #8a2be2"/>
   </g>
   <g id="patch_26">
    <path d="M 632.762855 468.809755 
C 633.636564 465.755086 634.296379 462.643251 634.737505 459.49686 
C 635.178632 456.350469 635.4 453.177163 635.4 450 
L 567 450 
z
" style="fill: #b22222"/>
   </g>
   <g id="matplotlib.axis_11"/>
   <g id="matplotlib.axis_12"/>
   <g id="text_47">
    <!-- SNP -->
    <g transform="translate(509.717773 382.891445) scale(0.16 -0.16)">
     <use xlink:href="#Helvetica-53"/>
     <use xlink:href="#Helvetica-4e" x="66.699219"/>
     <use xlink:href="#Helvetica-50" x="138.916016"/>
    </g>
   </g>
   <g id="text_48">
    <!-- 60.5% -->
    <g transform="translate(531.018103 415.245902) scale(0.16 -0.16)">
     <use xlink:href="#Helvetica-36"/>
     <use xlink:href="#Helvetica-30" x="55.615234"/>
     <use xlink:href="#Helvetica-2e" x="111.230469"/>
     <use xlink:href="#Helvetica-35" x="139.013672"/>
     <use xlink:href="#Helvetica-25" x="194.628906"/>
    </g>
   </g>
   <g id="text_49">
    <!-- INP -->
    <g transform="translate(569.095813 529.282055) scale(0.16 -0.16)">
     <use xlink:href="#Helvetica-49"/>
     <use xlink:href="#Helvetica-4e" x="27.783203"/>
     <use xlink:href="#Helvetica-50" x="100"/>
    </g>
   </g>
   <g id="text_50">
    <!-- 29.9% -->
    <g transform="translate(545.460671 495.095325) scale(0.16 -0.16)">
     <use xlink:href="#Helvetica-32"/>
     <use xlink:href="#Helvetica-39" x="55.615234"/>
     <use xlink:href="#Helvetica-2e" x="111.230469"/>
     <use xlink:href="#Helvetica-39" x="139.013672"/>
     <use xlink:href="#Helvetica-25" x="194.628906"/>
    </g>
   </g>
   <g id="text_51">
    <!-- LX -->
    <g transform="translate(635.026922 486.217719) scale(0.16 -0.16)">
     <use xlink:href="#Helvetica-4c"/>
     <use xlink:href="#Helvetica-58" x="55.615234"/>
    </g>
   </g>
   <g id="text_52">
    <!-- 5.2% -->
    <g transform="translate(585.871844 471.605687) scale(0.16 -0.16)">
     <use xlink:href="#Helvetica-35"/>
     <use xlink:href="#Helvetica-2e" x="55.615234"/>
     <use xlink:href="#Helvetica-32" x="83.398438"/>
     <use xlink:href="#Helvetica-25" x="139.013672"/>
    </g>
   </g>
   <g id="text_53">
    <!-- VMNP -->
    <g transform="translate(641.511256 464.517796) scale(0.16 -0.16)">
     <use xlink:href="#Helvetica-56"/>
     <use xlink:href="#Helvetica-4d" x="66.699219"/>
     <use xlink:href="#Helvetica-4e" x="150"/>
     <use xlink:href="#Helvetica-50" x="222.216797"/>
    </g>
   </g>
   <g id="text_54">
    <!-- 4.4% -->
    <g transform="translate(589.408753 459.769366) scale(0.16 -0.16)">
     <use xlink:href="#Helvetica-34"/>
     <use xlink:href="#Helvetica-2e" x="55.615234"/>
     <use xlink:href="#Helvetica-34" x="83.398438"/>
     <use xlink:href="#Helvetica-25" x="139.013672"/>
    </g>
   </g>
   <g id="text_55">
    <!-- Module 6 -->
    <g transform="translate(529.979063 354) scale(0.18 -0.18)">
     <use xlink:href="#Helvetica-4d"/>
     <use xlink:href="#Helvetica-6f" x="83.300781"/>
     <use xlink:href="#Helvetica-64" x="138.916016"/>
     <use xlink:href="#Helvetica-75" x="194.53125"/>
     <use xlink:href="#Helvetica-6c" x="250.146484"/>
     <use xlink:href="#Helvetica-65" x="272.363281"/>
     <use xlink:href="#Helvetica-20" x="327.978516"/>
     <use xlink:href="#Helvetica-36" x="355.761719"/>
    </g>
   </g>
   <g id="text_56">
    <!-- f. -->
    <g transform="translate(477 354) scale(0.16 -0.16)">
     <defs>
      <path id="Helvetica-66" d="M 553 3856 
Q 566 4206 675 4369 
Q 872 4656 1434 4656 
Q 1488 4656 1544 4653 
Q 1600 4650 1672 4644 
L 1672 4131 
Q 1584 4138 1545 4139 
Q 1506 4141 1472 4141 
Q 1216 4141 1166 4008 
Q 1116 3875 1116 3331 
L 1672 3331 
L 1672 2888 
L 1109 2888 
L 1109 0 
L 553 0 
L 553 2888 
L 88 2888 
L 88 3331 
L 553 3331 
L 553 3856 
z
" transform="scale(0.015625)"/>
     </defs>
     <use xlink:href="#Helvetica-66"/>
     <use xlink:href="#Helvetica-2e" x="27.783203"/>
    </g>
   </g>
  </g>
  <g id="axes_7">
   <g id="patch_27">
    <path d="M 878.4 450 
C 878.4 441.37401 876.768252 432.825362 873.590993 424.805841 
C 870.413733 416.78632 865.747937 409.439733 859.840186 403.15434 
C 853.932435 396.868946 846.888667 391.757456 839.081138 388.090006 
C 831.27361 384.422555 822.842325 382.26491 814.232869 381.731099 
C 805.623412 381.197288 796.99017 382.296883 788.789397 384.971773 
C 780.588625 387.646662 772.967381 391.848879 766.328439 397.356342 
C 759.689497 402.863804 754.151907 409.577751 750.008324 417.143359 
C 745.864742 424.708967 743.18947 432.990567 742.123894 441.550488 
C 741.058318 450.110409 741.621546 458.795152 743.783811 467.145739 
C 745.946077 475.496326 749.668607 483.363013 754.754668 490.330055 
C 759.84073 497.297097 766.199121 503.239559 773.493806 507.84339 
C 780.788492 512.447222 788.888663 515.629865 797.366235 517.223121 
C 805.843807 518.816377 814.54676 518.791676 823.015151 517.150323 
C 831.483543 515.50897 839.565517 512.280397 846.833952 507.635232 
C 854.102386 502.990067 860.426942 497.011607 865.473374 490.015807 
C 870.519805 483.020007 874.19762 475.132316 876.312449 466.769589 
L 810 450 
z
" style="fill: #6495ed"/>
   </g>
   <g id="patch_28">
    <path d="M 876.312449 466.769589 
C 876.804823 464.82258 877.211209 462.854831 877.530425 460.872061 
C 877.849641 458.889291 878.081378 456.893424 878.224961 454.890261 
L 810 450 
z
" style="fill: #008000"/>
   </g>
   <g id="patch_29">
    <path d="M 878.224961 454.890261 
C 878.263095 454.358251 878.295005 453.825813 878.320683 453.293057 
C 878.346362 452.7603 878.365809 452.227262 878.379019 451.69405 
L 810 450 
z
" style="fill: #8a2be2"/>
   </g>
   <g id="patch_30">
    <path d="M 878.379019 451.69405 
C 878.386012 451.411764 878.391258 451.129437 878.394755 450.847086 
C 878.398252 450.564735 878.4 450.282365 878.4 449.999993 
L 810 450 
z
" style="fill: #b22222"/>
   </g>
   <g id="matplotlib.axis_13"/>
   <g id="matplotlib.axis_14"/>
   <g id="text_57">
    <!-- SNP -->
    <g transform="translate(702.436284 444.776787) scale(0.16 -0.16)">
     <use xlink:href="#Helvetica-53"/>
     <use xlink:href="#Helvetica-4e" x="66.699219"/>
     <use xlink:href="#Helvetica-50" x="138.916016"/>
    </g>
   </g>
   <g id="text_58">
    <!-- 96.1% -->
    <g transform="translate(746.591836 449.001543) scale(0.16 -0.16)">
     <use xlink:href="#Helvetica-39"/>
     <use xlink:href="#Helvetica-36" x="55.615234"/>
     <use xlink:href="#Helvetica-2e" x="111.230469"/>
     <use xlink:href="#Helvetica-31" x="139.013672"/>
     <use xlink:href="#Helvetica-25" x="194.628906"/>
    </g>
   </g>
   <g id="text_59">
    <!-- INP -->
    <g transform="translate(884.283467 466.030517) scale(0.16 -0.16)">
     <use xlink:href="#Helvetica-49"/>
     <use xlink:href="#Helvetica-4e" x="27.783203"/>
     <use xlink:href="#Helvetica-50" x="100"/>
    </g>
   </g>
   <g id="text_60">
    <!-- 2.8% -->
    <g transform="translate(832.284505 460.594487) scale(0.16 -0.16)">
     <use xlink:href="#Helvetica-32"/>
     <use xlink:href="#Helvetica-2e" x="55.615234"/>
     <use xlink:href="#Helvetica-38" x="83.398438"/>
     <use xlink:href="#Helvetica-25" x="139.013672"/>
    </g>
   </g>
   <g id="text_61">
    <!-- Module 7 -->
    <g transform="translate(772.979063 354) scale(0.18 -0.18)">
     <use xlink:href="#Helvetica-4d"/>
     <use xlink:href="#Helvetica-6f" x="83.300781"/>
     <use xlink:href="#Helvetica-64" x="138.916016"/>
     <use xlink:href="#Helvetica-75" x="194.53125"/>
     <use xlink:href="#Helvetica-6c" x="250.146484"/>
     <use xlink:href="#Helvetica-65" x="272.363281"/>
     <use xlink:href="#Helvetica-20" x="327.978516"/>
     <use xlink:href="#Helvetica-37" x="355.761719"/>
    </g>
   </g>
   <g id="text_62">
    <!-- g. -->
    <g transform="translate(720 354) scale(0.16 -0.16)">
     <defs>
      <path id="Helvetica-67" d="M 1594 3406 
Q 1988 3406 2281 3213 
Q 2441 3103 2606 2894 
L 2606 3316 
L 3125 3316 
L 3125 272 
Q 3125 -366 2938 -734 
Q 2588 -1416 1616 -1416 
Q 1075 -1416 706 -1173 
Q 338 -931 294 -416 
L 866 -416 
Q 906 -641 1028 -763 
Q 1219 -950 1628 -950 
Q 2275 -950 2475 -494 
Q 2594 -225 2584 466 
Q 2416 209 2178 84 
Q 1941 -41 1550 -41 
Q 1006 -41 598 345 
Q 191 731 191 1622 
Q 191 2463 602 2934 
Q 1013 3406 1594 3406 
z
M 2606 1688 
Q 2606 2309 2350 2609 
Q 2094 2909 1697 2909 
Q 1103 2909 884 2353 
Q 769 2056 769 1575 
Q 769 1009 998 714 
Q 1228 419 1616 419 
Q 2222 419 2469 966 
Q 2606 1275 2606 1688 
z
M 1659 3428 
L 1659 3428 
z
" transform="scale(0.015625)"/>
     </defs>
     <use xlink:href="#Helvetica-67"/>
     <use xlink:href="#Helvetica-2e" x="55.615234"/>
    </g>
   </g>
  </g>
  <g id="text_63">
   <!-- OviINr Input Connectome -->
   <g transform="translate(427.179688 29.1375) scale(0.2 -0.2)">
    <defs>
     <path id="Helvetica-4f" d="M 2469 4716 
Q 3684 4716 4269 3934 
Q 4725 3325 4725 2375 
Q 4725 1347 4203 666 
Q 3591 -134 2456 -134 
Q 1397 -134 791 566 
Q 250 1241 250 2272 
Q 250 3203 713 3866 
Q 1306 4716 2469 4716 
z
M 2531 422 
Q 3353 422 3720 1011 
Q 4088 1600 4088 2366 
Q 4088 3175 3664 3669 
Q 3241 4163 2506 4163 
Q 1794 4163 1344 3673 
Q 894 3184 894 2231 
Q 894 1469 1280 945 
Q 1666 422 2531 422 
z
M 2488 4716 
L 2488 4716 
z
" transform="scale(0.015625)"/>
     <path id="Helvetica-76" d="M 688 3347 
L 1581 622 
L 2516 3347 
L 3131 3347 
L 1869 0 
L 1269 0 
L 34 3347 
L 688 3347 
z
" transform="scale(0.015625)"/>
     <path id="Helvetica-69" d="M 413 3331 
L 984 3331 
L 984 0 
L 413 0 
L 413 3331 
z
M 413 4591 
L 984 4591 
L 984 3953 
L 413 3953 
L 413 4591 
z
" transform="scale(0.015625)"/>
     <path id="Helvetica-72" d="M 428 3347 
L 963 3347 
L 963 2769 
Q 1028 2938 1284 3180 
Q 1541 3422 1875 3422 
Q 1891 3422 1928 3419 
Q 1966 3416 2056 3406 
L 2056 2813 
Q 2006 2822 1964 2825 
Q 1922 2828 1872 2828 
Q 1447 2828 1219 2554 
Q 991 2281 991 1925 
L 991 0 
L 428 0 
L 428 3347 
z
" transform="scale(0.015625)"/>
     <path id="Helvetica-6e" d="M 413 3347 
L 947 3347 
L 947 2872 
Q 1184 3166 1450 3294 
Q 1716 3422 2041 3422 
Q 2753 3422 3003 2925 
Q 3141 2653 3141 2147 
L 3141 0 
L 2569 0 
L 2569 2109 
Q 2569 2416 2478 2603 
Q 2328 2916 1934 2916 
Q 1734 2916 1606 2875 
Q 1375 2806 1200 2600 
Q 1059 2434 1017 2257 
Q 975 2081 975 1753 
L 975 0 
L 413 0 
L 413 3347 
z
M 1734 3428 
L 1734 3428 
z
" transform="scale(0.015625)"/>
     <path id="Helvetica-70" d="M 1825 378 
Q 2219 378 2480 708 
Q 2741 1038 2741 1694 
Q 2741 2094 2625 2381 
Q 2406 2934 1825 2934 
Q 1241 2934 1025 2350 
Q 909 2038 909 1556 
Q 909 1169 1025 897 
Q 1244 378 1825 378 
z
M 369 3331 
L 916 3331 
L 916 2888 
Q 1084 3116 1284 3241 
Q 1569 3428 1953 3428 
Q 2522 3428 2919 2992 
Q 3316 2556 3316 1747 
Q 3316 653 2744 184 
Q 2381 -113 1900 -113 
Q 1522 -113 1266 53 
Q 1116 147 931 375 
L 931 -1334 
L 369 -1334 
L 369 3331 
z
" transform="scale(0.015625)"/>
     <path id="Helvetica-74" d="M 525 4281 
L 1094 4281 
L 1094 3347 
L 1628 3347 
L 1628 2888 
L 1094 2888 
L 1094 703 
Q 1094 528 1213 469 
Q 1278 434 1431 434 
Q 1472 434 1519 436 
Q 1566 438 1628 444 
L 1628 0 
Q 1531 -28 1426 -40 
Q 1322 -53 1200 -53 
Q 806 -53 665 148 
Q 525 350 525 672 
L 525 2888 
L 72 2888 
L 72 3347 
L 525 3347 
L 525 4281 
z
" transform="scale(0.015625)"/>
     <path id="Helvetica-43" d="M 2422 4716 
Q 3294 4716 3775 4256 
Q 4256 3797 4309 3213 
L 3703 3213 
Q 3600 3656 3292 3915 
Q 2984 4175 2428 4175 
Q 1750 4175 1333 3698 
Q 916 3222 916 2238 
Q 916 1431 1292 929 
Q 1669 428 2416 428 
Q 3103 428 3463 956 
Q 3653 1234 3747 1688 
L 4353 1688 
Q 4272 963 3816 472 
Q 3269 -119 2341 -119 
Q 1541 -119 997 366 
Q 281 1006 281 2344 
Q 281 3359 819 4009 
Q 1400 4716 2422 4716 
z
M 2297 4716 
L 2297 4716 
z
" transform="scale(0.015625)"/>
     <path id="Helvetica-6d" d="M 413 3347 
L 969 3347 
L 969 2872 
Q 1169 3119 1331 3231 
Q 1609 3422 1963 3422 
Q 2363 3422 2606 3225 
Q 2744 3113 2856 2894 
Q 3044 3163 3297 3292 
Q 3550 3422 3866 3422 
Q 4541 3422 4784 2934 
Q 4916 2672 4916 2228 
L 4916 0 
L 4331 0 
L 4331 2325 
Q 4331 2659 4164 2784 
Q 3997 2909 3756 2909 
Q 3425 2909 3186 2687 
Q 2947 2466 2947 1947 
L 2947 0 
L 2375 0 
L 2375 2184 
Q 2375 2525 2294 2681 
Q 2166 2916 1816 2916 
Q 1497 2916 1236 2669 
Q 975 2422 975 1775 
L 975 0 
L 413 0 
L 413 3347 
z
" transform="scale(0.015625)"/>
    </defs>
    <use xlink:href="#Helvetica-4f"/>
    <use xlink:href="#Helvetica-76" x="77.783203"/>
    <use xlink:href="#Helvetica-69" x="127.783203"/>
    <use xlink:href="#Helvetica-49" x="150"/>
    <use xlink:href="#Helvetica-4e" x="177.783203"/>
    <use xlink:href="#Helvetica-72" x="250"/>
    <use xlink:href="#Helvetica-20" x="283.300781"/>
    <use xlink:href="#Helvetica-49" x="311.083984"/>
    <use xlink:href="#Helvetica-6e" x="338.867188"/>
    <use xlink:href="#Helvetica-70" x="394.482422"/>
    <use xlink:href="#Helvetica-75" x="450.097656"/>
    <use xlink:href="#Helvetica-74" x="505.712891"/>
    <use xlink:href="#Helvetica-20" x="533.496094"/>
    <use xlink:href="#Helvetica-43" x="561.279297"/>
    <use xlink:href="#Helvetica-6f" x="633.496094"/>
    <use xlink:href="#Helvetica-6e" x="689.111328"/>
    <use xlink:href="#Helvetica-6e" x="744.726562"/>
    <use xlink:href="#Helvetica-65" x="800.341797"/>
    <use xlink:href="#Helvetica-63" x="855.957031"/>
    <use xlink:href="#Helvetica-74" x="905.957031"/>
    <use xlink:href="#Helvetica-6f" x="933.740234"/>
    <use xlink:href="#Helvetica-6d" x="989.355469"/>
    <use xlink:href="#Helvetica-65" x="1072.65625"/>
   </g>
  </g>
 </g>
</svg>
